<svg width="40" height="40" viewBox="0 0 40 40" fill="none" xmlns="http://www.w3.org/2000/svg">
<path opacity="0.5" d="M3.33334 13.3333V19.9999C3.33334 24.714 3.33334 27.071 4.79781 28.5354C5.59173 29.3294 6.64796 29.6929 8.19984 29.8593C8.32317 29.6928 8.43992 29.5617 8.52321 29.4701C8.71682 29.2572 8.96232 29.0151 9.20034 28.7805L11.6885 26.3269L12.6074 25.396C13.2113 21.8585 16.291 19.1666 20.0001 19.1666C23.7092 19.1666 26.7889 21.8585 27.3928 25.396L28.3117 26.3269L30.8 28.7806C31.038 29.0152 31.2834 29.2572 31.477 29.4701C31.5603 29.5617 31.677 29.6928 31.8004 29.8593C33.3521 29.6929 34.4083 29.3293 35.2022 28.5355C36.6667 27.071 36.6667 24.714 36.6667 19.9999V13.3333C36.6667 8.61921 36.6667 6.26218 35.2022 4.79772C33.7377 3.33325 31.3807 3.33325 26.6667 3.33325H13.3333C8.6193 3.33325 6.26228 3.33325 4.79781 4.79772C3.33334 6.26219 3.33334 8.61921 3.33334 13.3333Z" fill="#C7781A"/>
<path d="M11.6667 14.5833C10.9763 14.5833 10.4167 15.143 10.4167 15.8333C10.4167 16.5237 10.9763 17.0833 11.6667 17.0833H28.3333C29.0237 17.0833 29.5833 16.5237 29.5833 15.8333C29.5833 15.143 29.0237 14.5833 28.3333 14.5833H11.6667Z" fill="#C7781A"/>
<path d="M13.75 10C13.75 9.30964 14.3096 8.75 15 8.75H25C25.6903 8.75 26.25 9.30964 26.25 10C26.25 10.6904 25.6903 11.25 25 11.25H15C14.3096 11.25 13.75 10.6904 13.75 10Z" fill="#C7781A"/>
<path d="M15.0019 26.5291C15.0006 26.5748 15 26.6207 15 26.6667C15 29.4282 17.2386 31.6667 20 31.6667C22.7614 31.6667 25 29.4282 25 26.6667C25 26.6207 24.9994 26.5748 24.9981 26.5291C24.9252 23.8313 22.7154 21.6667 20 21.6667C17.4112 21.6667 15.2819 23.6342 15.0258 26.1555C15.0133 26.2788 15.0053 26.4034 15.0019 26.5291Z" fill="#C7781A"/>
<path d="M12.7928 28.749L10.9921 30.5248C10.4519 31.0574 10.1819 31.3237 10.0884 31.5492C9.87548 32.0631 10.0577 32.6332 10.5214 32.9035C10.7249 33.0221 11.0919 33.0591 11.8259 33.133C12.2403 33.1748 12.4475 33.1957 12.6211 33.259C13.0097 33.4009 13.3119 33.6989 13.4558 34.0821C13.52 34.2532 13.5412 34.4576 13.5835 34.8662C13.6585 35.5901 13.696 35.952 13.8163 36.1526C14.0904 36.6098 14.6685 36.7895 15.1897 36.5795C15.4184 36.4874 15.6884 36.2211 16.2285 35.6885L18.0292 33.9051C15.5084 33.2204 13.5153 31.2541 12.7928 28.749Z" fill="#C7781A"/>
<path d="M21.9708 33.9051L23.7715 35.6885C24.3116 36.2211 24.5816 36.4874 24.8103 36.5795C25.3315 36.7895 25.9096 36.6098 26.1837 36.1526C26.304 35.952 26.3415 35.5901 26.4165 34.8662C26.4588 34.4576 26.48 34.2532 26.5442 34.0821C26.6881 33.6989 26.9903 33.4009 27.3789 33.259C27.5525 33.1957 27.7597 33.1748 28.1741 33.133C28.9081 33.0591 29.2751 33.0221 29.4786 32.9035C29.9423 32.6332 30.1245 32.0631 29.9116 31.5492C29.8181 31.3237 29.5481 31.0574 29.0079 30.5248L27.2072 28.749C26.4847 31.2541 24.4916 33.2204 21.9708 33.9051Z" fill="#C7781A"/>
</svg>
