<svg width="40" height="40" viewBox="0 0 40 40" fill="none" xmlns="http://www.w3.org/2000/svg">
<path opacity="0.4" d="M29.996 11.9333C29.896 11.9166 29.7794 11.9166 29.6794 11.9333C27.3794 11.8499 25.5461 9.96659 25.5461 7.63326C25.5461 5.24992 27.4627 3.33325 29.846 3.33325C32.2294 3.33325 34.146 5.26659 34.146 7.63326C34.1294 9.96659 32.296 11.8499 29.996 11.9333Z" fill="#C7781A" stroke="#C7781A" stroke-width="1.5" stroke-linecap="round" stroke-linejoin="round"/>
<g opacity="0.4">
<path d="M28.2792 24.0666C30.5625 24.4499 33.0792 24.0499 34.8458 22.8666C37.1958 21.2999 37.1958 18.7333 34.8458 17.1666C33.0625 15.9833 30.5125 15.5833 28.2292 15.9833" fill="#C7781A"/>
<path d="M28.2792 24.0666C30.5625 24.4499 33.0792 24.0499 34.8458 22.8666C37.1958 21.2999 37.1958 18.7333 34.8458 17.1666C33.0625 15.9833 30.5125 15.5833 28.2292 15.9833" stroke="#C7781A" stroke-width="1.5" stroke-linecap="round" stroke-linejoin="round"/>
</g>
<path opacity="0.4" d="M9.94584 11.9333C10.0458 11.9166 10.1625 11.9166 10.2625 11.9333C12.5625 11.8499 14.3958 9.96659 14.3958 7.63326C14.3958 5.24992 12.4792 3.33325 10.0958 3.33325C7.71251 3.33325 5.79584 5.26659 5.79584 7.63326C5.8125 9.96659 7.64584 11.8499 9.94584 11.9333Z" fill="#C7781A" stroke="#C7781A" stroke-width="1.5" stroke-linecap="round" stroke-linejoin="round"/>
<g opacity="0.4">
<path d="M11.6625 24.0666C9.37917 24.4499 6.86251 24.0499 5.09584 22.8666C2.74584 21.2999 2.74584 18.7333 5.09584 17.1666C6.87918 15.9833 9.42917 15.5833 11.7125 15.9833" fill="#C7781A"/>
<path d="M11.6625 24.0666C9.37917 24.4499 6.86251 24.0499 5.09584 22.8666C2.74584 21.2999 2.74584 18.7333 5.09584 17.1666C6.87918 15.9833 9.42917 15.5833 11.7125 15.9833" stroke="#C7781A" stroke-width="1.5" stroke-linecap="round" stroke-linejoin="round"/>
</g>
<path d="M20 24.3835C19.9 24.3668 19.7834 24.3668 19.6834 24.3835C17.3834 24.3001 15.55 22.4168 15.55 20.0834C15.55 17.7001 17.4667 15.7834 19.85 15.7834C22.2333 15.7834 24.15 17.7168 24.15 20.0834C24.1334 22.4168 22.3 24.3168 20 24.3835Z" stroke="#C7781A" stroke-width="1.5" stroke-linecap="round" stroke-linejoin="round"/>
<path d="M15.15 29.6333C12.8 31.2 12.8 33.7667 15.15 35.3333C17.8167 37.1167 22.1833 37.1167 24.85 35.3333C27.2 33.7667 27.2 31.2 24.85 29.6333C22.2 27.8667 17.8167 27.8667 15.15 29.6333Z" stroke="#C7781A" stroke-width="1.5" stroke-linecap="round" stroke-linejoin="round"/>
</svg>
