<svg width="40" height="40" viewBox="0 0 40 40" fill="none" xmlns="http://www.w3.org/2000/svg">
<path opacity="0.4" d="M36.9667 22.7668C36.7167 20.0168 35.9833 17.0835 30.6333 17.0835H9.36667C4.01667 17.0835 3.3 20.0168 3.03333 22.7668L2.1 32.9168C1.98333 34.1835 2.4 35.4502 3.26667 36.4002C4.15 37.3668 5.4 37.9168 6.73333 37.9168H9.86667C12.5667 37.9168 13.0833 36.3668 13.4167 35.3502L13.75 34.3502C14.1333 33.2002 14.2333 32.9168 15.7333 32.9168H24.2667C25.7667 32.9168 25.8167 33.0835 26.25 34.3502L26.5833 35.3502C26.9167 36.3668 27.4333 37.9168 30.1333 37.9168H33.2667C34.5833 37.9168 35.85 37.3668 36.7333 36.4002C37.6 35.4502 38.0167 34.1835 37.9 32.9168L36.9667 22.7668Z" fill="#C7781A"/>
<path d="M35 12.0835H33.3333C33.3167 12.0835 33.3167 12.0835 33.3 12.0835L32.6667 9.0668C32.0667 6.15013 30.8167 3.4668 25.85 3.4668H21.25H18.75H14.15C9.18333 3.4668 7.93333 6.15013 7.33333 9.0668L6.7 12.0835C6.68333 12.0835 6.68333 12.0835 6.66667 12.0835H5C4.31667 12.0835 3.75 12.6501 3.75 13.3335C3.75 14.0168 4.31667 14.5835 5 14.5835H6.18333L5.48333 17.9168C6.38333 17.4001 7.63333 17.0835 9.36667 17.0835H30.6333C32.3667 17.0835 33.6167 17.4001 34.5167 17.9168L33.8167 14.5835H35C35.6833 14.5835 36.25 14.0168 36.25 13.3335C36.25 12.6501 35.6833 12.0835 35 12.0835Z" fill="#C7781A"/>
<path d="M15 26.25H10C9.31667 26.25 8.75 25.6833 8.75 25C8.75 24.3167 9.31667 23.75 10 23.75H15C15.6833 23.75 16.25 24.3167 16.25 25C16.25 25.6833 15.6833 26.25 15 26.25Z" fill="#C7781A"/>
<path d="M30 26.25H25C24.3167 26.25 23.75 25.6833 23.75 25C23.75 24.3167 24.3167 23.75 25 23.75H30C30.6833 23.75 31.25 24.3167 31.25 25C31.25 25.6833 30.6833 26.25 30 26.25Z" fill="#C7781A"/>
</svg>
