<svg xmlns="http://www.w3.org/2000/svg" width="40" height="40" fill="none" viewBox="0 0 40 40"><path fill="#C7781A" d="M30 31.4334H28.7333C27.4 31.4334 26.1333 31.95 25.2 32.8834L22.35 35.7001C21.05 36.9834 18.9333 36.9834 17.6333 35.7001L14.7833 32.8834C13.85 31.95 12.5667 31.4334 11.25 31.4334H10C7.23333 31.4334 5 29.2168 5 26.4834V8.30005C5 5.56672 7.23333 3.3501 10 3.3501H30C32.7667 3.3501 35 5.56672 35 8.30005V26.4834C35 29.2001 32.7667 31.4334 30 31.4334Z" opacity=".4"/><path fill="#C7781A" d="M27.6333 15.9502C27.3167 15.5002 26.7833 15.2502 26.15 15.2502H22.9C22.6833 15.2502 22.4833 15.1669 22.35 15.0002C22.2167 14.8335 22.15 14.6169 22.1833 14.3835L22.5833 11.7836C22.75 11.0169 22.2333 10.1335 21.4667 9.88353C20.75 9.61686 19.9 9.9835 19.5667 10.4835L16.3333 15.2835V14.6835C16.3333 13.5169 15.8333 13.0336 14.6 13.0336H13.7833C12.55 13.0336 12.05 13.5169 12.05 14.6835V22.6503C12.05 23.8169 12.55 24.3002 13.7833 24.3002H14.6C15.7667 24.3002 16.2667 23.8502 16.3167 22.7835L18.7667 24.6669C19.1 25.0002 19.85 25.1835 20.3833 25.1835H23.4667C24.5333 25.1835 25.6 24.3835 25.8333 23.4002L27.7833 17.4668C28 16.9335 27.95 16.3836 27.6333 15.9502Z"/></svg>