<svg width="40" height="40" viewBox="0 0 40 40" fill="none" xmlns="http://www.w3.org/2000/svg">
<path opacity="0.4" d="M28.3333 12.9166C28.0167 12.9166 27.7 12.7999 27.45 12.5499C26.9667 12.0666 26.9667 11.2666 27.45 10.7833L30.8667 7.36658C27.9333 4.86658 24.15 3.33325 20 3.33325C10.8 3.33325 3.33334 10.7999 3.33334 19.9999C3.33334 29.1999 10.8 36.6666 20 36.6666C29.2 36.6666 36.6667 29.1999 36.6667 19.9999C36.6667 15.8499 35.1333 12.0666 32.6333 9.13326L29.2167 12.5499C28.9667 12.7999 28.65 12.9166 28.3333 12.9166Z" fill="#C7781A"/>
<path d="M22.9167 19.7L21.25 19.1167V15.4167H21.3833C22.2333 15.4167 22.9167 16.1667 22.9167 17.0833C22.9167 17.7667 23.4833 18.3333 24.1667 18.3333C24.85 18.3333 25.4167 17.7667 25.4167 17.0833C25.4167 14.7833 23.6166 12.9167 21.3833 12.9167H21.25V12.5C21.25 11.8167 20.6833 11.25 20 11.25C19.3167 11.25 18.75 11.8167 18.75 12.5V12.9167H18.25C16.2334 12.9167 14.5833 14.6167 14.5833 16.7167C14.5833 19.15 16 19.9333 17.0833 20.3167L18.75 20.9V24.6H18.6167C17.7667 24.6 17.0833 23.85 17.0833 22.9333C17.0833 22.25 16.5167 21.6833 15.8333 21.6833C15.15 21.6833 14.5833 22.25 14.5833 22.9333C14.5833 25.2333 16.3834 27.1 18.6167 27.1H18.75V27.5167C18.75 28.2 19.3167 28.7667 20 28.7667C20.6833 28.7667 21.25 28.2 21.25 27.5167V27.1H21.75C23.7666 27.1 25.4167 25.4 25.4167 23.3C25.4167 20.85 24 20.0667 22.9167 19.7ZM17.9 17.9333C17.3333 17.7333 17.0833 17.6167 17.0833 16.7C17.0833 15.9833 17.6167 15.4 18.25 15.4H18.75V18.2167L17.9 17.9333ZM21.75 24.5833H21.25V21.7667L22.1 22.0667C22.6667 22.2667 22.9167 22.3833 22.9167 23.3C22.9167 24 22.3833 24.5833 21.75 24.5833Z" fill="#C7781A"/>
<path d="M37.8167 2.84999C37.6833 2.54999 37.45 2.29999 37.1333 2.16666C36.9833 2.09999 36.8166 2.06665 36.65 2.06665H29.9833C29.3 2.06665 28.7333 2.63332 28.7333 3.31665C28.7333 3.99998 29.3 4.56665 29.9833 4.56665H33.6333L30.85 7.34999C31.4833 7.89999 32.0667 8.48332 32.6167 9.11666L35.4 6.33333V9.99999C35.4 10.6833 35.9666 11.25 36.65 11.25C37.3333 11.25 37.9 10.6833 37.9 9.99999V3.33332C37.9166 3.16665 37.8833 3.01665 37.8167 2.84999Z" fill="#C7781A"/>
</svg>
