<svg width="40" height="40" viewBox="0 0 40 40" fill="none" xmlns="http://www.w3.org/2000/svg">
<path d="M34.4666 23.1834V23.1667C33 21.6167 30.95 20.6667 28.6667 20.6667C24.25 20.6667 20.6667 24.2501 20.6667 28.6668C20.6667 30.7168 21.45 32.5834 22.7167 34.0001C24.1833 35.6334 26.3 36.6668 28.6667 36.6668C33.0833 36.6668 36.6666 33.0834 36.6666 28.6668C36.6666 26.5501 35.8333 24.6168 34.4666 23.1834ZM31.65 30.0168H29.9167V31.8334C29.9167 32.5168 29.35 33.0834 28.6667 33.0834C27.9833 33.0834 27.4167 32.5168 27.4167 31.8334V30.0168H25.6833C24.9833 30.0168 24.4333 29.4668 24.4333 28.7668C24.4333 28.0834 24.9667 27.5334 25.6667 27.5168H27.4167V25.8501C27.4167 25.8168 27.4167 25.7834 27.4334 25.7501C27.4667 25.1168 28.0167 24.6001 28.6667 24.6001C29.3333 24.6001 29.8833 25.1334 29.9167 25.8001V27.5168H31.65C32.35 27.5168 32.9 28.0834 32.9 28.7668C32.9 29.4668 32.35 30.0168 31.65 30.0168Z" fill="#C7781A"/>
<path opacity="0.4" d="M36.6667 14.4834C36.6667 16.4667 36.35 18.3001 35.8 20.0001C35.45 21.1167 35 22.1834 34.4667 23.1667C33 21.6167 30.95 20.6667 28.6667 20.6667C24.25 20.6667 20.6667 24.2501 20.6667 28.6668C20.6667 30.7168 21.45 32.5834 22.7167 34.0001C22.1 34.2834 21.5333 34.5167 21.0333 34.6834C20.4667 34.8834 19.5334 34.8834 18.9667 34.6834C14.95 33.3167 6.83338 28.3334 4.20004 20.0001C3.65004 18.3001 3.33334 16.4667 3.33334 14.4834C3.33334 9.33341 7.48334 5.16675 12.6 5.16675C15.6167 5.16675 18.3167 6.63338 20 8.88338C21.6833 6.63338 24.3833 5.16675 27.4 5.16675C32.5167 5.16675 36.6667 9.33341 36.6667 14.4834Z" fill="#C7781A"/>
</svg>
