<svg width="41" height="41" viewBox="0 0 41 41" fill="none" xmlns="http://www.w3.org/2000/svg">
<path d="M18.1169 27.9125C18.1247 27.7294 18.428 27.6567 18.5179 27.8164C18.9401 28.5659 19.6604 29.6681 20.4776 30.1693C21.2949 30.6705 22.6039 30.8127 23.4634 30.8492C23.6465 30.8569 23.7192 31.1602 23.5595 31.2502C22.81 31.6724 21.7077 32.3926 21.2066 33.2099C20.7054 34.0271 20.5632 35.3361 20.5267 36.1956C20.5189 36.3787 20.2156 36.4514 20.1257 36.2917C19.7035 35.5422 18.9833 34.44 18.166 33.9388C17.3487 33.4376 16.0397 33.2954 15.1803 33.2589C14.9972 33.2512 14.9245 32.9479 15.0841 32.8579C15.8336 32.4357 16.9359 31.7155 17.4371 30.8982C17.9383 30.081 18.0805 28.772 18.1169 27.9125Z" fill="#E9C9A3"/>
<path d="M31.8087 26.2457C31.7946 26.063 31.4749 25.9864 31.3795 26.1428C31.0923 26.6137 30.6782 27.182 30.2179 27.4642C29.7576 27.7465 29.0633 27.858 28.5134 27.9004C28.3307 27.9145 28.2541 28.2343 28.4105 28.3297C28.8814 28.6169 29.4497 29.031 29.7319 29.4913C30.0142 29.9516 30.1257 30.6458 30.1681 31.1957C30.1822 31.3784 30.502 31.4551 30.5974 31.2986C30.8846 30.8278 31.2987 30.2595 31.759 29.9772C32.2193 29.6949 32.9135 29.5835 33.4634 29.541C33.6461 29.5269 33.7228 29.2072 33.5663 29.1118C33.0955 28.8246 32.5272 28.4105 32.2449 27.9502C31.9626 27.4899 31.8512 26.7956 31.8087 26.2457Z" fill="#C7781A"/>
<path d="M25.4946 7.05709L25.0908 6.54696C23.5297 4.57517 22.7492 3.58927 21.8411 3.73481C20.933 3.88035 20.4988 5.06094 19.6304 7.42212L19.4057 8.03298C19.159 8.70395 19.0356 9.03944 18.7989 9.28568C18.5623 9.53191 18.2392 9.66103 17.593 9.91925L17.0046 10.1543L16.5915 10.3196C14.5923 11.1217 13.585 11.5763 13.4563 12.4595C13.3191 13.4016 14.2726 14.2075 16.1797 15.8193L16.673 16.2363C17.2149 16.6944 17.4859 16.9234 17.6412 17.2355C17.7965 17.5477 17.8187 17.9076 17.8629 18.6275L17.9031 19.283C18.0588 21.8164 18.1366 23.0831 18.9599 23.5198C19.7831 23.9565 20.8066 23.274 22.8536 21.909L22.8536 21.909L23.3832 21.5558C23.9649 21.1679 24.2558 20.974 24.5884 20.9207C24.9211 20.8673 25.2578 20.9607 25.9314 21.1474L26.5446 21.3174C28.9148 21.9744 30.1 22.3029 30.746 21.6307C31.392 20.9586 31.071 19.7308 30.4292 17.2754L30.2631 16.6401C30.0807 15.9423 29.9895 15.5935 30.0397 15.2484C30.09 14.9033 30.276 14.601 30.6481 13.9965L30.6481 13.9965L30.9868 13.4461C32.2961 11.3188 32.9507 10.2551 32.5267 9.40298C32.1027 8.55083 30.8808 8.47456 28.4371 8.32201L27.8049 8.28254C27.1104 8.23919 26.7632 8.21751 26.4616 8.05754C26.1601 7.89757 25.9383 7.61741 25.4947 7.05709L25.4946 7.05709Z" fill="#C7781A"/>
<path d="M15.7131 22.5979C12.151 24.3382 9.18697 27.0945 8.06885 30.3881C6.8146 22.5422 8.55439 17.4755 11.3433 14.3266C11.5836 14.8178 11.8959 15.2245 12.1764 15.5423C12.7596 16.203 13.5968 16.9103 14.4468 17.6284L15.0585 18.1454C15.1745 18.2434 15.2647 18.3197 15.3414 18.3859C15.3492 18.4931 15.3569 18.6183 15.3669 18.7806L15.4166 19.5897C15.4834 20.6813 15.5486 21.747 15.7131 22.5979Z" fill="#C7781A"/>
</svg>
