<svg width="48" height="48" viewBox="0 0 48 48" fill="none" xmlns="http://www.w3.org/2000/svg">
<path d="M10.8699 33.42V17.29H5.99992C5.57814 17.2978 5.1763 17.4709 4.88082 17.772C4.58535 18.0731 4.41985 18.4781 4.41992 18.9V32.42C4.41992 32.6852 4.52528 32.9395 4.71281 33.1271C4.90035 33.3146 5.15471 33.42 5.41992 33.42H10.8699Z" fill="#F9CE55"/>
<path d="M10.8701 33.42V14.17C10.8728 13.7421 11.0446 13.3326 11.3481 13.0309C11.6516 12.7293 12.0622 12.56 12.4901 12.56H17.3301V33.42" fill="#ACABB1"/>
<path d="M17.3301 33.42V9.26997C17.3301 8.84298 17.4997 8.43347 17.8016 8.13153C18.1036 7.8296 18.5131 7.65997 18.9401 7.65997H23.7801V33.42" fill="#9CE2AB"/>
<path d="M23.7798 33.4V4.39998C23.7824 3.97206 23.9543 3.56257 24.2578 3.26092C24.5613 2.95927 24.9719 2.78997 25.3998 2.78998H28.6298C29.0568 2.78998 29.4663 2.9596 29.7682 3.26154C30.0702 3.56347 30.2398 3.97298 30.2398 4.39998V33.4" fill="#5B5B5F"/>
<path d="M30.1298 45C37.4807 45 43.4398 39.0409 43.4398 31.69C43.4398 24.3391 37.4807 18.38 30.1298 18.38C22.7789 18.38 16.8198 24.3391 16.8198 31.69C16.8198 39.0409 22.7789 45 30.1298 45Z" fill="#F9CE55"/>
<path d="M30.1202 30.67C28.4002 30.27 27.5602 29.39 27.6302 28.05C27.6571 27.6656 27.8329 27.3068 28.1202 27.05C30.7502 24.88 33.1802 27.55 33.4502 27.86C33.523 27.9448 33.6119 28.0144 33.7116 28.0648C33.8114 28.1153 33.9201 28.1455 34.0315 28.1539C34.143 28.1623 34.255 28.1485 34.3612 28.1136C34.4673 28.0786 34.5656 28.023 34.6502 27.95C34.7347 27.8781 34.8041 27.7901 34.8544 27.6912C34.9047 27.5923 34.9349 27.4844 34.9433 27.3737C34.9516 27.2631 34.938 27.1519 34.9032 27.0466C34.8683 26.9412 34.8129 26.8438 34.7402 26.76C33.8279 25.6912 32.5982 24.9415 31.2302 24.62V22.4C31.2302 22.1746 31.1407 21.9584 30.9813 21.7989C30.8218 21.6395 30.6056 21.55 30.3802 21.55C30.1548 21.55 29.9386 21.6395 29.7792 21.7989C29.6198 21.9584 29.5302 22.1746 29.5302 22.4V24.57C28.5945 24.7297 27.7199 25.1411 27.0002 25.76C26.6813 26.0423 26.4229 26.3864 26.2407 26.7714C26.0585 27.1564 25.9563 27.5743 25.9402 28C25.8802 29 26.1402 31.54 29.7902 32.38C29.7902 32.38 33.5302 33.03 33.5502 35.03C33.5529 35.6813 33.3101 36.3097 32.8702 36.79C32.4796 37.1116 32.0261 37.3481 31.5387 37.4841C31.0514 37.6202 30.5409 37.6528 30.0402 37.58C29.4388 37.5406 28.8547 37.3621 28.3341 37.0584C27.8134 36.7547 27.3705 36.3342 27.0402 35.83C26.9746 35.7381 26.8914 35.66 26.7956 35.6002C26.6997 35.5404 26.5931 35.5 26.4816 35.4815C26.3702 35.4629 26.2562 35.4664 26.1462 35.4919C26.0361 35.5174 25.9321 35.5643 25.8402 35.63C25.7483 35.6957 25.6702 35.7788 25.6104 35.8746C25.5506 35.9705 25.5103 36.0771 25.4917 36.1886C25.4731 36.3 25.4767 36.414 25.5022 36.5241C25.5276 36.6341 25.5746 36.7381 25.6402 36.83C26.0829 37.4905 26.6599 38.0501 27.3337 38.4723C28.0075 38.8945 28.7628 39.1697 29.5502 39.28V41.41C29.5502 41.6354 29.6398 41.8516 29.7992 42.011C29.9586 42.1704 30.1748 42.26 30.4002 42.26C30.6256 42.26 30.8418 42.1704 31.0013 42.011C31.1607 41.8516 31.2502 41.6354 31.2502 41.41V39.19C32.3018 39.1283 33.3005 38.7083 34.0802 38C34.8379 37.1854 35.2563 36.1125 35.2502 35C35.2102 31.52 30.2702 30.69 30.1202 30.67Z" fill="#211915"/>
<path d="M31.1201 17.72V3.07998C31.1201 2.85455 31.0305 2.63835 30.8711 2.47894C30.7117 2.31953 30.4955 2.22998 30.2701 2.22998H23.8201C23.5947 2.22998 23.3785 2.31953 23.2191 2.47894C23.0597 2.63835 22.9701 2.85455 22.9701 3.07998V7.19998H17.3601C17.1364 7.19997 16.9217 7.28814 16.7626 7.44539C16.6034 7.60264 16.5127 7.81628 16.5101 8.03998V12.04H10.9101C10.6847 12.04 10.4685 12.1295 10.3091 12.2889C10.1497 12.4483 10.0601 12.6645 10.0601 12.89V16.77H4.4501C4.22466 16.77 4.00846 16.8595 3.84906 17.0189C3.68965 17.1783 3.6001 17.3945 3.6001 17.62V33.72C3.6001 33.9454 3.68965 34.1616 3.84906 34.321C4.00846 34.4804 4.22466 34.57 4.4501 34.57H16.3401C16.848 37.1675 18.0738 39.5706 19.8783 41.5067C21.6828 43.4429 23.9939 44.8345 26.5492 45.5238C29.1046 46.2131 31.802 46.1724 34.3353 45.4063C36.8687 44.6402 39.1367 43.1795 40.882 41.1898C42.6273 39.2001 43.78 36.7611 44.2093 34.1494C44.6387 31.5378 44.3275 28.8581 43.311 26.4144C42.2946 23.9707 40.6136 21.8607 38.4588 20.324C36.304 18.7872 33.7616 17.8851 31.1201 17.72ZM24.6701 3.92998H29.4201V17.72C27.7846 17.806 26.1769 18.1783 24.6701 18.82V3.92998ZM23.0001 8.89998V19.71C21.0169 20.8966 19.355 22.5517 18.1601 24.53L18.2101 8.89998H23.0001ZM10.0601 18.43V32.86H5.3001V18.43H10.0601ZM11.7601 32.86V13.7H16.4801C16.4801 13.7 16.4301 28.63 16.4801 28.7C16.1771 30.0679 16.0694 31.4718 16.1601 32.87L11.7601 32.86ZM30.2401 44.3C27.7757 44.3 25.3667 43.5692 23.3177 42.2001C21.2687 40.831 19.6716 38.885 18.7286 36.6082C17.7855 34.3314 17.5387 31.8262 18.0195 29.4092C18.5003 26.9922 19.687 24.772 21.4295 23.0294C23.1721 21.2869 25.3923 20.1002 27.8093 19.6194C30.2263 19.1386 32.7316 19.3854 35.0083 20.3284C37.2851 21.2715 39.2311 22.8685 40.6002 24.9176C41.9693 26.9666 42.7001 29.3756 42.7001 31.84C42.6948 35.143 41.3804 38.3091 39.0448 40.6447C36.7093 42.9802 33.5431 44.2947 30.2401 44.3Z" fill="#211915"/>
</svg>
