<svg width="48" height="48" viewBox="0 0 48 48" fill="none" xmlns="http://www.w3.org/2000/svg">
<path d="M23.25 15.75H42.75V17.25H23.25V15.75Z" fill="#121212"/>
<path d="M14.25 15.75C13.3444 15.5236 12.4214 15.3731 11.4908 15.3C12.2367 14.907 12.8283 14.2738 13.1697 13.5029C13.5112 12.7319 13.5825 11.8683 13.3721 11.0518C13.1618 10.2353 12.6821 9.51367 12.0107 9.00365C11.3392 8.49362 10.5154 8.22506 9.67235 8.24143C8.82934 8.25779 8.01651 8.55812 7.36539 9.09382C6.71426 9.62951 6.26294 10.3692 6.08444 11.1933C5.90594 12.0174 6.01071 12.8775 6.38179 13.6347C6.75288 14.3918 7.36858 15.0015 8.12925 15.3653C7.17289 15.4769 6.22791 15.6706 5.30475 15.9443L4.89525 16.0673C4.1302 16.2968 3.45959 16.7669 2.98303 17.4079C2.50648 18.0489 2.24941 18.8265 2.25 19.6253V28.5H4.5L5.25 18.75V39.75H14.25V18.75L24 18V15.75H14.25Z" fill="#EC942C"/>
<path d="M26.4 37.8803C26.7558 37.6381 27.0474 37.3132 27.2499 36.9334C27.4524 36.5536 27.5597 36.1304 27.5625 35.7C27.5334 34.9736 27.2244 34.2865 26.7001 33.7828C26.1759 33.2791 25.477 32.9978 24.75 32.9978C24.023 32.9978 23.3241 33.2791 22.7999 33.7828C22.2756 34.2865 21.9666 34.9736 21.9375 35.7C21.9403 36.1304 22.0476 36.5536 22.2501 36.9334C22.4526 37.3132 22.7442 37.6381 23.1 37.8803C22.48 38.1617 21.9531 38.6141 21.5812 39.1844C21.2092 39.7547 21.0076 40.4192 21 41.1V46.5H28.5V41.1C28.4924 40.4192 28.2908 39.7547 27.9188 39.1844C27.5469 38.6141 27.02 38.1617 26.4 37.8803Z" fill="#F99621"/>
<path d="M1.5 39.75H18V46.5H1.5V39.75Z" fill="#656565"/>
<path d="M5.64525 16.0703L6.05475 15.9473C6.97791 15.6736 7.92289 15.4799 8.87925 15.3683C8.14195 15.0182 7.53987 14.4359 7.16538 13.7107C6.79089 12.9854 6.66468 12.1574 6.8061 11.3536C6.94753 10.5497 7.34878 9.81447 7.9483 9.26062C8.54782 8.70678 9.31249 8.36492 10.125 8.28751C10.0007 8.2686 9.87556 8.25608 9.75 8.25001C8.90085 8.24847 8.07644 8.53581 7.4122 9.06481C6.74797 9.59382 6.28342 10.333 6.09488 11.161C5.90635 11.9889 6.00504 12.8564 6.37474 13.6208C6.74444 14.3853 7.36316 15.0012 8.12925 15.3675C7.17289 15.4792 6.22791 15.6729 5.30475 15.9465L4.89525 16.0695C4.13057 16.2989 3.46022 16.7687 2.9837 17.4093C2.50718 18.0498 2.24989 18.8269 2.25 19.6253V28.5H3V19.6253C3.00005 18.827 3.25742 18.0501 3.73393 17.4097C4.21044 16.7693 4.88069 16.2996 5.64525 16.0703Z" fill="#FFD8A9"/>
<path d="M19.5 1.5V4.5L15 9.75L19.5 7.5V11.25H32.25V1.5H19.5Z" fill="#DECCB6"/>
<path d="M23.25 6L25.5 8.25L29.25 4.5" fill="#DECCB6"/>
<path d="M25.5 8.99998C25.3011 8.99993 25.1103 8.92089 24.9697 8.78023L22.7197 6.53023L23.7802 5.46973L25.5 7.18948L28.7197 3.96973L29.7802 5.03023L26.0302 8.78023C25.8896 8.92089 25.6989 8.99993 25.5 8.99998Z" fill="#F4992D"/>
<path d="M9 27.75H10.5V39.75H9V27.75Z" fill="#5B5B5B"/>
<path d="M24.0413 37.8802C23.6848 37.6384 23.3924 37.3137 23.1893 36.9339C22.9861 36.5541 22.8783 36.1306 22.875 35.6999C22.8863 35.051 23.1284 34.4274 23.5579 33.9408C23.9875 33.4543 24.5763 33.1367 25.2188 33.0449C25.064 33.0173 24.9072 33.0023 24.75 32.9999C24.0191 32.9853 23.3122 33.2614 22.7848 33.7677C22.2574 34.274 21.9527 34.969 21.9375 35.6999C21.9403 36.1303 22.0476 36.5535 22.2501 36.9333C22.4526 37.3131 22.7442 37.638 23.1 37.8802C22.48 38.1616 21.9531 38.614 21.5812 39.1843C21.2092 39.7546 21.0076 40.4191 21 41.0999V46.4999H21.9375V41.0999C21.9454 40.4187 22.1476 39.7539 22.5202 39.1835C22.8929 38.6132 23.4206 38.1611 24.0413 37.8802Z" fill="#FFC683"/>
<path d="M35.4 37.8803C35.7558 37.6381 36.0474 37.3132 36.2499 36.9334C36.4524 36.5536 36.5597 36.1304 36.5625 35.7C36.5334 34.9736 36.2244 34.2865 35.7001 33.7828C35.1759 33.2791 34.477 32.9978 33.75 32.9978C33.023 32.9978 32.3241 33.2791 31.7999 33.7828C31.2756 34.2865 30.9666 34.9736 30.9375 35.7C30.9403 36.1304 31.0476 36.5536 31.2501 36.9334C31.4526 37.3132 31.7442 37.6381 32.1 37.8803C31.48 38.1617 30.9531 38.6141 30.5812 39.1844C30.2092 39.7547 30.0076 40.4192 30 41.1V46.5H37.5V41.1C37.4924 40.4192 37.2908 39.7547 36.9188 39.1844C36.5469 38.6141 36.02 38.1617 35.4 37.8803Z" fill="#F99621"/>
<path d="M33.0413 37.8802C32.6848 37.6384 32.3924 37.3137 32.1893 36.9339C31.9861 36.5541 31.8783 36.1306 31.875 35.6999C31.8863 35.051 32.1284 34.4274 32.5579 33.9408C32.9875 33.4543 33.5763 33.1367 34.2188 33.0449C34.064 33.0173 33.9072 33.0023 33.75 32.9999C33.0191 32.9853 32.3122 33.2614 31.7848 33.7677C31.2574 34.274 30.9527 34.969 30.9375 35.6999C30.9403 36.1303 31.0476 36.5535 31.2501 36.9333C31.4526 37.3131 31.7442 37.638 32.1 37.8802C31.48 38.1616 30.9531 38.614 30.5812 39.1843C30.2092 39.7546 30.0076 40.4191 30 41.0999V46.4999H30.9375V41.0999C30.9454 40.4187 31.1476 39.7539 31.5202 39.1835C31.8929 38.6132 32.4206 38.1611 33.0413 37.8802Z" fill="#FFC683"/>
<path d="M44.4 37.8803C44.7558 37.6381 45.0474 37.3132 45.2499 36.9334C45.4524 36.5536 45.5597 36.1304 45.5625 35.7C45.5334 34.9736 45.2244 34.2865 44.7001 33.7828C44.1759 33.2791 43.477 32.9978 42.75 32.9978C42.023 32.9978 41.3241 33.2791 40.7999 33.7828C40.2756 34.2865 39.9666 34.9736 39.9375 35.7C39.9403 36.1304 40.0476 36.5536 40.2501 36.9334C40.4526 37.3132 40.7442 37.6381 41.1 37.8803C40.48 38.1617 39.9531 38.6141 39.5812 39.1844C39.2092 39.7547 39.0076 40.4192 39 41.1V46.5H46.5V41.1C46.4924 40.4192 46.2908 39.7547 45.9188 39.1844C45.5469 38.6141 45.02 38.1617 44.4 37.8803Z" fill="#F99621"/>
<path d="M42.0413 37.8802C41.6848 37.6384 41.3924 37.3137 41.1893 36.9339C40.9861 36.5541 40.8783 36.1306 40.875 35.6999C40.8863 35.051 41.1284 34.4274 41.5579 33.9408C41.9875 33.4543 42.5763 33.1367 43.2188 33.0449C43.064 33.0173 42.9072 33.0023 42.75 32.9999C42.0191 32.9853 41.3122 33.2614 40.7848 33.7677C40.2574 34.274 39.9527 34.969 39.9375 35.6999C39.9403 36.1303 40.0476 36.5535 40.2501 36.9333C40.4526 37.3131 40.7442 37.638 41.1 37.8802C40.48 38.1616 39.9531 38.614 39.5812 39.1843C39.2092 39.7546 39.0076 40.4191 39 41.0999V46.4999H39.9375V41.0999C39.9454 40.4187 40.1476 39.7539 40.5202 39.1835C40.8929 38.6132 41.4206 38.1611 42.0413 37.8802Z" fill="#FFC683"/>
</svg>
