<svg width="49" height="48" viewBox="0 0 49 48" fill="none" xmlns="http://www.w3.org/2000/svg">
<path d="M23.9061 2.5412C19.735 2.66044 15.7717 4.38896 12.8464 7.36476C9.92114 10.3406 8.26071 14.3328 8.21289 18.5054V19.1517C8.42609 24.8889 10.671 30.3638 14.547 34.5991L14.8757 37.3257H34.124L34.4527 34.5991C38.3287 30.3638 40.5736 24.8889 40.7868 19.1517V18.1315C40.7868 9.32694 33.1719 2.22657 23.9061 2.5412Z" fill="#FFE35B"/>
<path d="M24.2926 2.53528V7.71305H22.8119C22.2229 7.71305 21.658 7.94704 21.2415 8.36355C20.825 8.78006 20.591 9.34497 20.591 9.934C20.591 10.523 20.825 11.0879 21.2415 11.5044C21.658 11.921 22.2229 12.1549 22.8119 12.1549H24.2926V21.7791H30.2151V21.0387C30.2151 20.4497 30.4491 19.8848 30.8656 19.4683C31.2821 19.0518 31.847 18.8178 32.436 18.8178C33.0251 18.8178 33.59 19.0518 34.0065 19.4683C34.423 19.8848 34.657 20.4497 34.657 21.0387V21.7791H40.3708C40.504 20.9093 40.5735 20.0309 40.5788 19.1509V18.1315C40.5788 9.51572 33.2874 2.53602 24.2926 2.53528ZM25.7732 26.221H24.2926V21.7791H19.1103V22.8895C19.1103 23.5767 18.8374 24.2358 18.3514 24.7217C17.8655 25.2077 17.2064 25.4806 16.5192 25.4806C15.832 25.4806 15.173 25.2077 14.6871 24.7217C14.2011 24.2358 13.9281 23.5767 13.9281 22.8895V21.7791H8.21289C8.95432 26.5605 11.0846 31.0185 14.339 34.5991L14.6677 37.3257H24.2918V30.6629H25.7725C26.3615 30.6629 26.9264 30.4289 27.3429 30.0124C27.7594 29.5958 27.9934 29.0309 27.9934 28.4419C27.9934 27.8529 27.7594 27.288 27.3429 26.8715C26.9264 26.455 26.3622 26.221 25.7732 26.221Z" fill="#FFEFA6"/>
<path d="M16.7268 28.4419H19.688C20.1789 28.4419 20.6496 28.6369 20.9967 28.984C21.3438 29.3311 21.5388 29.8018 21.5388 30.2927C21.5388 30.7835 21.3438 31.2543 20.9967 31.6014C20.6496 31.9485 20.1789 32.1435 19.688 32.1435H19.3179V34.3644L17.0969 32.1435H16.7268C16.2359 32.1435 15.7652 31.9485 15.4181 31.6014C15.071 31.2543 14.876 30.7835 14.876 30.2927C14.876 29.8018 15.071 29.3311 15.4181 28.984C15.7652 28.6369 16.2359 28.4419 16.7268 28.4419Z" fill="#398ECC"/>
<path d="M16.3564 11.4146L17.2299 14.2426H20.0579L17.7704 15.9898L18.6439 18.8178L16.3564 17.0699L14.0688 18.8178L14.9424 15.9898L12.6548 14.2426H15.4828L16.3564 11.4146ZM31.4847 9.77483L31.0354 10.2427L30.5867 9.77483C30.4136 9.59118 30.2048 9.44486 29.9731 9.34484C29.7414 9.24483 29.4917 9.19324 29.2394 9.19324C28.987 9.19324 28.7373 9.24483 28.5056 9.34484C28.2739 9.44486 28.0651 9.59118 27.892 9.77483C27.5334 10.1542 27.3335 10.6564 27.3335 11.1785C27.3335 11.7005 27.5334 12.2027 27.892 12.5821L31.0354 15.8565L34.1795 12.5821C34.5381 12.2027 34.7379 11.7005 34.7379 11.1785C34.7379 10.6564 34.5381 10.1542 34.1795 9.77483C34.0064 9.59118 33.7976 9.44486 33.5659 9.34484C33.3342 9.24483 33.0845 9.19324 32.8321 9.19324C32.5797 9.19324 32.33 9.24483 32.0983 9.34484C31.8666 9.44486 31.6578 9.59118 31.4847 9.77483Z" fill="#FF6B6B"/>
<path d="M16.3564 41.7676V43.2482C16.3564 43.8372 16.5904 44.4021 17.0069 44.8187C17.4235 45.2352 17.9884 45.4692 18.5774 45.4692H30.4225C31.0115 45.4692 31.5764 45.2352 31.9929 44.8187C32.4094 44.4021 32.6434 43.8372 32.6434 43.2482V41.7676H16.3564Z" fill="#A1A6A6"/>
<path d="M33.3836 37.3257H15.616C15.0269 37.3257 14.462 37.5597 14.0455 37.9762C13.629 38.3927 13.395 38.9576 13.395 39.5466C13.395 40.1357 13.629 40.7006 14.0455 41.1171C14.462 41.5336 15.0269 41.7676 15.616 41.7676H33.3836C33.9726 41.7676 34.5375 41.5336 34.954 41.1171C35.3705 40.7006 35.6045 40.1357 35.6045 39.5466C35.6045 38.9576 35.3705 38.3927 34.954 37.9762C34.5375 37.5597 33.9726 37.3257 33.3836 37.3257Z" fill="#C8CECE"/>
<path d="M23.881 1.80086C14.8329 2.10883 7.47266 9.60231 7.47266 18.5054V19.1517C7.47266 24.5034 10.0245 30.8087 13.8416 34.9285L14.0933 37.0199C13.538 37.3518 13.1071 37.8569 12.8667 38.4575C12.6263 39.0581 12.5898 39.721 12.7628 40.3444C12.9358 40.9678 13.3086 41.5171 13.8241 41.908C14.3396 42.2988 14.9692 42.5096 15.6161 42.5079V43.2482C15.6169 44.0333 15.9292 44.7861 16.4843 45.3413C17.0395 45.8965 17.7923 46.2087 18.5774 46.2095H30.4225C31.2076 46.2087 31.9604 45.8965 32.5155 45.3413C33.0707 44.7861 33.3829 44.0333 33.3837 43.2482V42.5079C34.0307 42.5096 34.6602 42.2988 35.1757 41.908C35.6912 41.5171 36.0641 40.9678 36.2371 40.3444C36.4101 39.721 36.3736 39.0581 36.1332 38.4575C35.8928 37.8569 35.4619 37.3518 34.9066 37.0199L35.1583 34.9285C38.9753 30.8087 41.5272 24.5034 41.5272 19.1517V18.1315C41.5251 15.9777 41.0858 13.8467 40.2358 11.8676C39.3859 9.88859 38.1431 8.10268 36.5826 6.6181C34.8932 5.00936 32.8994 3.7545 30.7181 2.92724C28.5369 2.09998 26.2123 1.71702 23.881 1.80086ZM8.95329 18.5054C8.95329 10.4485 15.5806 3.66572 23.7596 3.29556V6.97271H23.0193C22.2339 6.97271 21.4807 7.2847 20.9254 7.84004C20.37 8.39539 20.058 9.1486 20.058 9.93398C20.058 10.7194 20.37 11.4726 20.9254 12.0279C21.4807 12.5833 22.2339 12.8952 23.0193 12.8952H23.7596V21.0387H19.3177C19.1214 21.0387 18.9331 21.1167 18.7942 21.2556C18.6554 21.3944 18.5774 21.5827 18.5774 21.779V22.8895C18.5774 23.3804 18.3824 23.8511 18.0353 24.1982C17.6882 24.5453 17.2175 24.7403 16.7266 24.7403C16.2358 24.7403 15.765 24.5453 15.4179 24.1982C15.0708 23.8511 14.8758 23.3804 14.8758 22.8895V21.779C14.8758 21.5827 14.7978 21.3944 14.659 21.2556C14.5202 21.1167 14.3318 21.0387 14.1355 21.0387H9.06582C8.99256 20.4121 8.95499 19.7818 8.95329 19.1509V18.5054ZM15.2823 34.511C15.263 34.3526 15.1932 34.2046 15.0831 34.089C12.14 30.8294 10.1403 26.8297 9.29902 22.5194H13.3952V22.8895C13.3952 23.7731 13.7462 24.6204 14.3709 25.2452C14.9957 25.8699 15.8431 26.2209 16.7266 26.2209C17.6102 26.2209 18.4575 25.8699 19.0823 25.2452C19.707 24.6204 20.058 23.7731 20.058 22.8895V22.5194H23.7596V26.2209C23.7596 26.4173 23.8376 26.6056 23.9764 26.7444C24.1153 26.8833 24.3036 26.9613 24.4999 26.9613H25.9806C26.3733 26.9613 26.7499 27.1172 27.0275 27.3949C27.3052 27.6726 27.4612 28.0492 27.4612 28.4419C27.4612 28.8346 27.3052 29.2112 27.0275 29.4889C26.7499 29.7665 26.3733 29.9225 25.9806 29.9225H24.4999C24.3036 29.9225 24.1153 30.0005 23.9764 30.1394C23.8376 30.2782 23.7596 30.4665 23.7596 30.6628V36.5854H15.6161C15.588 36.5854 15.5614 36.5928 15.5332 36.5935L15.2823 34.511ZM31.9031 43.2482C31.9027 43.6408 31.7466 44.0172 31.469 44.2947C31.1914 44.5723 30.815 44.7285 30.4225 44.7288H18.5774C18.1848 44.7285 17.8085 44.5723 17.5309 44.2947C17.2533 44.0172 17.0972 43.6408 17.0968 43.2482V42.5079H31.9031V43.2482ZM33.3837 41.0273H15.6161C15.2234 41.0273 14.8468 40.8713 14.5692 40.5936C14.2915 40.3159 14.1355 39.9393 14.1355 39.5466C14.1355 39.1539 14.2915 38.7773 14.5692 38.4997C14.8468 38.222 15.2234 38.066 15.6161 38.066H33.3837C33.7764 38.066 34.153 38.222 34.4307 38.4997C34.7084 38.7773 34.8644 39.1539 34.8644 39.5466C34.8644 39.9393 34.7084 40.3159 34.4307 40.5936C34.153 40.8713 33.7764 41.0273 33.3837 41.0273ZM33.9168 34.089C33.8067 34.2046 33.7369 34.3526 33.7176 34.511L33.4659 36.5935C33.4385 36.5935 33.4119 36.5854 33.3837 36.5854H25.2402V31.4032H25.9806C26.7659 31.4032 27.5192 31.0912 28.0745 30.5358C28.6298 29.9805 28.9418 29.2273 28.9418 28.4419C28.9418 27.6565 28.6298 26.9033 28.0745 26.348C27.5192 25.7926 26.7659 25.4806 25.9806 25.4806H25.2402V22.5194H30.4225C30.6188 22.5194 30.8071 22.4414 30.9459 22.3025C31.0848 22.1637 31.1628 21.9754 31.1628 21.779V21.0387C31.1628 20.646 31.3188 20.2694 31.5964 19.9918C31.8741 19.7141 32.2507 19.5581 32.6434 19.5581C33.0361 19.5581 33.4127 19.7141 33.6904 19.9918C33.9681 20.2694 34.124 20.646 34.124 21.0387V21.779C34.124 21.9754 34.202 22.1637 34.3409 22.3025C34.4797 22.4414 34.668 22.5194 34.8644 22.5194H39.7009C38.8595 26.8297 36.8599 30.8294 33.9168 34.089ZM40.0466 19.1509C40.0449 19.7818 40.0073 20.4121 39.934 21.0387H35.6047C35.6047 20.2533 35.2927 19.5001 34.7373 18.9448C34.182 18.3894 33.4288 18.0775 32.6434 18.0775C31.858 18.0775 31.1048 18.3894 30.5495 18.9448C29.9941 19.5001 29.6821 20.2533 29.6821 21.0387H25.2402V12.1549C25.2402 11.9586 25.1623 11.7703 25.0234 11.6314C24.8846 11.4926 24.6963 11.4146 24.4999 11.4146H23.0193C22.6266 11.4146 22.25 11.2586 21.9723 10.9809C21.6947 10.7033 21.5387 10.3267 21.5387 9.93398C21.5387 9.54129 21.6947 9.16468 21.9723 8.88701C22.25 8.60934 22.6266 8.45334 23.0193 8.45334H24.4999C24.6963 8.45334 24.8846 8.37535 25.0234 8.23651C25.1623 8.09767 25.2402 7.90937 25.2402 7.71303V3.3C29.1003 3.44281 32.7722 5.00312 35.5543 7.68267C36.9713 9.02966 38.1 10.6503 38.8722 12.4463C39.6443 14.2424 40.0439 16.1765 40.0466 18.1315V19.1509Z" fill="black"/>
<path d="M32.833 8.45337C32.1629 8.45257 31.5179 8.71218 31.0355 9.1774C30.5304 8.71329 29.8652 8.4629 29.1794 8.47877C28.4937 8.49464 27.8407 8.77556 27.3576 9.26254C26.8691 9.78084 26.597 10.4662 26.597 11.1785C26.597 11.8908 26.8691 12.5761 27.3576 13.0944L30.501 16.3688C30.5701 16.4409 30.6531 16.4983 30.745 16.5375C30.8368 16.5767 30.9357 16.5969 31.0355 16.5969C31.1354 16.5969 31.2342 16.5767 31.3261 16.5375C31.418 16.4983 31.5009 16.4409 31.57 16.3688L34.7127 13.0944C35.2017 12.5764 35.4742 11.8909 35.4742 11.1785C35.4742 10.466 35.2017 9.78059 34.7127 9.26254C34.4708 9.00698 34.1794 8.80341 33.8562 8.66429C33.533 8.52516 33.1849 8.4534 32.833 8.45337ZM33.6451 12.0691L31.0355 14.7875L28.4267 12.0691C28.1997 11.8281 28.0734 11.5095 28.0734 11.1785C28.0734 10.8474 28.1997 10.5289 28.4267 10.2879C28.5306 10.1763 28.6565 10.0874 28.7963 10.0265C28.9362 9.96571 29.087 9.93432 29.2395 9.93432C29.392 9.93432 29.5429 9.96571 29.6827 10.0265C29.8226 10.0874 29.9484 10.1763 30.0524 10.2879L30.501 10.755C30.6436 10.8952 30.8356 10.9737 31.0355 10.9737C31.2355 10.9737 31.4274 10.8952 31.57 10.755L32.0179 10.2879C32.122 10.1762 32.2481 10.0871 32.3881 10.0262C32.5281 9.96526 32.6792 9.93382 32.8319 9.93382C32.9846 9.93382 33.1357 9.96526 33.2757 10.0262C33.4158 10.0871 33.5418 10.1762 33.6459 10.2879C33.873 10.5288 33.9995 10.8475 33.9993 11.1786C33.9992 11.5098 33.8725 11.8283 33.6451 12.0691ZM16.7904 32.8838L18.7944 34.8879C18.8979 34.9914 19.0298 35.0618 19.1734 35.0904C19.317 35.1189 19.4658 35.1043 19.6011 35.0483C19.7363 34.9922 19.852 34.8974 19.9333 34.7757C20.0147 34.6539 20.0581 34.5108 20.0581 34.3644V32.8572C20.7064 32.7635 21.2951 32.4277 21.7058 31.9175C22.1165 31.4073 22.3188 30.7605 22.2719 30.1071C22.225 29.4538 21.9324 28.8425 21.453 28.3962C20.9736 27.9499 20.343 27.7017 19.688 27.7016H16.7267C16.0395 27.7016 15.3804 27.9746 14.8945 28.4605C14.4086 28.9464 14.1356 29.6055 14.1356 30.2927C14.1356 30.9799 14.4086 31.639 14.8945 32.1249C15.3804 32.6108 16.0395 32.8838 16.7267 32.8838H16.7904ZM15.6162 30.2927C15.6166 29.9983 15.7337 29.7161 15.9419 29.5079C16.1501 29.2997 16.4323 29.1826 16.7267 29.1822H19.688C19.9825 29.1822 20.2649 29.2992 20.4732 29.5075C20.6814 29.7157 20.7984 29.9982 20.7984 30.2927C20.7984 30.5872 20.6814 30.8697 20.4732 31.0779C20.2649 31.2862 19.9825 31.4032 19.688 31.4032H19.3178C19.1215 31.4032 18.9332 31.4812 18.7943 31.62C18.6555 31.7589 18.5775 31.9472 18.5775 32.1435V32.5773L17.6203 31.6201C17.4815 31.4812 17.2932 31.4032 17.0969 31.4032H16.7267C16.4323 31.4028 16.1501 31.2857 15.9419 31.0775C15.7337 30.8693 15.6166 30.5871 15.6162 30.2927ZM14.083 16.2645L13.362 18.5994C13.3155 18.7494 13.3179 18.9103 13.3689 19.0589C13.4199 19.2074 13.5168 19.3359 13.6457 19.4257C13.7745 19.5155 13.9285 19.5621 14.0855 19.5586C14.2425 19.5551 14.3944 19.5018 14.5191 19.4064L16.3565 18.0005L18.194 19.4049C18.3187 19.5002 18.4704 19.5534 18.6273 19.5569C18.7842 19.5604 18.9381 19.5139 19.0669 19.4242C19.1956 19.3345 19.2925 19.2062 19.3436 19.0578C19.3947 18.9094 19.3973 18.7486 19.3511 18.5987L18.6301 16.2637L20.5075 14.8297C20.63 14.7356 20.72 14.6055 20.7649 14.4576C20.8098 14.3098 20.8072 14.1516 20.7577 14.0053C20.7082 13.8589 20.6141 13.7317 20.4886 13.6415C20.3632 13.5514 20.2126 13.5027 20.0581 13.5023H17.7765L17.0635 11.1962C17.0167 11.0454 16.9228 10.9134 16.7956 10.8197C16.6684 10.7261 16.5145 10.6755 16.3565 10.6755C16.1986 10.6755 16.0447 10.7261 15.9175 10.8197C15.7903 10.9134 15.6964 11.0454 15.6495 11.1962L14.9366 13.5023H12.655C12.5003 13.5025 12.3495 13.5511 12.2238 13.6413C12.0982 13.7315 12.004 13.8588 11.9544 14.0054C11.9048 14.1519 11.9024 14.3103 11.9474 14.4583C11.9925 14.6063 12.0828 14.7364 12.2056 14.8305L14.083 16.2645ZM15.4822 14.983C15.6404 14.983 15.7944 14.9323 15.9216 14.8384C16.0489 14.7445 16.1427 14.6122 16.1892 14.461L16.3565 13.9214L16.5239 14.4618C16.5705 14.6128 16.6644 14.7449 16.7916 14.8387C16.9188 14.9325 17.0728 14.9831 17.2309 14.983H17.8697L17.3212 15.402C17.2007 15.4938 17.1113 15.6205 17.0652 15.7649C17.0191 15.9092 17.0186 16.0642 17.0635 16.2089L17.2531 16.8234L16.8059 16.4821C16.6768 16.3835 16.5189 16.3301 16.3565 16.3301C16.1941 16.3301 16.0362 16.3835 15.9072 16.4821L15.46 16.8234L15.6495 16.2089C15.6945 16.0642 15.6939 15.9092 15.6478 15.7649C15.6018 15.6205 15.5124 15.4938 15.3919 15.402L14.8441 14.983H15.4822ZM36.3451 26.221H34.1241V24H32.6435V26.221H30.4226V27.7016H32.6435V29.9226H34.1241V27.7016H36.3451V26.221ZM3.77116 1.79053H5.25179V3.27116H3.77116V1.79053ZM3.77116 4.75179H5.25179V6.23243H3.77116V4.75179ZM5.25179 3.27116H6.73243V4.75179H5.25179V3.27116ZM2.29053 3.27116H3.77116V4.75179H2.29053V3.27116ZM43.7482 1.79053H45.2289V3.27116H43.7482V1.79053ZM43.7482 4.75179H45.2289V6.23243H43.7482V4.75179ZM45.2289 3.27116H46.7095V4.75179H45.2289V3.27116ZM42.2676 3.27116H43.7482V4.75179H42.2676V3.27116Z" fill="black"/>
</svg>
