<svg width="32" height="32" viewBox="0 0 32 32" fill="none" xmlns="http://www.w3.org/2000/svg">
<g clip-path="url(#clip0_336_1115)">
<path d="M17.7048 3.26253L13.2323 11.1475C13.2308 11.1492 13.2287 11.1503 13.2265 11.1508C13.2242 11.1512 13.2219 11.151 13.2198 11.15L10.7398 9.64503C10.7253 9.63654 10.7103 9.62902 10.6948 9.62253L15.1598 1.74753C15.2249 1.63421 15.3316 1.55078 15.4573 1.51503C15.4974 1.50512 15.5385 1.50008 15.5798 1.50003C15.6635 1.49906 15.7458 1.52158 15.8173 1.56503L17.5248 2.56753C17.6395 2.63703 17.7225 2.74859 17.7562 2.87842C17.7898 3.00826 17.7714 3.14609 17.7048 3.26253Z" fill="#FFDB80"/>
<path d="M24.2499 18.2499C24.2499 18.6499 23.7874 18.9949 23.7024 19.3724C23.6936 19.4144 23.6886 19.4571 23.6874 19.4999H13.8749C13.8738 19.4563 13.8688 19.4127 13.8599 19.3699C13.7749 18.9949 13.3149 18.6499 13.3149 18.2499C13.3149 17.8474 13.7749 17.5024 13.8599 17.1274C13.885 16.986 13.885 16.8413 13.8599 16.6999C13.9514 16.6434 14.0383 16.5799 14.1199 16.5099L15.1124 15.6474C15.4643 15.3404 15.6985 14.9206 15.7749 14.4599L15.7974 14.3199L15.8774 13.8224C16.1205 13.8235 16.362 13.7846 16.5924 13.7074C16.9424 13.5374 17.1774 13.0124 17.5649 12.925C17.5847 12.9204 17.6048 12.9171 17.6249 12.915C17.6415 12.9129 17.6582 12.912 17.6749 12.9125C17.6966 12.912 17.7183 12.9129 17.7399 12.915C18.0474 12.94 18.3849 13.17 18.7049 13.2075C18.7274 13.2095 18.7499 13.2104 18.7724 13.21C18.7974 13.21 18.8249 13.2075 18.8499 13.2075C19.1449 13.1775 19.4574 12.9775 19.7474 12.925C19.7887 12.9171 19.8305 12.9129 19.8724 12.9125C19.8949 12.9125 19.9174 12.915 19.9399 12.915C19.9601 12.9171 19.9802 12.9204 19.9999 12.925C20.3874 13.0125 20.6224 13.5375 20.9724 13.7075C21.09 13.7576 21.215 13.788 21.3424 13.7975C21.3722 13.8024 21.4023 13.8049 21.4324 13.805C21.6965 13.7894 21.9595 13.8501 22.1899 13.98C22.4974 14.225 22.4824 14.8 22.7274 15.1075C22.9724 15.4125 23.5375 15.5225 23.7074 15.88C23.8774 16.23 23.6149 16.74 23.7024 17.1275C23.7874 17.5024 24.2499 17.8474 24.2499 18.2499Z" fill="#81D9E3"/>
<path d="M31.9999 6.5001C31.9762 6.05982 31.8144 5.6382 31.5374 5.2951C31.5074 5.2526 31.4649 5.1926 31.4374 5.1501C31.4424 5.0951 31.4549 5.0176 31.4649 4.9601C31.5648 4.53796 31.528 4.09501 31.3599 3.6951C31.1487 3.31129 30.8214 3.00414 30.4249 2.8176C30.3774 2.7901 30.3124 2.7551 30.2674 2.7251C30.2499 2.6776 30.2274 2.6026 30.2124 2.5501C30.1182 2.12427 29.8915 1.7392 29.5649 1.4501C29.2111 1.19604 28.7855 1.0612 28.3499 1.0651C28.2949 1.0601 28.2174 1.0551 28.1624 1.0476C28.1274 1.0126 28.0774 0.957603 28.0399 0.917603C27.7689 0.570467 27.394 0.319064 26.9699 0.200103C26.8583 0.175022 26.7443 0.162445 26.6299 0.162603C26.3152 0.174069 26.0059 0.248003 25.7199 0.380103C25.6624 0.402603 25.5849 0.435103 25.5324 0.450103C25.4799 0.435103 25.4024 0.402603 25.3449 0.380103C25.059 0.248004 24.7497 0.174071 24.4349 0.162603C24.3197 0.162308 24.2049 0.174886 24.0924 0.200103C23.6694 0.319712 23.2955 0.57104 23.0249 0.917603C22.9874 0.957603 22.9374 1.0126 22.8999 1.0476C22.8474 1.0551 22.7699 1.0601 22.7149 1.0651C22.279 1.06164 21.8531 1.19546 21.4974 1.4476C21.1722 1.73841 20.9466 2.12408 20.8524 2.5501C20.8374 2.6026 20.8149 2.6751 20.7974 2.7251C20.7524 2.7526 20.6874 2.7901 20.6374 2.8176C20.2418 3.00433 19.9154 3.3115 19.7049 3.6951C19.5368 4.09499 19.5 4.53796 19.5999 4.9601C19.6074 5.0176 19.6199 5.0951 19.6249 5.1476C19.5999 5.1926 19.5574 5.2526 19.5274 5.2951C19.2495 5.63761 19.0875 6.05957 19.0649 6.5001C19.088 6.93978 19.2499 7.36082 19.5274 7.7026C19.5574 7.7476 19.5999 7.8076 19.6249 7.8501C19.6199 7.9026 19.6074 7.9801 19.5999 8.0376C19.5003 8.45956 19.5362 8.90219 19.7024 9.3026C19.9136 9.68649 20.2409 9.99367 20.6374 10.1801C20.6874 10.2076 20.7524 10.2451 20.7974 10.2726C20.8149 10.3226 20.8349 10.3951 20.8524 10.4476C20.9466 10.8736 21.1722 11.2593 21.4974 11.5501C21.8522 11.8024 22.2771 11.9371 22.7124 11.9351C22.7699 11.9376 22.8474 11.9426 22.8999 11.9501C22.9374 11.9876 22.9874 12.0426 23.0249 12.0826C23.2959 12.4281 23.6698 12.6785 24.0924 12.7976C24.2048 12.8237 24.3196 12.8371 24.4349 12.8376C24.7499 12.8254 25.0592 12.7506 25.3449 12.6176C25.4024 12.5951 25.4799 12.5651 25.5324 12.5476C25.5849 12.5651 25.6624 12.5951 25.7199 12.6176C26.0057 12.7506 26.315 12.8254 26.6299 12.8376C26.7444 12.8369 26.8584 12.8235 26.9699 12.7976C27.3933 12.6785 27.7679 12.4282 28.0399 12.0826C28.0749 12.0426 28.1274 11.9876 28.1625 11.9501C28.215 11.9451 28.2925 11.9376 28.35 11.9351C28.7854 11.9378 29.2105 11.8031 29.565 11.5501C29.891 11.2606 30.1176 10.8757 30.2125 10.4501C30.2275 10.3951 30.25 10.3226 30.2675 10.2726C30.3125 10.2451 30.3775 10.2076 30.425 10.1801C30.8219 9.99437 31.1494 9.68701 31.36 9.3026C31.5281 8.90271 31.5649 8.45974 31.465 8.0376C31.455 7.9801 31.4425 7.9026 31.4375 7.8501C31.465 7.8076 31.5075 7.7476 31.5375 7.7026C31.814 7.36022 31.9758 6.93953 31.9999 6.5001ZM30.4574 8.8701C30.2874 9.2251 29.7224 9.3351 29.4774 9.6426C29.2324 9.9501 29.2474 10.5226 28.9399 10.7676C28.6349 11.0126 28.0774 10.8701 27.7224 11.0426C27.3724 11.2101 27.1374 11.7351 26.7474 11.8226C26.7091 11.8327 26.6696 11.8377 26.6299 11.8376C26.2824 11.8376 25.8924 11.5401 25.5324 11.5401C25.1724 11.5401 24.7824 11.8376 24.4349 11.8376C24.3945 11.8375 24.3542 11.8325 24.3149 11.8226C23.9274 11.7351 23.6924 11.2101 23.3424 11.0426C22.9849 10.8701 22.4299 11.0126 22.1224 10.7676C21.8149 10.5226 21.8324 9.9476 21.5874 9.6426C21.3424 9.3351 20.7774 9.2251 20.6049 8.8701C20.4374 8.5176 20.6999 8.0101 20.6099 7.6201C20.5249 7.2451 20.0649 6.9001 20.0649 6.5001C20.0649 6.0976 20.5249 5.7526 20.6099 5.3776C20.6999 4.9901 20.4374 4.4801 20.6049 4.13009C20.7774 3.77259 21.3424 3.66259 21.5874 3.35759C21.8324 3.05009 21.8149 2.47509 22.1224 2.23009C22.4299 1.98509 22.9849 2.12759 23.3424 1.95759C23.6924 1.78759 23.9274 1.26259 24.3149 1.17511C24.3543 1.166 24.3946 1.1618 24.4349 1.16261C24.7824 1.16261 25.1724 1.46011 25.5324 1.46011C25.8924 1.46011 26.2824 1.16261 26.6299 1.16261C26.6703 1.1618 26.7106 1.166 26.7499 1.17511C27.1374 1.26261 27.3724 1.78761 27.7224 1.95759C28.0774 2.1276 28.6349 1.98509 28.9399 2.23009C29.2474 2.47509 29.2324 3.05009 29.4774 3.35759C29.7224 3.66259 30.2875 3.77259 30.4574 4.13009C30.6274 4.48009 30.3649 4.99009 30.4524 5.3776C30.5374 5.7526 30.9999 6.0976 30.9999 6.5001C30.9999 6.9001 30.5374 7.2451 30.4524 7.6226C30.3649 8.0101 30.6274 8.5201 30.4574 8.8701Z" fill="#2D4356"/>
<path d="M30.4524 7.62245C30.5374 7.24495 30.9999 6.89995 30.9999 6.49995C30.9999 6.09745 30.5374 5.75245 30.4524 5.37745C30.3649 4.98995 30.6274 4.47995 30.4574 4.12994C30.2874 3.77244 29.7224 3.66244 29.4774 3.35744C29.2324 3.04994 29.2474 2.47494 28.9399 2.22994C28.6349 1.98494 28.0774 2.12744 27.7224 1.95744C27.3724 1.78745 27.1374 1.26245 26.7499 1.17495C26.7106 1.16585 26.6703 1.16165 26.6299 1.16245C26.2824 1.16245 25.8924 1.45995 25.5324 1.45995C25.1724 1.45995 24.7824 1.16245 24.4349 1.16245C24.3946 1.16165 24.3543 1.16585 24.3149 1.17495C23.9274 1.26245 23.6924 1.78745 23.3424 1.95743C22.9849 2.12745 22.4299 1.98493 22.1224 2.22993C21.8149 2.47493 21.8324 3.04993 21.5874 3.35743C21.3424 3.66243 20.7774 3.77243 20.6049 4.12993C20.4374 4.47993 20.6999 4.98994 20.6099 5.37745C20.5249 5.75245 20.0649 6.09745 20.0649 6.49995C20.0649 6.89995 20.5249 7.24495 20.6099 7.61995C20.6999 8.00995 20.4374 8.51745 20.6049 8.86995C20.7774 9.22495 21.3424 9.33495 21.5874 9.64245C21.8324 9.94745 21.8149 10.5224 22.1224 10.7674C22.4299 11.0124 22.9849 10.8699 23.3424 11.0424C23.6924 11.2099 23.9274 11.7349 24.3149 11.8224C24.3542 11.8323 24.3945 11.8374 24.4349 11.8374C24.7824 11.8374 25.1724 11.5399 25.5324 11.5399C25.8924 11.5399 26.2824 11.8374 26.6299 11.8374C26.6696 11.8375 26.7091 11.8325 26.7474 11.8224C27.1374 11.7349 27.3724 11.2099 27.7224 11.0424C28.0774 10.8699 28.6349 11.0124 28.9399 10.7674C29.2474 10.5224 29.2324 9.94995 29.4774 9.64245C29.7224 9.33495 30.2875 9.22495 30.4574 8.86995C30.6274 8.51995 30.3649 8.00995 30.4524 7.62245ZM23.4049 6.12495C23.1083 6.12495 22.8183 6.03698 22.5716 5.87215C22.3249 5.70733 22.1327 5.47306 22.0191 5.19898C21.9056 4.92489 21.8759 4.62329 21.9338 4.33231C21.9916 4.04134 22.1345 3.77407 22.3443 3.56429C22.5541 3.35451 22.8213 3.21165 23.1123 3.15377C23.4033 3.09589 23.7049 3.1256 23.979 3.23913C24.2531 3.35266 24.4873 3.54492 24.6521 3.79159C24.817 4.03827 24.9049 4.32828 24.9049 4.62495C24.9045 5.02263 24.7463 5.4039 24.4651 5.68511C24.1839 5.96631 23.8026 6.12449 23.4049 6.12495ZM24.7049 8.76495C24.6596 8.83676 24.5969 8.89596 24.5226 8.93705C24.4483 8.97813 24.3648 8.99977 24.2799 8.99995C24.186 8.99984 24.0941 8.97295 24.0149 8.92245C23.9593 8.88782 23.911 8.84257 23.8728 8.78927C23.8347 8.73598 23.8074 8.67569 23.7925 8.61184C23.7777 8.548 23.7755 8.48186 23.7862 8.41719C23.7969 8.35252 23.8203 8.29059 23.8549 8.23495L26.3599 4.23495C26.3946 4.17904 26.44 4.13052 26.4935 4.09219C26.5469 4.05385 26.6074 4.02645 26.6715 4.01155C26.7356 3.99666 26.802 3.99456 26.8669 4.00538C26.9318 4.0162 26.9939 4.03973 27.0497 4.07461C27.1055 4.1095 27.1538 4.15505 27.1919 4.20866C27.2301 4.26227 27.2573 4.32289 27.2719 4.38702C27.2866 4.45116 27.2884 4.51756 27.2774 4.58241C27.2663 4.64727 27.2425 4.7093 27.2074 4.76495L24.7049 8.76495ZM27.6599 9.87495C27.3634 9.87446 27.0736 9.78606 26.8273 9.62094C26.5809 9.45582 26.3891 9.22138 26.2759 8.94725C26.1628 8.67311 26.1334 8.37159 26.1916 8.08079C26.2497 7.78998 26.3928 7.52294 26.6027 7.31341C26.8125 7.10388 27.0798 6.96127 27.3707 6.90359C27.6616 6.84592 27.9631 6.87577 28.237 6.98937C28.511 7.10298 28.7451 7.29524 28.9098 7.54185C29.0745 7.78847 29.1624 8.07838 29.1624 8.37495C29.1616 8.77294 29.0029 9.15433 28.7212 9.43552C28.4396 9.7167 28.0579 9.87473 27.6599 9.87495Z" fill="#81D9E3"/>
<path d="M27.2073 4.76491L24.7048 8.76491C24.6596 8.83672 24.5968 8.89592 24.5225 8.93701C24.4482 8.97809 24.3648 8.99973 24.2798 8.99991C24.1859 8.9998 24.094 8.97291 24.0148 8.92241C23.9592 8.88778 23.9109 8.84253 23.8727 8.78923C23.8346 8.73594 23.8073 8.67565 23.7924 8.6118C23.7776 8.54796 23.7754 8.48182 23.7861 8.41715C23.7969 8.35248 23.8202 8.29055 23.8548 8.23491L26.3598 4.23491C26.3945 4.179 26.4399 4.13048 26.4934 4.09215C26.5468 4.05381 26.6073 4.02641 26.6714 4.01151C26.7355 3.99662 26.8019 3.99452 26.8668 4.00534C26.9317 4.01616 26.9938 4.03969 27.0496 4.07457C27.1054 4.10946 27.1537 4.15501 27.1918 4.20862C27.23 4.26223 27.2572 4.32285 27.2718 4.38698C27.2865 4.45112 27.2883 4.51752 27.2773 4.58237C27.2662 4.64723 27.2424 4.70926 27.2073 4.76491ZM27.6598 6.87491C27.3633 6.8754 27.0735 6.9638 26.8272 7.12892C26.5808 7.29404 26.389 7.52848 26.2758 7.80261C26.1627 8.07675 26.1333 8.37827 26.1915 8.66907C26.2496 8.95988 26.3927 9.22692 26.6026 9.43645C26.8124 9.64598 27.0797 9.78859 27.3706 9.84627C27.6615 9.90394 27.963 9.87409 28.2369 9.76049C28.5109 9.64688 28.745 9.45462 28.9097 9.208C29.0744 8.96138 29.1623 8.67147 29.1623 8.37491C29.1615 7.97692 29.0028 7.59553 28.7211 7.31434C28.4395 7.03315 28.0578 6.87513 27.6598 6.87491ZM27.6598 8.87491C27.561 8.87491 27.4643 8.84559 27.3821 8.79064C27.2998 8.7357 27.2358 8.65761 27.1979 8.56625C27.1601 8.47489 27.1502 8.37435 27.1695 8.27736C27.1887 8.18037 27.2364 8.09128 27.3063 8.02136C27.3762 7.95143 27.4653 7.90381 27.5623 7.88452C27.6593 7.86522 27.7598 7.87513 27.8512 7.91297C27.9425 7.95081 28.0206 8.0149 28.0756 8.09712C28.1305 8.17935 28.1598 8.27602 28.1598 8.37491C28.1599 8.44058 28.1469 8.5056 28.1218 8.56627C28.0967 8.62694 28.0599 8.68207 28.0134 8.7285C27.967 8.77493 27.9119 8.81176 27.8512 8.83688C27.7905 8.86201 27.7255 8.87493 27.6598 8.87491ZM20.9705 19.4995C20.9977 19.3677 21.0114 19.2334 21.0113 19.0988C21.0113 16.9033 17.8022 17.439 17.8022 16.2887C17.8022 15.9374 18.0747 15.5948 18.8045 15.5948C19.2585 15.5908 19.6976 15.7568 20.0354 16.0603C20.1326 16.1699 20.2676 16.2389 20.4134 16.2535C20.5381 16.2546 20.6581 16.2062 20.7471 16.119C20.8361 16.0317 20.8869 15.9127 20.8882 15.7881C20.8874 15.6878 20.8568 15.59 20.8004 15.5071C20.5014 15.0855 19.9211 14.8045 19.2177 14.7167V14.2073C19.2182 14.1533 19.2081 14.0997 19.1877 14.0497C19.1674 13.9996 19.1374 13.9541 19.0994 13.9157C19.0614 13.8773 19.0161 13.8468 18.9663 13.826C18.9164 13.8053 18.8629 13.7946 18.8089 13.7946C18.7549 13.7946 18.7014 13.8053 18.6515 13.826C18.6017 13.8468 18.5564 13.8773 18.5184 13.9157C18.4804 13.9541 18.4504 13.9996 18.43 14.0497C18.4097 14.0997 18.3995 14.1533 18.4001 14.2073V14.7079C17.2746 14.8309 16.7822 15.507 16.7822 16.2887C16.7822 18.405 19.9914 17.8167 19.9914 19.0988C19.9945 19.2392 19.9591 19.3778 19.8889 19.4995H20.9705ZM16.5117 19.4995H17.6588C17.5543 19.4195 17.4553 19.3326 17.3625 19.2392C17.3159 19.1809 17.2571 19.1335 17.1903 19.1001C17.1236 19.0668 17.0503 19.0483 16.9757 19.0461C16.8549 19.0474 16.7392 19.0953 16.6528 19.1797C16.5663 19.2642 16.5158 19.3787 16.5117 19.4995Z" fill="#2D4356"/>
<path d="M17.6758 11.9122C17.5612 11.9121 17.4469 11.9247 17.3351 11.9499C16.912 12.07 16.5377 12.321 16.2661 12.667C16.2294 12.7071 16.1793 12.762 16.1425 12.7984C16.1075 12.8027 16.0631 12.8063 16.0198 12.8095C16.0195 12.915 16.0109 13.0204 15.9942 13.1246L15.88 13.8237C16.1195 13.825 16.3575 13.7856 16.5839 13.7073C16.9344 13.5384 17.1686 13.0133 17.5571 12.9251C17.5961 12.9164 17.6359 12.9121 17.6758 12.9123C18.0237 12.9123 18.4131 13.2094 18.7737 13.2094C19.1342 13.2094 19.5238 12.9124 19.8717 12.9123C19.9116 12.9121 19.9515 12.9164 19.9905 12.9252C20.379 13.0134 20.6132 13.5385 20.9637 13.7074C21.32 13.8791 21.8765 13.7365 22.1825 13.9806C22.49 14.2259 22.4738 14.8 22.7194 15.1072C22.9637 15.4129 23.5283 15.5241 23.7002 15.8799C23.8692 16.23 23.6062 16.7395 23.6945 17.1275C23.78 17.5033 24.2405 17.8479 24.2405 18.2495C24.2405 18.6513 23.78 18.9959 23.6944 19.3718C23.6857 19.4139 23.6806 19.4566 23.679 19.4996H24.7468C24.7577 19.4838 24.769 19.4673 24.7785 19.4536C25.0563 19.1113 25.2184 18.6898 25.2417 18.2496C25.2184 17.8094 25.0563 17.3878 24.7785 17.0456C24.7482 17.0019 24.7069 16.9424 24.6798 16.8992C24.6852 16.8457 24.6974 16.768 24.7063 16.7114C24.8057 16.2889 24.7692 15.8459 24.6019 15.4454C24.3906 15.062 24.0635 14.7552 23.6674 14.5688C23.6194 14.5417 23.5536 14.5045 23.5094 14.4764C23.4915 14.4267 23.4695 14.3534 23.4534 14.3C23.3817 13.8661 23.1518 13.4741 22.808 13.1997C22.4642 12.9254 22.031 12.7881 21.592 12.8144C21.5355 12.8104 21.4581 12.8051 21.4052 12.7986C21.3684 12.7621 21.3182 12.7073 21.2815 12.6671C21.0099 12.3211 20.6357 12.07 20.2125 11.95C20.1006 11.9248 19.9863 11.9122 19.8717 11.9123C19.5566 11.9242 19.247 11.9983 18.9607 12.1303C18.9042 12.1529 18.8256 12.1843 18.7737 12.2012C18.7219 12.1843 18.6434 12.1529 18.5869 12.1303C18.3006 11.9982 17.9909 11.9241 17.6758 11.9122ZM13.8516 16.7049C13.5372 16.8973 13.1759 16.9992 12.8073 16.9995L12.8009 16.9991C12.7899 17.015 12.7785 17.0317 12.7689 17.0455C12.4911 17.3878 12.329 17.8093 12.3057 18.2495C12.3289 18.6897 12.4911 19.1112 12.7689 19.4535C12.7784 19.4672 12.7897 19.4837 12.8006 19.4996H13.8683C13.8668 19.4565 13.8616 19.4137 13.8529 19.3716C13.7674 18.9958 13.3069 18.6512 13.3069 18.2495C13.3069 17.8478 13.7674 17.5031 13.8529 17.1273C13.8773 16.9875 13.8769 16.8445 13.8516 16.7049ZM23.4051 3.125C23.1084 3.125 22.8184 3.21297 22.5717 3.3778C22.325 3.54262 22.1328 3.77689 22.0193 4.05097C21.9057 4.32506 21.876 4.62666 21.9339 4.91764C21.9918 5.20861 22.1346 5.47588 22.3444 5.68566C22.5542 5.89544 22.8215 6.0383 23.1124 6.09618C23.4034 6.15406 23.705 6.12435 23.9791 6.01082C24.2532 5.89729 24.4875 5.70503 24.6523 5.45836C24.8171 5.21168 24.9051 4.92167 24.9051 4.625C24.9046 4.22732 24.7464 3.84605 24.4652 3.56484C24.184 3.28364 23.8028 3.12546 23.4051 3.125ZM23.4051 5.125C23.3062 5.125 23.2095 5.09568 23.1273 5.04073C23.0451 4.98579 22.981 4.9077 22.9431 4.81634C22.9053 4.72498 22.8954 4.62445 22.9147 4.52745C22.934 4.43046 22.9816 4.34137 23.0515 4.27145C23.1215 4.20152 23.2105 4.1539 23.3075 4.13461C23.4045 4.11531 23.5051 4.12522 23.5964 4.16306C23.6878 4.2009 23.7659 4.26499 23.8208 4.34721C23.8758 4.42944 23.9051 4.52611 23.9051 4.625C23.9046 4.75745 23.8517 4.88432 23.758 4.97797C23.6644 5.07163 23.5375 5.12447 23.4051 5.125Z" fill="#2D4356"/>
<path d="M28.7775 20.4999H9.09249C9.09101 20.5 9.08956 20.4996 9.08827 20.4989C9.08698 20.4982 9.08591 20.4971 9.08515 20.4959C9.08439 20.4946 9.08397 20.4931 9.08395 20.4917C9.08392 20.4902 9.08428 20.4887 9.08499 20.4874L11.855 15.6024C11.8575 15.5974 11.8625 15.5974 11.8675 15.5999L12.2875 15.8549C12.4692 15.9648 12.681 16.0143 12.8925 15.9964C13.104 15.9784 13.3045 15.8939 13.465 15.7549L14.455 14.8949C14.6323 14.7408 14.75 14.5294 14.7875 14.2974L15.005 12.9699C15.0375 12.7715 15.0099 12.5678 14.9257 12.3851C14.8415 12.2024 14.7045 12.0492 14.5325 11.9449L14.0925 11.6774C14.0875 11.675 14.0875 11.6699 14.0875 11.6649L18.5775 3.75495C18.7719 3.41006 18.8237 3.00281 18.7219 2.62022C18.6201 2.23764 18.3726 1.91004 18.0325 1.70745L16.365 0.724946C16.0962 0.559298 15.7825 0.481525 15.4675 0.502446C15.2244 0.5211 14.9897 0.599562 14.7843 0.730849C14.5788 0.862137 14.409 1.04218 14.29 1.25495L11.98 5.32745C11.975 5.33495 11.9625 5.33245 11.965 5.32245C12.1334 3.64586 11.932 1.95274 11.375 0.362446C11.3341 0.239456 11.2492 0.135924 11.1366 0.0717722C11.024 0.0076202 10.8916 -0.01262 10.765 0.0149461C10.6978 0.0323937 10.6349 0.0636528 10.5805 0.106731C10.526 0.149809 10.4811 0.203761 10.4487 0.265149C10.4162 0.326537 10.3969 0.394013 10.392 0.463278C10.387 0.532542 10.3966 0.602076 10.42 0.667446C10.9364 2.13886 11.1183 3.70689 10.9525 5.25745C10.952 5.25924 10.9509 5.26084 10.9495 5.26206C10.9481 5.26329 10.9464 5.26408 10.9445 5.26434C10.9427 5.26461 10.9408 5.26433 10.9391 5.26355C10.9374 5.26277 10.936 5.26152 10.935 5.25995C10.7626 4.9031 10.5281 4.57973 10.2425 4.30495C10.0609 4.12269 9.84385 3.97963 9.60476 3.8846C9.36568 3.78957 9.10965 3.74459 8.85249 3.75245C7.42249 3.82495 6.335 5.69745 6.37999 8.01495C6.38629 8.76401 6.53036 9.50552 6.80499 10.2024C6.80749 10.2074 6.8025 10.2124 6.79749 10.2124C6.05267 10.3263 5.33451 10.5736 4.67749 10.9424C2.63249 12.0624 1.53999 13.9349 2.19499 15.2024C2.31677 15.4269 2.48315 15.6241 2.68393 15.7818C2.8847 15.9396 3.11562 16.0547 3.36249 16.1199C3.66855 16.2094 3.98614 16.2532 4.30499 16.2499C4.38749 16.2499 4.47249 16.2449 4.55499 16.2399C3.32677 17.1179 1.92289 17.7192 0.439988 18.0024C0.323765 18.0203 0.217 18.0769 0.137097 18.1632C0.0571939 18.2494 0.00886518 18.3602 -1.15606e-05 18.4774C-0.00295953 18.545 0.00778811 18.6124 0.0315839 18.6756C0.0553797 18.7388 0.0917311 18.7966 0.138448 18.8454C0.185166 18.8943 0.241282 18.9331 0.303416 18.9597C0.365551 18.9862 0.432417 18.9999 0.499988 18.9999C0.530144 18.9999 0.560247 18.9974 0.589988 18.9924C2.34066 18.6656 3.99202 17.9383 5.41499 16.8674C5.41674 16.8665 5.41874 16.8661 5.42071 16.8664C5.42268 16.8667 5.42451 16.8676 5.42592 16.869C5.42732 16.8704 5.42824 16.8723 5.42852 16.8742C5.4288 16.8762 5.42844 16.8782 5.42749 16.8799L2.94999 21.2449C2.75531 21.5895 2.70308 21.9966 2.80444 22.3791C2.90581 22.7617 3.15273 23.0895 3.49249 23.2924L5.20249 24.2949C5.42726 24.4283 5.68363 24.4991 5.94499 24.4999C6.07409 24.4995 6.20261 24.4827 6.32749 24.4499C6.47604 24.4085 6.61699 24.3435 6.74499 24.2574C6.75249 24.2549 6.75749 24.2574 6.75749 24.2649V30.4924C6.75822 30.8929 6.91796 31.2767 7.2016 31.5594C7.48523 31.8421 7.86953 32.0005 8.26999 31.9999H28.7775C28.9756 32.0002 29.1719 31.9614 29.3551 31.8857C29.5382 31.8101 29.7047 31.6991 29.8449 31.5591C29.9851 31.4191 30.0964 31.2528 30.1723 31.0698C30.2483 30.8868 30.2874 30.6906 30.2875 30.4924V22.0074C30.2874 21.8093 30.2483 21.6131 30.1723 21.4301C30.0964 21.247 29.9851 21.0808 29.8449 20.9408C29.7047 20.8008 29.5382 20.6898 29.3551 20.6141C29.1719 20.5385 28.9756 20.4997 28.7775 20.4999ZM13.8 14.1349C13.7997 14.1368 13.7988 14.1386 13.7975 14.1399L12.8125 14.9949C12.8096 14.9969 12.806 14.9978 12.8025 14.9974L9.01749 12.7024C9.01583 12.7009 9.01469 12.6988 9.01424 12.6966C9.01379 12.6944 9.01406 12.692 9.01499 12.6899L10.215 10.5074C10.2175 10.5024 10.2225 10.5024 10.2275 10.5049L14.0125 12.7999C14.015 12.8024 14.0175 12.8049 14.0175 12.8074L13.8 14.1349ZM15.16 1.74745C15.225 1.63412 15.3318 1.55069 15.4575 1.51495C15.4976 1.50503 15.5387 1.5 15.58 1.49995C15.6637 1.49898 15.746 1.52149 15.8175 1.56495L17.525 2.56745C17.6397 2.63695 17.7227 2.74851 17.7563 2.87834C17.79 3.00817 17.7715 3.146 17.705 3.26245L13.2325 11.1474C13.2309 11.1491 13.2289 11.1502 13.2266 11.1507C13.2244 11.1511 13.2221 11.1509 13.22 11.1499L10.74 9.64495C10.7255 9.63645 10.7105 9.62894 10.695 9.62245L15.16 1.74745ZM8.90249 4.74995C9.02575 4.74992 9.14771 4.77519 9.26081 4.82422C9.37391 4.87324 9.47574 4.94496 9.55999 5.03495C10.085 5.52245 10.4325 6.47495 10.4975 7.55245V7.55745C10.3925 7.91495 10.28 8.23495 10.175 8.50995L8.89249 10.7699C8.88999 10.7724 8.88499 10.7749 8.88249 10.7724L7.92749 10.2224L7.92499 10.2199C7.56761 9.53279 7.3815 8.76948 7.38249 7.99495C7.34499 6.12995 8.15499 4.78745 8.90249 4.74995ZM3.65499 15.1624C3.53641 15.1357 3.42461 15.0848 3.32654 15.013C3.22848 14.9412 3.14625 14.8499 3.08499 14.7449C2.74499 14.0849 3.51249 12.7199 5.15749 11.8199C5.8906 11.3913 6.7258 11.1685 7.57499 11.1749C7.57749 11.1749 7.57749 11.1749 7.57999 11.1774L8.38749 11.6424C8.38845 11.6428 8.38932 11.6433 8.39 11.6441C8.39069 11.6449 8.39118 11.6458 8.39143 11.6468C8.39168 11.6478 8.39168 11.6488 8.39142 11.6498C8.39117 11.6508 8.39068 11.6517 8.38999 11.6524L7.26749 13.6324C6.97981 14.0072 6.67097 14.3653 6.34249 14.7049C6.34249 14.7053 6.34243 14.7056 6.34231 14.7059C6.34219 14.7062 6.342 14.7065 6.34177 14.7067C6.34153 14.7069 6.34126 14.7071 6.34095 14.7072C6.34065 14.7074 6.34032 14.7074 6.33999 14.7074C5.36749 15.1899 4.33499 15.3699 3.65499 15.1624ZM6.36749 23.2524C6.33557 23.3086 6.29285 23.3578 6.24179 23.3972C6.19072 23.4367 6.13233 23.4657 6.07 23.4824C5.94844 23.5147 5.81904 23.4977 5.71 23.4349L4.0025 22.4299C3.88788 22.361 3.80483 22.2499 3.77118 22.1204C3.73753 21.991 3.75596 21.8535 3.8225 21.7374L8.4725 13.5374C8.48 13.5424 8.485 13.5474 8.4925 13.5524L10.9975 15.0724C11 15.0724 11.0025 15.0799 11 15.0824L6.36749 23.2524ZM19.775 30.9924C19.7745 30.9942 19.7735 30.9958 19.7722 30.9971C19.7709 30.9984 19.7693 30.9994 19.7675 30.9999H17.28C17.278 30.9998 17.2762 30.999 17.2748 30.9976C17.2734 30.9962 17.2726 30.9944 17.2725 30.9924V27.2974C17.2725 27.2899 17.2775 27.2874 17.2825 27.2899L18.5175 27.7499H18.5225L19.7625 27.2924C19.77 27.2899 19.775 27.2924 19.775 27.2999V30.9924ZM29.2875 30.4924C29.2868 30.6273 29.2328 30.7563 29.1372 30.8514C29.0417 30.9466 28.9123 30.9999 28.7775 30.9999H20.785C20.7828 30.9998 20.7806 30.9991 20.7788 30.9977C20.7771 30.9964 20.7757 30.9946 20.775 30.9924V27.2924C20.7782 27.1471 20.7492 27.0028 20.69 26.8699C20.608 26.6964 20.4785 26.5496 20.3166 26.4466C20.1547 26.3435 19.9669 26.2883 19.775 26.2874C19.6563 26.2871 19.5386 26.3083 19.4275 26.3499L18.525 26.6824H18.52L17.6225 26.3474C17.4051 26.2672 17.1667 26.2641 16.9473 26.3388C16.7279 26.4134 16.5408 26.5613 16.4175 26.7574C16.3168 26.9266 16.2657 27.1206 16.27 27.3174V30.9924C16.2699 30.9944 16.269 30.9962 16.2677 30.9976C16.2663 30.999 16.2644 30.9998 16.2625 30.9999H8.26999C8.20317 31.0002 8.13696 30.9872 8.07515 30.9618C8.01334 30.9364 7.95715 30.8991 7.90978 30.8519C7.86242 30.8048 7.82481 30.7488 7.7991 30.6871C7.7734 30.6254 7.76011 30.5593 7.75999 30.4924V23.5074C7.75984 23.5064 7.75994 23.5054 7.76026 23.5044C7.76059 23.5034 7.76114 23.5026 7.76186 23.5018C7.76259 23.5011 7.76348 23.5005 7.76445 23.5002C7.76543 23.4999 7.76647 23.4998 7.76749 23.4999H29.2775C29.2825 23.4999 29.2875 23.5024 29.2875 23.5074V30.4924ZM29.2875 22.4924C29.2868 22.4946 29.2854 22.4964 29.2836 22.4977C29.2819 22.4991 29.2797 22.4998 29.2775 22.4999H7.95749C7.95612 22.4997 7.95482 22.4992 7.95367 22.4984C7.95252 22.4976 7.95156 22.4966 7.95084 22.4954C7.95013 22.4942 7.94968 22.4929 7.94953 22.4915C7.94939 22.4902 7.94954 22.4888 7.94999 22.4874L8.50749 21.5049C8.50998 21.5025 8.51249 21.4999 8.51499 21.4999H28.7775C28.9123 21.4999 29.0417 21.5533 29.1372 21.6484C29.2328 21.7435 29.2868 21.8726 29.2875 22.0074V22.4924Z" fill="#2D4356"/>
<path d="M19.775 27.3V30.9925C19.7744 30.9943 19.7735 30.9959 19.7722 30.9972C19.7708 30.9985 19.7692 30.9995 19.7675 31H17.28C17.278 30.9999 17.2762 30.9991 17.2748 30.9977C17.2734 30.9963 17.2726 30.9945 17.2725 30.9925V27.2975C17.2725 27.29 17.2775 27.2875 17.2825 27.29L18.5175 27.75H18.5225L19.7625 27.2925C19.77 27.29 19.775 27.2925 19.775 27.3Z" fill="#FC785E"/>
<path d="M29.2773 23.5001H7.76733C7.76631 23.4999 7.76527 23.5 7.7643 23.5003C7.76332 23.5007 7.76244 23.5012 7.76171 23.5019C7.76098 23.5027 7.76043 23.5036 7.76011 23.5045C7.75978 23.5055 7.75969 23.5065 7.75983 23.5076V30.4926C7.75995 30.5594 7.77324 30.6255 7.79895 30.6872C7.82465 30.7489 7.86226 30.8049 7.90963 30.852C7.95699 30.8992 8.01319 30.9365 8.07499 30.9619C8.1368 30.9873 8.20301 31.0003 8.26983 31.0001H16.2623C16.2643 30.9999 16.2661 30.9991 16.2675 30.9977C16.2689 30.9964 16.2697 30.9945 16.2698 30.9926V27.3176C16.2656 27.1208 16.3167 26.9267 16.4173 26.7576C16.5407 26.5614 16.7277 26.4136 16.9471 26.3389C17.1665 26.2643 17.4049 26.2673 17.6223 26.3476L18.5198 26.6826H18.5248L19.4273 26.3501C19.5384 26.3084 19.6562 26.2872 19.7748 26.2876C19.9668 26.2884 20.1545 26.3436 20.3165 26.4467C20.4784 26.5497 20.6078 26.6965 20.6898 26.8701C20.7491 27.0029 20.7781 27.1472 20.7748 27.2926V30.9926C20.7756 30.9947 20.7769 30.9965 20.7787 30.9978C20.7805 30.9992 20.7826 31 20.7848 31.0001H28.7773C28.9122 31.0001 29.0415 30.9467 29.1371 30.8516C29.2326 30.7565 29.2867 30.6274 29.2873 30.4926V23.5076C29.2873 23.5026 29.2823 23.5001 29.2773 23.5001ZM9.76233 29.5001C9.76233 29.633 9.70952 29.7605 9.61552 29.8545C9.52152 29.9485 9.39402 30.0013 9.26108 30.0013C9.12814 30.0013 9.00065 29.9485 8.90664 29.8545C8.81264 29.7605 8.75983 29.633 8.75983 29.5001V25.0001C8.75983 24.8671 8.81264 24.7396 8.90664 24.6456C9.00065 24.5516 9.12814 24.4988 9.26108 24.4988C9.39402 24.4988 9.52152 24.5516 9.61552 24.6456C9.70952 24.7396 9.76233 24.8671 9.76233 25.0001V29.5001ZM28.2848 29.5001C28.2848 29.6327 28.2322 29.7599 28.1384 29.8536C28.0446 29.9474 27.9174 30.0001 27.7848 30.0001C27.6522 30.0001 27.525 29.9474 27.4313 29.8536C27.3375 29.7599 27.2848 29.6327 27.2848 29.5001V25.0001C27.2848 24.8675 27.3375 24.7403 27.4313 24.6465C27.525 24.5527 27.6522 24.5001 27.7848 24.5001C27.9174 24.5001 28.0446 24.5527 28.1384 24.6465C28.2322 24.7403 28.2848 24.8675 28.2848 25.0001V29.5001Z" fill="#FFDB80"/>
<path d="M29.2877 22.0075V22.4925C29.287 22.4946 29.2856 22.4964 29.2839 22.4978C29.2821 22.4991 29.2799 22.4999 29.2777 22.5H7.95771C7.95635 22.4998 7.95504 22.4993 7.95389 22.4985C7.95275 22.4977 7.95178 22.4967 7.95107 22.4955C7.95035 22.4943 7.94991 22.493 7.94976 22.4916C7.94961 22.4902 7.94977 22.4888 7.95021 22.4875L8.50771 21.505C8.5102 21.5025 8.51272 21.5 8.51522 21.5H28.7777C28.9125 21.5 29.0419 21.5534 29.1375 21.6485C29.233 21.7436 29.2871 21.8727 29.2877 22.0075Z" fill="#FC785E"/>
<path d="M11.0001 15.0826L6.36763 23.2526C6.33572 23.3087 6.29299 23.3579 6.24193 23.3974C6.19087 23.4369 6.13248 23.4658 6.07015 23.4826C5.94858 23.5149 5.81918 23.4978 5.71015 23.4351L4.00265 22.4301C3.88802 22.3612 3.80498 22.25 3.77133 22.1206C3.73768 21.9911 3.7561 21.8536 3.82265 21.7376L8.47265 13.5376C8.48015 13.5426 8.48515 13.5476 8.49265 13.5526L10.9976 15.0726C11.0001 15.0726 11.0026 15.0801 11.0001 15.0826Z" fill="#FFDB80"/>
<path d="M14.0176 12.8076L13.8001 14.1351C13.7999 14.137 13.799 14.1387 13.7976 14.1401L12.8126 14.9951C12.8097 14.997 12.8061 14.9979 12.8026 14.9976L9.01762 12.7026C9.01596 12.701 9.01482 12.6989 9.01437 12.6967C9.01393 12.6945 9.01419 12.6921 9.01512 12.6901L10.2151 10.5076C10.2176 10.5026 10.2226 10.5026 10.2276 10.5051L14.0126 12.8001C14.0151 12.8026 14.0176 12.8051 14.0176 12.8076Z" fill="#FC785E"/>
<path d="M30.5177 15.1225L29.9652 14.82L29.6652 14.27C29.5788 14.1125 29.4516 13.9812 29.297 13.8897C29.1424 13.7983 28.9661 13.75 28.7865 13.75C28.6068 13.75 28.4305 13.7983 28.2759 13.8897C28.1213 13.9812 27.9942 14.1125 27.9077 14.27L27.6052 14.82L27.0552 15.1225C26.8972 15.2082 26.7652 15.3349 26.6732 15.4894C26.5813 15.6438 26.5327 15.8202 26.5327 16C26.5327 16.1798 26.5813 16.3562 26.6732 16.5106C26.7652 16.6651 26.8972 16.7918 27.0552 16.8775L27.6052 17.1775L27.9077 17.73C27.9942 17.8875 28.1213 18.0188 28.2759 18.1103C28.4305 18.2017 28.6068 18.25 28.7865 18.25C28.9661 18.25 29.1424 18.2017 29.297 18.1103C29.4516 18.0188 29.5788 17.8875 29.6652 17.73L29.9652 17.1775L30.5177 16.8775C30.6757 16.7918 30.8077 16.6651 30.8997 16.5106C30.9916 16.3562 31.0402 16.1798 31.0402 16C31.0402 15.8202 30.9916 15.6438 30.8997 15.4894C30.8077 15.3349 30.6757 15.2082 30.5177 15.1225ZM29.2277 16.4425L28.7852 17.25L28.3427 16.4425L27.5352 16L28.3427 15.5575L28.7852 14.75L29.2277 15.5575L30.0377 16L29.2277 16.4425Z" fill="#2D4356"/>
<path d="M30.0377 16L29.2277 16.4425L28.7852 17.25L28.3427 16.4425L27.5352 16L28.3427 15.5575L28.7852 14.75L29.2277 15.5575L30.0377 16Z" fill="#FFDB80"/>
<path d="M9.76227 25V29.5C9.76227 29.633 9.70946 29.7605 9.61545 29.8545C9.52145 29.9485 9.39395 30.0013 9.26101 30.0013C9.12808 30.0013 9.00058 29.9485 8.90658 29.8545C8.81258 29.7605 8.75977 29.633 8.75977 29.5V25C8.75977 24.8671 8.81258 24.7396 8.90658 24.6456C9.00058 24.5516 9.12808 24.4988 9.26101 24.4988C9.39395 24.4988 9.52145 24.5516 9.61545 24.6456C9.70946 24.7396 9.76227 24.8671 9.76227 25ZM28.2848 25V29.5C28.2848 29.6326 28.2321 29.7598 28.1383 29.8536C28.0445 29.9474 27.9174 30 27.7848 30C27.6522 30 27.525 29.9474 27.4312 29.8536C27.3374 29.7598 27.2848 29.6326 27.2848 29.5V25C27.2848 24.8674 27.3374 24.7402 27.4312 24.6465C27.525 24.5527 27.6522 24.5 27.7848 24.5C27.9174 24.5 28.0445 24.5527 28.1383 24.6465C28.2321 24.7402 28.2848 24.8674 28.2848 25Z" fill="#2D4356"/>
<path opacity="0.3" d="M23.7299 16.4649C23.7225 16.4357 23.7125 16.4073 23.6999 16.3799C23.5274 16.0249 22.9624 15.9124 22.7199 15.6074C22.4749 15.2999 22.4899 14.7249 22.1824 14.4799C21.8774 14.2374 21.3199 14.3799 20.9624 14.2074C20.6124 14.0374 20.3799 13.5124 19.9899 13.425C19.9512 13.417 19.9118 13.4128 19.8724 13.4125C19.5224 13.4125 19.1349 13.71 18.7724 13.71C18.4124 13.71 18.0224 13.4125 17.6749 13.4125C17.6354 13.4128 17.596 13.417 17.5574 13.425C17.1674 13.5125 16.9349 14.0375 16.5849 14.2074C16.3295 14.2844 16.064 14.3223 15.7974 14.3199L15.8774 13.8224C16.1204 13.8235 16.3619 13.7846 16.5924 13.7074C16.9424 13.5374 17.1774 13.0124 17.5649 12.925C17.5846 12.9204 17.6047 12.9171 17.6249 12.915C17.6414 12.9129 17.6582 12.912 17.6749 12.9125C17.6966 12.912 17.7183 12.9129 17.7399 12.915C18.0499 12.9475 18.3874 13.175 18.7049 13.2075C18.7273 13.2095 18.7498 13.2104 18.7724 13.21C18.7974 13.21 18.8249 13.2075 18.8499 13.2075C19.1474 13.1725 19.4574 12.975 19.7474 12.925C19.7886 12.9171 19.8304 12.9129 19.8724 12.9125C19.8949 12.9125 19.9174 12.915 19.9399 12.915C19.9563 12.9195 19.973 12.9228 19.9899 12.925C20.3799 13.0125 20.6124 13.5375 20.9624 13.7075C21.0825 13.7604 21.2113 13.7909 21.3424 13.7975C21.3721 13.8024 21.4022 13.8049 21.4324 13.805C21.6938 13.7921 21.9536 13.8527 22.1824 13.98C22.4899 14.225 22.4749 14.8 22.7199 15.1075C22.9624 15.4125 23.5274 15.525 23.6999 15.88C23.7682 16.0676 23.7786 16.2713 23.7299 16.4649Z" fill="#E8FBFC"/>
<path opacity="0.25" d="M30.4577 8.86997C30.2877 9.22497 29.7227 9.33497 29.4777 9.64247C29.2327 9.94997 29.2477 10.5225 28.9402 10.7675C28.6352 11.0125 28.0777 10.87 27.7227 11.0425C27.3727 11.21 27.1377 11.735 26.7477 11.8225C26.7093 11.8325 26.6698 11.8376 26.6302 11.8375C26.2827 11.8375 25.8927 11.54 25.5327 11.54C25.1727 11.54 24.7827 11.8375 24.4352 11.8375C24.3947 11.8374 24.3544 11.8324 24.3152 11.8225C23.9277 11.735 23.6927 11.21 23.3427 11.0425C22.9852 10.87 22.4302 11.0125 22.1227 10.7675C21.8152 10.5225 21.8327 9.94747 21.5877 9.64247C21.3427 9.33497 20.7777 9.22497 20.6052 8.86997C20.5381 8.68211 20.5277 8.47871 20.5752 8.28497C20.5825 8.31417 20.5926 8.34262 20.6052 8.36997C20.7777 8.72497 21.3427 8.83497 21.5877 9.14247C21.8327 9.44747 21.8152 10.0225 22.1227 10.2675C22.4302 10.5125 22.9852 10.37 23.3427 10.5425C23.6927 10.71 23.9277 11.235 24.3152 11.3225C24.3544 11.3324 24.3947 11.3374 24.4352 11.3375C24.7827 11.3375 25.1727 11.04 25.5327 11.04C25.8927 11.04 26.2827 11.3375 26.6302 11.3375C26.6698 11.3376 26.7093 11.3325 26.7477 11.3225C27.1377 11.235 27.3727 10.71 27.7227 10.5425C28.0777 10.37 28.6352 10.5125 28.9402 10.2675C29.2477 10.0225 29.2327 9.44997 29.4777 9.14247C29.7227 8.83497 30.2877 8.72497 30.4577 8.36997C30.47 8.34138 30.4808 8.31218 30.4902 8.28247C30.5368 8.47728 30.5255 8.68149 30.4577 8.86997Z" fill="#0F423C"/>
<path opacity="0.3" d="M30.4899 4.71745C30.4805 4.68774 30.4697 4.65854 30.4574 4.62995C30.2874 4.27245 29.7224 4.16245 29.4774 3.85745C29.2324 3.54995 29.2474 2.97495 28.9399 2.72995C28.6349 2.48495 28.0774 2.62745 27.7224 2.45745C27.3724 2.28745 27.1374 1.76245 26.7499 1.67495C26.7105 1.66585 26.6702 1.66165 26.6299 1.66245C26.2824 1.66245 25.8924 1.95995 25.5324 1.95995C25.1724 1.95995 24.7824 1.66245 24.4349 1.66245C24.3945 1.66165 24.3542 1.66585 24.3149 1.67495C23.9274 1.76245 23.6924 2.28745 23.3424 2.45745C22.9849 2.62745 22.4299 2.48495 22.1224 2.72995C21.8149 2.97495 21.8324 3.54995 21.5874 3.85745C21.3424 4.16245 20.7774 4.27245 20.6049 4.62995C20.5924 4.65745 20.5824 4.68495 20.5724 4.71245C20.5268 4.51921 20.5381 4.31693 20.6049 4.12995C20.7774 3.77245 21.3424 3.66245 21.5874 3.35745C21.8324 3.04995 21.8149 2.47495 22.1224 2.22995C22.4299 1.98495 22.9849 2.12745 23.3424 1.95745C23.6924 1.78745 23.9274 1.26245 24.3149 1.17495C24.3542 1.16585 24.3945 1.16165 24.4349 1.16245C24.7824 1.16245 25.1724 1.45995 25.5324 1.45995C25.8924 1.45995 26.2824 1.16245 26.6299 1.16245C26.6702 1.16165 26.7105 1.16585 26.7499 1.17495C27.1374 1.26245 27.3724 1.78745 27.7224 1.95745C28.0774 2.12745 28.6349 1.98495 28.9399 2.22995C29.2474 2.47495 29.2324 3.04995 29.4774 3.35745C29.7224 3.66245 30.2874 3.77245 30.4574 4.12995C30.5253 4.31843 30.5365 4.52264 30.4899 4.71745Z" fill="#E8FBFC"/>
<path opacity="0.3" d="M14.0173 12.8076L13.9423 13.2576C13.9423 13.2576 10.1248 10.9476 10.0098 10.8801L10.2148 10.5076C10.2173 10.5026 10.2223 10.5026 10.2273 10.5051L14.0123 12.8001C14.0148 12.8026 14.0173 12.8051 14.0173 12.8076Z" fill="#F9DBD7"/>
<path opacity="0.5" d="M8.4927 13.5525L8.6877 13.67L3.8227 22.2375C3.8227 22.24 3.82021 22.24 3.82021 22.2425C3.77696 22.1653 3.75445 22.0782 3.75489 21.9897C3.75532 21.9012 3.77869 21.8143 3.8227 21.7375L8.4727 13.5375C8.4802 13.5425 8.4852 13.5475 8.4927 13.5525ZM17.7102 3.25503C17.666 3.17744 17.6022 3.11279 17.5252 3.06753L15.8177 2.06503C15.7462 2.02159 15.6639 1.99907 15.5802 2.00003C15.5389 2.00009 15.4978 2.00512 15.4577 2.01503C15.332 2.05078 15.2253 2.13421 15.1602 2.24753L10.9077 9.74753L10.7402 9.64503C10.7257 9.63654 10.7107 9.62902 10.6952 9.62253L15.1602 1.74753C15.2253 1.63421 15.332 1.55078 15.4577 1.51503C15.4978 1.50512 15.5389 1.50009 15.5802 1.50003C15.6639 1.49907 15.7462 1.52159 15.8177 1.56503L17.5252 2.56753C17.6384 2.63645 17.7208 2.74629 17.7552 2.87428C17.7897 3.00227 17.7735 3.1386 17.7102 3.25503Z" fill="#F9EDD2"/>
<path opacity="0.45" d="M11.0001 15.0825L6.3676 23.2525C6.33569 23.3086 6.29296 23.3578 6.2419 23.3973C6.19084 23.4368 6.13245 23.4657 6.07012 23.4825C5.94855 23.5148 5.81915 23.4977 5.71012 23.435L4.00262 22.43C3.88878 22.3616 3.80605 22.2516 3.77198 22.1233C3.73791 21.9949 3.75517 21.8583 3.82012 21.7425C3.86194 21.8211 3.92524 21.8861 4.00262 21.93L5.71012 22.935C5.81915 22.9977 5.94855 23.0148 6.07012 22.9825C6.13245 22.9657 6.19084 22.9368 6.2419 22.8973C6.29296 22.8578 6.33569 22.8086 6.3676 22.7525L10.7926 14.9475L10.9976 15.0725C11.0001 15.0725 11.0026 15.08 11.0001 15.0825Z" fill="#AD9359"/>
<path opacity="0.5" d="M14.0176 12.8075L13.8001 14.135C13.7999 14.1369 13.799 14.1387 13.7976 14.14L12.8126 14.995C12.8097 14.997 12.8061 14.9979 12.8026 14.9975L9.01762 12.7025C9.01596 12.7009 9.01482 12.6989 9.01437 12.6967C9.01393 12.6944 9.01419 12.6921 9.01512 12.69L9.21762 12.3225L12.8026 14.4975C12.8061 14.4979 12.8097 14.497 12.8126 14.495L13.7976 13.64C13.799 13.6387 13.7999 13.6369 13.8001 13.635L13.9426 12.7575L14.0126 12.8C14.0151 12.8025 14.0176 12.805 14.0176 12.8075Z" fill="#A54B3F"/>
<path opacity="0.3" d="M29.2877 22.0075V22.4925C29.2831 22.3603 29.2273 22.2351 29.1322 22.1432C29.037 22.0514 28.91 22 28.7777 22H8.51522C8.51272 22 8.51021 22.0025 8.50771 22.005L8.22771 22.5H7.95771C7.95635 22.4998 7.95504 22.4993 7.95389 22.4985C7.95275 22.4977 7.95178 22.4967 7.95107 22.4955C7.95035 22.4943 7.94991 22.493 7.94976 22.4916C7.94961 22.4902 7.94977 22.4888 7.95021 22.4875L8.50771 21.505C8.5102 21.5025 8.51272 21.5 8.51522 21.5H28.7777C28.9125 21.5 29.0419 21.5534 29.1375 21.6485C29.233 21.7436 29.2871 21.8727 29.2877 22.0075Z" fill="#F9DBD7"/>
<path opacity="0.5" d="M29.2873 23.5076V24.0076C29.2873 24.0026 29.2823 24.0001 29.2773 24.0001H7.76733C7.76631 23.9999 7.76527 24 7.7643 24.0003C7.76332 24.0007 7.76244 24.0012 7.76171 24.0019C7.76098 24.0027 7.76043 24.0036 7.76011 24.0045C7.75978 24.0055 7.75969 24.0065 7.75983 24.0076V23.5076C7.75969 23.5065 7.75978 23.5055 7.76011 23.5045C7.76043 23.5036 7.76098 23.5027 7.76171 23.5019C7.76244 23.5012 7.76332 23.5007 7.7643 23.5003C7.76527 23.5 7.76631 23.4999 7.76733 23.5001H29.2773C29.2823 23.5001 29.2873 23.5026 29.2873 23.5076Z" fill="#F9EDD2"/>
<path opacity="0.3" d="M19.775 27.3V27.8C19.775 27.7925 19.77 27.79 19.7625 27.7925L18.5225 28.25H18.5175L17.2825 27.79C17.2775 27.7875 17.2725 27.79 17.2725 27.7975V27.2975C17.2725 27.29 17.2775 27.2875 17.2825 27.29L18.5175 27.75H18.5225L19.7625 27.2925C19.77 27.29 19.775 27.2925 19.775 27.3Z" fill="#F9DBD7"/>
<path opacity="0.5" d="M19.775 30.4924V30.9924C19.7744 30.9942 19.7735 30.9958 19.7722 30.9971C19.7708 30.9984 19.7692 30.9994 19.7675 30.9999H17.28C17.278 30.9998 17.2762 30.999 17.2748 30.9976C17.2734 30.9962 17.2726 30.9944 17.2725 30.9924V30.4924C17.2726 30.4944 17.2734 30.4962 17.2748 30.4976C17.2762 30.499 17.278 30.4998 17.28 30.4999H19.7675C19.7692 30.4994 19.7708 30.4984 19.7722 30.4971C19.7735 30.4958 19.7744 30.4942 19.775 30.4924Z" fill="#A54B3F"/>
<path opacity="0.45" d="M16.2698 30.4924V30.9924C16.2696 30.9944 16.2688 30.9962 16.2674 30.9976C16.2661 30.999 16.2642 30.9998 16.2623 30.9999H8.26977C8.20294 31.0001 8.13673 30.9872 8.07493 30.9618C8.01312 30.9364 7.95693 30.899 7.90956 30.8519C7.86219 30.8048 7.82458 30.7488 7.79888 30.6871C7.77318 30.6254 7.75988 30.5593 7.75977 30.4924V29.9924C7.75988 30.0593 7.77318 30.1254 7.79888 30.1871C7.82458 30.2488 7.86219 30.3048 7.90956 30.3519C7.95693 30.399 8.01312 30.4364 8.07493 30.4618C8.13673 30.4872 8.20294 30.5001 8.26977 30.4999H16.2623C16.2642 30.4998 16.2661 30.499 16.2674 30.4976C16.2688 30.4962 16.2696 30.4944 16.2698 30.4924ZM29.2873 29.9924V30.4924C29.2866 30.6273 29.2326 30.7563 29.137 30.8514C29.0414 30.9465 28.9121 30.9999 28.7773 30.9999H20.7848C20.7825 30.9998 20.7804 30.999 20.7786 30.9977C20.7768 30.9964 20.7755 30.9945 20.7748 30.9924V30.4924C20.7755 30.4945 20.7768 30.4964 20.7786 30.4977C20.7804 30.499 20.7825 30.4998 20.7848 30.4999H28.7773C28.9121 30.4999 29.0414 30.4465 29.137 30.3514C29.2326 30.2563 29.2866 30.1273 29.2873 29.9924Z" fill="#AD9359"/>
</g>
<defs>
<clipPath id="clip0_336_1115">
<rect width="32" height="32" fill="white"/>
</clipPath>
</defs>
</svg>
