<svg width="48" height="48" viewBox="0 0 48 48" fill="none" xmlns="http://www.w3.org/2000/svg">
<path d="M24.0014 18.7487C24.0014 16.2541 21.9944 14.25 19.4999 14.25H16.5008C16.5008 16.7445 18.5078 18.7487 20.9995 18.7487H24.0014ZM29.9996 18.7487C29.9996 16.2541 32.0066 14.25 34.5011 14.25H37.5003C37.5003 16.7445 35.4933 18.7487 33.0016 18.7487H29.9996Z" fill="#F1B46B"/>
<path d="M16.498 26.2493C16.498 26.2493 20.9995 21.7506 27.0006 21.7506C33.0016 21.7506 37.5003 26.2493 37.5003 26.2493V31.4991H16.5008L16.498 26.2493Z" fill="#5D5D5D"/>
<path d="M9.75142 29.2485C11.251 27.7517 12.7505 26.2493 15.7496 26.2493H31.5021C32.9421 26.2493 34.1384 27.2528 34.4048 28.6135L41.038 21.9661C41.2977 21.7055 41.6063 21.4987 41.9461 21.3575C42.2858 21.2164 42.6501 21.1438 43.0181 21.1438C43.386 21.1438 43.7503 21.2164 44.0901 21.3575C44.4298 21.4987 44.7384 21.7055 44.9981 21.9661C46.0951 23.0631 45.8939 24.6591 44.9981 25.9262C42.8681 28.9727 40.7486 32.0267 38.6399 35.0879C37.2168 37.1459 35.3431 38.2486 32.9988 38.2486H20.254C18.7516 38.2486 18.0032 38.9998 17.252 39.751L8.24902 30.7508L9.75142 29.2485Z" fill="#F99621"/>
<path d="M2.25073 33.7499L6.7494 29.2484L18.7515 41.2505L14.25 45.7492L2.25073 33.7499Z" fill="#919191"/>
<path d="M27.0005 1.48535C26.6263 1.48535 26.2493 1.73476 26.2493 2.2365V3.85801C24.9652 4.19818 24.0014 5.36321 24.0014 6.74938C24.0014 8.39917 25.3564 9.75415 27.0034 9.75415C27.8396 9.75415 28.4972 10.409 28.4972 11.2452C28.4972 12.0843 27.8396 12.7476 27.0034 12.7476C26.8055 12.7495 26.6093 12.712 26.4262 12.6371C26.2431 12.5623 26.0767 12.4517 25.9368 12.3118C25.7969 12.1719 25.6863 12.0055 25.6115 11.8224C25.5366 11.6393 25.4991 11.443 25.501 11.2452C25.5073 11.1429 25.4925 11.0403 25.4577 10.9439C25.4229 10.8475 25.3687 10.7592 25.2984 10.6845C25.2282 10.6098 25.1434 10.5502 25.0493 10.5095C24.9552 10.4689 24.8537 10.4479 24.7512 10.4479C24.6487 10.4479 24.5472 10.4689 24.4531 10.5095C24.359 10.5502 24.2742 10.6098 24.2039 10.6845C24.1337 10.7592 24.0795 10.8475 24.0447 10.9439C24.0098 11.0403 23.9951 11.1429 24.0014 11.2452C24.0014 12.6342 24.9652 13.8021 26.2493 14.1366V21.025C24.3097 21.1574 22.4142 21.6647 20.6678 22.5188C20.5749 22.5587 20.491 22.617 20.4211 22.6902C20.3513 22.7633 20.2969 22.8498 20.2613 22.9444C20.2257 23.0391 20.2096 23.1399 20.2139 23.241C20.2182 23.342 20.2428 23.4411 20.2864 23.5324C20.3299 23.6237 20.3914 23.7052 20.4672 23.7721C20.543 23.839 20.6316 23.89 20.7276 23.9219C20.8235 23.9537 20.9249 23.9659 21.0257 23.9577C21.1265 23.9494 21.2246 23.9209 21.3141 23.8739C22.9214 23.1085 24.8688 22.499 27.0005 22.499C29.1322 22.499 31.0825 23.1056 32.6869 23.8739C32.7764 23.9209 32.8745 23.9494 32.9753 23.9577C33.0761 23.9659 33.1775 23.9537 33.2735 23.9219C33.3695 23.89 33.458 23.839 33.5338 23.7721C33.6096 23.7052 33.6712 23.6237 33.7147 23.5324C33.7582 23.4411 33.7829 23.342 33.7872 23.241C33.7915 23.1399 33.7754 23.0391 33.7397 22.9444C33.7041 22.8498 33.6498 22.7633 33.5799 22.6902C33.5101 22.617 33.4262 22.5587 33.3332 22.5188C31.5859 21.6644 29.6894 21.1571 27.7489 21.025V14.1394C28.3899 13.9726 28.9578 13.5987 29.3643 13.0758C29.7708 12.5529 29.9932 11.9104 29.9968 11.2481C29.9968 9.59827 28.6503 8.25177 27.0034 8.25177C26.8056 8.25327 26.6096 8.21548 26.4266 8.14052C26.2437 8.06555 26.0775 7.95488 25.9376 7.81507C25.7978 7.67526 25.6872 7.50909 25.6123 7.32613C25.5373 7.14317 25.4995 6.94709 25.501 6.74938C25.501 5.91314 26.1671 5.24984 27.0034 5.24984C27.8396 5.24984 28.4972 5.91316 28.4972 6.75223C28.4972 6.95146 28.5764 7.14252 28.7173 7.28339C28.8581 7.42427 29.0492 7.50338 29.2484 7.50338C29.4477 7.50338 29.6387 7.42427 29.7796 7.28339C29.9205 7.14252 29.9996 6.95146 29.9996 6.75223C29.9996 5.36323 29.0358 4.19534 27.7517 3.85801V2.2365C27.7517 1.73476 27.3747 1.48535 27.0005 1.48535ZM16.5008 13.4988C16.3025 13.4996 16.1126 13.5786 15.9724 13.7188C15.8323 13.859 15.7532 14.0489 15.7524 14.2471C15.7524 17.1442 18.1052 19.5027 21.0023 19.5027H24.0014C24.4153 19.5027 24.7498 19.1625 24.7498 18.7487C24.7498 15.8544 22.397 13.4988 19.5027 13.4988H16.5008ZM34.5011 13.4988C31.6041 13.4988 29.2513 15.8516 29.2513 18.7487C29.2513 19.1625 29.5829 19.4998 29.9968 19.5027H33.0016C34.3943 19.4997 35.729 18.9449 36.7135 17.9599C37.698 16.9749 38.252 15.6398 38.2543 14.2471C38.2539 14.1485 38.2341 14.0509 38.196 13.9599C38.1579 13.8689 38.1023 13.7863 38.0323 13.7168C37.9622 13.6473 37.8792 13.5923 37.7879 13.5549C37.6967 13.5175 37.5989 13.4985 37.5003 13.4988H34.5011ZM17.3285 15.0012H19.5027C21.3736 15.0012 22.7995 16.3278 23.1793 18.0003H21.0023C19.0832 18.0003 17.7112 16.668 17.3285 15.0012ZM34.4983 15.0012H36.6754C36.2927 16.6709 34.8923 18.0003 32.9988 18.0003H30.8387C31.2186 16.3278 32.5792 15.0012 34.4983 15.0012ZM43.0166 20.3985C42.1095 20.3985 41.1967 20.7443 40.5079 21.436L36.1084 25.8354C35.3714 26.5441 36.4599 27.6326 37.1686 26.8956L41.5681 22.4961C41.7572 22.3035 41.9829 22.1506 42.2318 22.0462C42.4808 21.9418 42.748 21.888 43.018 21.888C43.288 21.888 43.5552 21.9418 43.8042 22.0462C44.0531 22.1506 44.2788 22.3035 44.468 22.4961C44.6508 22.67 44.7929 22.8822 44.8841 23.1174C44.9752 23.3527 45.0132 23.6052 44.9952 23.8568C44.9782 24.3727 44.7656 24.9624 44.3857 25.4953C42.9542 27.5306 39.7425 32.1739 38.0247 34.6627C36.7065 36.5705 35.1078 37.5002 33.0016 37.5002H20.2511C18.8848 37.5002 17.9663 38.0926 17.269 38.7078L7.28234 28.7183C7.21257 28.6485 7.12972 28.5931 7.03852 28.5552C6.94732 28.5174 6.84956 28.498 6.75083 28.498C6.65211 28.498 6.55435 28.5174 6.46315 28.5552C6.37195 28.5931 6.28909 28.6485 6.21933 28.7183L1.72066 33.2199C1.6508 33.2896 1.59539 33.3724 1.55758 33.4636C1.51977 33.5548 1.50031 33.6526 1.50031 33.7514C1.50031 33.8501 1.51977 33.9478 1.55758 34.039C1.59539 34.1302 1.6508 34.2131 1.72066 34.2829L13.7228 46.2822C14.0148 46.5713 14.4882 46.5713 14.7801 46.2822L19.2816 41.7806C19.421 41.64 19.4992 41.45 19.4992 41.252C19.4992 41.054 19.421 40.864 19.2816 40.7233L18.3178 39.7594C18.5688 39.5043 18.8706 39.3048 19.2036 39.174C19.5367 39.0431 19.8936 38.9838 20.2511 38.9998H33.0016C35.5812 38.9998 37.7327 37.7242 39.2578 35.516C40.9756 33.0271 44.1902 28.3753 45.6103 26.3598C46.1291 25.6285 46.4636 24.7838 46.4976 23.9107C46.5161 23.4538 46.4398 22.998 46.2734 22.5721C46.107 22.1462 45.8542 21.7593 45.531 21.436C45.2009 21.1059 44.8088 20.8444 44.3773 20.6664C43.9458 20.4883 43.4834 20.3973 43.0166 20.3985ZM15.7524 25.5009C12.9489 25.5009 11.2169 26.785 9.85625 28.0947C9.12773 28.7863 10.1737 29.8777 10.8966 29.1747C12.1722 27.9473 13.3798 27.0005 15.7524 27.0005H31.502C32.7606 27.0005 33.7528 27.9926 33.7528 29.2512C33.7528 30.5098 32.7606 31.502 31.502 31.502H23.253C22.2382 31.4878 22.2382 33.0158 23.253 33.0016H31.502C33.5657 33.0016 35.2523 31.3149 35.2523 29.2512C35.2523 27.1875 33.5657 25.5009 31.502 25.5009H15.7524ZM6.75225 30.3142L17.6942 41.2477L14.2529 44.6919L3.31092 33.7499L6.75225 30.3142Z" fill="#121212"/>
</svg>
