<svg width="41" height="41" viewBox="0 0 41 41" fill="none" xmlns="http://www.w3.org/2000/svg">
<path fill-rule="evenodd" clip-rule="evenodd" d="M36.7957 20.0981L35.4932 19.0562V36.2054H37.5765C38.2669 36.2054 38.8265 36.765 38.8265 37.4554C38.8265 38.1457 38.2669 38.7054 37.5765 38.7054H4.24321C3.55285 38.7054 2.99321 38.1457 2.99321 37.4554C2.99321 36.765 3.55285 36.2054 4.24321 36.2054H6.32654V19.0562L5.02408 20.0981C4.485 20.5294 3.69839 20.442 3.26712 19.9029C2.83586 19.3638 2.92326 18.5772 3.46234 18.146L17.0055 7.3114C19.2881 5.48531 22.5316 5.48531 24.8142 7.3114L38.3574 18.146C38.8965 18.5772 38.9839 19.3638 38.5526 19.9029C38.1214 20.442 37.3348 20.5294 36.7957 20.0981ZM20.9099 12.0387C18.3786 12.0387 16.3265 14.0907 16.3265 16.622C16.3265 19.1533 18.3786 21.2054 20.9099 21.2054C23.4412 21.2054 25.4932 19.1533 25.4932 16.622C25.4932 14.0907 23.4412 12.0387 20.9099 12.0387ZM23.8196 22.9747C23.055 22.8719 22.1003 22.872 20.9922 22.872H20.8276C19.7195 22.872 18.7647 22.8719 18.0001 22.9747C17.1807 23.0849 16.3953 23.3333 15.7582 23.9704C15.1211 24.6075 14.8727 25.3929 14.7626 26.2123C14.6598 26.9769 14.6598 27.9316 14.6599 29.0398L14.6599 36.2054H17.1599H24.6599H27.1599L27.1599 29.0398L27.1599 28.8338C27.1595 27.813 27.1536 26.9291 27.0572 26.2123C26.947 25.3929 26.6986 24.6075 26.0615 23.9704C25.4245 23.3333 24.639 23.0849 23.8196 22.9747Z" fill="#F99621"/>
<g opacity="0.5">
<path fill-rule="evenodd" clip-rule="evenodd" d="M18.8271 16.622C18.8271 15.4714 19.7599 14.5387 20.9105 14.5387C22.0611 14.5387 22.9938 15.4714 22.9938 16.622C22.9938 17.7726 22.0611 18.7054 20.9105 18.7054C19.7599 18.7054 18.8271 17.7726 18.8271 16.622Z" fill="#1C274C"/>
<path fill-rule="evenodd" clip-rule="evenodd" d="M18.8271 16.622C18.8271 15.4714 19.7599 14.5387 20.9105 14.5387C22.0611 14.5387 22.9938 15.4714 22.9938 16.622C22.9938 17.7726 22.0611 18.7054 20.9105 18.7054C19.7599 18.7054 18.8271 17.7726 18.8271 16.622Z" fill="#F99621"/>
</g>
<path opacity="0.5" d="M20.9924 22.8721C22.1006 22.872 23.0553 22.872 23.8199 22.9748C24.6393 23.0849 25.4247 23.3333 26.0618 23.9704C26.6989 24.6075 26.9473 25.3929 27.0575 26.2123C27.1539 26.9291 27.1598 27.8131 27.1602 28.8338L27.1602 36.2054H14.6602L14.6602 29.0398C14.6601 27.9317 14.66 26.9769 14.7628 26.2123C14.873 25.3929 15.1214 24.6075 15.7585 23.9704C16.3956 23.3333 17.181 23.0849 18.0004 22.9748C18.765 22.872 19.7198 22.872 20.8279 22.8721H20.9924Z" fill="#FFB300"/>
<path opacity="0.5" d="M27.5765 5.7887H31.7432C32.2034 5.7887 32.5765 6.16179 32.5765 6.62203L32.5765 13.5213L26.7432 8.85462V6.62203C26.7432 6.16179 27.1163 5.7887 27.5765 5.7887Z" fill="#FFB300"/>
</svg>
