<svg xmlns="http://www.w3.org/2000/svg" width="54" height="53" fill="none" viewBox="0 0 54 53"><g clip-path="url(#clip0_373_1347)"><path fill="#FACB9B" d="M48.5226 19.8714H30.3071V4.96786C30.3071 2.22808 28.0791 0 25.3393 0H5.46786C2.72808 0 0.5 2.22808 0.5 4.96786V26.4952C0.5 29.235 2.72808 31.4631 5.46786 31.4631H20.3714V48.0226C20.3714 50.7624 22.5995 52.9905 25.3393 52.9905H48.5226C51.2624 52.9905 53.4905 50.7624 53.4905 48.0226V24.8393C53.4905 22.0995 51.2624 19.8714 48.5226 19.8714Z"/><path fill="#668FCC" d="M48.5228 19.8713H25.3394C22.5997 19.8713 20.3716 22.0994 20.3716 24.8392V48.0225C20.3716 50.7623 22.5997 52.9904 25.3394 52.9904H48.5228C51.2625 52.9904 53.4906 50.7623 53.4906 48.0225V24.8392C53.4906 22.0994 51.2625 19.8713 48.5228 19.8713Z"/><path fill="#FACB9B" d="M43.5545 43.0548C40.8147 43.0548 38.5866 40.8267 38.5866 38.0869H41.8985C42.3377 38.0869 42.7589 37.9124 43.0694 37.6019C43.38 37.2913 43.5545 36.8701 43.5545 36.431C43.5545 35.9918 43.38 35.5706 43.0694 35.26C42.7589 34.9495 42.3377 34.775 41.8985 34.775H38.5866V33.119H41.8985C42.3377 33.119 42.7589 32.9446 43.0694 32.634C43.38 32.3235 43.5545 31.9023 43.5545 31.4631C43.5545 31.0239 43.38 30.6027 43.0694 30.2922C42.7589 29.9816 42.3377 29.8071 41.8985 29.8071H38.5866V28.1512C38.5866 27.712 38.4121 27.2908 38.1016 26.9803C37.791 26.6697 37.3698 26.4952 36.9306 26.4952C36.4915 26.4952 36.0703 26.6697 35.7597 26.9803C35.4492 27.2908 35.2747 27.712 35.2747 28.1512V29.8071H31.9628C31.5236 29.8071 31.1024 29.9816 30.7918 30.2922C30.4813 30.6027 30.3068 31.0239 30.3068 31.4631C30.3068 31.9023 30.4813 32.3235 30.7918 32.634C31.1024 32.9446 31.5236 33.119 31.9628 33.119H35.2747V34.775H31.9628C31.5236 34.775 31.1024 34.9495 30.7918 35.26C30.4813 35.5706 30.3068 35.9918 30.3068 36.431C30.3068 36.8701 30.4813 37.2913 30.7918 37.6019C31.1024 37.9124 31.5236 38.0869 31.9628 38.0869H35.2747C35.2747 40.8267 33.0466 43.0548 30.3068 43.0548C29.8676 43.0548 29.4464 43.2292 29.1359 43.5398C28.8253 43.8503 28.6509 44.2715 28.6509 44.7107C28.6509 45.1499 28.8253 45.5711 29.1359 45.8817C29.4464 46.1922 29.8676 46.3667 30.3068 46.3667C33.0168 46.3667 35.4196 45.0527 36.9306 43.0341C38.4417 45.0527 40.8445 46.3667 43.5545 46.3667C43.9936 46.3667 44.4148 46.1922 44.7254 45.8817C45.0359 45.5711 45.2104 45.1499 45.2104 44.7107C45.2104 44.2715 45.0359 43.8503 44.7254 43.5398C44.4148 43.2292 43.9936 43.0548 43.5545 43.0548Z"/><path fill="#FFA677" d="M15.4041 4.9679C11.7519 4.9679 8.78027 7.9395 8.78027 11.5917V23.1834C8.78027 23.6226 8.95474 24.0438 9.26529 24.3543C9.57584 24.6649 9.99704 24.8393 10.4362 24.8393C10.8754 24.8393 11.2966 24.6649 11.6072 24.3543C11.9177 24.0438 12.0922 23.6226 12.0922 23.1834V16.5596H18.716V18.2155C18.716 18.6547 18.8905 19.0759 19.201 19.3864C19.5116 19.697 19.9328 19.8715 20.3719 19.8715C20.8111 19.8715 21.2323 19.697 21.5429 19.3864C21.8534 19.0759 22.0279 18.6547 22.0279 18.2155V11.5917C22.0279 7.9395 19.0563 4.9679 15.4041 4.9679ZM12.0922 13.2477V11.5917C12.0922 9.76519 13.5776 8.2798 15.4041 8.2798C17.2306 8.2798 18.716 9.76519 18.716 11.5917V13.2477H12.0922Z"/></g><defs><clipPath id="clip0_373_1347"><rect width="52.99" height="52.99" fill="#fff" transform="translate(0.5)"/></clipPath></defs></svg>