<svg width="41" height="41" viewBox="0 0 41 41" fill="none" xmlns="http://www.w3.org/2000/svg">
<path fill-rule="evenodd" clip-rule="evenodd" d="M27.745 23.0538L28.5041 22.299C29.5534 21.2556 31.1892 21.0412 32.5319 21.7711L35.716 23.502C37.7608 24.6136 38.2114 27.3379 36.6133 28.927L34.2457 31.2811C33.6437 31.8797 32.8966 32.3172 32.0376 32.3973C30.0507 32.5825 25.9626 32.4825 21.1395 29.6593L27.745 23.0538ZM17.895 13.2597L18.373 12.7844C19.5506 11.6135 19.6616 9.73359 18.6342 8.36121L16.5326 5.55387C15.261 3.85526 12.8037 3.63088 11.3462 5.08012L8.73023 7.68127C8.00753 8.39986 7.52323 9.33139 7.58196 10.3647C7.68983 12.2628 8.33684 15.7302 11.1634 19.9913L17.895 13.2597Z" fill="#F99621"/>
<path opacity="0.6" d="M21.0144 19.9509C16.1048 15.0691 17.8825 13.2709 17.8937 13.2598L11.1621 19.9913C12.2724 21.6651 13.7191 23.4614 15.6014 25.3331C17.501 27.2218 19.369 28.6238 21.1382 29.6594L27.7437 23.0539C27.7437 23.0539 25.9394 24.8479 21.0144 19.9509Z" fill="#FFB300"/>
</svg>
