<svg width="32" height="32" viewBox="0 0 32 32" fill="none" xmlns="http://www.w3.org/2000/svg">
<path d="M12.4498 21.4999H4.5498C4.65035 21.0118 4.89448 20.5649 5.25085 20.2166C5.60721 19.8682 6.05955 19.6343 6.5498 19.5449C6.78375 19.8424 7.08216 20.0828 7.42254 20.2481C7.76292 20.4135 8.13639 20.4994 8.5148 20.4994C8.89321 20.4994 9.26669 20.4135 9.60707 20.2481C9.94745 20.0828 10.2459 19.8424 10.4798 19.5449C10.9646 19.6397 11.4104 19.876 11.761 20.2239C12.1116 20.5719 12.3513 21.0159 12.4498 21.4999Z" fill="#4795EA"/>
<path d="M13.3801 21.675C13.3332 21.6202 13.2749 21.5761 13.2093 21.5459C13.1437 21.5157 13.0723 21.5 13.0001 21.5H4.0001C3.92713 21.4991 3.85484 21.5141 3.7883 21.5441C3.72177 21.5741 3.6626 21.6183 3.61495 21.6735C3.5673 21.7288 3.53233 21.7938 3.51249 21.8641C3.49265 21.9343 3.48842 22.008 3.5001 22.08L4.5001 28.08C4.51927 28.1984 4.5803 28.3058 4.67207 28.3829C4.76384 28.46 4.88026 28.5016 5.0001 28.5H12.0001C12.1199 28.5016 12.2364 28.46 12.3281 28.3829C12.4199 28.3058 12.4809 28.1984 12.5001 28.08L13.5001 22.08C13.5109 22.0079 13.5057 21.9342 13.485 21.8642C13.4642 21.7943 13.4284 21.7297 13.3801 21.675Z" fill="url(#paint0_linear_336_1104)"/>
<path d="M8.5 26.5C9.32843 26.5 10 25.8284 10 25C10 24.1716 9.32843 23.5 8.5 23.5C7.67157 23.5 7 24.1716 7 25C7 25.8284 7.67157 26.5 8.5 26.5Z" fill="url(#paint1_linear_336_1104)"/>
<path d="M15 26C14.6022 26 14.2206 26.158 13.9393 26.4393C13.658 26.7206 13.5 27.1022 13.5 27.5V28C13.5 28.1326 13.5527 28.2598 13.6464 28.3536C13.7402 28.4473 13.8674 28.5 14 28.5H16C16.1326 28.5 16.2598 28.4473 16.3536 28.3536C16.4473 28.2598 16.5 28.1326 16.5 28V27.5C16.5 27.1022 16.342 26.7206 16.0607 26.4393C15.7794 26.158 15.3978 26 15 26Z" fill="url(#paint2_linear_336_1104)"/>
<path d="M16.795 3.53003H16.755C16.505 3.53003 16.255 3.53003 16 3.53003C15.745 3.53003 15.5 3.53003 15.245 3.53003H15.205C12.0347 3.73207 9.06018 5.13363 6.88603 7.44987C4.71188 9.76611 3.50119 12.8233 3.5 16C3.5016 16.5214 3.53332 17.0423 3.595 17.56C3.61091 17.6926 3.67885 17.8135 3.78387 17.896C3.88889 17.9785 4.02239 18.0159 4.155 18C4.28761 17.9841 4.40846 17.9162 4.49098 17.8112C4.5735 17.7061 4.61091 17.5726 4.595 17.44C4.53332 16.9625 4.50159 16.4815 4.5 16C4.50035 14.2673 4.89534 12.5574 5.655 11C6.84043 10.631 8.04566 10.3288 9.265 10.095C8.7885 11.1615 8.44104 12.2811 8.23 13.43C8.20613 13.5626 8.23592 13.6993 8.31281 13.8099C8.3897 13.9206 8.50739 13.9962 8.64 14.02C8.77261 14.0439 8.90927 14.0141 9.01991 13.9372C9.13056 13.8603 9.20613 13.7426 9.23 13.61C9.46552 12.3157 9.88829 11.0625 10.485 9.89003C12.1447 9.63638 13.821 9.50602 15.5 9.50003V15.5H12.5C12.3674 15.5 12.2402 15.5527 12.1464 15.6465C12.0527 15.7402 12 15.8674 12 16C12 16.1326 12.0527 16.2598 12.1464 16.3536C12.2402 16.4474 12.3674 16.5 12.5 16.5H15.5V21C15.5 21.1326 15.5527 21.2598 15.6464 21.3536C15.7402 21.4474 15.8674 21.5 16 21.5C16.1326 21.5 16.2598 21.4474 16.3536 21.3536C16.4473 21.2598 16.5 21.1326 16.5 21V16.5H23C22.9346 18.2769 22.5189 20.0233 21.7767 21.639C21.0345 23.2547 19.9804 24.7078 18.675 25.915C18.5819 26.0087 18.5296 26.1354 18.5296 26.2675C18.5296 26.3996 18.5819 26.5263 18.675 26.62C18.7212 26.6712 18.7774 26.7123 18.8403 26.7407C18.9031 26.7691 18.9711 26.7842 19.04 26.785C19.1663 26.7846 19.2878 26.7364 19.38 26.65C20.7819 25.3468 21.9119 23.779 22.7048 22.0369C23.4978 20.2949 23.9379 18.4131 24 16.5H27.5C27.4324 18.1735 26.9979 19.8117 26.2272 21.2987C25.4565 22.7856 24.3685 24.0851 23.04 25.105C22.9584 25.1683 22.8984 25.2553 22.8682 25.3541C22.838 25.4529 22.8392 25.5586 22.8715 25.6567C22.9038 25.7548 22.9658 25.8404 23.0488 25.9019C23.1318 25.9634 23.2317 25.9977 23.335 26C23.4455 25.9997 23.5527 25.9628 23.64 25.895C25.6497 24.3419 27.1385 22.2134 27.9083 19.7929C28.6781 17.3725 28.6923 14.775 27.949 12.3463C27.2056 9.91755 25.7401 7.77292 23.7475 6.19793C21.7548 4.62294 19.3297 3.69233 16.795 3.53003ZM27.5 15.5H24C23.9417 13.6741 23.5379 11.8757 22.81 10.2C23.975 10.415 25.155 10.67 26.36 10.98C27.0488 12.3915 27.437 13.9307 27.5 15.5ZM25.67 9.78503C24.515 9.51003 23.375 9.28503 22.255 9.08503C21.3733 7.45595 20.1848 6.01278 18.755 4.83503C21.6063 5.54413 24.0795 7.31456 25.67 9.78503ZM16.5 4.50003H16.6C18.3875 5.60209 19.8939 7.10508 21 8.89003C19.5083 8.67757 18.006 8.54737 16.5 8.50003V4.50003ZM6.365 9.73003C7.96075 7.28648 10.4224 5.53762 13.255 4.83503C11.8602 5.98511 10.6948 7.38796 9.82 8.97003C8.65539 9.16045 7.50201 9.41416 6.365 9.73003ZM11.095 8.78003C12.1876 7.04592 13.6596 5.58248 15.4 4.50003H15.5V8.50003C14.0273 8.50175 12.5561 8.59526 11.095 8.78003ZM16.5 9.50003C18.209 9.55613 19.9126 9.72315 21.6 10C22.4527 11.7129 22.93 13.588 23 15.5H16.5V9.50003Z" fill="url(#paint3_linear_336_1104)"/>
<path d="M8.5 20.5C9.88071 20.5 11 19.3807 11 18C11 16.6193 9.88071 15.5 8.5 15.5C7.11929 15.5 6 16.6193 6 18C6 19.3807 7.11929 20.5 8.5 20.5Z" fill="url(#paint4_linear_336_1104)"/>
<path d="M16 28.5H1.5C1.36739 28.5 1.24021 28.4473 1.14645 28.3536C1.05268 28.2598 1 28.1326 1 28C1 27.8674 1.05268 27.7402 1.14645 27.6464C1.24021 27.5527 1.36739 27.5 1.5 27.5H16C16.1326 27.5 16.2598 27.5527 16.3536 27.6464C16.4473 27.7402 16.5 27.8674 16.5 28C16.5 28.1326 16.4473 28.2598 16.3536 28.3536C16.2598 28.4473 16.1326 28.5 16 28.5Z" fill="#9DB8D3"/>
<defs>
<linearGradient id="paint0_linear_336_1104" x1="3.5001" y1="25" x2="13.5001" y2="25" gradientUnits="userSpaceOnUse">
<stop stop-color="#FE9661"/>
<stop offset="1" stop-color="#FFB369"/>
</linearGradient>
<linearGradient id="paint1_linear_336_1104" x1="7" y1="25" x2="10" y2="25" gradientUnits="userSpaceOnUse">
<stop stop-color="#D3E6F5"/>
<stop offset="1" stop-color="#F0F7FC"/>
</linearGradient>
<linearGradient id="paint2_linear_336_1104" x1="13.5" y1="27.25" x2="16.5" y2="27.25" gradientUnits="userSpaceOnUse">
<stop stop-color="#54A5FF"/>
<stop offset="1" stop-color="#8AD3FE"/>
</linearGradient>
<linearGradient id="paint3_linear_336_1104" x1="3.5" y1="15.14" x2="28.5" y2="15.14" gradientUnits="userSpaceOnUse">
<stop stop-color="#FE9661"/>
<stop offset="1" stop-color="#FFB369"/>
</linearGradient>
<linearGradient id="paint4_linear_336_1104" x1="6" y1="18" x2="11" y2="18" gradientUnits="userSpaceOnUse">
<stop stop-color="#54A5FF"/>
<stop offset="1" stop-color="#8AD3FE"/>
</linearGradient>
</defs>
</svg>
