<svg width="48" height="48" viewBox="0 0 48 48" fill="none" xmlns="http://www.w3.org/2000/svg">
<path d="M27.1875 28.2C26.7375 27.5625 26.325 26.925 25.875 26.2875C25.8375 26.25 25.8 26.175 25.8 26.1375C26.9625 24.9375 27.9 23.55 28.5375 21.9375C28.575 21.9375 28.575 21.9375 28.6125 21.9375C29.4375 22.0875 30.3 22.2375 31.125 22.425C31.1625 22.425 31.2 22.425 31.2375 22.425C31.5375 21.6375 31.725 20.8125 31.9125 19.9875C32.0625 19.125 32.175 18.3 32.175 17.475H32.1375C31.35 17.325 30.525 17.175 29.7375 17.025C29.625 17.025 29.55 16.9875 29.475 16.95C29.4375 15.2625 29.1 13.6125 28.4625 12.1125C28.5375 12.0375 28.65 11.9625 28.8 11.85C29.4375 11.4 30.075 10.95 30.7125 10.5375C30 9.00005 29.025 7.57505 27.8625 6.37505C27.1875 6.86255 26.5125 7.31255 25.8375 7.80005C25.7625 7.87505 25.65 7.91255 25.575 7.91255C24.4125 6.78755 22.9875 5.85005 21.4125 5.21255C21.4125 5.17505 21.4125 5.10005 21.4125 5.02505C21.525 4.61255 21.5625 4.16255 21.675 3.71255C21.75 3.30005 21.825 2.88755 21.9 2.51255C21.1125 2.25005 20.325 2.02505 19.5 1.87505C18.675 1.72505 17.85 1.65005 17.025 1.61255C16.95 2.02505 16.875 2.43755 16.8 2.85005C16.725 3.30005 16.6125 3.71255 16.575 4.16255C16.575 4.23755 16.5375 4.27505 16.5375 4.35005C14.85 4.35005 13.2 4.72505 11.7 5.36255C11.625 5.32505 11.5875 5.25005 11.5125 5.13755C11.0625 4.46255 10.575 3.78755 10.125 3.07505C8.58751 3.78755 7.16251 4.76255 5.96251 5.92505C6.41251 6.56255 6.86251 7.20005 7.27501 7.83755C7.38751 7.98755 7.46251 8.10005 7.50001 8.17505C6.37501 9.33755 5.43751 10.725 4.80001 12.3C4.72501 12.3 4.65001 12.3 4.53751 12.2625C3.75001 12.075 2.92501 11.9625 2.13751 11.8125H2.10001C1.80001 12.6 1.57501 13.425 1.42501 14.25C1.27501 15.075 1.16251 15.9375 1.16251 16.7625C1.20001 16.7625 1.23751 16.7625 1.27501 16.8C2.10001 16.95 2.96251 17.1 3.78751 17.25C3.82501 17.25 3.86251 17.25 3.86251 17.2875C3.90001 19.0125 4.23751 20.6625 4.91251 22.2001C4.87501 22.2375 4.83751 22.275 4.76251 22.3125C4.12501 22.725 3.48751 23.175 2.85001 23.625C2.77501 23.6625 2.70001 23.7375 2.66251 23.775C3.37501 25.3125 4.35001 26.7 5.51251 27.9L5.55001 27.8625C6.22501 27.375 6.93751 26.925 7.61251 26.4375C7.65001 26.4 7.72501 26.3625 7.76251 26.3625C8.92501 27.525 10.35 28.425 11.925 29.0625C11.925 29.1375 11.925 29.2125 11.8875 29.2875C11.7 30.1125 11.5875 30.9 11.4 31.725V31.7625C12.15 32.025 12.975 32.25 13.8 32.4C14.625 32.55 15.45 32.625 16.275 32.6625V32.625C16.425 31.8 16.575 31.0125 16.725 30.1875C16.725 30.1125 16.7625 30.0375 16.8 29.9625C18.4875 29.9625 20.175 29.5875 21.675 28.95C21.7125 28.9875 21.75 29.025 21.7875 29.1C22.2375 29.8125 22.725 30.4875 23.2125 31.2L23.25 31.2375C24.7875 30.525 26.175 29.5875 27.4125 28.425C27.3 28.35 27.225 28.3125 27.1875 28.2ZM24.3375 18.6C24.2625 19.0125 24.15 19.425 24 19.8375C23.5875 21 22.875 22.0126 22.0125 22.8375C21.4125 23.4375 20.7 23.8875 19.9125 24.2625C18.825 24.75 17.6625 25.0125 16.425 24.975C16.0125 24.975 15.6 24.9375 15.1875 24.825C14.775 24.75 14.3625 24.6376 13.9875 24.4876C12.825 24.0751 11.8125 23.4 10.9875 22.5375C10.3875 21.9375 9.90001 21.225 9.56251 20.4375C9.03751 19.35 8.77501 18.15 8.81251 16.9125C8.81251 16.5 8.85001 16.05 8.96251 15.6375C9.03751 15.225 9.15001 14.8125 9.30001 14.4C9.71251 13.2375 10.3875 12.225 11.25 11.4C11.8875 10.8 12.6 10.3125 13.35 9.97505C14.4375 9.48755 15.6 9.22505 16.8375 9.26255C17.25 9.26255 17.6625 9.30005 18.075 9.41255C18.4875 9.48755 18.9 9.60005 19.275 9.75005C20.4375 10.1625 21.45 10.8375 22.275 11.7C22.875 12.3375 23.3625 13.05 23.7375 13.8C24.225 14.8875 24.4875 16.05 24.4875 17.2875C24.45 17.7375 24.4125 18.1875 24.3375 18.6Z" fill="#121212"/>
<path d="M19.2375 14.6626C18.8625 14.2876 18.4125 13.9501 17.85 13.7626C17.6625 13.6876 17.475 13.6501 17.2875 13.6126C17.1 13.5751 16.9125 13.5751 16.725 13.5376C16.1625 13.5376 15.6 13.6501 15.1125 13.8751C14.7375 14.0251 14.4375 14.2501 14.1375 14.5501C13.7625 14.9251 13.425 15.3751 13.2375 15.9376C13.1625 16.1251 13.125 16.3126 13.0875 16.5001C13.05 16.6876 13.0125 16.8751 13.0125 17.1001C13.0125 17.6626 13.125 18.2251 13.35 18.7126C13.5 19.0501 13.725 19.3876 14.025 19.6876C14.4 20.0626 14.8875 20.4001 15.4125 20.5876C15.6 20.6626 15.7875 20.7001 15.975 20.7376C16.1625 20.7751 16.35 20.7751 16.5375 20.8126C17.1 20.8126 17.6625 20.7001 18.15 20.4751C18.4875 20.3251 18.825 20.1001 19.125 19.8376C19.5375 19.4626 19.8375 18.9751 20.025 18.4501C20.1 18.2626 20.1375 18.0751 20.175 17.8876C20.2125 17.7001 20.25 17.5126 20.25 17.2876C20.25 16.7251 20.1375 16.1626 19.9125 15.6751C19.725 15.2626 19.5 14.9626 19.2375 14.6626ZM46.875 36.2251C46.35 36.1126 45.825 36.0001 45.2625 35.9251C45.1875 35.9251 45.15 35.8876 45.1125 35.8876C45.1125 34.7626 44.85 33.6751 44.4375 32.6626C44.475 32.6251 44.55 32.5501 44.6625 32.4751C45.075 32.1751 45.525 31.8751 45.9375 31.6126C45.45 30.6001 44.8125 29.6626 44.025 28.8376C43.575 29.1376 43.125 29.4376 42.675 29.7751C42.6 29.8126 42.5625 29.8501 42.525 29.8501C41.7375 29.1001 40.8 28.4626 39.75 28.0501C39.75 28.0126 39.75 27.9751 39.75 27.9376C39.825 27.6376 39.8625 27.3751 39.9 27.0751C39.9375 26.8126 39.975 26.5501 40.05 26.2501C39.525 26.0626 39 25.9126 38.4375 25.8001C37.875 25.6876 37.35 25.6501 36.7875 25.6126C36.75 25.8751 36.675 26.1376 36.6375 26.4376C36.6 26.7376 36.525 27.0001 36.4875 27.3001C36.4875 27.3376 36.4875 27.3751 36.45 27.4126C35.325 27.4126 34.2375 27.6751 33.225 28.0876C33.1875 28.0501 33.15 28.0126 33.1125 27.9376C32.8125 27.4876 32.475 27.0376 32.175 26.5876C31.1625 27.0751 30.225 27.7126 29.4 28.5001C29.7 28.9126 30 29.3626 30.3 29.7751C30.375 29.8876 30.4125 29.9626 30.45 30.0001C29.7 30.7876 29.0625 31.7251 28.65 32.7376C28.6125 32.7376 28.5375 32.7376 28.4625 32.7376C27.9375 32.6251 27.4125 32.5126 26.85 32.4376H26.8125C26.625 32.9626 26.475 33.4876 26.3625 34.0876C26.25 34.6501 26.2125 35.2126 26.175 35.7751C26.2125 35.7751 26.2125 35.7751 26.25 35.7751C26.8125 35.8876 27.375 36.0001 27.9375 36.0751C27.975 36.0751 27.975 36.0751 28.0125 36.0751C28.0125 37.2376 28.275 38.3251 28.725 39.3376C28.6875 39.3751 28.6875 39.3751 28.65 39.4126C28.2 39.7126 27.7875 39.9751 27.375 40.2751C27.3375 40.3126 27.2625 40.3501 27.225 40.3501C27.7125 41.3626 28.35 42.3001 29.1375 43.0876C29.1375 43.0876 29.175 43.0876 29.175 43.0501C29.625 42.7126 30.1125 42.4126 30.5625 42.1126C30.6 42.0751 30.6375 42.0751 30.675 42.0751C31.4625 42.8251 32.4 43.4626 33.45 43.8751C33.45 43.9126 33.45 43.9501 33.45 44.0251C33.3375 44.5501 33.2625 45.1126 33.15 45.6376V45.6751C33.675 45.8626 34.2 46.0126 34.7625 46.1251C35.325 46.2376 35.85 46.2751 36.4125 46.3126V46.2751C36.4875 45.7501 36.6375 45.1876 36.7125 44.6626C36.7125 44.6251 36.75 44.5501 36.75 44.5126C37.875 44.5126 39 44.2501 40.0125 43.8376C40.05 43.8751 40.05 43.8751 40.0875 43.9126C40.3875 44.3626 40.725 44.8501 41.025 45.3001C41.025 45.3001 41.025 45.3376 41.0625 45.3376C42.075 44.8501 43.0125 44.2126 43.8375 43.4626C43.8 43.4251 43.8 43.3876 43.7625 43.3126C43.4625 42.9001 43.2 42.4501 42.9 42.0376C42.8625 42.0001 42.8625 41.9626 42.825 41.9251C43.6125 41.1376 44.2125 40.2001 44.6625 39.1126C44.6625 39.1126 44.7 39.1126 44.7375 39.1126C45.3 39.2251 45.8625 39.3001 46.425 39.4126C46.4625 39.4126 46.4625 39.4126 46.5 39.4126C46.6875 38.8876 46.8375 38.3626 46.95 37.8001C46.8375 37.3501 46.875 36.7876 46.875 36.2251ZM41.7 36.9751C41.6625 37.2751 41.5875 37.5376 41.475 37.8001C41.2125 38.5876 40.725 39.2626 40.1625 39.7876C39.75 40.1626 39.2625 40.5001 38.775 40.7251C38.0625 41.0626 37.275 41.2501 36.45 41.2126C36.1875 41.2126 35.8875 41.1751 35.625 41.1376C35.3625 41.1001 35.0625 41.0251 34.8375 40.9126C34.05 40.6501 33.375 40.2001 32.85 39.6001C32.475 39.1876 32.1375 38.7376 31.875 38.2126C31.5375 37.5001 31.35 36.7126 31.3875 35.8501C31.3875 35.5876 31.425 35.2876 31.4625 34.9876C31.5 34.6876 31.575 34.4251 31.6875 34.1626C31.95 33.3751 32.4375 32.7001 33 32.1751C33.4125 31.7626 33.9 31.4626 34.425 31.2001C35.1375 30.8626 35.925 30.6751 36.75 30.7126C37.0125 30.7126 37.3125 30.7501 37.575 30.7876C37.8375 30.8251 38.1375 30.9001 38.4 31.0126C39.1875 31.2751 39.8625 31.7251 40.3875 32.3251C40.8 32.7376 41.1 33.2251 41.3625 33.7126C41.7 34.4251 41.8875 35.2126 41.85 36.0376C41.775 36.4126 41.7375 36.7126 41.7 36.9751Z" fill="#F99621"/>
<path d="M38.2875 34.3501C38.025 34.0876 37.725 33.9001 37.3875 33.7501C37.275 33.7126 37.1625 33.6751 37.0125 33.6376C36.9 33.6001 36.75 33.6001 36.6375 33.6001C36.2625 33.6001 35.8875 33.6751 35.55 33.8251C35.325 33.9376 35.1 34.0876 34.9125 34.2751C34.65 34.5376 34.425 34.8376 34.3125 35.1751C34.275 35.2876 34.2375 35.4376 34.2 35.5501C34.1625 35.6626 34.1625 35.8126 34.1625 35.9251C34.1625 36.3001 34.2375 36.6751 34.3875 37.0126C34.5 37.2376 34.65 37.4626 34.8375 37.6501C35.1 37.9126 35.4 38.1001 35.7375 38.2501C35.85 38.2876 35.9625 38.3251 36.1125 38.3626C36.225 38.4001 36.375 38.4001 36.4875 38.4001C36.8625 38.4001 37.2375 38.3251 37.575 38.1751C37.8 38.0626 38.025 37.9126 38.2125 37.7251C38.475 37.4626 38.7 37.1626 38.8125 36.7876C38.85 36.6751 38.8875 36.5251 38.925 36.4126C38.9625 36.3001 38.9625 36.1501 38.9625 36.0376C38.9625 35.6626 38.8875 35.2876 38.7375 34.9501C38.625 34.7626 38.475 34.5376 38.2875 34.3501Z" fill="#F99621"/>
</svg>
