<svg width="150" height="40" viewBox="0 0 150 40" fill="none" xmlns="http://www.w3.org/2000/svg">
<g clipPath="url(#clip0_1420_117)">
<path fillRule="evenodd" clipRule="evenodd" d="M0.674805 39.2707L4.17177 36.7735C4.32161 36.6672 4.45317 36.5894 4.61072 36.4701L7.64681 34.2547C7.95907 34.0385 8.21123 33.8487 8.50766 33.6304C8.80367 33.4121 9.07898 33.2301 9.37093 33.0086C10.7324 31.9766 12.3567 30.8917 13.7462 29.8516C13.9411 29.7058 14.467 29.2807 14.6615 29.2286V21.6307H8.51578C7.75564 21.6307 7.89045 21.3619 7.56966 22.1695L0.674805 39.2707H0.674805ZM8.03907 19.93H16.4099L18.1438 28.5521C18.238 29.0494 18.2457 28.9011 18.5417 29.163L22.7022 32.7479C22.8074 32.8461 22.8606 32.9198 22.9718 33.009L24.6627 34.4482C25.0285 34.7894 25.3655 35.101 25.7655 35.4141L29.3506 38.5132C29.5021 38.6545 30.0872 39.177 30.2378 39.2174C30.2179 38.9767 30.1217 38.8386 30.0454 38.6134L29.4509 36.8187C29.1557 36.0291 28.9096 35.195 28.6416 34.3891C28.3817 33.6068 28.1064 32.831 27.8336 32.0112L25.3964 24.7852C25.1183 23.9479 24.8429 23.1717 24.5754 22.3674L23.7738 19.93C25.4504 19.93 27.1311 19.919 28.8077 19.9309C29.6198 19.9366 29.675 19.6629 30.5127 19.0907L34.9444 15.8841C35.4743 15.4915 37.6841 13.9864 37.8664 13.7139C36.3441 13.7139 34.8831 13.661 33.3105 13.661H0.728404C0.807179 13.957 2.13499 14.9792 2.48907 15.2956C3.10059 15.8418 3.68694 16.3321 4.31511 16.8647L4.76908 17.2598C4.94328 17.4296 5.04195 17.5025 5.21818 17.6597L5.67134 18.0551C5.77732 18.1451 5.79966 18.1423 5.90767 18.2428L7.49617 19.625C7.63747 19.7586 7.78081 19.9304 8.03947 19.9304L8.03907 19.93ZM12.0655 11.907H21.0191C20.8936 11.3678 18.8918 5.80246 18.5089 4.64753L17.754 2.48223C17.6614 2.20164 17.5948 2.00291 17.4917 1.73576L16.9926 0.270508C16.8647 0.36458 16.8887 0.407748 16.8152 0.570237L12.3685 11.1475C12.2677 11.4012 12.174 11.681 12.0659 11.9066L12.0655 11.907Z" fill="#FFB300"/>
<path fillRule="evenodd" clipRule="evenodd" d="M47.6652 13.8141H47.9267C47.9267 14.6062 48.1314 15.5481 48.2617 16.3638C48.4087 17.2842 48.5541 18.1105 48.693 18.9478L49.4962 24.0448H46.0958C46.1092 23.4319 46.3663 22.1499 46.469 21.5333L47.2949 16.4591C47.4062 15.6532 47.6652 14.7165 47.6652 13.8141ZM41.2568 31.9147C45.6609 31.9147 44.7335 32.4848 45.1806 29.8166C45.3024 29.0905 45.5152 28.0146 45.5724 27.3239H50.0187C50.1653 27.9555 50.2226 28.4975 50.3355 29.2359C50.4406 29.9245 50.571 30.5521 50.6404 31.1601C50.7712 32.3122 51.055 31.9147 54.4655 31.9147C53.726 28.7309 52.7674 23.1114 52.0994 19.7288C51.3807 16.0918 50.5365 10.8714 49.7577 7.51855H45.8343C45.8343 8.34892 45.4616 9.70055 45.2991 10.5232C45.0965 11.5498 44.9264 12.5313 44.712 13.6068C44.4091 15.1262 41.2572 31.0835 41.2572 31.9147H41.2568Z" fill="white"/>
<path fillRule="evenodd" clipRule="evenodd" d="M90.9544 29.1595V24.8309H94.2239V29.0284H93.4394C92.4129 29.0284 91.952 29.1595 90.9544 29.1595ZM87.6848 18.0109C87.6848 21.8894 86.9799 21.1589 90.5617 21.1589C91.1651 21.1589 90.954 20.4213 90.954 18.9288H94.2235V22.339C86.7184 22.339 87.4229 21.6284 87.4229 29.1595C87.4229 30.7966 87.7587 32.0924 89.6322 32.0208C91.1375 31.9634 92.9566 31.495 94.2235 31.3891V31.9137H97.7546V18.4039C97.7546 17.0905 97.2332 16.1738 95.9237 16.1738H89.5153C88.371 16.1738 87.6844 16.8625 87.6844 18.0101L87.6848 18.0109Z" fill="white"/>
<path fillRule="evenodd" clipRule="evenodd" d="M109.917 18.7973H113.056V22.4698H109.917V18.7973ZM106.386 18.1412V29.9459C106.386 31.0959 107.057 31.9133 108.217 31.9133H114.756C117.122 31.9133 116.587 29.3855 116.587 26.6668H113.056V29.1587H109.917V24.9617H115.279C115.6 24.9617 116.587 23.9717 116.587 23.6499V18.0101C116.587 16.8625 115.9 16.1738 114.756 16.1738H108.217C107.057 16.1738 106.386 16.9912 106.386 18.1412Z" fill="white"/>
<path fillRule="evenodd" clipRule="evenodd" d="M122.735 16.699V16.1744H119.073V31.9139H122.735V19.3224L126.005 19.1913V31.9139H129.274C129.576 31.9139 129.666 31.8226 129.666 31.5205V18.929C129.666 14.2282 126.122 16.6236 122.735 16.6994V16.699Z" fill="white"/>
<path fillRule="evenodd" clipRule="evenodd" d="M74.3447 10.7967H78.2685V31.9137H81.9303V10.7967H85.9844V7.51758H74.3447V10.7967Z" fill="white"/>
<path fillRule="evenodd" clipRule="evenodd" d="M140.651 19.1907H145.359L142.787 24.4807C142.446 25.1584 140.259 29.5847 140.259 29.9459V31.9133H149.675V28.8964H144.575C144.822 27.8303 149.675 18.9325 149.675 18.1412V16.1738H140.651V19.1907H140.651Z" fill="white"/>
<path fillRule="evenodd" clipRule="evenodd" d="M132.936 16.1743H131.236C131.236 19.8863 130.785 19.3222 132.936 19.3222V30.0774C132.936 31.2251 133.622 31.9137 134.767 31.9137H138.951C138.951 28.1003 139.547 28.7657 136.598 28.7657V19.3218C139.388 19.3218 138.821 19.9693 138.821 16.1739H136.598V12.2391C136.598 11.9369 136.507 11.8457 136.205 11.8457H132.936V16.1743Z" fill="white"/>
<path fillRule="evenodd" clipRule="evenodd" d="M62.4443 7.91097V31.5203C62.4443 31.8225 62.5353 31.9137 62.8366 31.9137H66.1062V7.51758H62.8366C62.5353 7.51758 62.4443 7.6088 62.4443 7.91097Z" fill="white"/>
<path fillRule="evenodd" clipRule="evenodd" d="M100.239 31.9137H103.509C103.81 31.9137 103.901 31.8225 103.901 31.5203V7.91097C103.901 7.6088 103.81 7.51758 103.509 7.51758H100.239V31.9137Z" fill="white"/>
<path fillRule="evenodd" clipRule="evenodd" d="M56.2979 31.9137H59.8289V7.51758H56.2979V31.9137Z" fill="white"/>
</g>
<defs>
<clipPath id="clip0_1420_117">
<rect width="149" height="39" fill="white" transform="translate(0.674805 0.270508)"/>
</clipPath>
</defs>
</svg>
