<?xml version="1.0" encoding="UTF-8"?>
<!DOCTYPE svg PUBLIC "-//W3C//DTD SVG 1.1//EN" "http://www.w3.org/Graphics/SVG/1.1/DTD/svg11.dtd">
<!-- Creator: CorelDRAW 2021 (64-Bit) -->
<svg xmlns="http://www.w3.org/2000/svg" xml:space="preserve" width="20in" height="20in" version="1.1" style="shape-rendering:geometricPrecision; text-rendering:geometricPrecision; image-rendering:optimizeQuality; fill-rule:evenodd; clip-rule:evenodd"
viewBox="0 0 20000 20000"
 xmlns:xlink="http://www.w3.org/1999/xlink"
 xmlns:xodm="http://www.corel.com/coreldraw/odm/2003">
 <defs>
  <style type="text/css">
   <![CDATA[
    .str0 {stroke:#373435;stroke-width:6.94;stroke-linecap:round;stroke-linejoin:round;stroke-miterlimit:2.61313}
    .fil0 {fill:black}
    .fil1 {fill:#F99721}
    .fil2 {fill:white;fill-rule:nonzero}
   ]]>
  </style>
 </defs>
 <g id="Layer_x0020_1">
  <metadata id="CorelCorpID_0Corel-Layer"/>
  <polygon class="fil0 str0" points="263.87,129.83 19839.63,129.83 19839.63,19860.62 263.87,19860.62 "/>
  <path class="fil1" d="M5784.31 10075.65c-7.8,-2.85 -5.51,-1.69 -8.59,-11.51 -9.59,-31.34 -12.74,-44.24 -26.09,-79.37 -13.65,-36.14 -24.52,-75.5 -37.15,-113.7 -1.98,-6.07 -1.91,-6.11 -3.82,-10.5l-2.63 -6.45c-12.22,-35.46 -25.27,-69.88 -35.54,-106.47 -7.08,-25.12 -12.44,-23.24 -11.09,-22.42l-3.94 -12.26c-10.31,-21.3 -9.52,-28.42 -15.93,-44.09l-13.72 -52.94c0.86,-11.66 -0.94,-2.17 2.36,-6.26 5.4,-4.8 408.52,-2.02 471.5,-2.06 42.85,-0.04 113.41,4.13 154.42,-4.91l44.61 -34.38c24.78,-15.82 48.29,-35.46 72.35,-52.11 6.67,-4.65 5.25,-3.49 11.1,-8.36 4.2,-3.56 8.58,-5.59 13.08,-8.43l35.05 -26.96c5.21,-4.24 7.57,-4.69 12.93,-8.58l47.09 -34.42c15.07,-13.05 32.8,-22.98 48.55,-35.17l72.62 -51.89c9.41,-6.56 15.56,-12.56 24.18,-18.59l204.28 -147.59c3.48,-2.85 6.82,-6.52 12.03,-9.52l11.25 -7.83c4.2,-4.09 6.9,-6.19 11.81,-9.67 17.35,-12.48 31.56,-22.64 48.96,-34.83 8.28,-5.81 13.57,-12.93 22.49,-17.92 15.48,-8.62 21.74,-15.22 25.91,-17.47l19.65 -12.33c7.98,-6.11 23.62,-12.37 26.92,-22.57 -12.41,-6.04 -2957.92,-2.21 -3546.99,-2.21 -35.43,0 -79.56,-2.29 -113.97,1.01 0.11,6.97 13.01,12.71 19.19,17.62 11.36,9.04 9.82,11.21 23.88,18.82 15.63,8.43 55.04,45.21 69.73,59.38 5.43,5.29 6.07,5.1 11.85,9.48 4.16,3.19 7.46,6.97 11.09,10.46 17.92,17.32 70.3,55.9 92.49,77.04 5.96,5.66 2.89,5.51 9.97,11.25 12.19,9.86 23.43,17.28 35.02,29.5l264.19 226.77c14.96,8.96 63.06,56.2 93.91,78.13 30.59,21.78 25.12,37.64 70.41,37.68l767.9 -0.04c27.89,0 55.97,-0.26 83.83,0.07 24.74,0.26 19.23,20.66 25.53,59.91 0.79,5.21 1.13,12.75 2.89,18.33 2.59,8.02 3,6.15 4.72,16.64 1.99,11.51 4.28,24.15 6.67,36.44 2.21,11.44 6.71,21.41 8.17,34.87l10.09 54.17c1.95,6.56 3.75,5.96 5.7,14.73l9.97 55.04c1.69,7.5 3.71,6.33 4.99,15.63 6.48,46.3 22.45,103.73 28.41,144.03l22.35 103.81c1.95,7.27 1.16,12.37 2.44,19.68 1.24,7.31 2.74,7.46 4.09,17.51l6.82 36.1c0.6,5.13 2.02,11.58 3.63,17.21 10.35,35.31 28.23,128.96 37.9,173.8 1.24,5.55 3.34,9.86 4.61,16.53 2.36,12.71 3.94,27 5.96,37.83 2.29,12.22 5.28,23.06 8.32,34.15 4.69,17.47 -0.75,19.5 12.48,30.59l204.5 179.54c4.2,3.9 6.41,5.44 11.13,10.31l23.58 19.23c18.03,17.66 38.35,32.76 57.17,50.16l69.36 59.61c10.01,7.42 12,11.62 21.74,20.88 7.76,7.35 16.54,12.15 23.36,19.49 32.02,34.3 75.76,69.85 111.83,100.55 27.74,23.66 52.15,47.2 80.41,69.81l21.22 19.65c6.07,7.05 4.95,4.8 11.32,9.9l68.42 60.39c14.96,14.36 31.75,25.49 45.81,40.04 3.37,3.52 7.16,8.28 10.27,10.98l35.2 29.2c7.72,6.19 16.57,10.8 23.17,17.62 20.58,21.37 55.15,51.81 79.18,71.01l68.38 60.36c4.31,3.71 6.41,6.9 10.72,10.68l24.03 18.86c14.96,10.98 28.79,30.22 43.79,41.88 27.81,21.63 54.32,46.33 80.68,69.65 5.29,4.72 7.65,5.14 12.33,9.15 8.06,6.86 12.71,16.31 23.8,19.35 0.15,-15.82 -9.82,-32.8 -14.36,-48.1 -2.51,-8.59 -3.82,-15.44 -6.86,-23.32l-111.94 -325.26c-2.06,-6.82 -4.24,-19.01 -7.01,-25.6 -2.92,-6.98 -5.77,-13.95 -8.66,-21l-15.82 -46.49c-2.59,-8.62 -4.57,-17.73 -7.23,-25.23 -5.74,-16.31 -10.28,-33.1 -15.97,-48.48l-8.17 -21.67c-5.13,-16.2 -7.87,-32.77 -13.94,-48.74 -3.82,-10.04 -5.44,-12.89 -8.96,-23.17 -1.5,-4.28 -2.66,-6.04 -4.16,-10.83l-93.91 -267.64c-3.94,-14.17 -8.32,-34.15 -15.9,-46.71 -12.22,-20.28 -14.81,-48.29 -22.76,-69.28l-94.92 -282.71c-3.6,-19.57 -23.13,-70.67 -31.04,-93.8 -4.39,-13.12 -5.29,-25 -11.4,-35.5 -5.4,-9.19 -6.71,-25.57 -11.28,-35.2z"/>
  <path class="fil1" d="M3358.1 11557.42c9.59,-0.86 11.32,-3.15 17.5,-8.66l68.53 -51.7c4.09,-2.59 6.79,-3.34 10.87,-6.33 19.08,-14.06 21.29,-22.38 51.66,-40.19l95.97 -69.43c4.01,-3.3 7.16,-4.76 11.51,-7.91 36.03,-26.2 127.54,-98.52 159.41,-115.62 9.48,-5.06 12.63,-8.81 20.36,-15.59l41.8 -31.23c5.4,-4.01 5.06,-5.25 10.16,-8.92 9.26,-6.67 11.96,-10.31 21.89,-16.61 27.25,-17.24 60.73,-46.15 85.51,-60.81 8.59,-5.06 11.36,-9.82 20.51,-15.71 7.69,-4.91 14.47,-10.39 21.41,-15.22 14.7,-10.23 27.63,-22.68 43.04,-32.02 17.99,-10.87 69.02,-50.57 83.75,-62.04l22.53 -13.98c4.24,-3.6 2.48,-3.86 8.51,-8.51l127.91 -93.16c4.99,-3.71 5.74,-5.81 9.94,-9.15 6.33,-4.91 15.03,-9.22 22.19,-14.55l168.67 -124.99c8.7,-5.55 12.74,-10.01 20.69,-15.71 7.61,-5.36 14.51,-9.3 22.01,-14.73l21.56 -16.87c14.7,-11.13 28.94,-18.48 42.59,-30.4l104.52 -77.75c19.72,-13.76 14.73,-14.74 14.69,-41.43 -0.41,-223.77 2.14,-447.62 -0.11,-671.4l-0.52 -26.92c-32.24,-3.07 -339.88,-0.41 -381.42,-0.41 -73.44,-0.04 -166.83,-2.29 -238.24,-0.15 -10.72,0.3 -11.02,0.49 -15,8.06 -2.66,4.99 -5.62,12.07 -8.1,17.55 -4.5,9.93 -9.04,24.33 -13.46,33.93l-15.04 34.04c-7.35,22.83 -19.19,43.71 -27.89,66.39 -4.57,11.96 -8.47,23.96 -13.16,34.57l-14.88 34.22c-4.5,12.37 -8.77,20.24 -14.02,33.11l-50.09 119.33c-2.06,4.99 -5.25,9.41 -7.91,15.41 -5.21,11.77 -7.43,23.28 -12.86,34.79 -10.53,22.38 -17.51,46.11 -28.42,68.04 -5.02,10.23 -9.74,22 -13.98,33.25l-35.73 84.24c-14.81,26.5 -23.81,61.26 -35.76,84.31l-55.52 135.71c-5.36,8.89 -3.67,3.6 -7.72,15.33l-48.96 118.65c-4.39,9.78 -6.07,19.23 -12.93,27.93l-1.99 2.29c-5.02,6.33 -11.13,25.64 -15.86,35.05 -7.54,14.89 -9.82,33.7 -18.22,46.64 -2.7,4.16 -0.68,0.3 -2.33,3.64 -3.04,6.07 -3.6,12.26 -6.97,18.93l-27.41 69.28c-5.25,10.83 -9.37,22.53 -13.91,33.22 -4.95,11.62 -9.19,20.54 -14.21,32.95l-56.98 135.97c-8.93,22.98 -16.46,48.4 -27,70.14 -5.1,10.43 -10.38,21.86 -14.73,32.2 -2.7,6.52 -4.01,11.06 -6.71,17.02 -6.37,14.43 -16.16,46.68 -27.22,67.18 -17.06,31.53 -24.41,59.16 -36.96,85.14 -6.11,12.63 -26.73,61 -27.48,69.58z"/>
  <path class="fil1" d="M4513.38 8804.04l833.65 1.2 -22.35 -70.59c-3.48,-10.54 -7.46,-21.56 -12.59,-32.17 -8.66,-18.26 -37,-114.76 -47.65,-139.31l-67.33 -187.75c-3.22,-6.41 -4.24,-9.37 -6.97,-16.31 -4.61,-11.7 -8.96,-23.17 -12.04,-35.09 -6.26,-24.67 -16.23,-46.04 -24.59,-69.84 -2.47,-6.94 -3.33,-10.35 -5.77,-15.86 -1.05,-2.51 -1.87,-4.24 -3.3,-7.31 -6.82,-14.32 -8.85,-29.31 -13.98,-46.48 -6.78,-22.5 -17.54,-45.74 -24.26,-68.04l-17.54 -51.02c-3.07,-8.06 -3.34,-6.04 -6.56,-16.87 -3.33,-10.95 -8.96,-22.68 -12.93,-34.04 -2.4,-6.63 -3.07,-12.41 -5.32,-18.7 -1.69,-4.76 -5.02,-12.3 -6.64,-16.69 -2.02,-5.43 -2.43,-12.18 -4.39,-17.47 -1.24,-3.07 -5.62,-11.02 -7.57,-15.56 -5.29,-12.9 -7.09,-21.07 -11.55,-36.1l-24.85 -69.32c-8.14,-23.54 -15.78,-45.47 -23.96,-68.27l-28.57 -66.81c-15.86,8.14 -19.42,39.1 -23.66,48.29 -3.22,6.79 -0.45,-1.39 -3.33,7.09l-45.33 111.04c-5.81,20.66 -45.32,110.82 -55.71,137.55 -9.22,23.85 -27.74,66.13 -33.85,86.75l-23.96 59.46c-3.67,6.37 -2.06,1.83 -4.76,7.76 -2.81,6.37 -3.71,14.17 -5.77,20.81 -3.22,10.57 -3.56,5.73 -7.69,15.18 -3.75,8.44 -4.05,14.43 -13.16,34.19l-34.04 88.78c-4.76,14.55 -10.12,19.08 -14.96,31.83 -4.69,12.22 -7.61,23.28 -14.17,35.05 -6.19,11.1 -6.9,24.07 -12.37,35.17 -7.05,14.28 -6,3.86 -15.33,33.85 -4.31,13.72 -8.62,19.42 -13.91,32.84 -5.17,12.94 -7.87,22.98 -12.86,37.27l-28.6 67.33c-5.85,15.63 -1.99,10.08 -9.93,24.33l-16.95 45.96c-12.3,36.96 -22.53,40.53 -33.4,87.39 -2.47,10.53 -22.91,41.31 -19.19,50.5z"/>
  <path class="fil1" d="M5784.31 10075.65c-2.81,-23.24 -20.13,-64.63 -28.57,-88.36l-16.76 -51.32c-0.86,-1.95 -0.94,-2.18 -1.84,-4.87 -27.89,-84.2 -61.18,-173.84 -87.2,-256.31l-18.3 -59.54c49.94,-2.74 106.32,-0.41 156.97,-0.41l396.83 0c17.39,0 37.71,1.95 54.06,-2.59 9.22,-2.55 9.82,-2.1 14.58,-9.52 -41.01,9.04 -111.57,4.87 -154.42,4.91 -62.98,0.04 -466.11,-2.74 -471.5,2.06 -3.3,4.09 -1.5,-5.4 -2.36,6.26l13.72 52.94c6.41,15.67 5.62,22.79 15.93,44.09l3.94 12.26c-1.35,-0.83 4.01,-2.7 11.09,22.42 10.27,36.59 23.32,71 35.54,106.47l2.63 6.45c1.91,4.39 1.84,4.43 3.82,10.5 12.63,38.2 23.51,77.56 37.15,113.7 13.35,35.13 16.5,48.02 26.09,79.37 3.07,9.82 0.79,8.66 8.59,11.51z"/>
  <path class="fil2" d="M8271.43 10657.6l-301.45 0 -61.3 -386.78 -381.87 0 -60.92 386.78 -301.45 0 0 -5.36 394.8 -2035.15 320.5 0 391.69 2040.52zm-405.86 -648.19l-148.95 -919.77 -149.36 919.77 298.31 0zm862.44 648.19l-293.47 0 0 -2037.85 293.47 0 0 2037.85zm522.34 0l-293.39 0 0 -2037.85 293.39 0 0 2037.85zm1671.96 -1768.45l-336.06 0 0 1768.45 -304.08 0 0 -1768.45 -336.13 0 0 -269.4 976.26 0 0 269.4zm987.36 1768.45l-285.41 0 0 -45.36c-71.53,10.24 -142.69,20.92 -214.29,31.12 -93.8,12.89 -164.43,19.57 -213.35,19.57 -93.39,-0.45 -140.06,-54.25 -140.51,-161.35l0 -474.8c0.45,-107.15 48.93,-160.94 145.87,-161.35l424.94 0 0 -301.42 -285.41 0 0 186.7 -269.36 0 0 -246.72c0.45,-107.15 48.92,-160.94 145.35,-161.39l530.78 0c107.18,0.45 160.94,54.25 161.39,161.39l0 1153.63zm-282.75 -237.42l0 -352.06 -285.41 0 0 362.75 285.41 -10.69zm797.59 237.42l-293.43 0 0 -2037.85 293.43 0 0 2037.85zm1071.79 -161.39c-0.45,107.15 -54.25,160.94 -161.39,161.39l-528.11 0c-107.15,-0.45 -160.94,-54.25 -161.39,-161.39l0 -992.23c0.45,-107.15 54.25,-160.94 161.39,-161.39l528.11 0c107.15,0.45 160.94,54.25 161.39,161.39l0 484.55 -82.25 82.25 -483.24 0 0 368.07 280.08 0 0 -218.71 285.41 0 0 276.07zm-285.41 -619.7l0 -315.21 -280.08 0 0 315.21 280.08 0zm1378.6 781.09l-298.79 0 0 -1066.95 -280.01 6.67 0 1060.28 -298.79 0 0 -1315.02 298.79 0 0 49.37c69.36,-11.58 138.67,-22.68 207.17,-33.37 85.29,-14.21 155.58,-21.33 210.24,-21.33 107.59,0 161.39,53.8 161.39,161.35l0 1158.99zm781.99 0l-334.74 0c-107.15,-0.45 -160.94,-54.25 -161.39,-161.39l0 -900.23 -141.41 0 0 -253.39 141.41 0 0 -357.43 296.09 0 0 357.43 192.02 0 0 253.39 -192.02 0 0 808.24 200.04 0 0 253.39zm909.12 0l-792.23 0 0 -176.5 437.88 -895.78 -403.24 0 0 -242.74 757.59 0 0 176.5 -440.57 895.78 440.57 0 0 242.74z"/>
  <path class="fil2" d="M7456.9 11411.24l-90.23 -128.48c-11.15,0.8 -19.92,1.19 -26.29,1.19l-103.38 0 0 127.28 -59.76 0 0 -418.3 163.14 0c54.18,0 96.8,12.94 127.88,38.84 31.07,25.9 46.61,61.55 46.61,106.96 0,32.27 -7.97,59.76 -23.9,82.46 -15.94,22.71 -38.65,39.24 -68.12,49.6l99.19 140.43 -65.13 0zm-118.32 -178.07c37.85,0 66.73,-8.17 86.65,-24.5 19.92,-16.33 29.88,-39.64 29.88,-69.92 0,-30.28 -9.96,-53.48 -29.88,-69.61 -19.92,-16.13 -48.8,-24.2 -86.65,-24.2l-101.59 0 0 188.23 101.59 0zm550.96 21.51c0,4.38 -0.4,10.16 -1.2,17.33l-256.95 0c3.59,27.89 15.83,50.3 36.75,67.22 20.91,16.93 46.91,25.4 77.98,25.4 37.85,0 68.32,-12.75 91.43,-38.24l31.67 37.05c-14.34,16.73 -32.17,29.48 -53.48,38.24 -21.31,8.77 -45.12,13.15 -71.41,13.15 -33.46,0 -63.15,-6.87 -89.04,-20.62 -25.89,-13.74 -45.91,-32.96 -60.06,-57.67 -14.14,-24.7 -21.21,-52.59 -21.21,-83.66 0,-30.68 6.87,-58.36 20.61,-83.06 13.74,-24.7 32.67,-43.92 56.77,-57.67 24.1,-13.74 51.29,-20.61 81.57,-20.61 30.28,0 57.27,6.87 80.97,20.61 23.7,13.74 42.23,32.96 55.57,57.67 13.35,24.7 20.02,52.98 20.02,84.85zm-156.56 -114.73c-27.49,0 -50.5,8.37 -69.02,25.1 -18.52,16.73 -29.38,38.64 -32.57,65.73l203.17 0c-3.19,-26.69 -14.04,-48.5 -32.57,-65.43 -18.53,-16.93 -41.53,-25.4 -69.02,-25.4zm326.87 274.88c-25.89,0 -50.79,-3.49 -74.7,-10.46 -23.9,-6.97 -42.63,-15.84 -56.17,-26.59l23.9 -45.41c13.94,9.96 30.87,17.93 50.8,23.9 19.92,5.98 40.04,8.96 60.35,8.96 50.19,0 75.29,-14.34 75.29,-43.03 0,-9.56 -3.39,-17.13 -10.16,-22.7 -6.77,-5.58 -15.24,-9.66 -25.4,-12.25 -10.16,-2.59 -24.6,-5.48 -43.32,-8.67 -25.5,-3.98 -46.31,-8.56 -62.44,-13.74 -16.14,-5.18 -29.98,-13.94 -41.53,-26.29 -11.56,-12.35 -17.33,-29.68 -17.33,-51.99 0,-28.69 11.95,-51.69 35.85,-69.02 23.9,-17.33 55.97,-25.99 96.21,-25.99 21.11,0 42.23,2.59 63.34,7.77 21.11,5.18 38.44,12.15 51.99,20.91l-24.5 45.42c-25.89,-16.73 -56.37,-25.1 -91.43,-25.1 -24.3,0 -42.83,3.98 -55.57,11.95 -12.75,7.97 -19.12,18.53 -19.12,31.67 0,10.36 3.59,18.52 10.76,24.5 7.17,5.98 16.04,10.36 26.59,13.15 10.56,2.79 25.39,5.98 44.52,9.56 25.5,4.38 46.11,9.06 61.85,14.04 15.74,4.98 29.18,13.45 40.33,25.4 11.15,11.95 16.73,28.69 16.73,50.2 0,28.68 -12.25,51.49 -36.75,68.42 -24.5,16.93 -57.87,25.4 -100.09,25.4zm386.63 -22.11c-8.37,7.17 -18.72,12.65 -31.07,16.43 -12.35,3.78 -25.1,5.68 -38.25,5.68 -31.87,0 -56.57,-8.57 -74.09,-25.7 -17.53,-17.13 -26.3,-41.63 -26.3,-73.5l0 -173.89 -53.78 0 0 -47.2 53.78 0 0 -69.32 57.37 0 0 69.32 90.83 0 0 47.2 -90.83 0 0 171.5c0,17.13 4.28,30.28 12.85,39.44 8.57,9.17 20.82,13.74 36.75,13.74 17.53,0 32.47,-4.98 44.82,-14.94l17.93 41.23zm194.21 22.11c-31.47,0 -59.76,-6.97 -84.85,-20.92 -25.1,-13.94 -44.72,-33.17 -58.86,-57.67 -14.14,-24.5 -21.21,-52.29 -21.21,-83.36 0,-31.07 7.07,-58.86 21.21,-83.36 14.14,-24.5 33.76,-43.62 58.86,-57.37 25.09,-13.74 53.38,-20.61 84.85,-20.61 31.47,0 59.66,6.87 84.56,20.61 24.9,13.74 44.42,32.87 58.56,57.37 14.15,24.5 21.22,52.29 21.22,83.36 0,31.07 -7.07,58.86 -21.22,83.36 -14.14,24.5 -33.66,43.72 -58.56,57.67 -24.9,13.94 -53.08,20.92 -84.56,20.92zm0 -50.2c20.31,0 38.54,-4.68 54.68,-14.04 16.13,-9.36 28.78,-22.51 37.94,-39.44 9.16,-16.93 13.74,-36.35 13.74,-58.26 0,-21.91 -4.58,-41.33 -13.74,-58.26 -9.16,-16.93 -21.81,-29.98 -37.94,-39.14 -16.13,-9.16 -34.36,-13.74 -54.68,-13.74 -20.32,0 -38.54,4.58 -54.68,13.74 -16.13,9.17 -28.89,22.21 -38.24,39.14 -9.36,16.93 -14.04,36.35 -14.04,58.26 0,21.91 4.68,41.33 14.04,58.26 9.36,16.93 22.11,30.07 38.24,39.44 16.13,9.36 34.36,14.04 54.68,14.04zm298.78 -216.92c9.96,-18.33 24.7,-32.27 44.22,-41.83 19.52,-9.56 43.22,-14.34 71.11,-14.34l0 55.57c-3.19,-0.4 -7.57,-0.59 -13.15,-0.59 -31.07,0 -55.48,9.26 -73.2,27.78 -17.73,18.53 -26.59,44.92 -26.59,79.18l0 157.76 -57.37 0 0 -316.71 54.98 0 0 53.18zm185.84 -53.18l57.37 0 0 316.71 -57.37 0 0 -316.71zm28.69 -60.95c-11.16,0 -20.42,-3.59 -27.79,-10.76 -7.37,-7.17 -11.06,-15.94 -11.06,-26.3 0,-10.36 3.69,-19.22 11.06,-26.59 7.37,-7.37 16.63,-11.06 27.79,-11.06 11.15,0 20.42,3.48 27.79,10.46 7.37,6.97 11.06,15.64 11.06,26 0,10.76 -3.69,19.82 -11.06,27.19 -7.37,7.37 -16.63,11.06 -27.79,11.06zm307.15 57.96c40.24,0 72.21,11.65 95.91,34.96 23.7,23.3 35.56,57.46 35.56,102.48l0 182.26 -57.37 0 0 -175.69c0,-30.67 -7.37,-53.78 -22.11,-69.32 -14.74,-15.54 -35.85,-23.3 -63.34,-23.3 -31.07,0 -55.57,9.06 -73.5,27.19 -17.93,18.13 -26.89,44.12 -26.89,77.98l0 163.13 -57.37 0 0 -316.71 54.98 0 0 47.8c11.56,-16.33 27.19,-28.88 46.91,-37.65 19.72,-8.76 42.13,-13.15 67.22,-13.15zm542.59 2.99l0 273.69c0,55.37 -13.74,96.31 -41.23,122.8 -27.49,26.49 -68.52,39.74 -123.1,39.74 -29.88,0 -58.36,-4.08 -85.45,-12.25 -27.09,-8.17 -49,-19.82 -65.73,-34.96l27.49 -44.22c14.74,12.75 32.96,22.81 54.68,30.18 21.71,7.37 44.12,11.06 67.22,11.06 37.05,0 64.44,-8.76 82.17,-26.3 17.73,-17.53 26.59,-44.22 26.59,-80.07l0 -25.1c-13.55,16.33 -30.18,28.58 -49.9,36.75 -19.72,8.17 -41.13,12.25 -64.24,12.25 -30.28,0 -57.67,-6.48 -82.17,-19.42 -24.5,-12.95 -43.72,-31.07 -57.67,-54.38 -13.94,-23.31 -20.91,-49.9 -20.91,-79.78 0,-29.88 6.97,-56.47 20.91,-79.78 13.94,-23.31 33.17,-41.33 57.67,-54.08 24.5,-12.75 51.89,-19.12 82.17,-19.12 23.9,0 46.11,4.38 66.63,13.15 20.52,8.76 37.35,21.71 50.49,38.84l0 -49 54.38 0zm-164.93 253.37c20.72,0 39.34,-4.38 55.87,-13.15 16.54,-8.76 29.48,-21.02 38.84,-36.75 9.36,-15.74 14.04,-33.56 14.04,-53.48 0,-30.68 -10.16,-55.48 -30.48,-74.4 -20.31,-18.92 -46.41,-28.39 -78.28,-28.39 -32.27,0 -58.56,9.46 -78.88,28.39 -20.32,18.92 -30.48,43.72 -30.48,74.4 0,19.92 4.68,37.74 14.04,53.48 9.36,15.74 22.31,27.99 38.84,36.75 16.54,8.76 35.36,13.15 56.47,13.15zm746.96 11.35l0 51.99 -303.56 0 0 -418.3 295.2 0 0 51.99 -235.44 0 0 128.48 209.75 0 0 50.79 -209.75 0 0 135.05 243.81 0zm283.25 51.99l-91.43 -121.31 -92.62 121.31 -63.94 0 124.89 -161.94 -118.91 -154.77 63.94 0 87.25 114.13 86.65 -114.13 62.74 0 -119.51 154.77 126.09 161.94 -65.14 0zm255.17 3.59c-32.27,0 -61.05,-6.97 -86.35,-20.92 -25.3,-13.94 -45.11,-33.17 -59.46,-57.67 -14.34,-24.5 -21.51,-52.29 -21.51,-83.36 0,-31.07 7.17,-58.86 21.51,-83.36 14.34,-24.5 34.16,-43.62 59.46,-57.37 25.3,-13.74 54.08,-20.61 86.35,-20.61 28.68,0 54.28,5.78 76.79,17.33 22.51,11.56 39.94,28.29 52.29,50.2l-43.62 28.09c-9.96,-15.14 -22.31,-26.49 -37.05,-34.06 -14.74,-7.57 -31.07,-11.35 -49,-11.35 -20.72,0 -39.34,4.58 -55.87,13.74 -16.53,9.17 -29.48,22.21 -38.84,39.14 -9.36,16.93 -14.04,36.35 -14.04,58.26 0,22.31 4.68,41.93 14.04,58.86 9.36,16.93 22.31,29.98 38.84,39.14 16.54,9.16 35.16,13.74 55.87,13.74 17.93,0 34.26,-3.78 49,-11.35 14.74,-7.57 27.09,-18.92 37.05,-34.06l43.62 27.49c-12.35,21.91 -29.78,38.74 -52.29,50.49 -22.51,11.75 -48.11,17.63 -76.79,17.63zm484.63 -160.15c0,4.38 -0.4,10.16 -1.2,17.33l-256.95 0c3.59,27.89 15.83,50.3 36.75,67.22 20.91,16.93 46.91,25.4 77.98,25.4 37.85,0 68.32,-12.75 91.43,-38.24l31.67 37.05c-14.34,16.73 -32.17,29.48 -53.48,38.24 -21.31,8.77 -45.12,13.15 -71.41,13.15 -33.46,0 -63.15,-6.87 -89.04,-20.62 -25.89,-13.74 -45.91,-32.96 -60.06,-57.67 -14.14,-24.7 -21.21,-52.59 -21.21,-83.66 0,-30.68 6.87,-58.36 20.61,-83.06 13.74,-24.7 32.67,-43.92 56.77,-57.67 24.1,-13.74 51.29,-20.61 81.57,-20.61 30.28,0 57.27,6.87 80.97,20.61 23.7,13.74 42.23,32.96 55.57,57.67 13.35,24.7 20.02,52.98 20.02,84.85zm-156.56 -114.73c-27.49,0 -50.5,8.37 -69.02,25.1 -18.52,16.73 -29.38,38.64 -32.57,65.73l203.17 0c-3.19,-26.69 -14.04,-48.5 -32.57,-65.43 -18.53,-16.93 -41.53,-25.4 -69.02,-25.4zm236.04 -172.1l57.37 0 0 443.39 -57.37 0 0 -443.39zm166.72 0l57.37 0 0 443.39 -57.37 0 0 -443.39zm452.96 286.83c0,4.38 -0.4,10.16 -1.2,17.33l-256.95 0c3.59,27.89 15.83,50.3 36.75,67.22 20.91,16.93 46.91,25.4 77.98,25.4 37.85,0 68.32,-12.75 91.43,-38.24l31.67 37.05c-14.34,16.73 -32.17,29.48 -53.48,38.24 -21.31,8.77 -45.12,13.15 -71.41,13.15 -33.46,0 -63.15,-6.87 -89.04,-20.62 -25.89,-13.74 -45.91,-32.96 -60.06,-57.67 -14.14,-24.7 -21.21,-52.59 -21.21,-83.66 0,-30.68 6.87,-58.36 20.61,-83.06 13.74,-24.7 32.67,-43.92 56.77,-57.67 24.1,-13.74 51.29,-20.61 81.57,-20.61 30.28,0 57.27,6.87 80.97,20.61 23.7,13.74 42.23,32.96 55.57,57.67 13.35,24.7 20.02,52.98 20.02,84.85zm-156.56 -114.73c-27.49,0 -50.5,8.37 -69.02,25.1 -18.52,16.73 -29.38,38.64 -32.57,65.73l203.17 0c-3.19,-26.69 -14.04,-48.5 -32.57,-65.43 -18.53,-16.93 -41.53,-25.4 -69.02,-25.4zm405.15 -48.4c40.24,0 72.21,11.65 95.91,34.96 23.7,23.3 35.56,57.46 35.56,102.48l0 182.26 -57.37 0 0 -175.69c0,-30.67 -7.37,-53.78 -22.11,-69.32 -14.74,-15.54 -35.85,-23.3 -63.34,-23.3 -31.07,0 -55.57,9.06 -73.5,27.19 -17.93,18.13 -26.89,44.12 -26.89,77.98l0 163.13 -57.37 0 0 -316.71 54.98 0 0 47.8c11.56,-16.33 27.19,-28.88 46.91,-37.65 19.72,-8.76 42.13,-13.15 67.22,-13.15zm377.67 323.28c-32.27,0 -61.05,-6.97 -86.35,-20.92 -25.3,-13.94 -45.11,-33.17 -59.46,-57.67 -14.34,-24.5 -21.51,-52.29 -21.51,-83.36 0,-31.07 7.17,-58.86 21.51,-83.36 14.34,-24.5 34.16,-43.62 59.46,-57.37 25.3,-13.74 54.08,-20.61 86.35,-20.61 28.68,0 54.28,5.78 76.79,17.33 22.51,11.56 39.94,28.29 52.29,50.2l-43.62 28.09c-9.96,-15.14 -22.31,-26.49 -37.05,-34.06 -14.74,-7.57 -31.07,-11.35 -49,-11.35 -20.72,0 -39.34,4.58 -55.87,13.74 -16.53,9.17 -29.48,22.21 -38.84,39.14 -9.36,16.93 -14.04,36.35 -14.04,58.26 0,22.31 4.68,41.93 14.04,58.86 9.36,16.93 22.31,29.98 38.84,39.14 16.54,9.16 35.16,13.74 55.87,13.74 17.93,0 34.26,-3.78 49,-11.35 14.74,-7.57 27.09,-18.92 37.05,-34.06l43.62 27.49c-12.35,21.91 -29.78,38.74 -52.29,50.49 -22.51,11.75 -48.11,17.63 -76.79,17.63zm484.63 -160.15c0,4.38 -0.4,10.16 -1.2,17.33l-256.95 0c3.59,27.89 15.83,50.3 36.75,67.22 20.91,16.93 46.91,25.4 77.98,25.4 37.85,0 68.32,-12.75 91.43,-38.24l31.67 37.05c-14.34,16.73 -32.17,29.48 -53.48,38.24 -21.31,8.77 -45.12,13.15 -71.41,13.15 -33.46,0 -63.15,-6.87 -89.04,-20.62 -25.89,-13.74 -45.91,-32.96 -60.06,-57.67 -14.14,-24.7 -21.21,-52.59 -21.21,-83.66 0,-30.68 6.87,-58.36 20.61,-83.06 13.74,-24.7 32.67,-43.92 56.77,-57.67 24.1,-13.74 51.29,-20.61 81.57,-20.61 30.28,0 57.27,6.87 80.97,20.61 23.7,13.74 42.23,32.96 55.57,57.67 13.35,24.7 20.02,52.98 20.02,84.85zm-156.56 -114.73c-27.49,0 -50.5,8.37 -69.02,25.1 -18.52,16.73 -29.38,38.64 -32.57,65.73l203.17 0c-3.19,-26.69 -14.04,-48.5 -32.57,-65.43 -18.53,-16.93 -41.53,-25.4 -69.02,-25.4zm694.97 59.76l57.37 0 0 163.14c-20.71,17.13 -44.81,30.28 -72.3,39.44 -27.49,9.17 -56.17,13.74 -86.05,13.74 -42.23,0 -80.27,-9.26 -114.13,-27.79 -33.86,-18.52 -60.45,-44.02 -79.78,-76.49 -19.32,-32.47 -28.98,-69.02 -28.98,-109.65 0,-40.63 9.66,-77.28 28.98,-109.95 19.32,-32.67 46.01,-58.16 80.07,-76.49 34.06,-18.32 72.41,-27.49 115.03,-27.49 33.46,0 63.84,5.48 91.13,16.43 27.29,10.96 50.49,26.99 69.61,48.11l-37.05 37.05c-33.46,-32.27 -73.9,-48.4 -121.31,-48.4 -31.87,0 -60.45,6.87 -85.75,20.61 -25.3,13.74 -45.11,32.87 -59.46,57.37 -14.34,24.5 -21.51,52.09 -21.51,82.76 0,30.28 7.17,57.67 21.51,82.17 14.34,24.5 34.16,43.72 59.46,57.67 25.3,13.94 53.68,20.92 85.15,20.92 37.45,0 70.11,-8.96 98,-26.89l0 -136.24zm163.14 -231.85l57.37 0 0 443.39 -57.37 0 0 -443.39zm302.37 446.98c-31.47,0 -59.76,-6.97 -84.85,-20.92 -25.1,-13.94 -44.72,-33.17 -58.86,-57.67 -14.14,-24.5 -21.21,-52.29 -21.21,-83.36 0,-31.07 7.07,-58.86 21.21,-83.36 14.14,-24.5 33.76,-43.62 58.86,-57.37 25.09,-13.74 53.38,-20.61 84.85,-20.61 31.47,0 59.66,6.87 84.56,20.61 24.9,13.74 44.42,32.87 58.56,57.37 14.15,24.5 21.22,52.29 21.22,83.36 0,31.07 -7.07,58.86 -21.22,83.36 -14.14,24.5 -33.66,43.72 -58.56,57.67 -24.9,13.94 -53.08,20.92 -84.56,20.92zm0 -50.2c20.31,0 38.54,-4.68 54.68,-14.04 16.13,-9.36 28.78,-22.51 37.94,-39.44 9.16,-16.93 13.74,-36.35 13.74,-58.26 0,-21.91 -4.58,-41.33 -13.74,-58.26 -9.16,-16.93 -21.81,-29.98 -37.94,-39.14 -16.13,-9.16 -34.36,-13.74 -54.68,-13.74 -20.32,0 -38.54,4.58 -54.68,13.74 -16.13,9.17 -28.89,22.21 -38.24,39.14 -9.36,16.93 -14.04,36.35 -14.04,58.26 0,21.91 4.68,41.33 14.04,58.26 9.36,16.93 22.11,30.07 38.24,39.44 16.13,9.36 34.36,14.04 54.68,14.04zm411.72 -273.09c30.67,0 58.16,6.77 82.46,20.31 24.3,13.55 43.32,32.47 57.07,56.77 13.74,24.3 20.61,52.39 20.61,84.26 0,31.87 -6.87,60.06 -20.61,84.56 -13.74,24.5 -32.77,43.52 -57.07,57.07 -24.3,13.54 -51.79,20.32 -82.46,20.32 -23.5,0 -45.02,-4.58 -64.54,-13.74 -19.52,-9.17 -35.65,-22.51 -48.4,-40.04l0 50.2 -54.98 0 0 -443.39 57.37 0 0 174.49c12.75,-16.73 28.69,-29.38 47.81,-37.94 19.12,-8.57 40.04,-12.85 62.74,-12.85zm-4.78 273.09c20.31,0 38.54,-4.68 54.68,-14.04 16.13,-9.36 28.88,-22.51 38.24,-39.44 9.36,-16.93 14.04,-36.35 14.04,-58.26 0,-21.91 -4.68,-41.33 -14.04,-58.26 -9.36,-16.93 -22.11,-29.98 -38.24,-39.14 -16.13,-9.16 -34.36,-13.74 -54.68,-13.74 -19.92,0 -38.05,4.58 -54.38,13.74 -16.33,9.17 -29.08,22.21 -38.24,39.14 -9.16,16.93 -13.74,36.35 -13.74,58.26 0,21.91 4.58,41.33 13.74,58.26 9.17,16.93 21.91,30.07 38.24,39.44 16.33,9.36 34.46,14.04 54.38,14.04zm356.74 -273.09c43.82,0 77.39,10.76 100.69,32.27 23.31,21.51 34.96,53.58 34.96,96.21l0 191.22 -54.38 0 0 -41.83c-9.56,14.74 -23.2,26 -40.93,33.76 -17.72,7.77 -38.74,11.65 -63.04,11.65 -35.45,0 -63.84,-8.57 -85.15,-25.7 -21.31,-17.13 -31.97,-39.64 -31.97,-67.52 0,-27.89 10.16,-50.3 30.48,-67.23 20.32,-16.93 52.59,-25.4 96.81,-25.4l90.83 0 0 -11.35c0,-24.7 -7.17,-43.62 -21.52,-56.77 -14.34,-13.15 -35.45,-19.72 -63.34,-19.72 -18.72,0 -37.05,3.09 -54.97,9.26 -17.93,6.18 -33.07,14.44 -45.42,24.8l-23.9 -43.02c16.33,-13.15 35.85,-23.2 58.56,-30.18 22.71,-6.97 46.81,-10.46 72.31,-10.46zm-13.15 279.06c21.91,0 40.83,-4.88 56.77,-14.64 15.94,-9.76 27.49,-23.6 34.66,-41.53l0 -44.22 -88.44 0c-48.6,0 -72.91,16.33 -72.91,49 0,15.93 6.18,28.48 18.53,37.65 12.35,9.16 29.48,13.74 51.39,13.74zm255.16 -402.76l57.37 0 0 443.39 -57.37 0 0 -443.39zm166.72 0l57.37 0 0 443.39 -57.37 0 0 -443.39zm446.98 126.69l-153.57 348.38c-13.54,32.27 -29.38,54.98 -47.51,68.13 -18.13,13.15 -39.94,19.72 -65.43,19.72 -15.54,0 -30.57,-2.49 -45.11,-7.47 -14.54,-4.98 -26.59,-12.25 -36.15,-21.81l24.5 -43.02c16.33,15.54 35.26,23.3 56.77,23.3 13.94,0 25.59,-3.69 34.96,-11.06 9.36,-7.37 17.83,-20.02 25.4,-37.94l10.16 -22.11 -139.83 -316.11 59.76 0 110.55 253.37 109.35 -253.37 56.17 0z"/>
 </g>
</svg>
