<svg xmlns="http://www.w3.org/2000/svg" width="45" height="48" fill="none" viewBox="0 0 45 48"><g opacity=".5"><path fill="#F99621" d="M8.13659 36.9894L11.5867 40.2779C12.5547 41.2005 13.1035 42.4868 13.1035 43.8329C13.1035 45.855 14.7223 47.4942 16.7191 47.4942H28.2379C30.2348 47.4942 31.8535 45.855 31.8535 43.8329C31.8535 42.4868 32.4024 41.2005 33.3703 40.2779L36.8204 36.9894C41.6367 32.3636 44.3262 26.2866 44.3533 19.9687L44.3535 19.7033C44.3535 8.90847 34.5597 0.0258789 22.4785 0.0258789C10.3973 0.0258789 0.603516 8.90847 0.603516 19.7033L0.603723 19.9687C0.630866 26.2866 3.32037 32.3636 8.13659 36.9894Z"/></g></svg>