<svg width="63" height="63" viewBox="0 0 63 63" fill="none" xmlns="http://www.w3.org/2000/svg">
<path fillRule="evenodd" clipRule="evenodd" d="M15.7287 28.9321H0.373788C0.373047 29.692 0.373047 30.473 0.373047 31.2759C0.373047 32.0788 0.373047 32.8598 0.373788 33.6196H25.3336C25.3835 33.6202 25.4335 33.6205 25.4836 33.6205H25.8823C24.8239 38.0993 20.8002 41.4321 15.998 41.4321C14.7036 41.4321 13.6543 42.4815 13.6543 43.7759C13.6543 45.0703 14.7036 46.1196 15.998 46.1196C21.8106 46.1196 26.8429 42.7787 29.2793 37.9123V62.5251C30.0392 62.5259 30.8202 62.5259 31.623 62.5259C32.4259 62.5259 33.2069 62.5259 33.9668 62.5251V37.9123C36.4032 42.7787 41.4354 46.1196 47.248 46.1196C48.5425 46.1196 49.5918 45.0703 49.5918 43.7759C49.5918 42.4815 48.5425 41.4321 47.248 41.4321C42.4459 41.4321 38.4222 38.0993 37.3638 33.6205H37.7634C37.8135 33.6205 37.8635 33.6202 37.9134 33.6196H62.8723C62.873 32.8598 62.873 32.0788 62.873 31.2759C62.873 30.473 62.873 29.692 62.8723 28.9321H47.5183C48.6147 27.5623 49.4339 25.9467 49.8807 24.1596C51.5628 17.4315 45.4684 11.3371 38.7402 13.0191C36.9527 13.466 35.3368 14.2855 33.9668 15.3823V0.0266198C33.2069 0.0258789 32.4259 0.0258789 31.623 0.0258789C30.8202 0.0258789 30.0392 0.0258789 29.2793 0.0266198V15.3815C27.9095 14.2851 26.2939 13.4659 24.5068 13.0191C17.7786 11.3371 11.6842 17.4315 13.3663 24.1596C13.813 25.9467 14.6323 27.5623 15.7287 28.9321ZM29.2793 28.9321H25.365C21.8344 28.879 18.7726 26.4579 17.9138 23.0227C17.09 19.7276 20.0748 16.7429 23.3699 17.5666C26.805 18.4254 29.2262 21.4872 29.2793 25.0178V28.9321ZM37.882 28.9321H33.9677V25.1364L33.9673 25.0433C34.0092 21.502 36.4337 18.4275 39.8771 17.5666C43.1722 16.7429 46.157 19.7276 45.3332 23.0227C44.4744 26.4579 41.4125 28.879 37.882 28.9321Z" fill="#F99621"/>
</svg>
