<svg xmlns="http://www.w3.org/2000/svg" width="241" height="64" fill="none" viewBox="0 0 241 64"><g clipPath="url(#clip0_1553_504)"><path fill="#FFB300" d="M0.714844 63.9883L6.34754 59.9544C6.58889 59.7827 6.8008 59.6571 7.05457 59.4643L11.9449 55.8856C12.4479 55.5363 12.8541 55.2297 13.3315 54.8771C13.8083 54.5245 14.2518 54.2305 14.722 53.8726C16.9151 52.2056 19.5313 50.4531 21.7694 48.7729C22.0834 48.5374 22.9304 47.8506 23.2437 47.7664V35.4929H13.3446C12.1202 35.4929 12.3374 35.0587 11.8207 36.3633L0.714844 63.9883H0.714844ZM12.5767 32.7457H26.06L28.8528 46.6737C29.0046 47.477 29.017 47.2375 29.4938 47.6605L36.1952 53.4516C36.3646 53.6101 36.4503 53.7292 36.6295 53.8733L39.353 56.1981C39.9423 56.7494 40.4852 57.2526 41.1294 57.7585L46.904 62.7647C47.148 62.993 48.0905 63.837 48.3331 63.9022C48.3011 63.5134 48.1461 63.2904 48.0231 62.9266L47.0656 60.0274C46.5901 58.7519 46.1937 57.4046 45.7621 56.1027C45.3435 54.839 44.9 53.5858 44.4605 52.2615L40.5349 40.5886C40.0868 39.2361 39.6434 37.9822 39.2124 36.683L37.9213 32.7457C40.6219 32.7457 43.329 32.728 46.0296 32.7471C47.3377 32.7563 47.4266 32.3142 48.7759 31.3899L55.9143 26.21C56.7678 25.5758 60.3271 23.1444 60.6208 22.7043C58.1688 22.7043 55.8155 22.6188 53.2823 22.6188H0.801179C0.928065 23.0971 3.06682 24.7483 3.63715 25.2594C4.62215 26.1416 5.56661 26.9336 6.57842 27.7941L7.30966 28.4322C7.59024 28.7065 7.74918 28.8243 8.03304 29.0782L8.76296 29.717C8.93367 29.8624 8.96964 29.8578 9.14362 30.0203L11.7023 32.253C11.9299 32.4688 12.1608 32.7464 12.5774 32.7464L12.5767 32.7457ZM19.0623 19.7854H33.4842C33.2821 18.9144 30.0576 9.92427 29.4408 8.05861L28.2249 4.56082C28.0758 4.10756 27.9686 3.78653 27.8024 3.35498L26.9986 0.988037C26.7926 1.14 26.8312 1.20973 26.7128 1.47221L19.5502 18.5585C19.388 18.9684 19.237 19.4203 19.063 19.7848L19.0623 19.7854Z" clipRule="evenodd" fillRule="evenodd"/><path fill="#4C4C4C" d="M76.4043 22.866H76.8255C76.8255 24.1455 77.1551 25.6671 77.3651 26.9848C77.6019 28.4715 77.836 29.8063 78.0597 31.1588L79.3534 39.3925H73.8764C73.898 38.4024 74.312 36.3315 74.4774 35.3355L75.8078 27.1387C75.987 25.8368 76.4043 24.3238 76.4043 22.866ZM66.082 52.1054C73.1759 52.1054 71.682 53.0264 72.4021 48.7162C72.5984 47.5433 72.9411 45.8052 73.0333 44.6895H80.1952C80.4313 45.7098 80.5235 46.5854 80.7053 47.7781C80.8747 48.8905 81.0847 49.9043 81.1965 50.8864C81.4071 52.7475 81.8643 52.1054 87.3577 52.1054C86.1667 46.9624 84.6225 37.8847 83.5465 32.4206C82.3889 26.5453 81.0291 18.1124 79.7746 12.6963H73.4552C73.4552 14.0376 72.8547 16.221 72.5931 17.5499C72.2667 19.2083 71.9927 20.7938 71.6474 22.5311C71.1594 24.9856 66.0827 50.7628 66.0827 52.1054H66.082Z" clipRule="evenodd" fillRule="evenodd"/><path fill="#4C4C4C" d="M146.132 47.6548V40.6626H151.398V47.443H150.134C148.481 47.443 147.739 47.6548 146.132 47.6548ZM140.865 29.6455C140.865 35.9109 139.73 34.7307 145.499 34.7307C146.471 34.7307 146.131 33.5394 146.131 31.1283H151.397V36.6372C139.309 36.6372 140.443 35.4892 140.443 47.6548C140.443 50.2994 140.984 52.3927 144.002 52.2769C146.427 52.1841 149.357 51.4276 151.397 51.2566V52.1039H157.085V30.2804C157.085 28.1588 156.245 26.678 154.136 26.678H143.814C141.971 26.678 140.865 27.7904 140.865 29.6442L140.865 29.6455Z" clipRule="evenodd" fillRule="evenodd"/><path fill="#4C4C4C" d="M176.675 30.9158H181.731V36.8483H176.675V30.9158ZM170.987 29.8561V48.9251C170.987 50.7829 172.069 52.1032 173.936 52.1032H184.469C188.281 52.1032 187.418 48.0199 187.418 43.6281H181.731V47.6535H176.675V40.8737H185.312C185.828 40.8737 187.418 39.2745 187.418 38.7548V29.6442C187.418 27.7904 186.312 26.678 184.469 26.678H173.936C172.069 26.678 170.987 27.9983 170.987 29.8561Z" clipRule="evenodd" fillRule="evenodd"/><path fill="#4C4C4C" d="M197.322 27.5264V26.6791H191.424V52.1043H197.322V31.7643L202.589 31.5524V52.1043H207.855C208.34 52.1043 208.487 51.957 208.487 51.4688V31.1288C208.487 23.5352 202.778 27.4047 197.322 27.5271V27.5264Z" clipRule="evenodd" fillRule="evenodd"/><path fill="#4C4C4C" d="M119.378 17.9918H125.698V52.104H131.596V17.9918H138.126V12.6948H119.378V17.9918Z" clipRule="evenodd" fillRule="evenodd"/><path fill="#4C4C4C" d="M226.18 31.5513H233.763L229.62 40.0968C229.071 41.1915 225.548 48.3416 225.548 48.9251V52.1032H240.715V47.2299H232.5C232.899 45.5076 240.715 31.1343 240.715 29.8561V26.678H226.18V31.5513H226.18Z" clipRule="evenodd" fillRule="evenodd"/><path fill="#4C4C4C" d="M213.753 26.6788H211.014C211.014 32.6751 210.289 31.764 213.753 31.764V49.1378C213.753 50.9916 214.859 52.104 216.702 52.104H223.443C223.443 45.9439 224.402 47.0189 219.651 47.0189V31.7633C224.146 31.7633 223.233 32.8093 223.233 26.6782H219.651V20.322C219.651 19.8339 219.505 19.6865 219.019 19.6865H213.753V26.6788Z" clipRule="evenodd" fillRule="evenodd"/><path fill="#4C4C4C" d="M100.21 13.3303V51.4685C100.21 51.9566 100.356 52.104 100.842 52.104H106.108V12.6948H100.842C100.356 12.6948 100.21 12.8422 100.21 13.3303Z" clipRule="evenodd" fillRule="evenodd"/><path fill="#4C4C4C" d="M161.087 52.104H166.353C166.839 52.104 166.985 51.9566 166.985 51.4685V13.3303C166.985 12.8422 166.839 12.6948 166.353 12.6948H161.087V52.104Z" clipRule="evenodd" fillRule="evenodd"/><path fill="#4C4C4C" d="M90.3096 52.104H95.9972V12.6948H90.3096V52.104Z" clipRule="evenodd" fillRule="evenodd"/></g><defs><clipPath id="clip0_1553_504"><rect width="240" height="63" fill="#fff" transform="translate(0.714844 0.988037)"/></clipPath></defs></svg>