<svg width="421" height="790" viewBox="0 0 421 790" fill="none" xmlns="http://www.w3.org/2000/svg">
<path fill-rule="evenodd" clip-rule="evenodd" d="M-332.09 789.394L-261.288 738.874C-258.255 736.724 -255.591 735.15 -252.401 732.737L-190.931 687.918C-184.609 683.543 -179.504 679.704 -173.502 675.288C-167.509 670.872 -161.935 667.189 -156.024 662.707C-128.458 641.83 -95.5729 619.882 -67.4398 598.84C-63.4936 595.891 -52.8471 587.29 -48.9091 586.235V432.525H-173.338C-188.728 432.525 -185.998 427.087 -192.493 443.425L-332.09 789.394V789.394ZM-182.989 398.12H-13.5085L21.5962 572.551C23.5035 582.61 23.6598 579.611 29.653 584.909L113.888 657.434C116.017 659.42 117.094 660.911 119.347 662.715L153.58 691.831C160.987 698.735 167.811 705.038 175.909 711.373L248.494 774.07C251.561 776.929 263.408 787.499 266.458 788.315C266.055 783.446 264.106 780.653 262.561 776.097L250.525 739.789C244.548 723.814 239.566 706.941 234.14 690.636C228.878 674.81 223.304 659.115 217.78 642.53L168.436 496.342C162.804 479.403 157.23 463.7 151.812 447.429L135.584 398.12C169.529 398.12 203.557 397.897 237.503 398.136C253.945 398.252 255.063 392.715 272.023 381.14L361.75 316.268C372.479 308.326 417.219 277.875 420.91 272.364C390.089 272.364 360.509 271.293 328.668 271.293H-331.005C-329.41 277.282 -302.526 297.961 -295.357 304.363C-282.976 315.411 -271.105 325.33 -258.386 336.107L-249.195 344.098C-245.668 347.534 -243.67 349.009 -240.102 352.189L-230.927 360.189C-228.782 362.009 -228.33 361.952 -226.143 363.987L-193.981 391.949C-191.12 394.651 -188.218 398.128 -182.981 398.128L-182.989 398.12ZM-101.468 235.808H79.8108C77.2705 224.9 36.7398 112.309 28.9871 88.9443L13.7038 45.1389C11.8294 39.4624 10.4811 35.4419 8.39291 30.0373L-1.711 0.394287C-4.30069 2.29744 -3.81564 3.17074 -5.30368 6.458L-95.3345 220.443C-97.3734 225.576 -99.2725 231.236 -101.459 235.8L-101.468 235.808Z" fill="white" fill-opacity="0.08"/>
</svg>
