<svg width="224" height="537" viewBox="0 0 224 537" fill="none" xmlns="http://www.w3.org/2000/svg">
<path fillRule="evenodd" clip-rule="evenodd" d="M0.910156 536.394L56.3853 496.824C58.7623 495.139 60.8493 493.907 63.3487 492.016L111.513 456.911C116.466 453.484 120.466 450.477 125.169 447.018C129.865 443.559 134.232 440.675 138.864 437.164C160.462 420.812 186.229 403.62 208.272 387.139C211.364 384.829 219.706 378.092 222.791 377.266V256.869H125.298C113.239 256.869 115.378 252.61 110.289 265.407L0.910156 536.394H0.910156ZM117.735 229.921H250.529L278.035 366.547C279.529 374.426 279.652 372.077 284.347 376.227L350.348 433.034C352.017 434.589 352.86 435.757 354.625 437.17L381.448 459.976C387.252 465.384 392.599 470.32 398.944 475.283L455.817 524.391C458.219 526.631 467.502 534.91 469.892 535.549C469.576 531.735 468.049 529.547 466.838 525.979L457.408 497.54C452.725 485.027 448.821 471.811 444.57 459.04C440.447 446.644 436.08 434.35 431.751 421.36L393.088 306.855C388.676 293.588 384.308 281.288 380.063 268.543L367.348 229.921C393.945 229.921 420.607 229.746 447.204 229.934C460.087 230.024 460.964 225.687 474.253 216.621L544.556 165.809C552.963 159.588 588.018 135.737 590.91 131.42C566.761 131.42 543.584 130.581 518.635 130.581H1.76045C3.01012 135.272 24.0742 151.47 29.6913 156.484C39.3923 165.137 48.694 172.907 58.6592 181.348L65.8609 187.607C68.6244 190.298 70.1897 191.453 72.9853 193.944L80.1742 200.21C81.8554 201.637 82.2097 201.591 83.9232 203.185L109.123 225.087C111.364 227.204 113.638 229.927 117.742 229.927L117.735 229.921ZM181.61 102.787H323.648C321.657 94.243 289.9 6.05405 283.826 -12.2471L271.851 -46.5586C270.382 -51.0048 269.326 -54.154 267.689 -58.3872L259.773 -81.6057C257.744 -80.115 258.124 -79.431 256.958 -76.8562L186.416 90.7518C184.818 94.7721 183.33 99.2055 181.617 102.781L181.61 102.787Z" fill="white" fill-opacity="0.08"/>
</svg>
