<svg width="223" height="223" viewBox="0 0 223 223" fill="none" xmlns="http://www.w3.org/2000/svg">
<path d="M97.8705 81.2908C103.729 70.7817 106.658 65.5271 111.037 65.5271C115.416 65.5271 118.345 70.7817 124.204 81.2908L125.719 84.0097C127.384 86.996 128.216 88.4892 129.514 89.4745C130.812 90.4597 132.428 90.8254 135.661 91.5568L138.604 92.2227C149.98 94.7967 155.668 96.0836 157.022 100.435C158.375 104.787 154.497 109.322 146.742 118.39L144.735 120.737C142.531 123.314 141.429 124.602 140.934 126.197C140.438 127.791 140.605 129.51 140.938 132.948L141.241 136.079C142.414 148.179 143 154.229 139.457 156.918C135.914 159.608 130.588 157.156 119.937 152.251L117.181 150.982C114.155 149.589 112.641 148.892 111.037 148.892C109.433 148.892 107.92 149.589 104.893 150.982L102.137 152.251C91.4857 157.155 86.16 159.608 82.6172 156.918C79.0743 154.229 79.6606 148.179 80.8331 136.079L81.1364 132.948C81.4696 129.51 81.6362 127.791 81.1405 126.197C80.6448 124.602 79.5428 123.314 77.339 120.737L75.3326 118.391C67.5771 109.322 63.6994 104.787 65.0527 100.435C66.4059 96.0836 72.0939 94.7967 83.47 92.2227L86.4131 91.5568C89.6458 90.8254 91.2621 90.4597 92.56 89.4745C93.8578 88.4892 94.6902 86.9961 96.3549 84.0097L97.8705 81.2908Z" fill="#327B32"/>
<path opacity="0.8" fill-rule="evenodd" clip-rule="evenodd" d="M111.037 12.3396C114.869 12.3396 117.975 15.4456 117.975 19.2771V37.7771C117.975 41.6086 114.869 44.7146 111.037 44.7146C107.206 44.7146 104.1 41.6086 104.1 37.7771V19.2771C104.1 15.4456 107.206 12.3396 111.037 12.3396ZM11.5996 111.777C11.5996 107.946 14.7056 104.84 18.5371 104.84H37.0371C40.8686 104.84 43.9746 107.946 43.9746 111.777C43.9746 115.609 40.8686 118.715 37.0371 118.715H18.5371C14.7056 118.715 11.5996 115.609 11.5996 111.777ZM178.1 111.777C178.1 107.946 181.206 104.84 185.037 104.84H203.537C207.369 104.84 210.475 107.946 210.475 111.777C210.475 115.609 207.369 118.715 203.537 118.715H185.037C181.206 118.715 178.1 115.609 178.1 111.777ZM111.037 178.84C114.869 178.84 117.975 181.946 117.975 185.777V204.277C117.975 208.109 114.869 211.215 111.037 211.215C107.206 211.215 104.1 208.109 104.1 204.277V185.777C104.1 181.946 107.206 178.84 111.037 178.84Z" fill="#327B32"/>
<g opacity="0.5">
<path d="M171.444 51.3715C174.153 54.0808 174.153 58.4734 171.444 61.1827L168.269 64.3578C165.559 67.0671 161.167 67.0671 158.457 64.3578C155.748 61.6486 155.748 57.256 158.457 54.5467L161.633 51.3715C164.342 48.6623 168.734 48.6623 171.444 51.3715Z" fill="#327B32"/>
<path d="M50.6316 51.3726C53.3408 48.6634 57.7334 48.6634 60.4427 51.3726L63.6178 54.5478C66.3271 57.2571 66.3271 61.6496 63.6178 64.3589C60.9086 67.0682 56.516 67.0682 53.8067 64.3589L50.6316 61.1837C47.9223 58.4745 47.9223 54.0819 50.6316 51.3726Z" fill="#327B32"/>
<path d="M63.6168 159.199C66.326 161.908 66.326 166.3 63.6168 169.01L60.4436 172.183C57.7343 174.892 53.3417 174.892 50.6325 172.183C47.9232 169.474 47.9232 165.081 50.6325 162.372L53.8057 159.199C56.5149 156.489 60.9075 156.489 63.6168 159.199Z" fill="#327B32"/>
<path d="M158.457 159.201C161.167 156.491 165.559 156.491 168.268 159.201L171.442 162.374C174.151 165.083 174.151 169.476 171.442 172.185C168.732 174.894 164.34 174.894 161.63 172.185L158.457 169.012C155.748 166.302 155.748 161.91 158.457 159.201Z" fill="#327B32"/>
</g>
</svg>
