<svg width="149" height="40" viewBox="0 0 149 40" fill="none" xmlns="http://www.w3.org/2000/svg">
<path fill-rule="evenodd" clip-rule="evenodd" d="M0 39.5002L3.49697 37.003C3.6468 36.8967 3.77837 36.8189 3.93592 36.6996L6.97201 34.4842C7.28427 34.268 7.53643 34.0782 7.83285 33.8599C8.12887 33.6416 8.40417 33.4596 8.69613 33.2381C10.0576 32.2061 11.6819 31.1212 13.0714 30.0811C13.2663 29.9353 13.7922 29.5102 13.9867 29.458V21.8602H7.84097C7.08083 21.8602 7.21564 21.5914 6.89486 22.3989L0 39.5002H0ZM7.36426 20.1595H15.7351L17.469 28.7816C17.5632 29.2789 17.5709 29.1306 17.8669 29.3925L22.0274 32.9774C22.1326 33.0756 22.1858 33.1493 22.297 33.2385L23.9879 34.6777C24.3537 35.0189 24.6907 35.3305 25.0907 35.6436L28.6758 38.7427C28.8272 38.884 29.4124 39.4065 29.563 39.4468C29.5431 39.2062 29.4469 39.0681 29.3706 38.8429L28.7761 37.0482C28.4809 36.2586 28.2348 35.4245 27.9668 34.6186C27.7069 33.8363 27.4316 33.0605 27.1588 32.2407L24.7216 25.0147C24.4435 24.1774 24.1681 23.4012 23.9006 22.5969L23.099 20.1595C24.7756 20.1595 26.4563 20.1485 28.1329 20.1603C28.945 20.166 29.0002 19.8924 29.8379 19.3202L34.2696 16.1136C34.7995 15.721 37.0093 14.2159 37.1916 13.9434C35.6693 13.9434 34.2083 13.8905 32.6357 13.8905H0.0535996C0.132375 14.1865 1.46018 15.2087 1.81427 15.5251C2.42579 16.0712 3.01214 16.5616 3.64031 17.0942L4.09428 17.4893C4.26848 17.6591 4.36715 17.732 4.54338 17.8892L4.99654 18.2846C5.10252 18.3746 5.12485 18.3717 5.23286 18.4723L6.82136 19.8545C6.96267 19.9881 7.10601 20.1599 7.36467 20.1599L7.36426 20.1595ZM11.3907 12.1365H20.3443C20.2188 11.5973 18.217 6.03195 17.8341 4.87702L17.0792 2.71172C16.9866 2.43113 16.92 2.2324 16.8169 1.96525L16.3178 0.5C16.1899 0.594073 16.2139 0.63724 16.1404 0.799729L11.6936 11.377C11.5929 11.6307 11.4991 11.9105 11.3911 12.1361L11.3907 12.1365Z" fill="#FFB300"/>
<path fill-rule="evenodd" clip-rule="evenodd" d="M46.9904 14.0436H47.2519C47.2519 14.8357 47.4566 15.7776 47.5869 16.5933C47.7339 17.5137 47.8793 18.34 48.0182 19.1772L48.8213 24.2743H45.421C45.4344 23.6614 45.6915 22.3794 45.7942 21.7628L46.6201 16.6886C46.7314 15.8827 46.9904 14.946 46.9904 14.0436ZM40.582 32.1442C44.9861 32.1442 44.0587 32.7143 44.5058 30.0461C44.6276 29.32 44.8404 28.244 44.8976 27.5534H49.3439C49.4905 28.185 49.5478 28.727 49.6607 29.4654C49.7658 30.154 49.8962 30.7816 49.9656 31.3896C50.0964 32.5417 50.3802 32.1442 53.7907 32.1442C53.0512 28.9604 52.0925 23.3409 51.4246 19.9583C50.7059 16.3213 49.8617 11.1009 49.0828 7.74805H45.1595C45.1595 8.57841 44.7868 9.93004 44.6243 10.7527C44.4217 11.7793 44.2516 12.7608 44.0372 13.8363C43.7343 15.3557 40.5824 31.313 40.5824 32.1442H40.582Z" fill="#121212"/>
<path fill-rule="evenodd" clip-rule="evenodd" d="M90.2794 29.3891V25.0605H93.549V29.2579H92.7645C91.738 29.2579 91.2771 29.3891 90.2794 29.3891ZM87.0099 18.2404C87.0099 22.119 86.3049 21.3884 89.8868 21.3884C90.4902 21.3884 90.279 20.6509 90.279 19.1584H93.5486V22.5686C86.0434 22.5686 86.7479 21.858 86.7479 29.3891C86.7479 31.0262 87.0838 32.322 88.9573 32.2503C90.4626 32.1929 92.2817 31.7246 93.5486 31.6187V32.1432H97.0797V18.6334C97.0797 17.3201 96.5583 16.4034 95.2488 16.4034H88.8404C87.6961 16.4034 87.0094 17.092 87.0094 18.2396L87.0099 18.2404Z" fill="#121212"/>
<path fill-rule="evenodd" clip-rule="evenodd" d="M109.242 19.0268H112.381V22.6993H109.242V19.0268ZM105.711 18.3707V30.1754C105.711 31.3254 106.383 32.1428 107.542 32.1428H114.081C116.448 32.1428 115.912 29.615 115.912 26.8963H112.381V29.3882H109.242V25.1912H114.604C114.925 25.1912 115.912 24.2012 115.912 23.8794V18.2396C115.912 17.092 115.225 16.4033 114.081 16.4033H107.542C106.383 16.4033 105.711 17.2207 105.711 18.3707Z" fill="#121212"/>
<path fill-rule="evenodd" clip-rule="evenodd" d="M122.06 16.9285V16.4039H118.398V32.1434H122.06V19.5519L125.33 19.4208V32.1434H128.599C128.901 32.1434 128.992 32.0521 128.992 31.75V19.1585C128.992 14.4577 125.448 16.8531 122.06 16.9289V16.9285Z" fill="#121212"/>
<path fill-rule="evenodd" clip-rule="evenodd" d="M73.67 11.0262H77.5938V32.1432H81.2556V11.0262H85.3097V7.74707H73.67V11.0262Z" fill="#121212"/>
<path fill-rule="evenodd" clip-rule="evenodd" d="M139.976 19.4202H144.684L142.112 24.7102C141.771 25.3879 139.584 29.8142 139.584 30.1754V32.1428H149V29.1259H143.9C144.148 28.0598 149 19.162 149 18.3707V16.4033H139.977V19.4202H139.976Z" fill="#121212"/>
<path fill-rule="evenodd" clip-rule="evenodd" d="M132.261 16.4038H130.561C130.561 20.1157 130.11 19.5517 132.261 19.5517V30.3069C132.261 31.4545 132.948 32.1432 134.092 32.1432H138.277C138.277 28.3298 138.872 28.9952 135.923 28.9952V19.5513C138.714 19.5513 138.146 20.1988 138.146 16.4033H135.923V12.4686C135.923 12.1664 135.832 12.0752 135.53 12.0752H132.261V16.4038Z" fill="#121212"/>
<path fill-rule="evenodd" clip-rule="evenodd" d="M61.7695 8.14046V31.7498C61.7695 32.052 61.8605 32.1432 62.1618 32.1432H65.4314V7.74707H62.1618C61.8605 7.74707 61.7695 7.83829 61.7695 8.14046Z" fill="#121212"/>
<path fill-rule="evenodd" clip-rule="evenodd" d="M99.5645 32.1432H102.834C103.135 32.1432 103.226 32.052 103.226 31.7498V8.14046C103.226 7.83829 103.135 7.74707 102.834 7.74707H99.5645V32.1432Z" fill="#121212"/>
<path fill-rule="evenodd" clip-rule="evenodd" d="M55.623 32.1432H59.1541V7.74707H55.623V32.1432Z" fill="#121212"/>
</svg>
