<svg width="926" height="179" viewBox="0 0 926 179" fill="none" xmlns="http://www.w3.org/2000/svg">
<path fill-rule="evenodd" clip-rule="evenodd" d="M758.36 71.0821C760.72 70.6172 761.967 71.0232 763.613 72.2839C764.855 73.2342 766.047 74.2189 767.044 75.3166L778.444 87.176C780.604 89.0508 785.54 93.4206 785.98 95.8514C787.124 102.163 785.213 102.431 782.694 105.348L776.354 112.009C772.192 116.314 767.939 121.352 762.972 124.652C756.053 129.25 747.311 120.47 753.299 113.255C756.846 108.98 757.716 109.01 760.023 106.645C769.367 97.0623 768.62 99.4123 761.788 92.5323C759.564 90.2928 757.755 88.1781 755.424 85.8862C751.256 81.7894 749.344 75.8836 753.61 72.9071C756.405 70.9566 754.823 71.779 758.36 71.0821H758.36ZM678.466 71.2741C680.256 70.5985 682.64 70.5241 684.403 71.4014C685.356 71.8759 687.088 73.6467 687.64 74.6585C690.296 79.5286 686.014 85.6115 682.547 88.0417C681.211 88.9778 677.666 93.0197 676.113 94.6398C675.161 95.6342 673.072 96.7158 672.852 97.9667C672.564 99.5972 674.693 100.829 675.698 101.934C676.873 103.225 677.693 103.774 678.895 105.289C682.66 110.03 690.834 114.441 688.15 121.339C687.088 124.067 683.616 126.669 679.813 125.889C675.861 125.078 674.282 122.624 672.009 120.323L658.837 107.151C653.738 101.91 650.059 97.275 658.216 90.435L668.015 80.3845C669.126 79.076 670.3 78.1767 671.315 77.1921C673.305 75.2636 675.996 72.2057 678.465 71.2741H678.466ZM730.904 54.9622C735.393 53.4966 740.567 56.572 740.822 61.3115C740.978 64.2014 736.937 73.8083 735.614 76.7409L734.072 81.3536C732.342 84.8699 733.084 85.444 731.256 88.8925C729.857 91.5347 729.692 92.2911 729.028 94.6987C728.622 96.1682 728.202 96.3479 727.831 97.3616C727.462 98.3669 727.306 99.4375 726.863 100.518C726.317 101.852 725.797 101.591 725.355 103.028C724.934 104.401 725.138 104.875 724.399 106.246C723.935 107.106 723.575 108.159 723.263 109.167C722.88 110.403 722.903 111.408 722.35 112.47C721.768 113.59 721.498 113.615 720.963 115.078C718.95 120.585 714.372 134.076 711.686 138.784C709.957 141.814 704.807 144.26 700.663 140.932C695.744 136.98 697.657 131.243 700.019 125.994C701.166 123.445 700.123 123.489 701.382 121.541C704.743 116.336 702.094 120.731 704.641 114.202L710.265 99.6884C711.459 96.397 713.404 90.7583 714.886 87.9027C715.827 86.0899 716.278 83.9202 717.114 81.8314L724.864 61.1816C725.816 59.0216 728.086 55.8822 730.905 54.9616L730.904 54.9622ZM627.361 53.463V173.459C627.361 176.169 628.81 177.22 631.469 177.22H774.895C777.847 177.22 780.337 175.539 782.252 173.97L782.622 173.656C783.955 172.442 783.808 171.865 785.711 170.587C786.903 169.788 792.14 164.232 794.945 162.032C795.816 161.347 796.534 160.743 797.384 160.024C797.855 159.625 797.988 159.416 798.433 159.02C799.074 158.45 799.145 158.506 799.781 157.974C801.712 156.362 805.707 152.015 807.758 150.556L808.752 149.839C809.933 148.795 812.89 146.094 812.89 144.4V22.3522C812.89 20.006 811.237 19.4242 809.43 19.5548L663.643 19.6149C661.281 19.8683 658.671 22.7336 656.582 24.5283L633.456 45.533C632.279 46.3134 628.944 49.3092 628.28 50.6203C627.979 51.2158 627.36 52.7758 627.36 53.4624L627.361 53.463Z" fill="#F89521"/>
<path fill-rule="evenodd" clip-rule="evenodd" d="M828.294 22.3535V174.486C828.294 175.858 827.47 176.927 829.244 177.658L854.44 177.754C856.412 177.881 854.374 177.562 856.021 177.562C857.821 177.562 856.318 178.005 858.004 177.802C858.682 177.72 858.853 177.438 859.787 177.22L859.789 94.1433C859.802 91.7629 859.445 90.6943 859.445 88.6759C861.224 89.1511 860.663 90.6432 861.98 94.0069C862.208 94.5914 862.161 94.7271 862.355 95.3419L865.654 104.012C865.684 104.092 865.719 104.179 865.746 104.262C865.774 104.348 865.798 104.438 865.824 104.526L868.166 111.417C868.478 112.388 868.767 113.295 869.145 114.2C869.435 114.895 869.456 114.991 869.72 115.678C872.322 122.467 874.816 131.227 877.603 137.547L891.147 175.643C892.516 178.782 893.626 177.562 896.756 177.562H920.717C922.18 177.562 925.168 178.504 925.168 176.537V19.2768C923.633 19.2425 924.059 18.9619 922.804 19.002C921.928 19.0305 921.483 19.2768 920.033 19.2768H897.783C896.204 19.2768 893.334 18.3322 893.334 20.6441V104.745C893.334 106.462 893.641 106.276 893.675 107.821H892.649C892.264 106.17 891.596 105.29 891.302 103.697L890.347 100.89C890.074 99.9819 890.222 100.116 889.9 99.2843C889.721 98.8208 889.624 98.7755 889.398 98.0766C889.263 97.6609 889.291 97.6189 889.186 97.2633L884.928 85.4473C884.191 83.4897 883.663 81.8081 882.973 79.8783L880.467 72.8095C880.438 72.7306 880.399 72.6433 880.37 72.5638L862.314 21.5382C862.212 21.2951 861.859 20.4062 861.819 20.3247C861.129 18.9509 861.927 19.6789 860.814 19.2768L860.051 18.9923C858.46 18.7505 857.354 19.2768 855.679 19.2768L829.245 19.1811C827.47 19.9123 828.295 20.9816 828.295 22.3535H828.294Z" fill="#111111"/>
<path fill-rule="evenodd" clip-rule="evenodd" d="M358.651 95.1713L333.986 95.1913C332.533 95.2139 331.267 95.5294 331.267 94.1453V50.7277C331.267 49.211 332.506 49.4683 333.383 49.5776L355.925 49.6901C357.449 49.6648 358.994 49.2866 358.994 50.7277C358.994 55.8796 359.452 93.3818 358.651 95.1706V95.1713ZM297.379 45.2583V176.536C297.379 177.337 297.947 177.904 298.748 177.904C304.227 177.904 327.382 178.386 330.925 177.562C331.767 173.949 331.267 133.245 331.267 125.939H353.175C360.94 125.939 358.994 120.478 358.994 152.264V172.434C358.992 174.4 358.333 177.904 360.363 177.904H391.17C393.486 177.904 392.539 175.037 392.539 173.46V23.7208C392.539 21.4568 393.484 18.5928 390.485 18.5928H324.763C322.006 18.5928 313.442 28.8993 310.437 31.2933C308.795 32.6018 308.539 32.8791 307.165 34.5212C305.478 36.5377 297.378 42.8501 297.378 45.2596L297.379 45.2583Z" fill="#111111"/>
<path fill-rule="evenodd" clip-rule="evenodd" d="M514.743 20.3021V176.537C514.743 177.337 515.31 177.904 516.112 177.904H547.261C548.691 177.904 548.662 176.675 548.656 175.195C548.569 156.331 548.925 136.293 548.619 117.724C548.594 116.202 548.215 114.659 549.657 114.659H575.33C577.408 114.659 576.357 116.841 576.357 118.419C576.357 136.333 575.968 156.607 576.524 174.239C576.575 175.839 576.357 173.873 576.357 175.512C576.357 176.799 576.583 176.158 576.7 177.563C579.568 178.23 607.378 178.23 610.245 177.563C610.425 176.796 610.588 176.777 610.588 175.854V20.3027C610.588 19.1914 610.291 20.0448 609.904 18.5934H577.384C576.888 19.3343 576.357 19.7319 576.357 20.9867V80.1304C576.357 81.7085 577.408 83.8911 575.33 83.8911C570.36 83.8911 552.121 84.3618 548.631 83.5491L548.647 21.9966C548.661 19.214 548.397 20.2801 547.946 18.594H515.77C515.297 19.2987 514.743 19.4817 514.743 20.3034L514.743 20.3021Z" fill="#111111"/>
<path fill-rule="evenodd" clip-rule="evenodd" d="M406.916 20.6435V47.9936C406.916 48.8153 407.471 48.9983 407.943 49.703C412.529 49.703 435.576 49.0157 437.724 50.045C438.513 50.8331 438.135 154.701 438.041 175.195C438.034 176.675 438.005 177.904 439.436 177.904C444.915 177.904 468.07 178.387 471.612 177.562C472.447 173.985 471.954 144.756 471.954 138.59L472.011 50.4439C472.479 49.1644 478.592 49.703 481.196 49.703C487.814 49.703 494.432 49.703 501.05 49.703C501.547 48.9627 502.077 48.5651 502.077 47.3103V20.9861C502.077 19.8341 501.472 18.5928 500.365 18.5928H408.969C408.145 18.5928 406.915 19.8211 406.915 20.6441L406.916 20.6435Z" fill="#111111"/>
<path fill-rule="evenodd" clip-rule="evenodd" d="M115.614 95.5133V122.863L101.234 122.865C99.6012 122.881 97.4722 123.364 97.4722 121.837V92.7779C119.589 92.7779 115.614 91.8425 115.614 95.5133ZM75.5642 178.93H96.1024C98.2651 178.93 97.4715 173.263 97.4715 171.066L97.4683 147.474C97.421 142.458 95.2188 143.717 114.587 143.717C116.353 143.717 115.614 144.914 115.614 146.11V176.878C115.614 177.928 115.931 178.93 116.983 178.93H137.521C139.293 178.93 138.548 176.477 138.548 175.51V75.0012C138.548 74.0346 139.293 71.5825 137.521 71.5825H92.6794C91.342 71.5825 78.1878 85.2281 76.3332 87.0506C73.7491 89.5907 74.4695 88.5246 74.5459 92.4178C74.8845 109.701 74.5369 130.693 74.5369 148.161L74.5246 175.865C74.4993 177.387 74.1206 178.93 75.5635 178.93H75.5642Z" fill="#111111"/>
<path fill-rule="evenodd" clip-rule="evenodd" d="M219.333 73.9758V176.537C219.333 177.779 219.739 177.736 220.018 178.93H241.925C243.036 176.619 242.267 177.031 242.267 174.486V140.982C242.267 140.195 242.506 139.956 243.294 139.956H264.175V176.878C264.175 177.928 264.492 178.93 265.544 178.93H286.082C287.742 178.93 287.109 175.704 287.109 172.434V119.443C282.965 118.479 272.139 119.102 266.912 119.102L285.295 75.9249C287.752 70.2054 290.653 71.5818 265.543 71.5818C263.632 71.5818 260.531 80.3263 259.388 82.869L244.55 116.596C243.991 117.894 244.032 118.723 242.609 119.102C242.375 118.685 242.267 118.736 242.267 118.076L242.353 72.8677C242.111 72.13 241.751 71.5818 240.897 71.5818H221.044C219.937 71.5818 219.332 72.8224 219.332 73.9751L219.333 73.9758Z" fill="#111111"/>
<path fill-rule="evenodd" clip-rule="evenodd" d="M0.94143 71.9245V169.358C0.94143 171.873 0.7919 174.814 0.898061 177.264C0.984802 179.27 1.29357 178.982 3.30739 178.96L23.8761 178.93C24.6898 175.443 24.2308 148.632 24.2179 140.982C24.2082 134.783 21.3172 136.196 41.6762 136.196C43.2602 136.196 42.7093 138.925 42.7035 140.64C42.6782 148.33 42.238 175.469 43.0453 178.93H65.2957C65.3844 177.86 65.6375 177.716 65.6375 176.537V72.9504C65.6375 71.0853 63.1051 71.5715 61.1891 71.5818L43.0453 71.5831C42.2238 75.1052 42.6905 102.725 42.7035 110.556C42.7138 116.755 45.6041 115.342 25.2458 115.342C23.6612 115.342 24.2127 112.613 24.2185 110.899L24.2205 76.0258C24.2302 74.1116 24.7176 71.5831 22.8501 71.5831C15.6434 71.5831 8.06198 71.181 0.942078 71.9251L0.94143 71.9245Z" fill="#111111"/>
<path fill-rule="evenodd" clip-rule="evenodd" d="M147.791 87.9926V176.537C147.791 177.779 148.197 177.736 148.475 178.93H196.399C196.803 177.416 199.524 175.256 200.823 174.119L205.548 169.265C206.402 168.446 206.879 168.346 207.598 167.552C208.355 166.715 211.117 163.811 211.117 163.204V146.11C211.117 145.06 210.115 144.743 209.063 144.743H190.237C188.701 144.743 188.224 145.179 188.147 146.759L188.194 155.011C188.264 159.261 189.582 158.076 172.094 158.076C170.407 158.076 171.068 156.641 171.068 156.024V94.146C171.068 93.3107 170.309 92.7786 171.752 92.7786H188.183V111.239C188.183 112.291 189.186 112.607 190.237 112.607H209.748C210.55 112.607 211.117 112.039 211.117 111.239V72.9505C211.117 72.1501 210.55 71.5831 209.748 71.5831H164.906C163.806 71.5831 151.794 83.2402 150.375 84.42C149.089 85.4906 147.792 86.2218 147.792 87.9932L147.791 87.9926Z" fill="#111111"/>
<path fill-rule="evenodd" clip-rule="evenodd" d="M730.904 54.9629C728.086 55.8835 725.815 59.0229 724.863 61.1829L717.113 81.8327C716.277 83.9209 715.826 86.0912 714.886 87.904C713.404 90.7589 711.459 96.3977 710.264 99.6897L704.64 114.204C702.093 120.732 704.742 116.338 701.381 121.543C700.123 123.491 701.166 123.446 700.018 125.995C697.656 131.244 695.743 136.982 700.663 140.933C704.806 144.261 709.957 141.816 711.685 138.785C714.371 134.077 718.949 120.586 720.962 115.08C721.497 113.617 721.767 113.591 722.35 112.472C722.902 111.409 722.88 110.405 723.263 109.169C723.575 108.16 723.935 107.108 724.398 106.248C725.138 104.877 724.933 104.403 725.355 103.029C725.796 101.592 726.316 101.853 726.862 100.52C727.306 99.4388 727.461 98.3682 727.83 97.3629C728.202 96.3492 728.622 96.1695 729.027 94.7C729.691 92.2924 729.856 91.536 731.256 88.8938C733.082 85.446 732.341 84.8719 734.071 81.3549L735.613 76.7422C736.936 73.8096 740.977 64.2027 740.822 61.3128C740.566 56.5733 735.392 53.4979 730.904 54.9635L730.904 54.9629Z" fill="#010100"/>
<path fill-rule="evenodd" clip-rule="evenodd" d="M758.36 71.082C754.822 71.779 756.404 70.9566 753.609 72.9071C749.344 75.8836 751.256 81.7893 755.424 85.8862C757.755 88.1781 759.564 90.2928 761.787 92.5322C768.619 99.4129 769.367 97.0623 760.022 106.645C757.716 109.01 756.846 108.979 753.298 113.254C747.311 120.47 756.053 129.25 762.971 124.652C767.938 121.351 772.191 116.314 776.353 112.009L782.693 105.348C785.213 102.431 787.124 102.163 785.98 95.8514C785.54 93.4212 780.603 89.0508 778.444 87.176L767.044 75.3166C766.047 74.2188 764.854 73.2342 763.613 72.2839C761.967 71.0232 760.719 70.6172 758.359 71.082H758.36Z" fill="#010100"/>
<path fill-rule="evenodd" clip-rule="evenodd" d="M678.466 71.2741C675.997 72.2057 673.306 75.2636 671.316 77.1921C670.3 78.1761 669.127 79.076 668.016 80.3845L658.217 90.435C650.06 97.275 653.739 101.91 658.838 107.151L672.01 120.323C674.283 122.624 675.861 125.078 679.814 125.889C683.617 126.669 687.089 124.067 688.151 121.339C690.836 114.441 682.661 110.03 678.896 105.289C677.694 103.774 676.873 103.225 675.699 101.934C674.694 100.829 672.565 99.5972 672.853 97.9667C673.073 96.7158 675.162 95.6335 676.115 94.6398C677.668 93.0197 681.212 88.9778 682.548 88.0417C686.015 85.6115 690.297 79.5292 687.641 74.6585C687.089 73.6467 685.357 71.876 684.404 71.4014C682.642 70.5241 680.257 70.5985 678.467 71.2741H678.466Z" fill="#010100"/>
<path fill-rule="evenodd" clip-rule="evenodd" d="M0.832031 60.2105H275.768V35.6345C275.768 34.8716 283.587 27.4705 284.226 26.8324C286.344 24.7177 309.557 1.78893 310.312 0.661438H0.832031V60.2099V60.2105Z" fill="black"/>
<path fill-rule="evenodd" clip-rule="evenodd" d="M86.0424 33.3498C85.9524 33.3174 85.9789 33.3304 85.944 33.2179C85.8339 32.8591 85.7977 32.7117 85.6449 32.3095C85.4876 31.8964 85.3633 31.4458 85.2196 31.0088C85.1969 30.9396 85.1976 30.939 85.1756 30.8885L85.1458 30.8148C85.006 30.4095 84.8571 30.0151 84.7386 29.5975C84.6577 29.3098 84.5962 29.3318 84.6118 29.3408L84.5665 29.2005C84.4493 28.9574 84.4571 28.8753 84.3846 28.6963L84.2273 28.0911C84.237 27.9573 84.2163 28.0659 84.2551 28.0194C84.3172 27.9644 88.9352 27.9967 89.6564 27.9955C90.147 27.9955 90.9555 28.0433 91.4255 27.9392L91.9362 27.5461C92.2204 27.3645 92.4897 27.1401 92.7648 26.9501C92.8418 26.8971 92.8257 26.91 92.8917 26.8544C92.9402 26.8137 92.9901 26.7904 93.0412 26.7574L93.4432 26.449C93.5028 26.4012 93.5293 26.396 93.5914 26.3508L94.1307 25.957C94.3028 25.8083 94.5061 25.6946 94.6861 25.5549L95.5179 24.9614C95.626 24.8858 95.6965 24.8179 95.7949 24.7487L98.135 23.0601C98.1751 23.0271 98.2133 22.9857 98.2729 22.9508L98.401 22.861C98.4502 22.8144 98.4807 22.7905 98.5363 22.7504C98.7351 22.6075 98.8982 22.4912 99.0976 22.3522C99.1927 22.2856 99.2529 22.2041 99.3552 22.1472C99.5326 22.0489 99.6038 21.9733 99.6517 21.9475L99.8763 21.8065C99.9682 21.7367 100.148 21.6649 100.184 21.5486C100.042 21.4794 66.3009 21.5234 59.5526 21.5234C59.1467 21.5234 58.6418 21.4968 58.2469 21.535C58.2476 21.6152 58.3952 21.6804 58.4664 21.7367C58.5972 21.8401 58.579 21.8647 58.7402 21.952C58.9195 22.049 59.3707 22.4692 59.5384 22.6315C59.6012 22.6916 59.6083 22.6896 59.6743 22.7401C59.7222 22.7763 59.7604 22.8196 59.8018 22.8597C60.007 23.0575 60.6071 23.499 60.8615 23.7408C60.9301 23.8055 60.8939 23.8042 60.9754 23.8695C61.1152 23.9826 61.2441 24.0673 61.3768 24.207L64.403 26.8014C64.5739 26.9042 65.1248 27.4446 65.4782 27.6955C65.829 27.9444 65.7663 28.1261 66.2848 28.1267H75.0819C75.401 28.1267 75.7227 28.1235 76.0419 28.1273C76.3254 28.1306 76.2619 28.364 76.3344 28.8126C76.3442 28.8728 76.3474 28.9587 76.3681 29.0227C76.3972 29.1145 76.4018 29.0926 76.4225 29.2128C76.4451 29.3447 76.471 29.4889 76.4982 29.6298C76.5241 29.7604 76.5753 29.8748 76.5921 30.0287L76.708 30.6487C76.73 30.7237 76.7507 30.7166 76.7727 30.8168L76.8873 31.4465C76.906 31.5318 76.9293 31.5182 76.9442 31.6249C77.0187 32.155 77.2012 32.8119 77.2692 33.2728L77.5255 34.4605C77.5475 34.5432 77.5385 34.6014 77.5534 34.6854C77.5676 34.7695 77.5851 34.7708 77.6 34.8858L77.6776 35.299C77.6848 35.3578 77.7003 35.4315 77.7197 35.4955C77.8382 35.8996 78.0427 36.9708 78.1541 37.4841C78.1677 37.5475 78.1916 37.5973 78.2059 37.6735C78.2337 37.819 78.2512 37.9826 78.2745 38.1061C78.3004 38.2457 78.3353 38.3698 78.3696 38.4965C78.4234 38.6963 78.3612 38.7202 78.5127 38.8469L80.8554 40.9009C80.9039 40.9455 80.9285 40.9629 80.9835 41.0192L81.2535 41.239C81.4606 41.4407 81.6923 41.614 81.9085 41.8124L82.7028 42.4945C82.8174 42.5798 82.84 42.6277 82.952 42.7337C83.0407 42.8177 83.1411 42.8727 83.2194 42.9567C83.5864 43.3492 84.0874 43.7565 84.5004 44.1075C84.8189 44.3784 85.0986 44.6473 85.4216 44.9059L85.665 45.1309C85.7342 45.2117 85.7213 45.1859 85.7951 45.2441L86.579 45.9352C86.7492 46.0994 86.9421 46.2267 87.1033 46.3935C87.1422 46.4336 87.1849 46.4879 87.2211 46.519L87.6238 46.8532C87.7124 46.9237 87.8134 46.9767 87.8892 47.0549C88.1254 47.2993 88.5216 47.6477 88.7967 47.8669L89.5793 48.5574C89.6292 48.6 89.6531 48.6362 89.703 48.6796L89.9787 48.8948C90.1496 49.0203 90.3082 49.2407 90.4798 49.3739C90.7982 49.6215 91.1018 49.904 91.4041 50.171C91.465 50.2247 91.4915 50.2299 91.5452 50.2751C91.6372 50.3533 91.6909 50.462 91.8178 50.4969C91.8197 50.3159 91.7051 50.1213 91.6534 49.9467C91.6242 49.8484 91.61 49.7702 91.575 49.6797L90.2927 45.9584C90.2687 45.8809 90.2441 45.7406 90.2124 45.6656C90.1787 45.5854 90.1457 45.5059 90.1127 45.4251L89.9321 44.8937C89.9023 44.7954 89.8797 44.6907 89.8493 44.6047C89.7832 44.4185 89.7308 44.2265 89.6654 44.0506L89.5722 43.8024C89.5133 43.6168 89.4822 43.4274 89.413 43.2444C89.3696 43.1294 89.3508 43.097 89.31 42.98C89.2932 42.9309 89.2803 42.9108 89.2628 42.8559L88.1869 39.7941C88.1416 39.6318 88.0918 39.4036 88.005 39.2594C87.8652 39.0273 87.8348 38.7073 87.7435 38.4668L86.656 35.2324C86.6146 35.0087 86.3913 34.4242 86.3013 34.1592C86.2501 34.0098 86.2404 33.8728 86.1705 33.7532C86.109 33.6478 86.0935 33.461 86.0417 33.3504L86.0424 33.3498Z" fill="#F99721"/>
<path fill-rule="evenodd" clip-rule="evenodd" d="M58.2489 50.3029C58.3589 50.2925 58.3784 50.2666 58.4496 50.2033L59.2348 49.6117C59.2814 49.582 59.3124 49.5736 59.3591 49.5387C59.5778 49.3777 59.6031 49.2827 59.9507 49.079L61.0505 48.2845C61.0965 48.247 61.1327 48.2302 61.1826 48.194C61.5949 47.8946 62.6429 47.0671 63.0087 46.8712C63.1168 46.8137 63.1537 46.7704 63.2417 46.6928L63.7207 46.3353C63.7829 46.2894 63.7783 46.2751 63.8372 46.2331C63.9427 46.1575 63.9738 46.1155 64.0877 46.0431C64.3998 45.8452 64.783 45.5149 65.0671 45.3474C65.1649 45.2892 65.1973 45.2349 65.3021 45.1677C65.3902 45.1114 65.4678 45.0487 65.5468 44.9931C65.7151 44.8761 65.8633 44.7333 66.0394 44.6266C66.2459 44.5018 66.8305 44.048 66.9988 43.9167L67.257 43.757C67.3056 43.7157 67.2855 43.7124 67.3548 43.6594L68.8197 42.594C68.8773 42.5513 68.8857 42.5274 68.9336 42.4899C69.0055 42.4337 69.1051 42.3845 69.1874 42.3237L71.1196 40.8937C71.2193 40.8303 71.2653 40.7793 71.3572 40.714C71.4439 40.6525 71.5229 40.6073 71.609 40.5452L71.8556 40.3519C72.0239 40.2246 72.1864 40.1405 72.3431 40.0041L73.5406 39.1145C73.7672 38.9574 73.7096 38.9464 73.7089 38.6413C73.7044 36.0811 73.7342 33.5197 73.7083 30.9602L73.7024 30.6518C73.3322 30.6169 69.8088 30.6473 69.3324 30.6473C68.4915 30.6473 67.4215 30.6208 66.6032 30.6454C66.4803 30.6493 66.4777 30.6512 66.4317 30.7378C66.4019 30.7947 66.3676 30.8762 66.3391 30.9389C66.288 31.0527 66.2356 31.2169 66.1844 31.3268L66.0122 31.7166C65.9281 31.9778 65.7921 32.2164 65.6931 32.4756C65.6407 32.6127 65.596 32.7497 65.5423 32.8706L65.372 33.2624C65.3203 33.404 65.2717 33.4939 65.2115 33.6413L64.6373 35.006C64.6134 35.0629 64.5771 35.114 64.5467 35.1819C64.4871 35.3163 64.4619 35.4482 64.3998 35.5801C64.2787 35.8361 64.1991 36.1077 64.0748 36.3585C64.0165 36.4755 63.9622 36.6106 63.9143 36.7393L63.5045 37.7032C63.3356 38.0071 63.232 38.4047 63.0954 38.6684L62.4591 40.2213C62.3976 40.3228 62.417 40.2627 62.3704 40.3972L61.8092 41.7548C61.7587 41.8667 61.7399 41.9746 61.6609 42.0742L61.6383 42.1007C61.5807 42.1738 61.5114 42.3942 61.4564 42.5015C61.3703 42.6722 61.3437 42.8868 61.2473 43.0349C61.2162 43.0827 61.2395 43.0388 61.2208 43.0769C61.1858 43.1467 61.1793 43.2172 61.1405 43.2935L60.8265 44.0861C60.7663 44.2096 60.7191 44.3434 60.6673 44.4656C60.6103 44.5988 60.5624 44.7009 60.5055 44.8425L59.8523 46.3986C59.7507 46.6618 59.6639 46.952 59.5429 47.2009C59.4846 47.3205 59.4238 47.4511 59.3746 47.5694C59.3435 47.6444 59.328 47.6962 59.2976 47.7647C59.2244 47.9302 59.1118 48.2987 58.9849 48.5334C58.7901 48.8941 58.7059 49.2103 58.5616 49.507C58.4916 49.6518 58.256 50.2052 58.2469 50.3035L58.2489 50.3029Z" fill="#F99721"/>
<path fill-rule="evenodd" clip-rule="evenodd" d="M71.4833 18.8022L81.0326 18.8158L80.7763 18.0083C80.7368 17.8874 80.6909 17.762 80.6326 17.6398C80.5329 17.431 80.2086 16.3274 80.0869 16.0462L79.3153 13.8985C79.2784 13.8248 79.2674 13.7912 79.2357 13.7117C79.1832 13.5778 79.1328 13.4466 79.0978 13.3102C79.0253 13.0277 78.912 12.7833 78.8156 12.5111C78.7877 12.4322 78.7774 12.3928 78.7502 12.3294C78.7379 12.301 78.7288 12.281 78.712 12.2454C78.6337 12.0812 78.611 11.9099 78.5521 11.7133C78.4751 11.456 78.3508 11.1903 78.2744 10.9349L78.0731 10.3512C78.0381 10.2587 78.0355 10.282 77.998 10.1585C77.9598 10.0331 77.8964 9.89925 77.8498 9.76866C77.8232 9.69302 77.8154 9.62708 77.7889 9.55467C77.7695 9.50037 77.7313 9.41373 77.7132 9.36395C77.6905 9.30189 77.6853 9.22431 77.6627 9.16418C77.6491 9.12863 77.5986 9.03812 77.5766 8.98575C77.5157 8.83835 77.495 8.74525 77.4439 8.57264L77.1584 7.77938C77.0652 7.51044 76.9778 7.25895 76.8839 6.99841L76.5571 6.23425C76.3752 6.32735 76.3344 6.68163 76.2852 6.78701C76.2489 6.86459 76.28 6.77084 76.2476 6.86782L75.7285 8.13819C75.6618 8.37416 75.2093 9.40597 75.0902 9.71177C74.9841 9.98459 74.7724 10.4682 74.7025 10.7041L74.428 11.3843C74.3859 11.4567 74.4041 11.4049 74.3736 11.4728C74.3406 11.5452 74.3303 11.6345 74.307 11.7107C74.2701 11.8316 74.2662 11.7767 74.2189 11.8847C74.1768 11.981 74.173 12.0495 74.0681 12.2758L73.6784 13.2914C73.624 13.4576 73.5625 13.5093 73.5069 13.6554C73.4531 13.7957 73.4201 13.9224 73.345 14.0562C73.2745 14.183 73.2654 14.3317 73.2026 14.4584C73.1224 14.6213 73.134 14.503 73.0278 14.8456C72.9787 15.0027 72.9288 15.068 72.8686 15.2212C72.8097 15.3693 72.7786 15.4844 72.7217 15.6479L72.3935 16.4186C72.3268 16.597 72.3708 16.5336 72.2795 16.6965L72.086 17.2228C71.9449 17.6456 71.8271 17.6863 71.7028 18.2223C71.6749 18.3432 71.4406 18.6949 71.4833 18.8003V18.8022Z" fill="#F99721"/>
<path fill-rule="evenodd" clip-rule="evenodd" d="M86.0424 33.3497C86.0094 33.084 85.8119 32.6101 85.7148 32.3386L85.5226 31.7516C85.5129 31.729 85.5116 31.727 85.5019 31.696C85.1821 30.7327 84.8008 29.7074 84.5024 28.7628L84.2927 28.0821C84.8655 28.051 85.5103 28.0775 86.0909 28.0775H90.6371C90.8358 28.0775 91.0682 28.0995 91.2559 28.0478C91.3621 28.0187 91.3685 28.0239 91.4236 27.9385C90.9536 28.042 90.1458 27.9941 89.6544 27.9948C88.9333 27.9954 84.3153 27.9638 84.2532 28.0187C84.215 28.0659 84.2357 27.9566 84.2253 28.0905L84.3826 28.6956C84.4558 28.8747 84.4474 28.9568 84.5645 29.1999L84.6098 29.3401C84.5943 29.3311 84.6552 29.3091 84.7367 29.5968C84.8552 30.0151 85.0041 30.4088 85.1439 30.8142L85.1737 30.8879C85.1957 30.9383 85.195 30.9383 85.2177 31.0081C85.362 31.4451 85.4863 31.8958 85.643 32.3089C85.7951 32.711 85.8314 32.8584 85.942 33.2172C85.977 33.3291 85.9505 33.3168 86.0404 33.3491L86.0424 33.3497Z" fill="#F99721"/>
<path d="M114.61 43.9026H110.636L109.827 38.8094H104.792L103.989 43.9026H100.015V43.8321L105.22 17.0321H109.446L114.611 43.9026H114.61ZM109.259 35.3675L107.295 23.2553L105.325 35.3675H109.259ZM120.63 43.9026H116.762V17.067H120.63V43.9026ZM127.518 43.9026H123.649V17.067H127.518V43.9026ZM149.563 20.615H145.131V43.9026H141.122V20.615H136.69V17.0677H149.562V20.615H149.563ZM162.581 43.9026H158.818V43.3052C157.874 43.4403 156.936 43.5806 155.993 43.7151C154.756 43.8851 153.824 43.9724 153.179 43.9724C151.948 43.9666 151.333 43.258 151.327 41.8473V35.595C151.333 34.1844 151.972 33.4758 153.25 33.47H158.854V29.5011H155.091V31.9598H151.539V28.7105C151.545 27.2998 152.184 26.5912 153.456 26.5854H160.455C161.867 26.5912 162.577 27.2998 162.582 28.7105V43.9019L162.581 43.9026ZM158.853 40.7767V36.14H155.09V40.917L158.853 40.7767ZM169.369 43.9026H165.5V17.067H169.369V43.9026ZM183.501 41.7775C183.495 43.1882 182.786 43.8967 181.374 43.9026H174.41C172.998 43.8967 172.288 43.1882 172.283 41.7775V28.7111C172.288 27.3005 172.998 26.5919 174.41 26.5861H181.374C182.786 26.5919 183.495 27.3005 183.501 28.7111V35.0921L182.417 36.175H176.045V41.0224H179.738V38.1423H183.501V41.7775ZM179.738 33.6168V29.4662H176.045V33.6168H179.738ZM197.915 43.9026H193.976V29.8528L190.283 29.9408V43.9026H186.344V26.5861H190.283V27.2358C191.198 27.0839 192.112 26.9371 193.014 26.7968C194.14 26.6093 195.066 26.5156 195.787 26.5156C197.205 26.5156 197.915 27.2242 197.915 28.6407V43.9026H197.915ZM208.226 43.9026H203.812C202.399 43.8967 201.69 43.1882 201.684 41.7775V29.9227H199.82V26.5861H201.684V21.8796H205.588V26.5861H208.12V29.9227H205.588V40.5653H208.226V43.9019V43.9026ZM220.212 43.9026H209.767V41.5784L215.541 29.7824H210.224V26.5861H220.212V28.9102L214.404 40.7063H220.212V43.9026Z" fill="white"/>
</svg>
