<svg width="215" height="232" viewBox="0 0 215 232" fill="none" xmlns="http://www.w3.org/2000/svg">
<path d="M142.917 12.7818L199.085 4.37007C202.789 3.81549 206.119 6.68421 206.119 10.4295V59.274C206.119 63.0193 202.789 65.888 199.085 65.3335L142.917 56.9218C139.917 56.4722 137.698 53.8955 137.698 50.8623V18.8406C137.697 15.8075 139.917 13.2307 142.917 12.7818Z" fill="#EDEFF0"/>
<path d="M139.244 8.91994L195.413 0.508255C199.116 -0.04633 202.447 2.82239 202.447 6.56771V55.4122C202.447 59.1575 199.116 62.0262 195.413 61.4716L139.244 53.0599C136.245 52.6104 134.025 50.0337 134.025 47.0005V14.9794C134.025 11.9462 136.244 9.3695 139.244 8.91994Z" stroke="#D9DADE" stroke-width="0.5" stroke-miterlimit="10"/>
<path d="M83.9316 17.2885L9.34138 6.11832C4.42283 5.38138 0 9.19134 0 14.1647V61.1388C0 66.1122 4.42283 69.9221 9.34138 69.1852L83.931 58.0144C87.9147 57.4177 90.8625 53.9962 90.8625 49.9675V25.3343C90.8625 21.3068 87.9153 17.8852 83.9316 17.2885Z" fill="#EDEFF0"/>
<path d="M90.7138 12.1605L16.1241 0.989785C11.2055 0.253416 6.78271 4.0628 6.78271 9.03617V56.0103C6.78271 60.9836 11.2055 64.7936 16.1241 64.0567L90.7138 52.8859C94.6974 52.2892 97.6452 48.8676 97.6452 44.8389V20.2075C97.6452 16.1788 94.6974 12.7573 90.7138 12.1605Z" stroke="#D9DADE" stroke-width="0.5" stroke-miterlimit="10"/>
<path d="M86.1398 29.3018C86.1116 29.3018 86.0827 29.3006 86.0538 29.3001L46.7966 27.6375C44.7202 27.5497 43.0305 25.7619 43.0305 23.6526C43.0305 22.6098 43.4374 21.6599 44.176 20.9767C44.9032 20.3055 45.8577 19.9812 46.8664 20.0579L86.1237 23.1465C87.4787 23.2533 88.5405 24.6545 88.5405 26.3367C88.5405 27.2699 88.2064 28.1251 87.6241 28.6832C87.2057 29.0842 86.6817 29.3018 86.1398 29.3018ZM46.7758 21.2087C46.7077 21.2035 46.6402 21.2006 46.5733 21.2006C45.9656 21.2006 45.3989 21.4187 44.9597 21.8244C44.46 22.2867 44.1847 22.9359 44.1847 23.6526C44.1847 25.1519 45.3781 26.4221 46.8457 26.4844L86.1029 28.147C86.4249 28.1615 86.676 27.9935 86.8254 27.8504C87.1769 27.514 87.3864 26.9478 87.3864 26.3367C87.3864 25.2893 86.7666 24.355 86.0331 24.2973" fill="white"/>
<path d="M46.7631 38.3498C45.7884 38.3498 44.8686 37.973 44.1668 37.2834C43.4339 36.5637 43.0305 35.596 43.0305 34.5583C43.0305 33.5207 43.4339 32.553 44.1668 31.8333C44.8853 31.1281 45.83 30.753 46.8312 30.768L86.0885 31.4807C87.4631 31.5055 88.5405 32.8577 88.5405 34.5583C88.5405 36.2596 87.4637 37.6117 86.0885 37.6366L46.8312 38.3493C46.8087 38.3498 46.7862 38.3498 46.7631 38.3498ZM46.7637 31.9216C46.0931 31.9216 45.4601 32.1819 44.9759 32.6568C44.4657 33.1577 44.1847 33.8335 44.1847 34.5583C44.1847 35.2832 44.4657 35.9589 44.9759 36.4599C45.471 36.9469 46.1174 37.206 46.8111 37.1951L86.0683 36.4824C86.7827 36.4697 87.3869 35.5885 87.3869 34.5583C87.3869 33.5282 86.7833 32.647 86.0683 32.6349L46.8111 31.9222C46.7949 31.9222 46.7793 31.9216 46.7637 31.9216Z" fill="white"/>
<path d="M46.5703 49.0715C45.6724 49.0715 44.8315 48.7466 44.1765 48.1412C43.4379 47.458 43.031 46.5081 43.031 45.4653C43.031 43.356 44.7207 41.5687 46.7971 41.481L86.0538 39.8179C86.6303 39.7965 87.1837 40.0123 87.624 40.4342C88.2063 40.9928 88.5404 41.8481 88.5404 42.7806C88.5404 44.4629 87.4786 45.864 86.1236 45.9708L46.8664 49.0594C46.7671 49.0675 46.6684 49.0715 46.5703 49.0715ZM86.1409 40.9703C86.1282 40.9703 86.1155 40.9709 86.1028 40.9709L46.8456 42.6341C45.3786 42.6958 44.1846 43.9666 44.1846 45.4653C44.1846 46.182 44.4599 46.8312 44.9596 47.2935C45.4473 47.7436 46.0913 47.9612 46.7758 47.9087L86.033 44.8201C86.7665 44.7624 87.3863 43.8281 87.3863 42.7806C87.3863 42.1695 87.1768 41.604 86.8253 41.2675C86.6822 41.1302 86.4485 40.9703 86.1409 40.9703Z" fill="white"/>
<path d="M52.6928 27.3097C51.0896 27.2416 49.7681 25.8069 49.7681 24.1057V23.9452C49.7681 22.244 51.0896 20.9692 52.6928 21.0956C54.2665 21.2196 55.5205 22.6514 55.5205 24.2961V24.4508C55.5205 26.0961 54.2665 27.3766 52.6928 27.3097Z" fill="#CA775D"/>
<path d="M74.0173 37.3105C72.8066 37.3325 71.8105 36.154 71.8105 34.6778V34.5388C71.8105 33.0626 72.8066 31.8841 74.0173 31.9061C75.2085 31.9274 76.1607 33.107 76.1607 34.5405V34.6755C76.1607 36.1096 75.209 37.2886 74.0173 37.3105Z" fill="#EBCE89"/>
<path d="M74.722 36.0207C74.0889 36.0323 73.5684 35.4159 73.5684 34.6449V34.5722C73.5684 33.8007 74.0889 33.1849 74.722 33.1964C75.3446 33.208 75.8421 33.8243 75.8421 34.5734V34.6438C75.8427 35.3929 75.3446 36.0098 74.722 36.0207Z" fill="white"/>
<path d="M53.6668 25.45C53.0337 25.4615 52.5132 24.8458 52.5132 24.0742V24.0015C52.5132 23.2299 53.0337 22.6142 53.6668 22.6251C54.2895 22.6367 54.7869 23.253 54.7869 24.0021V24.0725C54.7875 24.8221 54.2895 25.439 53.6668 25.45Z" fill="white"/>
<path d="M60.4159 47.4153C58.9547 47.5301 57.7515 46.309 57.7515 44.6862V44.5333C57.7515 42.9105 58.9553 41.5434 60.4159 41.4816C61.8511 41.4211 62.9967 42.6468 62.9967 44.2182V44.3659C62.9967 45.9379 61.8517 47.3022 60.4159 47.4153Z" fill="#B3C2A3"/>
<path d="M61.2989 45.8392C60.6658 45.8507 60.1453 45.2344 60.1453 44.4628V44.3901C60.1453 43.6185 60.6658 43.0028 61.2989 43.0143C61.9216 43.0259 62.419 43.6422 62.419 44.3913V44.4617C62.419 45.2113 61.9216 45.8276 61.2989 45.8392Z" fill="white"/>
<path d="M150.262 68.9561L202.106 76.232C203.443 76.4196 204.49 77.5086 204.379 78.605L201.01 112.026C200.901 112.881 199.935 113.337 198.859 113.048L152.861 100.661C152.106 100.458 151.536 99.7098 151.582 98.9885L153.323 74.1141L150.262 68.9561Z" fill="#EDEFF0"/>
<path d="M144.064 64.9585L195.908 72.2345C197.245 72.422 198.292 73.511 198.181 74.6075L194.812 108.029C194.703 108.884 193.737 109.339 192.661 109.05L146.663 96.6639C145.908 96.4608 145.338 95.7123 145.384 94.9909L147.125 70.1165L144.064 64.9585Z" fill="white" stroke="#D9DADE" stroke-width="0.5" stroke-miterlimit="10"/>
<path d="M182.551 95.2508C183.144 95.387 183.677 95.0973 183.739 94.6022L185.454 80.9309C185.519 80.4173 185.075 79.9152 184.466 79.8096C183.859 79.7046 183.319 80.0329 183.256 80.5425L181.591 94.1157C181.531 94.6074 181.96 95.1152 182.551 95.2508Z" fill="#D9DADE"/>
<path d="M179.071 92.1904C179.65 92.3185 180.171 92.0254 180.23 91.5331L181.315 82.5259C181.375 82.0221 180.944 81.5263 180.353 81.419C179.766 81.3122 179.242 81.6319 179.184 82.1323L178.13 91.0755C178.074 91.5637 178.494 92.0623 179.071 92.1904Z" fill="#D9DADE"/>
<path d="M175.778 88.6486C176.345 88.7681 176.853 88.4697 176.91 87.9804L177.296 84.6453C177.353 84.1514 176.933 83.6614 176.361 83.5512C175.792 83.4421 175.286 83.7514 175.231 84.242L174.856 87.5533C174.801 88.0398 175.213 88.5292 175.778 88.6486Z" fill="#D9DADE"/>
<path d="M186.731 93.8865C187.344 94.0221 187.896 93.7243 187.962 93.2199L189.169 83.9778C189.237 83.4607 188.783 82.9489 188.159 82.8357C187.537 82.7232 186.982 83.0481 186.916 83.5617L185.745 92.7369C185.681 93.2373 186.122 93.7514 186.731 93.8865Z" fill="#D9DADE"/>
<path d="M168.464 92.0164C168.999 92.1394 169.475 91.8572 169.526 91.3851L170.916 78.3653C170.968 77.8771 170.564 77.4033 170.017 77.3087C169.471 77.214 168.989 77.5314 168.938 78.0162L167.589 90.9465C167.54 91.4157 167.931 91.8941 168.464 92.0164Z" fill="#D9DADE"/>
<path d="M165.301 89.1413C165.823 89.2573 166.289 88.9717 166.336 88.5031L167.215 79.92C167.264 79.4404 166.871 78.9724 166.339 78.876C165.809 78.7796 165.342 79.0884 165.294 79.5651L164.442 88.0899C164.396 88.5562 164.78 89.0265 165.301 89.1413Z" fill="#D9DADE"/>
<path d="M172.205 90.6701C172.756 90.7919 173.248 90.5028 173.302 90.0221L174.281 81.226C174.336 80.7343 173.924 80.2525 173.363 80.1509C172.805 80.0493 172.31 80.3639 172.257 80.8521L171.307 89.5875C171.255 90.0642 171.656 90.5484 172.205 90.6701Z" fill="#D9DADE"/>
<path d="M191.033 91.8677C191.665 92.001 192.237 91.6934 192.307 91.1787L192.784 87.6694C192.854 87.1494 192.391 86.6277 191.753 86.5054C191.117 86.3836 190.548 86.7033 190.479 87.2198L190.017 90.7037C189.949 91.2139 190.403 91.7344 191.033 91.8677Z" fill="#D9DADE"/>
<path d="M155.928 89.1384C156.414 89.2498 156.842 88.9751 156.883 88.5243L158.007 76.0886C158.049 75.6223 157.679 75.1745 157.182 75.0885C156.688 75.0031 156.255 75.3095 156.214 75.7724L155.126 88.1267C155.086 88.5746 155.445 89.0276 155.928 89.1384Z" fill="#D9DADE"/>
<path d="M153.034 86.4264C153.509 86.5315 153.928 86.2545 153.966 85.8061L154.675 77.6033C154.715 77.1451 154.353 76.7019 153.871 76.6147C153.39 76.5276 152.97 76.8259 152.932 77.2813L152.246 85.431C152.208 85.8765 152.561 86.322 153.034 86.4264Z" fill="#D9DADE"/>
<path d="M150.277 83.2666C150.743 83.3648 151.152 83.0837 151.189 82.6376L151.44 79.5975C151.477 79.1474 151.126 78.7088 150.656 78.6187C150.188 78.5293 149.782 78.819 149.745 79.2663L149.502 82.2873C149.467 82.7305 149.813 83.1685 150.277 83.2666Z" fill="#D9DADE"/>
<path d="M159.299 87.813C159.798 87.9238 160.24 87.6421 160.283 87.1834L161.077 78.7861C161.121 78.3169 160.744 77.861 160.236 77.7693C159.731 77.6775 159.287 77.9816 159.244 78.4473L158.475 86.7892C158.433 87.2451 158.801 87.7027 159.299 87.813Z" fill="#D9DADE"/>
<path d="M162.743 85.8971C163.257 86.0056 163.713 85.7159 163.759 85.2484L164.074 82.0635C164.121 81.592 163.736 81.128 163.218 81.0287C162.702 80.9295 162.248 81.2296 162.203 81.6982L161.898 84.8618C161.853 85.3263 162.231 85.7892 162.743 85.8971Z" fill="#D9DADE"/>
<path d="M98.2176 196.325C97.5055 193.746 98.8558 179.763 98.8558 179.763L86.438 176.803L89.2144 202.956L98.2176 196.325Z" fill="#C58368"/>
<path d="M106.713 203.068L109.888 205.529L83.4436 231.458L81.7603 228.627L106.713 203.068Z" fill="#EBEBEB"/>
<path d="M103.358 201.256C104.753 202.142 105.894 202.72 106.715 203.072C106.715 203.072 99.3165 211.461 92.25 218.788C88.1388 223.041 84.5827 226.622 82.2017 228.307C83.8446 225.164 85.0513 221.964 86.3036 218.539C89.525 209.721 90.0005 206.183 86.6793 197.009L99.3194 193.221C99.0914 196.436 100.639 199.527 103.358 201.256Z" fill="#B74724"/>
<path d="M90.4495 196.277C89.8862 195.994 89.2168 196.108 88.739 196.506C88.2109 196.946 87.9772 197.598 87.8941 198.263C87.8012 199.002 87.8093 199.765 87.8318 200.509C87.8739 201.898 88.0661 203.271 88.4014 204.615C88.3171 204.559 88.234 204.502 88.1446 204.454C87.8214 204.281 87.4873 204.136 87.1462 204.003C86.4958 203.748 85.827 203.541 85.1472 203.38C84.4622 203.216 83.7593 203.092 83.0575 203.027C82.4181 202.968 81.7285 202.977 81.1445 203.277C80.1923 203.766 79.7162 205.071 80.5651 205.885C81.0365 206.338 81.7337 206.47 82.3604 206.538C83.0304 206.61 83.7079 206.64 84.3814 206.619C85.7652 206.577 87.137 206.312 88.4579 205.899C88.4649 205.909 88.4753 205.916 88.4828 205.925C88.4868 205.95 88.4868 205.975 88.496 205.998C88.5797 206.198 88.784 206.249 88.975 206.195C90.0051 205.904 91.0641 205.711 92.1294 205.608C92.4104 205.581 92.8271 205.566 92.875 205.208C92.9339 204.776 92.4024 204.769 92.1173 204.801C91.5852 204.86 91.0554 204.945 90.5303 205.051C90.2054 205.117 89.8828 205.193 89.5613 205.275C89.933 204.855 90.2186 204.319 90.4691 203.841C90.7848 203.238 91.0433 202.604 91.2349 201.95C91.6164 200.649 91.887 199.098 91.5494 197.758C91.393 197.135 91.0358 196.572 90.4495 196.277ZM85.2961 205.788C84.1765 205.918 82.964 205.998 81.8485 205.802C81.3326 205.71 80.6661 205.449 80.6926 204.82C80.7128 204.339 81.0977 203.935 81.519 203.754C82.0643 203.519 82.6784 203.549 83.256 203.61C83.8302 203.67 84.3981 203.774 84.9596 203.91C85.6071 204.067 86.2448 204.271 86.8652 204.514C87.1878 204.639 87.504 204.78 87.8226 204.915C87.9876 204.985 88.1573 205.046 88.3252 205.109C87.3407 205.438 86.3285 205.669 85.2961 205.788ZM91.0127 198.069C91.2061 199.244 90.9937 200.571 90.6353 201.695C90.4391 202.309 90.1852 202.907 89.8712 203.47C89.6179 203.925 89.2832 204.325 88.9923 204.752C88.7494 203.725 88.5699 202.681 88.4776 201.63C88.4187 200.959 88.391 200.283 88.402 199.609C88.4123 198.985 88.4095 198.319 88.6034 197.719C88.7851 197.159 89.2913 196.528 89.9549 196.68C90.592 196.825 90.9158 197.477 91.0127 198.069Z" fill="#EBEBEB"/>
<path d="M92.5179 206.77C92.3217 206.801 92.1272 206.857 91.9339 206.902C91.5571 206.99 91.1808 207.078 90.804 207.166C90.0387 207.345 89.2787 207.543 88.5164 207.735C88.1586 207.825 88.3051 208.356 88.6624 208.286C89.4224 208.136 90.1842 207.993 90.9413 207.831C91.3078 207.752 91.6736 207.674 92.0401 207.595C92.3748 207.524 92.93 207.511 93.0863 207.156C93.1233 207.072 93.1325 206.961 93.0552 206.892C92.8849 206.742 92.7366 206.736 92.5179 206.77Z" fill="#EBEBEB"/>
<path d="M93.9639 209.679C93.1121 209.746 92.2626 209.839 91.4126 209.926C90.4708 210.022 89.5018 210.109 88.5808 210.334C88.3627 210.387 88.4175 210.698 88.6281 210.712C89.4747 210.769 90.3317 210.698 91.1777 210.651C92.0128 210.606 92.8501 210.549 93.6829 210.472C94.006 210.442 94.6154 210.485 94.7424 210.095C94.8798 209.671 94.2074 209.66 93.9639 209.679Z" fill="#EBEBEB"/>
<path d="M92.1478 213.358C91.5089 213.354 90.8701 213.35 90.2312 213.347C89.5162 213.343 88.8024 213.351 88.0874 213.366C87.7867 213.372 87.7907 213.799 88.0827 213.827C89.3471 213.947 90.6127 214.032 91.88 214.119C92.1864 214.141 92.6117 214.232 92.7797 213.892C92.8472 213.755 92.7947 213.611 92.6925 213.507C92.5448 213.355 92.3434 213.359 92.1478 213.358Z" fill="#EBEBEB"/>
<path d="M92.2483 218.792C89.1793 223.464 84.6359 227.503 81.762 228.627C83.4084 225.486 85.0531 221.967 86.3048 218.542C87.8301 218.214 89.4113 218.18 90.936 218.465C91.3769 218.548 91.8178 218.66 92.2483 218.792Z" fill="#EBEBEB"/>
<path d="M97.9647 204.009C98.8748 203.662 99.5344 202.756 99.6215 201.786C99.8449 199.299 96.6922 197.673 95.1508 199.848C93.7658 201.803 95.407 204.986 97.9647 204.009Z" fill="#EBEBEB"/>
<path d="M97.7145 113.954C97.3503 114.338 87.3701 139.368 87.0406 142.057C86.7105 144.747 84.7288 190.336 84.7288 190.336C92.3389 192.243 102.377 188.696 102.377 188.696C102.377 188.696 106.265 153.102 106.852 150.728C107.439 148.355 127.107 112.154 127.107 112.154L97.7145 113.954Z" fill="#263238"/>
<path d="M118.582 110.712C116.865 113.259 115.488 116 114.037 118.705C112.585 121.412 111.135 124.119 109.683 126.826C106.836 132.135 104.004 137.451 101.224 142.796C100.492 142.365 99.7111 142.011 98.9089 141.741C98.4305 141.58 98.2332 142.268 98.67 142.469C99.3019 142.761 99.901 143.12 100.469 143.524C100.296 143.95 100.244 144.397 100.177 144.878C100.068 145.654 99.9633 146.429 99.8623 147.206C99.6776 148.622 99.5056 150.04 99.3458 151.459C99.0209 154.342 98.7473 157.232 98.5246 160.126C98.0825 165.868 97.8425 171.625 97.7992 177.383C97.7836 179.456 97.8038 181.528 97.8407 183.6C94.0262 184.54 89.8786 184.444 86.0836 183.797C85.5227 183.701 85.3455 184.637 85.8972 184.781C89.9063 185.821 93.8813 185.825 97.8771 185.26C97.8927 185.905 97.8996 186.55 97.9204 187.195C97.9469 188.029 99.2506 188.114 99.2258 187.27C99.2038 186.533 99.1952 185.796 99.1802 185.059C99.8456 184.945 100.512 184.818 101.179 184.678C102.614 184.376 101.936 182.165 100.52 182.739C100.068 182.922 99.6072 183.082 99.1415 183.231C99.0088 173.106 99.497 162.979 100.617 152.914C100.795 151.311 100.989 149.71 101.199 148.111C101.307 147.289 101.419 146.467 101.535 145.646C101.587 145.273 101.657 144.897 101.7 144.522C101.993 144.792 102.28 145.074 102.529 145.381C102.917 145.858 103.132 146.265 103.478 146.787C103.711 147.137 104.324 147.137 104.61 146.866C104.942 146.549 104.961 146.091 104.689 145.733C104.342 145.278 103.864 144.875 103.469 144.51C103.141 144.209 102.804 143.922 102.456 143.647C107.066 135.305 111.543 126.891 116.046 118.492C117.327 116.103 118.632 113.748 119.667 111.239C119.934 110.592 118.957 110.155 118.582 110.712Z" fill="#38474F"/>
<path d="M170.28 175.166L163.901 190.797C161.906 189.784 160.432 188.645 160.432 188.645L165.023 172.24C169.725 174.122 170.28 175.166 170.28 175.166Z" fill="#EBEBEB"/>
<path d="M160.436 188.644C161.434 188.515 166.569 180.921 165.588 174.355C165.479 173.631 165.299 172.923 165.03 172.239C164.173 171.899 163.03 171.479 161.632 170.96C160.328 170.479 158.795 169.919 157.058 169.273C155.171 168.575 153.036 167.774 150.68 166.861C146.645 165.304 142.52 162.075 137.324 159.861L129.252 167.878C138.489 170.379 141.641 171.676 145.511 174.113C149.594 176.684 154.291 182.705 158.107 186.585C159.092 187.586 159.906 188.332 160.436 188.644Z" fill="#B74724"/>
<path d="M145.51 174.112C146.736 171.48 148.662 168.916 150.678 166.86C146.643 165.303 142.518 162.074 137.322 159.86L129.25 167.877C138.487 170.378 141.639 171.675 145.51 174.112Z" fill="#C58368"/>
<path d="M161.701 170.976C160.359 170.481 158.783 169.905 156.997 169.241C157.704 170.575 159.938 171.942 161.701 170.976Z" fill="#EBEBEB"/>
<path d="M160.436 188.645C162.815 188.123 167.739 180.669 165.588 174.355C159.769 177.411 155.952 184.88 160.436 188.645Z" fill="#EBEBEB"/>
<path d="M144.662 177.88C146.889 178.108 149.517 177.221 151.271 175.664C151.033 176.061 150.771 176.496 150.698 176.918C150.653 177.171 151.028 177.244 151.182 177.041C151.499 176.625 151.676 176.085 151.924 175.635C152.186 175.161 152.48 174.699 152.795 174.249C153.432 173.336 154.131 172.456 154.937 171.653C155.048 171.543 154.906 171.389 154.781 171.495C153.998 172.157 153.268 172.876 152.635 173.658C153.418 172.314 153.756 170.689 153.768 169.286C153.779 168.086 153.666 166.337 152.321 165.834C150.966 165.327 149.586 166.515 149.171 167.697C148.709 169.011 148.861 170.49 149.298 171.704C149.599 172.543 150.08 173.282 150.693 173.922C149.52 173.566 148.244 173.489 146.943 173.696C145.635 173.905 143.753 174.447 143.026 175.629C142.694 176.17 142.675 176.803 143.076 177.246C143.449 177.657 144.08 177.82 144.662 177.88ZM151.71 174.115C151.706 174.123 151.707 174.13 151.704 174.137C150.882 173.379 150.249 172.448 149.893 171.408C149.526 170.34 149.379 169.071 149.74 167.916C149.932 167.303 150.337 166.707 151.001 166.425C151.63 166.158 152.231 166.327 152.589 166.792C153.303 167.718 153.217 169.246 153.057 170.384C152.871 171.711 152.315 172.876 151.71 174.115ZM143.587 176.874C143.14 176.37 143.633 175.684 144.164 175.327C145.187 174.639 146.567 174.295 147.76 174.212C149.023 174.124 150.292 174.307 151.391 174.771C151.411 174.779 151.43 174.779 151.45 174.783C150.573 175.567 149.595 176.249 148.486 176.703C147.389 177.152 146.196 177.381 145.046 177.345C144.53 177.328 143.915 177.242 143.587 176.874Z" fill="#EBEBEB"/>
<path d="M152.628 177.47C153.561 175.513 155.251 173.791 157.188 172.584C157.341 172.488 157.502 172.708 157.353 172.812C156.449 173.439 155.62 174.171 154.902 174.974C154.173 175.788 153.611 176.664 153.102 177.59C153.054 177.677 152.953 177.775 152.836 177.762C152.791 177.757 152.754 177.753 152.716 177.731C152.63 177.682 152.582 177.567 152.628 177.47Z" fill="#EBEBEB"/>
<path d="M154.579 179.37C155.295 177.325 156.609 175.348 158.144 173.672C158.323 173.476 158.661 173.652 158.486 173.863C157.777 174.719 157.133 175.624 156.566 176.555C155.984 177.511 155.543 178.499 155.103 179.502C154.963 179.821 154.466 179.692 154.579 179.37Z" fill="#EBEBEB"/>
<path d="M156.367 180.968C156.352 180.948 156.338 180.927 156.323 180.907C156.273 180.835 156.308 180.738 156.351 180.664C156.641 180.168 156.868 179.649 157.167 179.155C157.464 178.662 157.786 178.179 158.129 177.709C158.804 176.781 159.562 175.917 160.41 175.109C160.575 174.952 160.86 175.163 160.702 175.331C159.926 176.158 159.194 177.032 158.546 177.942C158.233 178.382 157.938 178.832 157.663 179.29C157.361 179.794 157.029 180.312 156.817 180.847C156.783 180.932 156.701 180.997 156.607 181.02C156.585 181.026 156.562 181.031 156.539 181.036C156.461 181.056 156.404 181.021 156.367 180.968Z" fill="#EBEBEB"/>
<path d="M132.578 124.097C132.038 134.138 123.75 148.782 123.75 148.782L146.653 164.238C143.813 173.834 139.304 175.983 139.304 175.983C139.304 175.983 111.924 166.989 102.013 154.723C98.2939 150.121 109.764 112.316 109.764 112.316L132.578 124.097Z" fill="#263238"/>
<path d="M106.132 95.7038L97.7146 113.953L132.579 124.097C132.579 124.097 134.483 108.438 126.999 89.6426L106.132 95.7038Z" fill="#263238"/>
<path d="M144.794 164.119C144.068 163.505 143.078 163.146 142.239 162.708C141.394 162.267 140.554 161.817 139.719 161.36C138.002 160.42 136.301 159.45 134.621 158.445C131.286 156.447 128.024 154.316 124.843 152.081C123.175 150.909 121.532 149.701 119.854 148.544C119.876 148.514 119.897 148.483 119.917 148.45C125.419 138.953 128.843 128.102 129.499 117.131C129.501 117.089 129.501 117.048 129.504 117.007C129.572 116.837 129.583 116.635 129.525 116.452C129.658 113.585 129.565 110.725 129.278 107.87C129.251 107.598 128.79 107.579 128.787 107.866C128.756 110.513 128.621 113.163 128.375 115.802C123.097 114.296 119.471 109.356 119.428 103.857C119.425 103.477 118.774 103.467 118.758 103.851C118.503 109.982 122.463 115.358 128.233 117.172C127.401 124.855 125.605 132.431 122.602 139.561C121.404 142.406 120.026 145.174 118.488 147.851C118.478 147.867 118.475 147.886 118.467 147.903C114.413 149.592 110.254 150.809 105.848 151.102C105.501 151.125 105.573 151.643 105.912 151.632C110.069 151.501 114.292 150.916 118.249 149.581C118.219 149.658 118.189 149.735 118.152 149.807C117.981 150.14 117.802 150.47 117.604 150.787C117.19 151.449 116.7 152.073 116.193 152.665C115.181 153.847 114.02 154.977 112.688 155.787C112.482 155.913 112.705 156.199 112.907 156.085C114.335 155.278 115.692 154.431 116.883 153.292C117.47 152.73 117.998 152.129 118.513 151.502C118.761 151.2 119.002 150.893 119.23 150.576C119.428 150.302 119.728 149.999 119.903 149.682C122.557 152.011 125.465 154.103 128.382 156.071C131.625 158.257 134.954 160.318 138.37 162.222C139.095 162.626 139.827 163.018 140.559 163.41C140.481 163.656 140.419 163.91 140.338 164.149C140.186 164.597 140.022 165.04 139.846 165.479C139.476 166.403 139.06 167.311 138.599 168.193C137.688 169.932 136.612 171.587 135.344 173.087C134.953 173.551 135.668 174.081 136.074 173.66C137.498 172.186 138.78 170.589 139.827 168.824C140.343 167.955 140.814 167.065 141.223 166.141C141.436 165.661 141.634 165.175 141.818 164.684C141.878 164.523 141.941 164.361 142.002 164.198C142.746 164.615 143.515 165.042 144.322 165.227C144.962 165.376 145.234 164.49 144.794 164.119Z" fill="#38474F"/>
<path d="M112.279 103.056C111.79 103.795 111.431 104.638 111.027 105.427C110.615 106.232 110.207 107.04 109.798 107.847C109.388 108.654 108.979 109.46 108.569 110.267C108.291 110.814 107.965 111.877 107.336 112.129C107.147 112.205 106.819 112.222 106.712 112.005C106.553 111.678 106.983 111.005 107.108 110.71C107.463 109.879 107.816 109.049 108.171 108.218C108.891 106.529 109.637 104.851 110.375 103.169C110.543 102.785 109.947 102.535 109.773 102.917C109.075 104.452 108.388 105.993 107.674 107.52C107.317 108.284 106.959 109.048 106.602 109.813C106.306 110.448 105.789 111.202 105.805 111.926C105.834 113.235 107.462 113.377 108.263 112.666C108.769 112.218 109.05 111.577 109.358 110.99C109.751 110.241 110.144 109.493 110.537 108.744C110.986 107.888 111.436 107.033 111.884 106.177C112.325 105.333 112.855 104.485 113.198 103.597C113.408 103.055 112.627 102.529 112.279 103.056Z" fill="#38474F"/>
<path d="M111.365 64.9917L111.226 81.2916L94.1094 88.6201L87.5605 79.329L94.885 74.9131L95.0668 74.8046L95.8291 74.3469L95.8516 74.3348L111.365 64.9917Z" fill="#C58368"/>
<path d="M117.98 62.9497L115.492 68.0627L115.175 68.7091L109.144 81.0935L108.198 78.8255L107.569 77.3135L104.089 68.963C104.089 68.963 109.375 65.4543 110.385 64.8714C111.395 64.2886 114.65 63.0363 117.98 62.9497Z" fill="#EFBB00"/>
<path d="M105.462 92.2329C105.056 94.3918 103.199 98.8816 102.88 100.875C114.925 110.269 126.566 106.699 133.988 105.503L129.868 93.8003C139.654 83.0883 142.874 70.6341 142.139 68.979C142.139 68.979 141.567 68.6362 139.957 67.7631C139.939 67.7498 139.916 67.7405 139.894 67.7261C139.793 67.6724 139.685 67.6119 139.576 67.5513C138.192 66.8057 136.144 65.7305 133.21 64.2232C128.854 63.5416 123.547 63.0673 119.271 62.972C119.072 62.9651 118.867 62.9616 118.672 62.9599C118.437 62.9559 118.207 62.953 117.977 62.9501C117.853 62.9466 117.689 62.9663 117.497 63.0003C115.708 63.3258 111.385 65.0559 111.385 65.0559C111.385 65.0559 107.864 79.4215 105.462 92.2329Z" fill="#EFBB00"/>
<path d="M111.25 78.7134C111.95 78.8975 112.622 79.3142 113.281 79.6149C113.955 79.923 114.633 80.2225 115.317 80.5117C116.648 81.0755 117.995 81.6058 119.354 82.1015C122.084 83.0976 124.856 84.1404 127.69 84.8029C127.983 84.8716 127.819 85.3096 127.529 85.2421C124.629 84.564 121.729 83.9829 118.889 83.0624C117.513 82.6163 116.148 82.1356 114.797 81.6203C114.105 81.3565 113.416 81.0859 112.731 80.806C112.04 80.5238 111.267 80.2826 110.653 79.8549C110.018 79.4117 110.567 78.5334 111.25 78.7134Z" fill="#EAA000"/>
<path d="M127.506 93.2047C127.989 91.6743 129.031 90.3083 130.015 89.0658C131.116 87.6739 132.438 86.5312 133.654 85.2507C133.756 85.1439 133.927 85.2859 133.83 85.3995C132.785 86.6247 131.853 87.9641 130.883 89.2499C129.951 90.486 128.964 91.7799 128.396 93.233C127.223 96.2321 128.558 99.5873 129.61 102.421C129.83 103.016 128.906 103.333 128.679 102.742C127.494 99.6624 126.473 96.482 127.506 93.2047Z" fill="#EAA000"/>
<path d="M115.498 68.351C115.389 68.4664 115.273 68.5876 115.175 68.7088C114.235 69.7303 113.375 70.8325 112.549 71.9578C112.521 72.079 112.469 72.1887 112.376 72.2752C112.353 72.2926 112.324 72.2926 112.301 72.3041C111.828 72.9562 111.366 73.6141 110.922 74.272C109.924 75.7436 109.087 77.3017 108.198 78.8252L107.569 77.3133C108.302 75.9859 109.185 74.7279 110.068 73.5448C110.564 72.8812 111.089 72.2579 111.638 71.652C111.638 71.6289 111.632 71.6058 111.632 71.5827C111.632 71.3634 111.632 71.1441 111.649 70.9191C111.678 70.5036 111.736 70.0881 111.816 69.6841C111.99 68.83 112.33 68.0336 112.699 67.2488C112.798 67.0295 113.144 67.1507 113.057 67.3873C112.763 68.1606 112.642 68.9801 112.567 69.7995C112.538 70.0881 112.538 70.3766 112.538 70.6652C113.403 69.7649 114.321 68.9108 115.256 68.0625C115.343 67.9875 115.435 68.0048 115.493 68.0625C115.562 68.1317 115.585 68.2587 115.498 68.351Z" fill="#EAA000"/>
<path d="M117.625 69.7513L119.058 70.1564L128.524 72.8162C130.665 70.8351 133.817 67.8394 137.398 66.4648C136.262 65.8669 134.873 65.149 133.199 64.2862C129.601 63.7265 125.352 63.3006 121.575 63.1147C121.156 63.5932 120.783 64.0369 120.451 64.4501L120.411 64.5032C118.973 66.2714 118.232 67.6051 117.625 69.7513Z" fill="#C58368"/>
<path d="M117.637 69.6918L119.07 70.0969L121.586 63.0547L120.462 64.3901L120.423 64.4432C118.984 66.2114 118.244 67.545 117.637 69.6918Z" fill="#263238"/>
<path d="M148.731 101.067L137.328 101.423L135.357 95.8153L135.096 95.0772L130.987 83.4038L145.776 80.8213L148.731 101.067Z" fill="#C58368"/>
<path d="M142.138 68.9795C146.169 73.9656 146.684 81.5762 146.684 81.5762L131.248 85.8508L130.199 79.7255L142.138 68.9795Z" fill="#EFBB00"/>
<path d="M125.825 53.5181L125.007 57.4671L124.065 62.0094L123.516 64.3743C122.91 66.9857 124.441 69.6178 127.01 70.3818C129.599 71.1523 132.338 69.7574 133.237 67.2107L138.025 53.6589L125.825 53.5181Z" fill="#C58368"/>
<path d="M125.007 57.4673L123.964 62.447C127.392 64.4005 132.884 63.6462 135.103 58.9089C133.063 57.7807 129.924 57.48 127.928 57.2924C126.952 57.2041 125.962 57.2619 125.007 57.4673Z" fill="#263238"/>
<path d="M113.719 53.6067C114.32 52.9517 114.853 52.2222 115.428 51.5436C116.028 50.8355 116.615 50.1199 117.155 49.3651C117.63 48.7014 118.049 48.0112 118.45 47.3106C120 43.6374 120.735 42.1347 121.874 40.5996L127.214 44.3599L122.905 58.2413C122.905 58.2413 118.426 57.7871 114.645 54.6956C114.645 54.6956 115.085 53.8866 115.817 52.4877C115.25 53.0082 114.644 53.4578 114.018 53.9235C113.823 54.0683 113.548 53.7925 113.719 53.6067Z" fill="#263238"/>
<path d="M118.742 55.8062L120.535 56.3874C122.752 57.1053 125.131 55.8905 125.849 53.6739L126.299 52.286C127.016 50.0694 125.802 47.69 123.585 46.9721L121.791 46.391C119.574 45.6731 117.195 46.8878 116.477 49.1045L116.027 50.4924C115.31 52.709 116.524 55.0883 118.742 55.8062Z" fill="white"/>
<path d="M122.997 48.7884C121.635 48.3475 120.173 49.0937 119.733 50.455L119.456 51.3074C119.015 52.6687 119.761 54.1305 121.123 54.5714C122.484 55.0123 123.946 54.2661 124.387 52.9048L124.663 52.0524C125.104 50.691 124.358 49.2293 122.997 48.7884Z" fill="#D8DCE2"/>
<path d="M120.535 56.3873C122.752 57.1052 125.131 55.8904 125.849 53.6738L126.299 52.2859C127.016 50.0693 125.802 47.6899 123.585 46.972C121.368 46.2541 118.989 47.4689 118.271 49.6855L117.822 51.0734C117.104 53.29 118.319 55.6694 120.535 56.3873Z" fill="#D9DADE" stroke="#263238" stroke-width="0.25" stroke-miterlimit="10"/>
<path d="M137.255 40.835C140.463 41.8656 142.452 43.9813 143.526 46.7854C143.56 46.8459 143.597 46.9083 143.628 46.9677C144.277 48.1785 144.661 49.485 144.983 50.8146C145.337 52.2764 145.599 53.7578 145.705 55.2588C145.812 56.784 145.637 58.2666 145.489 59.7815C145.457 60.1127 144.905 60.1006 144.901 59.7618C144.884 58.3647 144.641 56.9606 144.441 55.5808C144.438 55.5612 144.434 55.5416 144.431 55.5219C144.31 56.9866 144.094 58.5003 143.787 60.0475C137.623 63.1274 131.281 61.0868 131.281 61.0868C133.223 57.379 137.255 40.835 137.255 40.835Z" fill="#263238"/>
<path d="M118.666 53.2389C118.956 55.8242 120.216 58.3883 122.384 59.8177C125.385 61.8052 129.495 61.2443 132.615 59.449C134.397 58.4275 135.939 56.96 137.077 55.257C139.572 51.5647 140.187 46.7524 137.307 42.8991C135.338 40.2618 130.861 38.1704 127.092 38.4405C125.614 38.5432 124.243 39.0084 123.176 39.9519C119.785 42.9511 118.173 48.8697 118.666 53.2389Z" fill="#C58368"/>
<path d="M121.51 48.9861C121.343 49.4894 121.532 50.0214 121.932 50.1744C122.332 50.3279 122.791 50.0439 122.958 49.5407C123.125 49.0375 122.936 48.5054 122.536 48.3525C122.136 48.1996 121.677 48.4829 121.51 48.9861Z" fill="#263238"/>
<path d="M127.716 50.5701C127.549 51.0733 127.738 51.6054 128.138 51.7583C128.537 51.9119 128.997 51.6279 129.163 51.1247C129.33 50.6215 129.141 50.0894 128.741 49.9365C128.342 49.7835 127.882 50.0669 127.716 50.5701Z" fill="#263238"/>
<path d="M122.711 51.3713C123.39 50.212 124.124 49.097 124.871 47.9826C124.944 47.8747 125.119 47.9619 125.053 48.0802C124.52 49.0341 123.982 49.9742 123.405 50.9039C123.126 51.354 122.759 51.8284 122.664 52.3605C122.584 52.8054 122.829 53.1845 123.12 53.4893C123.196 53.5683 123.153 53.7178 123.033 53.7166C122.616 53.7137 122.314 53.3069 122.261 52.922C122.184 52.3697 122.441 51.8336 122.711 51.3713Z" fill="#263238"/>
<path d="M120.862 43.3286C119.134 44.9612 124.48 45.9123 124.437 44.3281C124.404 43.1411 121.585 42.6453 120.862 43.3286Z" fill="#263238"/>
<path d="M132.839 47.7362C133.1 46.6968 130.649 45.8168 129.914 46.009C127.852 46.5485 132.336 49.7398 132.839 47.7362Z" fill="#263238"/>
<path d="M128.243 54.5166C128.12 54.164 124.966 54.4825 124.681 54.909C124.5 55.1802 125.306 56.4089 126.65 56.2386C127.76 56.0978 128.386 54.9263 128.243 54.5166Z" fill="white"/>
<path d="M139.821 52.9857C133.825 57.3255 130.435 39.8032 130.435 39.8032C124.202 39.2417 119.753 45.1517 119.753 45.1517C121.609 37.5953 128.969 33.8609 137.255 40.8356C143.99 43.6899 139.821 52.9857 139.821 52.9857Z" fill="#263238"/>
<path d="M139.09 52.1675C140.309 51.9806 141.699 52.4088 142.314 53.4781C142.826 54.3686 142.706 55.4933 142.369 56.464C141.935 57.7157 141.146 58.867 140.043 59.5993C138.939 60.3316 137.508 60.6081 136.249 60.1972C134.989 59.7863 133.962 58.6425 133.825 57.3244C133.562 54.7962 136.899 52.5034 139.09 52.1675Z" fill="#C58368"/>
<path d="M136.901 56.0066C137.176 55.8168 137.479 55.6627 137.791 55.5409C138.369 55.3147 138.987 55.2247 139.607 55.2281C139.953 55.2304 139.989 55.6817 139.657 55.7562C139.397 55.815 139.147 55.9177 138.908 56.0366C138.9 56.0407 138.807 56.0891 138.85 56.0661C138.893 56.043 138.803 56.092 138.795 56.0966C138.733 56.1319 138.672 56.1694 138.611 56.2069C138.494 56.2796 138.38 56.3581 138.27 56.4412C138.164 56.522 138.063 56.6085 137.963 56.6968C137.962 56.698 137.962 56.6968 137.962 56.698L137.961 56.6986C137.938 56.7216 137.915 56.7441 137.891 56.7666C137.844 56.8122 137.798 56.8584 137.752 56.9057C137.463 57.2099 137.172 57.6219 136.688 57.5342C136.502 57.5001 136.339 57.3743 136.274 57.1937C136.088 56.6732 136.515 56.2727 136.901 56.0066Z" fill="#263238"/>
<path d="M132.598 54.1313L119.181 49.555C116.546 48.653 115.11 45.8772 115.973 43.3541C116.837 40.8311 119.673 39.5171 122.308 40.4185L135.724 44.9942C138.359 45.8962 139.795 48.672 138.932 51.1951C138.068 53.7193 135.233 55.0333 132.598 54.1313Z" fill="white"/>
<path d="M129.275 52.9944L118.979 49.4863C116.456 48.6229 115.111 45.8777 115.974 43.3547C116.838 40.8316 119.583 39.4864 122.106 40.3498L132.402 43.8579C134.925 44.7212 136.27 47.4665 135.407 49.9895C134.543 52.5125 131.798 53.8577 129.275 52.9944Z" stroke="#263238" stroke-width="0.25" stroke-miterlimit="10"/>
<path d="M129.467 52.0973L119.14 48.5788C117.093 47.8782 116.002 45.6512 116.703 43.6049C117.403 41.5579 119.63 40.4666 121.677 41.1672L132.003 44.6858C134.05 45.3864 135.141 47.6133 134.441 49.6597C133.741 51.7067 131.514 52.7979 129.467 52.0973Z" fill="#D9DADE"/>
<path d="M119.71 46.8402L128.849 45.4575" stroke="#263238" stroke-width="0.25" stroke-miterlimit="10"/>
<path d="M123.538 47.8232L127.606 47.208" stroke="#263238" stroke-width="0.25" stroke-miterlimit="10"/>
<path d="M136.562 60.7613L138.356 61.3424C140.572 62.0603 142.952 60.8456 143.67 58.6289L144.119 57.241C144.837 55.0244 143.622 52.6451 141.406 51.9272L139.612 51.3461C137.396 50.6282 135.016 51.8429 134.298 54.0595L133.849 55.4474C133.13 57.664 134.346 60.0434 136.562 60.7613Z" fill="white"/>
<path d="M140.818 53.7439C139.456 53.303 137.995 54.0492 137.554 55.4106L137.278 56.2629C136.837 57.6243 137.583 59.0861 138.945 59.527C140.306 59.9679 141.768 59.2217 142.209 57.8603L142.485 57.008C142.926 55.6466 142.179 54.1848 140.818 53.7439Z" fill="#D9DADE"/>
<path d="M138.356 61.3428C140.572 62.0607 142.952 60.846 143.67 58.6294L144.119 57.2415C144.837 55.0248 143.622 52.6455 141.406 51.9276C139.189 51.2097 136.81 52.4245 136.092 54.6411L135.642 56.029C134.924 58.2456 136.139 60.6249 138.356 61.3428Z" stroke="#263238" stroke-width="0.25" stroke-miterlimit="10"/>
<path d="M148.733 101.079C149.055 109.774 127.143 105.771 117.638 106.023L118.298 99.5656L138.689 95.0908L148.733 101.079Z" fill="#C58368"/>
<path d="M118.37 99.5801L109.311 100.103C108.515 100.103 107.819 100.641 107.619 101.411L107.008 103.758L118.37 99.5801Z" fill="#C58368"/>
<path d="M114.309 100.296C113.184 100.465 112.048 100.545 110.914 100.636C109.916 100.716 108.633 100.714 107.792 101.336C107.736 101.377 107.757 101.472 107.821 101.493C108.816 101.82 110.042 101.41 111.016 101.171C112.117 100.902 113.217 100.62 114.334 100.427C114.419 100.414 114.394 100.283 114.309 100.296Z" fill="#263238"/>
<path d="M118.37 99.5801L105.225 102.027L111.151 110.885L116.695 108.028C119.842 106.406 120.66 102.279 118.37 99.5801Z" fill="#C58368"/>
<path d="M110.182 103.818L104.698 109.468L106.526 113.313C106.693 113.63 107.069 113.776 107.406 113.653C107.764 113.523 107.959 113.135 107.848 112.77L107.291 109.941L108.952 108.783L113.369 107.713L110.182 103.818Z" fill="#C58368"/>
<path d="M113.894 109.471L110.893 111.003L110.066 112.673L111.513 113.977C111.757 114.197 111.807 114.56 111.633 114.838C111.442 115.142 111.048 115.243 110.734 115.07L108.097 113.516L108.293 110.22L109.993 107.594L112.057 106.306L113.894 109.471Z" fill="#C58368"/>
<path d="M105.225 102.026L103.341 104.728L104.249 106.64L103.907 107.804L105.313 110.76L110.152 104.834L105.225 102.026Z" fill="#C58368"/>
<path d="M104.509 106.154C104.643 105.976 104.785 105.81 104.909 105.625C105.039 105.433 105.181 105.26 105.327 105.08C105.612 104.73 105.861 104.349 106.078 103.956C106.082 103.95 106.082 103.944 106.085 103.938C106.549 103.784 107.009 103.611 107.476 103.464C107.941 103.316 108.418 103.2 108.895 103.095C109.021 103.067 108.984 102.889 108.858 102.901C107.862 103 106.832 103.176 105.894 103.536C105.854 103.552 105.827 103.583 105.805 103.619C105.769 103.633 105.733 103.655 105.7 103.693C105.401 104.047 105.144 104.438 104.942 104.857C104.846 105.055 104.759 105.253 104.653 105.446C104.598 105.548 104.536 105.649 104.492 105.755C104.447 105.863 104.412 105.973 104.365 106.08C104.327 106.167 104.456 106.226 104.509 106.154Z" fill="#263238"/>
<path d="M105.126 109.15C105.472 108.658 105.836 108.185 106.212 107.715C106.396 107.484 106.571 107.245 106.755 107.014C106.846 106.898 106.936 106.781 107.028 106.665C107.099 106.574 107.18 106.49 107.227 106.389C107.332 106.356 107.433 106.312 107.539 106.279C107.643 106.247 107.748 106.216 107.853 106.186C108.089 106.118 108.327 106.054 108.566 105.994C108.796 105.936 109.024 105.875 109.252 105.811C109.49 105.744 109.723 105.659 109.962 105.597C110.044 105.576 110.02 105.463 109.937 105.469C109.681 105.49 109.426 105.494 109.171 105.526C108.935 105.555 108.705 105.596 108.472 105.647C108.241 105.698 108.012 105.752 107.782 105.81C107.539 105.872 107.28 105.919 107.044 105.998C107.031 106.002 107.024 106.011 107.013 106.017C107.009 106.017 107.005 106.016 107.002 106.016C106.831 106.058 106.742 106.191 106.63 106.318C106.532 106.429 106.434 106.54 106.343 106.657C106.148 106.903 105.956 107.152 105.789 107.418C105.463 107.935 105.177 108.49 104.927 109.046C104.873 109.166 105.054 109.253 105.126 109.15Z" fill="#263238"/>
<path d="M84.9757 85.2856C79.7894 76.0891 79.2117 62.1414 76.1768 54.7534L81.6182 53.5508L97.0398 78.3548C98.9072 81.3256 99.2079 84.4887 96.7028 86.9459C93.1987 90.3825 87.3868 89.5607 84.9757 85.2856Z" fill="#C58368"/>
<path d="M82.2816 55.1217L79.7897 58.4636C73.3401 54.3391 73.5421 48.4966 72.3643 45.6637L81.4027 44.9014L82.2816 55.1217Z" fill="#C58368"/>
<path d="M76.9884 44.6767C76.9844 44.8562 76.948 45.0391 76.8724 45.2134C76.8516 45.2607 76.8303 45.3046 76.8055 45.3478C76.555 45.8055 76.0818 46.0819 75.582 46.0946C75.3899 46.1021 75.1954 46.0698 75.009 45.9976L73.8329 45.5429L72.1743 44.8977C71.9366 44.8042 71.7403 44.6559 71.5932 44.473C71.3837 44.2162 71.2712 43.8941 71.2787 43.5589C71.2827 43.3794 71.3231 43.1964 71.3987 43.0222C71.6769 42.3856 72.3757 42.0578 73.0348 42.2292H73.0388C73.0746 42.2379 73.1104 42.2512 73.1461 42.2639L76.0189 43.2726C76.0466 43.2813 76.0743 43.294 76.102 43.3067C76.667 43.5427 77.0017 44.0979 76.9884 44.6767Z" fill="#C58368"/>
<path d="M75.2488 34.7371C75.786 34.2766 76.6026 34.3776 77.0112 34.9558L80.5297 39.9361L82.1369 45.9396L77.2218 47.7234L77.1428 40.0873L74.9833 36.2358C74.7034 35.7366 74.8148 35.1099 75.2488 34.7371Z" fill="#C58368"/>
<path d="M82.1375 45.9385L81.808 44.7093L78.7234 41.1665L77.1543 41.2L77.3574 47.975L82.1375 45.9385Z" fill="#2D2D23"/>
<path d="M69.8838 45.3201C69.6893 45.7812 69.7465 46.3294 70.08 46.7507L71.9867 49.126C72.4778 49.7354 73.3689 49.8491 73.9956 49.3776C74.1739 49.242 74.3107 49.0695 74.4094 48.8808C74.4307 48.845 74.4446 48.8127 74.4584 48.7798C74.47 48.7526 74.4838 48.7197 74.4896 48.6909C74.6569 48.2183 74.5738 47.6718 74.2201 47.2678L72.2406 44.9583C71.9556 44.6339 71.5487 44.4625 71.1407 44.4758C71.0824 44.477 71.0224 44.4833 70.9624 44.4902C70.7477 44.5151 70.5342 44.597 70.3478 44.7361C70.1337 44.8948 69.9779 45.0979 69.8838 45.3201Z" fill="#C58368"/>
<path d="M71.1406 44.4758C71.1048 44.7419 71.1469 45.0217 71.2802 45.282L72.6474 47.9984C72.9873 48.6782 73.8783 49.2109 74.7503 48.6759C74.9176 48.2033 74.5737 47.6723 74.2205 47.2678L72.2411 44.9583C71.9554 44.6339 71.5486 44.4625 71.1406 44.4758Z" fill="#2D2D23"/>
<path d="M72.8937 44.5868C72.7131 44.9371 72.6785 45.3636 72.8395 45.7583L73.6676 47.6841C73.9613 48.4124 74.7837 48.7702 75.5137 48.4978C75.8369 48.3731 76.0868 48.1573 76.2484 47.8832C76.2674 47.8595 76.2836 47.8284 76.2968 47.8024C76.4942 47.4204 76.5236 46.965 76.3366 46.5438L75.4237 44.6532C75.2754 44.3248 75.0122 44.0767 74.7035 43.9434C74.3867 43.7997 74.0179 43.7818 73.6688 43.9065C73.3196 44.0311 73.053 44.2781 72.8937 44.5868Z" fill="#2D2D23"/>
<path d="M75.7284 47.5112C75.7157 47.5389 75.703 47.5707 75.6862 47.5984C75.6695 47.6341 75.6487 47.6653 75.632 47.6971H75.628C75.4866 47.9377 75.2742 48.1362 74.9995 48.2655C74.2926 48.5967 73.4448 48.3013 73.0934 47.5984L71.7222 44.8826C71.6576 44.7493 71.6126 44.6125 71.5918 44.4723C71.5497 44.2114 71.5843 43.9448 71.6853 43.7076C71.8203 43.3873 72.0662 43.1213 72.4055 42.9695C72.5994 42.8858 72.7956 42.8466 72.9953 42.8472C73.147 42.8506 73.2982 42.8783 73.4408 42.9291C73.7576 43.0365 74.0404 43.2627 74.2124 43.5778L75.5801 46.0939L75.6684 46.2555C75.8876 46.66 75.8934 47.1153 75.7284 47.5112Z" fill="#C58368"/>
<path d="M75.5815 46.0635L75.6698 46.2251C75.888 46.6296 75.8938 47.085 75.7287 47.4808C75.716 47.5086 75.7033 47.5403 75.6866 47.568C75.6698 47.6038 75.6491 47.6349 75.6323 47.6667H75.6283C74.9964 47.6921 74.3985 47.2904 74.1977 46.6591L73.833 45.5124L73.0435 43.0257C73.021 42.9576 73.0031 42.8849 72.9962 42.8168C72.961 42.6044 72.9777 42.3972 73.0343 42.1987H73.0383C73.0741 42.2074 73.1099 42.2201 73.1456 42.2334L76.0184 43.2421C76.0461 43.2508 76.0738 43.2635 76.1015 43.2762L76.805 45.3173C76.5551 45.7744 76.0813 46.0508 75.5815 46.0635Z" fill="#2D2D23"/>
<path d="M78.8915 43.7234C78.8857 43.9751 78.8159 44.2249 78.675 44.4535C78.2601 45.1229 77.3881 45.3387 76.7106 44.9475L75.8594 44.4564L74.0779 43.4205C73.8102 43.2664 73.6116 43.0344 73.498 42.7718C73.4102 42.586 73.371 42.3817 73.3762 42.174C73.382 41.9223 73.4558 41.6725 73.6007 41.448C73.9943 40.834 74.7981 40.625 75.441 40.9673L76.309 41.4347L77.2323 41.9275L78.1239 42.4077C78.6283 42.6749 78.9036 43.1925 78.8915 43.7234Z" fill="#C58368"/>
<path d="M74.8314 43.2563C74.5988 43.5748 74.4996 43.9909 74.5983 44.4053L75.1217 46.4355C75.3 47.1996 76.0583 47.6797 76.8218 47.5222C77.16 47.4483 77.4404 47.2734 77.6418 47.027C77.6638 47.0068 77.6846 46.9779 77.7024 46.9543C77.9558 46.6069 78.0545 46.1614 77.9344 45.717L77.3221 43.7093C77.2258 43.3619 77.0042 43.0762 76.7191 42.8973C76.4282 42.7069 76.0664 42.633 75.7022 42.7023C75.3369 42.7721 75.0363 42.9752 74.8314 43.2563Z" fill="#2D2D23"/>
<path d="M73.7783 42.1728C73.5711 42.5086 73.5047 42.9311 73.6351 43.3368L74.5752 46.2338C74.8124 46.9817 75.6053 47.4012 76.3544 47.1854C76.6856 47.0856 76.9517 46.8894 77.1335 46.6285C77.1542 46.6066 77.1727 46.5766 77.1877 46.5512C77.4134 46.1853 77.4774 45.7334 77.3228 45.2995L76.2955 42.4319C76.1726 42.0931 75.9291 41.8254 75.6313 41.6696C75.326 41.5022 74.9601 41.4566 74.6023 41.5541C74.2451 41.6517 73.9606 41.8773 73.7783 42.1728Z" fill="#C58368"/>
<path d="M80.7751 54.0372L80.6256 46.258L77.4274 42.7476L76.2778 45.356L77.1071 47.0994C77.1071 47.0994 73.734 52.4969 80.7751 54.0372Z" fill="#2D2D23"/>
<path d="M77.4274 42.7476L74.6891 43.0476C74.0941 43.1129 73.6613 43.6432 73.7173 44.2393C73.7669 44.7685 74.1893 45.1863 74.7197 45.229L76.2778 45.3554L77.4274 42.7476Z" fill="#2D2D23"/>
<path d="M82.2819 55.1219L82.1377 45.938L78.3767 41.7812L77.009 44.8554L77.9809 46.9168C77.9809 46.9168 73.9764 53.2746 82.2819 55.1219Z" fill="#C58368"/>
<path d="M77.2318 41.9274L76.6519 44.3743L75.8589 44.4556L74.8179 44.5595C74.7619 44.5665 74.7059 44.5688 74.654 44.5676C74.0913 44.5549 73.5962 44.1798 73.4415 43.6246C73.3567 43.3309 73.3832 43.032 73.4969 42.7711C73.6406 42.4272 73.9309 42.1502 74.3129 42.0353L76.3079 41.4346L77.2318 41.9274Z" fill="#2D2D23"/>
<path d="M78.3765 41.7822L75.143 42.125C74.4401 42.1995 73.9277 42.8239 73.9912 43.5279C74.0477 44.1535 74.5446 44.6475 75.1702 44.7006L77.0088 44.8564L78.3765 41.7822Z" fill="#C58368"/>
<path d="M96.5065 77.9559C96.536 78.5977 96.5077 79.2452 96.39 79.8771C96.2722 80.509 96.0512 81.1305 95.8481 81.7376C95.7857 81.9131 95.5197 81.8173 95.578 81.6418C95.9421 80.5084 95.9364 79.2105 95.8129 78.031C95.7534 77.4389 95.6357 76.8485 95.4655 76.2731C95.3783 75.9944 95.2773 75.7157 95.1636 75.4467C95.0875 75.2615 94.9847 75.0763 94.8999 74.891L95.0407 74.8073L95.6299 74.4536L95.6472 74.4443C95.9139 74.9372 96.076 75.5264 96.2139 76.0538C96.3715 76.6748 96.4725 77.3148 96.5065 77.9559Z" fill="#263238"/>
<path d="M140.742 94.6293C139.508 94.9028 138.268 95.1763 137.033 95.4441C136.471 95.5624 135.92 95.6917 135.357 95.8152L135.096 95.0771C135.695 94.9928 136.293 94.9259 136.897 94.8474C138.158 94.6829 139.417 94.5184 140.678 94.3597C140.856 94.3378 140.92 94.59 140.742 94.6293Z" fill="#263238"/>
<path d="M108.114 207.083C121.019 207.969 130.432 210.733 130.432 214.005C130.432 217.992 116.459 221.223 99.221 221.223C81.9832 221.223 68.0095 217.991 68.0095 214.005C68.0095 210.85 76.7605 208.167 88.9545 207.185" stroke="#D9DADE" stroke-width="0.5" stroke-miterlimit="10"/>
<path d="M158.147 169.415C166.423 161.632 173.948 157.151 175.987 159.092C178.372 161.363 172.345 171.563 162.526 181.874C152.708 192.185 142.814 198.703 140.429 196.432C138.47 194.565 142.189 187.347 149.025 179.111" stroke="#D9DADE" stroke-width="0.5" stroke-miterlimit="10"/>
<path d="M15.5583 17.4519L12.3197 21.3663L15.4799 24.3066C15.1255 25.1907 14.8982 26.1296 14.7989 27.0968L10.8372 27.2584L11.7109 32.9987L15.5774 32.5931C15.9363 33.4945 16.4072 34.3428 16.9797 35.1144L14.7798 38.2197L18.7947 41.2269L20.8012 38.2093C21.5578 38.5342 22.3265 38.7322 23.0888 38.8072L23.5147 42.2536L27.4799 41.3054L27.1123 38.0269C27.7396 37.6974 28.3253 37.2698 28.8563 36.7504L30.8957 38.6479L32.9571 35.1536L31.0342 33.1978C31.2795 32.4626 31.4405 31.6986 31.5178 30.9206L33.892 30.6713L33.4938 26.3351L31.0769 26.4338C30.8443 25.657 30.5281 24.8998 30.1305 24.1791L31.6852 21.8407L28.828 18.392L27.144 20.7684C26.4792 20.2923 25.7763 19.9213 25.0503 19.6616L24.6371 15.978L20.2161 15.5435L20.6973 19.4406C19.9298 19.6414 19.19 19.9761 18.5004 20.4453L15.5583 17.4519ZM21.3523 26.5694C22.5054 24.972 24.6054 24.9345 26.0072 26.3951C27.3547 27.7986 27.6074 30.1312 26.597 31.6766C25.5622 33.259 23.5349 33.5176 22.0466 32.1689C20.4954 30.7625 20.1693 28.2083 21.3523 26.5694Z" fill="white"/>
<path d="M26.1263 43.957L25.4119 47.4086L27.4346 47.6873C27.4398 48.2973 27.5142 48.8813 27.6527 49.4261L25.8851 51.0229L27.3544 53.5829L29.0499 51.9664C29.3857 52.2931 29.7637 52.5516 30.1769 52.7334L29.7112 55.0885L32.154 55.1739L32.5943 52.9013C33.0295 52.7859 33.4508 52.5984 33.8501 52.3473L34.6823 53.9851L36.5838 51.9745L35.8024 50.3517C36.0783 49.9178 36.3166 49.4434 36.5111 48.9367L37.9734 49.1381L38.5084 46.2671L37.0657 45.9976C37.068 45.4655 37.0178 44.9519 36.9179 44.4654L38.2279 43.2166L37.1874 40.8095L35.8295 42.0364C35.5514 41.6867 35.2311 41.3878 34.8715 41.1506L35.2928 38.9778L33.0266 38.3159L32.5822 40.5643C32.1338 40.6018 31.6889 40.7195 31.2572 40.9123L30.3096 38.9438L27.9822 40.7974L28.9968 42.7953C28.6569 43.2524 28.3608 43.7671 28.1178 44.3292L26.1263 43.957ZM30.1255 46.3837C30.4857 44.5802 31.888 43.3557 33.2049 43.6344C34.4705 43.9022 35.2034 45.4736 34.8808 47.1547C34.5565 48.8444 33.2684 50.1111 31.9659 49.9639C30.6103 49.811 29.7631 48.198 30.1255 46.3837Z" fill="white"/>
<g opacity="0.8">
<path d="M178.427 42.3903C177.763 42.366 177.223 41.7843 177.223 41.093V39.2301C177.223 38.5544 177.75 38.0044 178.398 38.0044L212.315 38.593C213.204 38.6086 213.928 39.2757 213.928 40.0808V42.2218C213.928 43.0037 213.251 43.6166 212.388 43.6166L178.427 42.3903Z" fill="white"/>
<path d="M178.399 37.8608L178.417 38.1494L212.313 38.738C213.124 38.7524 213.783 39.3549 213.783 40.0815V42.2225C213.783 42.9237 213.17 43.473 212.388 43.473L212.328 43.4719L178.433 42.2467C177.845 42.2254 177.368 41.7083 177.368 41.0931V39.2303C177.368 38.6238 177.821 38.1488 178.4 38.1488V37.8608M178.399 37.8608C177.666 37.8608 177.079 38.4697 177.079 39.2309V41.0937C177.079 41.863 177.679 42.5087 178.422 42.5353L212.317 43.7604C212.341 43.761 212.364 43.7616 212.388 43.7616C213.322 43.7616 214.071 43.0852 214.071 42.2225V40.0815C214.071 39.1968 213.284 38.4662 212.317 38.4495L178.421 37.8608C178.414 37.8608 178.406 37.8608 178.399 37.8608Z" fill="#E0E0E5"/>
</g>
<g opacity="0.8">
<path d="M178.423 35.0957C177.761 35.0911 177.223 34.5267 177.223 33.8376V31.9748C177.223 31.2852 177.762 30.7179 178.423 30.7098L212.319 30.3047C213.216 30.3047 213.927 30.9487 213.927 31.7411V33.8827C213.927 34.6796 213.211 35.3277 212.33 35.3277L178.423 35.0957Z" fill="white"/>
<path d="M212.341 30.1592V30.4477C213.137 30.4477 213.783 31.0271 213.783 31.7398V33.8814C213.783 34.5987 213.132 35.1822 212.32 35.1822L178.424 34.9508C177.842 34.9467 177.368 34.447 177.368 33.837V31.9741C177.368 31.363 177.842 30.8603 178.426 30.8534L212.321 30.4483L212.341 30.1592ZM212.341 30.1592C212.334 30.1592 212.326 30.1592 212.318 30.1592L178.423 30.5643C177.679 30.573 177.08 31.2043 177.08 31.9736V33.8364C177.08 34.6057 177.679 35.2335 178.423 35.2387L212.319 35.4702C212.323 35.4702 212.327 35.4702 212.332 35.4702C213.292 35.4702 214.073 34.7609 214.073 33.8808V31.7393C214.071 30.8627 213.296 30.1592 212.341 30.1592Z" fill="#E0E0E5"/>
</g>
<g opacity="0.8">
<path d="M169.997 35.038C169.385 35.034 168.886 34.4909 168.886 33.8273V32.0267C168.886 31.3631 169.385 30.8172 169.997 30.8102L171.694 30.79C172.328 30.79 172.833 31.3331 172.833 32.0002V33.8325C172.833 34.5036 172.325 35.0496 171.701 35.0496L169.997 35.038Z" fill="white"/>
<path d="M171.707 30.6455V30.9341C172.249 30.9341 172.689 31.4125 172.689 32.0005V33.8322C172.689 34.4237 172.246 34.905 171.695 34.905L169.997 34.8935C169.464 34.89 169.03 34.4116 169.03 33.827V32.0271C169.03 31.4419 169.465 30.9606 169.999 30.9543L171.696 30.9341L171.707 30.6455ZM171.707 30.6455C171.703 30.6455 171.698 30.6455 171.693 30.6455L169.996 30.6657C169.301 30.6738 168.742 31.2838 168.742 32.0271V33.827C168.742 34.5703 169.301 35.1768 169.996 35.182L171.693 35.1936C171.696 35.1936 171.699 35.1936 171.701 35.1936C172.405 35.1936 172.978 34.5859 172.978 33.8322V32.0005C172.978 31.2486 172.409 30.6455 171.707 30.6455Z" fill="#E0E0E5"/>
</g>
<g opacity="0.8">
<path d="M170.001 42.0862C169.386 42.0642 168.886 41.5045 168.886 40.8385V39.0386C168.886 38.3876 169.375 37.8584 169.975 37.8584L171.691 37.8878C172.321 37.8988 172.833 38.4586 172.833 39.1361V40.9678C172.833 41.6291 172.351 42.1479 171.737 42.1479L170.001 42.0862Z" fill="white"/>
<path d="M169.975 37.7144L169.991 38.003L171.688 38.0324C172.24 38.0422 172.689 38.5374 172.689 39.1364V40.9681C172.689 41.5492 172.271 42.004 171.737 42.004L171.703 42.0034L170.006 41.9422C169.468 41.9226 169.03 41.428 169.03 40.8388V39.0389C169.03 38.4676 169.454 38.003 169.975 38.003V37.7144ZM169.975 37.7144C169.291 37.7144 168.742 38.3031 168.742 39.0389V40.8388C168.742 41.5821 169.301 42.2054 169.996 42.2302L171.693 42.2914C171.708 42.2919 171.722 42.2919 171.737 42.2919C172.425 42.2919 172.978 41.7085 172.978 40.9675V39.1358C172.978 38.3793 172.401 37.756 171.693 37.7433L169.996 37.7139C169.989 37.7144 169.982 37.7144 169.975 37.7144Z" fill="#E0E0E5"/>
</g>
<path d="M189.855 50.7006L172.93 49.5752C172.296 49.5331 171.781 48.9479 171.781 48.271V46.2131C171.781 45.5633 172.256 45.0537 172.863 45.0537L189.839 45.8455C190.582 45.8807 191.187 46.508 191.187 47.2444V49.4696C191.187 50.1616 190.642 50.7034 189.946 50.7034C189.915 50.704 189.885 50.7029 189.855 50.7006Z" fill="white"/>
<path d="M172.863 45.1987L172.907 45.1999L189.832 45.9905C190.499 46.0216 191.042 46.5843 191.042 47.2451V49.4703C191.042 50.0815 190.56 50.5599 189.946 50.5599C189.919 50.5599 189.892 50.5587 189.865 50.557L172.94 49.4317C172.38 49.3947 171.925 48.8742 171.925 48.2717V46.2138C171.924 45.6442 172.336 45.1987 172.863 45.1987ZM172.863 44.9102C172.179 44.9102 171.636 45.482 171.636 46.2138V48.2717C171.636 49.0242 172.21 49.6723 172.921 49.7196L189.845 50.845C189.879 50.8473 189.912 50.8484 189.946 50.8484C190.717 50.8484 191.331 50.2506 191.331 49.4703V47.2451C191.331 46.4314 190.664 45.7406 189.845 45.7025L172.921 44.9119C172.901 44.9107 172.882 44.9102 172.863 44.9102Z" fill="#E0E0E5"/>
<path d="M168.742 31.6146L170.841 34.0747L173.697 30.2197" stroke="#EBCE89" stroke-miterlimit="10"/>
<path d="M168.742 38.5495L170.841 41.0702L173.697 37.2983" stroke="#EBCE89" stroke-miterlimit="10"/>
<path d="M189.581 24.1441C188.857 24.1441 188.289 23.5889 188.289 22.8803V20.6492C188.289 19.9094 188.906 19.2665 189.665 19.2157L212.028 17.7291C212.07 17.7263 212.111 17.7251 212.152 17.7251C213.005 17.7251 213.673 18.3235 213.673 19.0876V21.5368C213.673 22.3551 212.928 23.0557 212.012 23.0984L189.581 24.1441Z" fill="white"/>
<path d="M212.152 17.8696C212.924 17.8696 213.529 18.4046 213.529 19.0878V21.537C213.529 22.2792 212.845 22.9151 212.005 22.9544L189.642 23.9995L189.582 24.0006C188.938 24.0006 188.434 23.5089 188.434 22.8811V20.65C188.434 19.9846 188.99 19.4058 189.674 19.3608L212.037 17.8742C212.076 17.8708 212.115 17.8696 212.152 17.8696ZM212.152 17.5811C212.108 17.5811 212.063 17.5828 212.019 17.5857L189.656 19.0723C188.82 19.1277 188.146 19.834 188.146 20.6495V22.8805C188.146 23.6723 188.781 24.2886 189.582 24.2886C189.606 24.2886 189.631 24.288 189.656 24.2869L212.019 23.2417C213.01 23.1956 213.818 22.4315 213.818 21.5364V19.0873C213.817 18.2326 213.081 17.5811 212.152 17.5811Z" fill="#E0E0E5"/>
<path d="M181.658 22.0093L164.328 23.1317C162.727 23.2362 161.463 24.5341 161.401 26.1378L161.358 27.2729C161.293 28.9759 159.878 30.3148 158.174 30.2853L155.958 30.2473C154.896 30.2288 153.915 29.6736 153.354 28.7716L152.284 27.0542C151.555 25.8833 150.144 25.3276 148.812 25.6854L145.799 26.4956C144.431 26.8638 143.48 28.1039 143.48 29.5207V31.9768C143.48 33.6048 144.728 34.9615 146.35 35.0983C147.973 35.2351 149.22 36.5918 149.22 38.2198V42.6715C149.22 44.2377 150.377 45.5633 151.929 45.7751L161.241 47.0458" stroke="#263238" stroke-width="0.25" stroke-miterlimit="10"/>
<path d="M183.105 22.0266C183.105 22.8865 182.492 23.583 181.735 23.583C180.978 23.583 180.364 22.8859 180.364 22.0266C180.364 21.1668 180.978 20.4702 181.735 20.4702C182.492 20.4702 183.105 21.1668 183.105 22.0266Z" fill="white" stroke="#D9DADE" stroke-miterlimit="10"/>
<path d="M161.241 48.3638C161.998 48.3638 162.612 47.667 162.612 46.8074C162.612 45.9478 161.998 45.251 161.241 45.251C160.484 45.251 159.871 45.9478 159.871 46.8074C159.871 47.667 160.484 48.3638 161.241 48.3638Z" fill="white" stroke="#D9DADE" stroke-miterlimit="10"/>
<path d="M161.242 38.8599C159.63 38.8599 158.326 40.1652 158.326 41.7765C158.326 44.1847 161.242 46.7181 161.242 46.7181C161.242 46.7181 164.157 44.2857 164.157 41.7765C164.157 40.1652 162.851 38.8599 161.242 38.8599ZM161.242 43.2158C160.446 43.2158 159.8 42.5729 159.8 41.7765C159.8 40.9801 160.446 40.3343 161.242 40.3343C162.039 40.3343 162.684 40.9801 162.684 41.7765C162.684 42.5729 162.039 43.2158 161.242 43.2158Z" fill="#CA775D"/>
<path d="M161.243 43.2159C160.446 43.2159 159.801 42.573 159.801 41.7766C159.801 40.9802 160.446 40.3345 161.243 40.3345C162.039 40.3345 162.685 40.9802 162.685 41.7766C162.685 42.573 162.039 43.2159 161.243 43.2159Z" fill="white"/>
<path d="M181.737 13.8408C180.125 13.8408 178.82 15.1462 178.82 16.758C178.82 19.1662 181.737 21.6997 181.737 21.6997C181.737 21.6997 184.651 19.2672 184.651 16.758C184.651 15.1462 183.346 13.8408 181.737 13.8408ZM181.737 18.1973C180.94 18.1973 180.295 17.5544 180.295 16.758C180.295 15.9616 180.94 15.3159 181.737 15.3159C182.533 15.3159 183.179 15.9616 183.179 16.758C183.179 17.5544 182.533 18.1973 181.737 18.1973Z" fill="#CA775D"/>
<path d="M181.737 18.1968C180.94 18.1968 180.294 17.554 180.294 16.7576C180.294 15.9612 180.94 15.3154 181.737 15.3154C182.533 15.3154 183.179 15.9612 183.179 16.7576C183.179 17.554 182.533 18.1968 181.737 18.1968Z" fill="white"/>
<path d="M70.8143 157.719C73.5037 157.719 75.6838 155.539 75.6838 152.85C75.6838 150.161 73.5037 147.98 70.8143 147.98C68.125 147.98 65.9448 150.161 65.9448 152.85C65.9448 155.539 68.125 157.719 70.8143 157.719Z" fill="#B3C2A3"/>
<path d="M25.3868 55.9958L16.0593 49.4199L2.9577 68.0037L12.2852 74.5796L25.3868 55.9958Z" fill="#D0BAC3"/>
<path d="M149.508 113.411L171.989 129.565L158.394 136.537L149.508 113.411Z" fill="#CAC2A3"/>
<path d="M113.349 27.0914C113.928 24.5587 112.345 22.0358 109.812 21.4564C107.28 20.877 104.757 22.4605 104.177 24.9932C103.598 27.5259 105.181 30.0488 107.714 30.6282C110.247 31.2076 112.77 29.6241 113.349 27.0914Z" fill="#EEB774"/>
<g opacity="0.4">
<path d="M101.588 74.2778V123.079C101.588 126.084 98.9857 128.299 95.8284 128.03L33.4973 122.721C31.4135 122.543 29.7468 120.465 29.7468 118.075V79.2806C29.7468 76.8914 31.414 74.8121 33.4973 74.635L95.8284 69.3257C98.9857 69.0574 101.588 71.2723 101.588 74.2778Z" fill="white"/>
</g>
<path d="M101.587 74.2778V74.9547L29.7454 79.819V79.2806C29.7454 76.8914 31.4126 74.8121 33.4959 74.635L95.827 69.3257C98.9848 69.0574 101.587 71.2723 101.587 74.2778Z" fill="#EBCE89"/>
<path d="M35.7871 76.9242C35.7871 77.6663 35.2619 78.3057 34.6173 78.3525C33.975 78.3987 33.4568 77.8389 33.4568 77.1025C33.4568 76.3661 33.975 75.7273 34.6173 75.6754C35.2625 75.6223 35.7871 76.1815 35.7871 76.9242Z" fill="white"/>
<path d="M39.9754 76.6047C39.9754 77.3578 39.4346 78.0076 38.771 78.0549C38.1102 78.1022 37.5764 77.535 37.5764 76.7882C37.5764 76.0415 38.1102 75.3922 38.771 75.3385C39.4352 75.2843 39.9754 75.8516 39.9754 76.6047Z" fill="white"/>
<path d="M44.289 76.274C44.289 77.0386 43.7321 77.6982 43.0482 77.7473C42.3673 77.7958 41.8179 77.221 41.8179 76.4627C41.8179 75.7044 42.3673 75.0453 43.0482 74.9899C43.7327 74.9351 44.289 75.5099 44.289 76.274Z" fill="white"/>
<path d="M57.5644 90.0963L68.8806 96.3323C70.0359 96.9689 70.0359 98.669 68.8806 99.3113L57.5644 105.608C56.5424 106.178 55.3057 105.364 55.3057 104.131V91.5852C55.3057 90.3531 56.5424 89.533 57.5644 90.0963Z" fill="#CA775D"/>
<path d="M95.4167 127.995L33.7723 122.744C31.5338 122.554 29.7454 120.324 29.7454 117.761V114.459L101.587 118.53V122.684C101.587 125.907 98.7978 128.283 95.4167 127.995Z" fill="#EBCE89"/>
<path d="M39.3342 119.111L96.0473 123.133" stroke="#FFFFFD" stroke-width="2" stroke-miterlimit="10" stroke-linecap="round" stroke-linejoin="round"/>
<path d="M33.2678 118.681L45.037 119.515" stroke="#CA775D" stroke-width="2" stroke-miterlimit="10" stroke-linecap="round" stroke-linejoin="round"/>
<path d="M47.5417 119.692C47.5417 121.225 46.4153 122.378 45.0372 122.267C43.6718 122.157 42.5747 120.847 42.5747 119.34C42.5747 117.833 43.6723 116.679 45.0372 116.763C46.4147 116.848 47.5417 118.16 47.5417 119.692Z" fill="#CA775D"/>
<path d="M46.265 119.601C46.265 120.353 45.7139 120.921 45.0364 120.869C44.3623 120.819 43.8181 120.173 43.8181 119.427C43.8181 118.682 44.3623 118.113 45.0364 118.158C45.7139 118.203 46.265 118.849 46.265 119.601Z" fill="#FFFFFD"/>
<path d="M101.588 74.2778V123.079C101.588 126.084 98.9857 128.299 95.8284 128.03L33.4973 122.721C31.4135 122.543 29.7468 120.465 29.7468 118.075V79.2806C29.7468 76.8914 31.414 74.8121 33.4973 74.635L95.8284 69.3257C98.9857 69.0574 101.588 71.2723 101.588 74.2778Z" stroke="#263238" stroke-width="0.25" stroke-miterlimit="10"/>
<path d="M43.6115 134.768C41.7665 134.768 41.7659 137.631 43.6115 137.631C45.4564 137.631 45.457 134.768 43.6115 134.768Z" fill="#E3E6E7"/>
<path d="M69.58 177.751C67.735 177.751 67.7344 180.614 69.58 180.614C71.4249 180.613 71.4255 177.751 69.58 177.751Z" fill="#E3E6E7"/>
<path d="M103.309 56.5635C101.465 56.5635 101.464 59.4264 103.309 59.4264C105.154 59.4258 105.155 56.5635 103.309 56.5635Z" fill="#E3E6E7"/>
<path d="M141.815 117.156C139.97 117.156 139.969 120.019 141.815 120.019C143.66 120.019 143.66 117.156 141.815 117.156Z" fill="#E3E6E7"/>
<path d="M123.905 29.0776C122.798 29.0776 122.798 30.7956 123.905 30.7956C125.012 30.7956 125.013 29.0776 123.905 29.0776Z" fill="#E3E6E7"/>
<path d="M174.052 64.5977C172.945 64.5977 172.944 66.3151 174.052 66.3151C175.158 66.3151 175.159 64.5977 174.052 64.5977Z" fill="#E3E6E7"/>
<path d="M78.2366 135.937C77.1298 135.937 77.1292 137.655 78.2366 137.655C79.3435 137.654 79.3441 135.937 78.2366 135.937Z" fill="#E3E6E7"/>
<path d="M78.5347 107.282C77.4278 107.282 77.4273 109 78.5347 109C79.6416 109 79.6421 107.282 78.5347 107.282Z" fill="#E3E6E7"/>
<path d="M43.9102 101.312C42.8033 101.312 42.8028 103.03 43.9102 103.03C45.0171 103.03 45.0176 101.312 43.9102 101.312Z" fill="#E3E6E7"/>
<path d="M41.8208 167.278C40.714 167.278 40.7134 168.996 41.8208 168.996C42.9277 168.996 42.9277 167.278 41.8208 167.278Z" fill="#E3E6E7"/>
<path d="M163.008 109.67C161.901 109.67 161.901 111.388 163.008 111.388C164.115 111.387 164.115 109.67 163.008 109.67Z" fill="#E3E6E7"/>
<path d="M104.504 38.6289C103.397 38.6289 103.396 40.3469 104.504 40.3469C105.611 40.3469 105.611 38.6289 104.504 38.6289Z" fill="#E3E6E7"/>
</svg>
