<svg width="48" height="48" viewBox="0 0 48 48" fill="none" xmlns="http://www.w3.org/2000/svg">
<path d="M28.4872 2.21327C28.4277 2.02353 28.2953 1.8652 28.1191 1.77308C27.9428 1.68096 27.7373 1.66259 27.5475 1.72202L4.30837 9.02177C4.20327 9.05548 4.10695 9.11209 4.02637 9.18752H30.6742L28.4872 2.21327ZM40.3661 9.18752L39.3896 3.67127C39.3726 3.57434 39.3367 3.48171 39.2839 3.39868C39.2311 3.31565 39.1624 3.24385 39.0818 3.18739C39.0012 3.13093 38.9103 3.09091 38.8142 3.06964C38.7181 3.04836 38.6188 3.04624 38.5219 3.06339L31.4884 4.31027L32.7922 8.48214L33.081 9.18752H40.3661Z" fill="#F99621"/>
<path d="M37.8826 29.0625C38.5039 29.0625 39.0076 28.5588 39.0076 27.9375C39.0076 27.3162 38.5039 26.8125 37.8826 26.8125C37.2612 26.8125 36.7576 27.3162 36.7576 27.9375C36.7576 28.5588 37.2612 29.0625 37.8826 29.0625Z" fill="#1E1E1E"/>
<path d="M46.6372 33.9375H35.4979C33.9199 33.9375 32.6359 32.4836 32.6359 30.6964V25.1794C32.6359 23.3917 33.9199 21.9375 35.4979 21.9375H46.6369C46.7291 21.9375 46.8206 21.9435 46.9106 21.9532V12.9375C46.9106 11.6966 45.8865 10.6875 44.6257 10.6875H2.2845C1.0245 10.6875 0 11.6966 0 12.9375V44.0625C0 45.3034 1.02488 46.3125 2.2845 46.3125H44.6273C45.8861 46.3125 46.9118 45.3034 46.9118 44.0625V33.9217C46.8206 33.9319 46.729 33.9372 46.6372 33.9375Z" fill="#1E1E1E"/>
<path d="M46.6368 23.4375H35.4978C34.7451 23.4375 34.135 24.2175 34.135 25.1794V30.6968C34.135 31.6579 34.7451 32.439 35.4978 32.439H46.6371C47.3898 32.439 47.9999 31.6594 47.9999 30.6968V25.1794C47.9995 24.2175 47.3894 23.4375 46.6368 23.4375ZM37.8824 29.8125C36.8496 29.8125 36.0089 28.9714 36.0089 27.9375C36.0089 26.9036 36.8496 26.0625 37.8824 26.0625C38.9159 26.0625 39.7559 26.9036 39.7559 27.9375C39.7559 28.9714 38.9148 29.8125 37.8824 29.8125Z" fill="#F99621"/>
</svg>
