<svg width="55" height="54" viewBox="0 0 55 54" fill="none" xmlns="http://www.w3.org/2000/svg">
<g clip-path="url(#clip0_373_1645)">
<path d="M51.8286 19.2446C51.1686 18.8331 50.3 19.0343 49.8884 19.6941L49.1447 20.8864C47.2376 14.1602 42.2373 8.59187 35.628 6.02181C34.9034 5.73957 34.0869 6.09901 33.8051 6.824C33.5233 7.54879 33.8823 8.36511 34.6073 8.64693C40.3528 10.881 44.7087 15.7032 46.4014 21.5348L45.1942 20.7817C44.5342 20.3702 43.6656 20.5712 43.254 21.2312C42.8425 21.8911 43.0437 22.7599 43.7035 23.1714L47.7894 25.7202C48.1069 25.9183 48.4903 25.9816 48.8525 25.8972C49.2164 25.813 49.5317 25.5875 49.7296 25.2707L52.2784 21.1848C52.6899 20.5248 52.4887 19.6564 51.8286 19.2446Z" fill="#FCDD86"/>
<path d="M20.3922 45.353C14.6467 43.119 10.2908 38.2967 8.59807 32.4652L9.80547 33.2182C10.4653 33.6297 11.3339 33.4285 11.7457 32.7687C12.1572 32.1089 11.956 31.2402 11.2962 30.8285L7.21031 28.2799C6.5505 27.8684 5.68186 28.0696 5.27011 28.7295L2.72135 32.8153C2.30981 33.4751 2.51104 34.344 3.17086 34.7555C3.83278 35.1685 4.70079 34.9637 5.11106 34.306L5.85483 33.1136C7.76191 39.8397 12.7622 45.4081 19.3715 47.9779C20.0923 48.2585 20.9109 47.9045 21.1944 47.1757C21.4762 46.4509 21.1172 45.6348 20.3922 45.353Z" fill="#FCA265"/>
<path d="M19.7449 2.67106C19.3333 3.33108 19.5346 4.19972 20.1944 4.61126L21.3866 5.35503C14.6604 7.26211 9.09212 12.2624 6.52205 18.8717C6.23982 19.5963 6.59926 20.4128 7.32425 20.6946C8.04903 20.9764 8.86536 20.6174 9.14717 19.8924C11.3812 14.1469 16.2035 9.79104 22.035 8.09827L21.282 9.30546C20.8704 9.96549 21.0715 10.8341 21.7315 11.2457C22.3913 11.6572 23.2602 11.456 23.6717 10.7962L26.2205 6.7103C26.4185 6.39284 26.4818 6.00935 26.3974 5.64717C26.3133 5.28331 26.0878 4.96796 25.7709 4.7701L21.6851 2.22134C21.0251 1.8098 20.1566 2.01103 19.7449 2.67106Z" fill="#FC657E"/>
<path d="M45.853 34.1078C43.619 39.8533 38.7967 44.2091 32.9652 45.9019L33.7182 44.6945C34.1297 44.0347 33.9285 43.1661 33.2687 42.7543C32.6089 42.3428 31.7402 42.544 31.3285 43.2038L28.7799 47.2897C28.3684 47.9495 28.5696 48.8181 29.2295 49.2299L33.3153 51.7786C33.9751 52.1902 34.844 51.9889 35.2555 51.3291C35.6685 50.6672 35.4637 49.7992 34.806 49.3889L33.6136 48.6452C40.3397 46.7381 45.9081 41.7378 48.4779 35.1285C48.7585 34.4077 48.4045 33.5891 47.6757 33.3056C46.9509 33.0238 46.1348 33.3828 45.853 34.1078Z" fill="#F5C84C"/>
<path d="M27.5002 40.5343C34.975 40.5343 41.0346 34.4748 41.0346 27C41.0346 19.5251 34.975 13.4656 27.5002 13.4656C20.0254 13.4656 13.9658 19.5251 13.9658 27C13.9658 34.4748 20.0254 40.5343 27.5002 40.5343Z" fill="#70D6F9"/>
<path d="M27.5 37.8633C33.4996 37.8633 38.3633 32.9996 38.3633 27C38.3633 21.0004 33.4996 16.1367 27.5 16.1367C21.5004 16.1367 16.6367 21.0004 16.6367 27C16.6367 32.9996 21.5004 37.8633 27.5 37.8633Z" fill="#EDF4FC"/>
<path d="M27.5 29.2148C28.7232 29.2148 29.7148 28.2232 29.7148 27C29.7148 25.7768 28.7232 24.7852 27.5 24.7852C26.2768 24.7852 25.2852 25.7768 25.2852 27C25.2852 28.2232 26.2768 29.2148 27.5 29.2148Z" fill="#F98FA6"/>
<path d="M33.301 25.7344H29.3164C29.567 26.0934 29.7151 26.529 29.7151 27C29.7151 27.471 29.567 27.9066 29.3164 28.2656H33.301C33.9999 28.2656 34.5666 27.6988 34.5666 27C34.5666 26.3012 33.9999 25.7344 33.301 25.7344Z" fill="#FC657E"/>
<path d="M12.7376 52.8399H13.2227V53.325C13.2227 53.7047 13.5181 54 13.8977 54C14.2563 54 14.5727 53.7047 14.5727 53.3461V53.325V52.8399H15.0579C15.4376 52.8399 15.7329 52.5446 15.7329 52.1649C15.7329 51.8063 15.4376 51.4899 15.079 51.4899H15.0579H14.5727V51.0047C14.5727 50.625 14.2774 50.3297 13.8977 50.3297C13.5391 50.3297 13.2227 50.625 13.2227 50.9836V51.0047V51.4899H12.7376C12.3579 51.4899 12.0626 51.7852 12.0626 52.1649C12.0415 52.5235 12.3368 52.8399 12.7376 52.8399C12.7165 52.8399 12.7165 52.8399 12.7376 52.8399Z" fill="#70D6F9"/>
<path d="M4.38418 43.9383C4.78027 43.9383 5.10137 43.6172 5.10137 43.2211C5.10137 42.825 4.78027 42.5039 4.38418 42.5039C3.98809 42.5039 3.66699 42.825 3.66699 43.2211C3.66699 43.6172 3.98809 43.9383 4.38418 43.9383Z" fill="#87D147"/>
<path d="M37.7123 1.43438C38.1084 1.43438 38.4295 1.11328 38.4295 0.717188C38.4295 0.321096 38.1084 0 37.7123 0C37.3162 0 36.9951 0.321096 36.9951 0.717188C36.9951 1.11328 37.3162 1.43438 37.7123 1.43438Z" fill="#FC657E"/>
<path d="M7.7377 7.8469C7.08379 7.72034 6.55645 7.21409 6.42988 6.56018C6.42988 6.53909 6.3666 6.53909 6.3666 6.56018C6.24004 7.21409 5.7127 7.72034 5.05879 7.8469C5.0377 7.8469 5.0377 7.88909 5.05879 7.91018C5.7127 8.03674 6.24004 8.54299 6.3666 9.1969C6.3666 9.21799 6.42988 9.21799 6.42988 9.1969C6.55645 8.54299 7.08379 8.03674 7.7377 7.91018C7.759 7.88909 7.759 7.8469 7.7377 7.8469ZM48.6176 7.8469C49.5668 7.67815 50.3051 6.93987 50.4949 6.01174C50.4949 5.96956 50.5793 5.96956 50.5793 6.01174C50.7692 6.93987 51.5074 7.67815 52.4567 7.8469C52.4988 7.8469 52.4988 7.91018 52.4567 7.93127C51.5074 8.10002 50.7692 8.83831 50.5793 9.76643C50.5793 9.80862 50.4949 9.80862 50.4949 9.76643C50.3051 8.83831 49.5668 8.10002 48.6176 7.93127C48.5754 7.91018 48.5754 7.8469 48.6176 7.8469Z" fill="#F5C84C"/>
<path d="M48.5383 26.4604C48.1778 26.4604 47.8186 26.36 47.5102 26.1676L43.4245 23.6189C42.9858 23.3453 42.6799 22.9171 42.5633 22.4136C42.4466 21.9099 42.5329 21.3907 42.8067 20.9522C43.0801 20.5135 43.5083 20.2076 44.012 20.0909C44.5033 19.9772 45.0091 20.0566 45.4409 20.3145C43.5353 15.2345 39.4998 11.1153 34.4162 9.13865C33.9345 8.95134 33.5543 8.58747 33.3461 8.11434C33.138 7.6412 33.1264 7.11512 33.3137 6.63334C33.501 6.15135 33.8648 5.77124 34.3382 5.56305C34.8117 5.35464 35.3376 5.34325 35.8194 5.53077C42.1564 7.99473 47.1263 13.2169 49.3061 19.6317L49.4411 19.4153C49.7145 18.9766 50.1427 18.6709 50.6464 18.5541C51.1499 18.4374 51.669 18.5237 52.1078 18.7975C52.5465 19.0711 52.8524 19.4991 52.969 20.0028C53.0857 20.5065 52.9994 21.0256 52.7256 21.4641L50.1768 25.55C49.9031 25.989 49.4748 26.2946 48.9713 26.4113C48.829 26.4442 48.6834 26.4604 48.5383 26.4604ZM44.4503 21.0954C44.3837 21.0954 44.3164 21.103 44.2497 21.1184C44.0206 21.1714 43.8257 21.3108 43.7013 21.5103C43.5766 21.7101 43.5374 21.9461 43.5905 22.1754C43.6437 22.4047 43.7829 22.5996 43.9825 22.7241L48.0683 25.2728C48.2651 25.3958 48.5075 25.4361 48.7328 25.3836C48.9625 25.3304 49.1572 25.1912 49.2818 24.9917L51.8306 20.9058C51.9551 20.7062 51.9945 20.47 51.9413 20.2407C51.8882 20.0116 51.749 19.8167 51.5494 19.6921C51.3497 19.5674 51.113 19.528 50.8843 19.5813C50.655 19.6345 50.4604 19.7737 50.3359 19.9732L49.5921 21.1657C49.482 21.3426 49.2789 21.4382 49.0707 21.4087C48.8642 21.3794 48.6942 21.2313 48.6372 21.0305C46.7647 14.4262 41.8298 8.99943 35.4367 6.51353C35.2174 6.4281 34.9782 6.43316 34.7628 6.52809C34.5474 6.62301 34.3816 6.79598 34.2964 7.01535C34.2112 7.23473 34.2165 7.47393 34.3112 7.6893C34.4059 7.90466 34.5791 8.07025 34.7982 8.15547C40.6345 10.4247 45.1614 15.3714 46.9077 21.3878C46.9687 21.5977 46.8938 21.8234 46.7194 21.9552C46.5449 22.087 46.3074 22.0976 46.122 21.982L44.9148 21.229C44.7735 21.141 44.6134 21.0954 44.4503 21.0954ZM19.882 48.6021C19.6447 48.6021 19.4074 48.558 19.1798 48.4694C12.8428 46.0055 7.87291 40.7835 5.69308 34.3687L5.55808 34.5851C5.28492 35.023 4.85756 35.3286 4.35469 35.4459C3.85055 35.5632 3.3308 35.4771 2.89141 35.2029C2.45266 34.9293 2.1468 34.5014 2.03015 33.9976C1.91351 33.4939 1.99978 32.9748 2.27358 32.5363L4.82233 28.4504C5.38744 27.5448 6.58387 27.2681 7.48901 27.8326L11.5749 30.3811C12.0136 30.6547 12.3195 31.0827 12.4361 31.5864C12.5528 32.0901 12.4665 32.6092 12.1927 33.0478C11.6346 33.9426 10.4603 34.2238 9.5583 33.6854C11.4639 38.7655 15.4996 42.8849 20.583 44.8615C21.0647 45.0489 21.4448 45.4127 21.653 45.8859C21.8612 46.359 21.8728 46.8851 21.6855 47.3669C21.4976 47.8501 21.1327 48.2306 20.658 48.4384C20.4093 48.5475 20.1457 48.6021 19.882 48.6021ZM5.85445 32.5863C5.87892 32.5863 5.9036 32.5879 5.92849 32.5915C6.135 32.6208 6.30501 32.7689 6.36197 32.9697C8.23446 39.574 13.1693 45.0008 19.5624 47.4865C19.7812 47.5717 20.02 47.5666 20.2353 47.4723C20.4511 47.3778 20.6171 47.2046 20.7026 46.9846C20.7878 46.7653 20.7825 46.5258 20.6878 46.3105C20.5931 46.0951 20.4199 45.9295 20.2007 45.8443C14.3645 43.575 9.83758 38.6283 8.09123 32.612C8.03027 32.4021 8.10515 32.1764 8.27939 32.0446C8.45383 31.9125 8.69135 31.902 8.87676 32.0178L10.0842 32.7708C10.4963 33.0277 11.0408 32.9016 11.2977 32.4896C11.4221 32.2901 11.4616 32.0538 11.4084 31.8246C11.3553 31.5955 11.2161 31.4006 11.0165 31.2759L6.93044 28.7274C6.51848 28.4702 5.97405 28.5964 5.71692 29.0085L3.16816 33.0942C3.04371 33.2937 3.00426 33.53 3.05742 33.7593C3.11058 33.9886 3.2498 34.1835 3.44934 34.3079C3.64952 34.4326 3.88598 34.4718 4.11506 34.4185C4.34414 34.3651 4.53862 34.2259 4.66308 34.0267L5.40684 32.8343C5.5043 32.6786 5.67431 32.5863 5.85445 32.5863ZM7.83494 21.3186C7.59785 21.3186 7.36055 21.2745 7.13294 21.1861C6.65095 20.9988 6.27084 20.635 6.06265 20.1616C5.85424 19.6883 5.84285 19.1622 6.03037 18.6804C8.49433 12.3434 13.7165 7.37352 20.1313 5.1937L19.9149 5.0587C19.4762 4.78532 19.1705 4.35712 19.0537 3.8534C18.937 3.34968 19.0233 2.83077 19.2971 2.39202C19.5707 1.95327 19.9987 1.64741 20.5024 1.53077C21.0065 1.41412 21.5252 1.50039 21.9637 1.77419L26.0496 4.32294C26.4886 4.59674 26.7942 5.02495 26.9109 5.52845C27.0262 6.02416 26.9374 6.55698 26.6677 6.98962L24.1189 11.0753C23.8453 11.514 23.4171 11.8199 22.9136 11.9365C22.4097 12.053 21.8908 11.9669 21.4522 11.6931C21.0135 11.4197 20.7076 10.9915 20.591 10.4878C20.4771 9.99653 20.5566 9.4907 20.8146 9.05891C15.7341 10.9645 11.6149 15 9.63825 20.0834C9.45094 20.5651 9.08707 20.9452 8.61394 21.1534C8.36419 21.2635 8.09967 21.3186 7.83494 21.3186ZM20.9409 2.53504C20.8743 2.53504 20.807 2.54263 20.7403 2.55803C20.5112 2.61119 20.3163 2.75041 20.1917 2.94995C20.0672 3.1495 20.0278 3.38575 20.0809 3.61504C20.1341 3.84433 20.2733 4.03902 20.4728 4.16348L21.6653 4.90724C21.8422 5.01756 21.9376 5.22217 21.9083 5.42868C21.879 5.63519 21.7309 5.8052 21.5301 5.86216C14.9258 7.73465 9.49903 12.6695 7.01313 19.0626C6.9277 19.282 6.93298 19.5212 7.02769 19.7366C7.12261 19.9519 7.29558 20.1177 7.51495 20.203C7.73433 20.2884 7.97374 20.2829 8.1889 20.1882C8.40426 20.0935 8.56985 19.9203 8.65507 19.7011C10.9245 13.8649 15.8712 9.3382 21.8876 7.59163C22.0975 7.53088 22.3232 7.60555 22.455 7.78C22.5869 7.95423 22.5976 8.19196 22.4818 8.37737L21.7288 9.58457C21.6043 9.78433 21.5649 10.0206 21.618 10.2499C21.671 10.4789 21.8104 10.6739 22.0099 10.7983C22.2097 10.923 22.4457 10.9622 22.675 10.909C22.9043 10.8559 23.0992 10.7167 23.2237 10.5171L25.7724 6.43127C25.8954 6.23446 25.9355 5.99209 25.8832 5.76681C25.83 5.5371 25.6908 5.34241 25.4913 5.21774L21.4054 2.66898C21.2639 2.58039 21.1038 2.53504 20.9409 2.53504ZM34.0564 52.5201C33.6984 52.5201 33.3468 52.4201 33.0356 52.226L28.9498 49.6772C28.0444 49.1121 27.7673 47.9159 28.332 47.0106L30.8805 42.9247C31.1541 42.486 31.5821 42.1801 32.0858 42.0635C32.5899 41.9468 33.1086 42.0331 33.5472 42.3069C34.442 42.865 34.7231 44.0397 34.1848 44.9413C39.2648 43.0357 43.3842 39 45.3609 33.9166C45.5482 33.4349 45.9121 33.0547 46.3852 32.8465C46.8586 32.6384 47.3845 32.6268 47.8662 32.8141C48.3495 33.002 48.73 33.3669 48.9378 33.8415C49.1447 34.3145 49.1557 34.8393 48.9686 35.3198C46.5046 41.6568 41.2827 46.6267 34.8679 48.8065L35.0843 48.9415C35.5222 49.2147 35.8278 49.642 35.9451 50.1449C36.0626 50.649 35.9763 51.1688 35.7021 51.6082C35.4285 52.0469 35.0005 52.3528 34.4968 52.4694C34.3506 52.5032 34.203 52.5201 34.0564 52.5201ZM32.5245 43.0679C32.4579 43.0679 32.3906 43.0755 32.3239 43.0909C32.0949 43.1441 31.9 43.2833 31.7753 43.4829L29.2267 47.5689C28.9696 47.9809 29.0958 48.5253 29.5079 48.7825L33.5936 51.3312C33.7931 51.4557 34.0292 51.4949 34.2587 51.442C34.4879 51.3888 34.6829 51.2496 34.8073 51.05C34.932 50.8499 34.9714 50.6136 34.9178 50.3843C34.8645 50.1552 34.7253 49.9608 34.5261 49.8363L33.3337 49.0925C33.1567 48.9822 33.0614 48.7778 33.0907 48.5711C33.12 48.3644 33.2681 48.1946 33.4689 48.1376C40.0732 46.2651 45.4999 41.3302 47.9856 34.9371C48.0709 34.7184 48.0658 34.4796 47.9715 34.2643C47.877 34.0485 47.7038 33.8825 47.4838 33.797C47.2644 33.7118 47.0252 33.7173 46.8097 33.8118C46.5943 33.9065 46.4287 34.0797 46.3435 34.2989C44.0742 40.1351 39.1275 44.662 33.1112 46.4084C32.9013 46.4695 32.6756 46.3944 32.5437 46.2202C32.4119 46.046 32.4011 45.8082 32.517 45.6228L33.27 44.4154C33.5269 44.0032 33.4008 43.4588 32.9888 43.2019C32.8475 43.1133 32.6876 43.0679 32.5245 43.0679Z" fill="black"/>
<path d="M27.5002 41.0617C19.7466 41.0617 13.4385 34.7536 13.4385 27C13.4385 19.2463 19.7466 12.9382 27.5002 12.9382C35.2538 12.9382 41.5619 19.2463 41.5619 27C41.5619 34.7536 35.2538 41.0617 27.5002 41.0617ZM27.5002 13.9929C20.3281 13.9929 14.4932 19.8279 14.4932 27C14.4932 34.172 20.3281 40.007 27.5002 40.007C34.6723 40.007 40.5072 34.172 40.5072 27C40.5072 19.8279 34.6723 13.9929 27.5002 13.9929Z" fill="black"/>
<path d="M27.5 25.0841C27.2087 25.0841 26.9727 24.848 26.9727 24.5567V19.5117C26.9727 19.2204 27.2087 18.9844 27.5 18.9844C27.7913 18.9844 28.0273 19.2204 28.0273 19.5117V24.5567C28.0273 24.848 27.7913 25.0841 27.5 25.0841ZM27.5 17.9217C27.2087 17.9217 26.9727 17.6856 26.9727 17.3943V16.3477C26.9727 16.0564 27.2087 15.8203 27.5 15.8203C27.7913 15.8203 28.0273 16.0564 28.0273 16.3477V17.3943C28.0273 17.6856 27.7913 17.9217 27.5 17.9217ZM27.5 38.1797C27.2087 38.1797 26.9727 37.9436 26.9727 37.6523V36.6057C26.9727 36.3144 27.2087 36.0783 27.5 36.0783C27.7913 36.0783 28.0273 36.3144 28.0273 36.6057V37.6523C28.0273 37.9436 27.7913 38.1797 27.5 38.1797ZM22.6978 19.2088C22.5155 19.2088 22.3381 19.1143 22.2407 18.9451L21.7174 18.0385C21.5718 17.7862 21.6581 17.4637 21.9104 17.3182C22.1624 17.1726 22.4852 17.2589 22.6307 17.5112L23.1541 18.4178C23.2996 18.6701 23.2133 18.9926 22.961 19.1381C22.8779 19.186 22.7872 19.2088 22.6978 19.2088ZM32.8266 36.7527C32.6443 36.7527 32.4669 36.6582 32.3695 36.489L31.8462 35.5824C31.7006 35.3301 31.7869 35.0076 32.0392 34.8621C32.2912 34.7163 32.614 34.8028 32.7595 35.0551L33.2829 35.9617C33.4284 36.214 33.3421 36.5365 33.0898 36.682C33.0067 36.7297 32.916 36.7527 32.8266 36.7527ZM19.1808 22.7247C19.0914 22.7247 19.0007 22.7019 18.9176 22.6541L18.011 22.1307C17.7587 21.9852 17.6724 21.6626 17.818 21.4104C17.9633 21.1581 18.2858 21.0714 18.5383 21.2174L19.4449 21.7407C19.6972 21.8862 19.7835 22.2088 19.6379 22.461C19.5405 22.6302 19.3631 22.7247 19.1808 22.7247ZM36.7247 32.8535C36.6353 32.8535 36.5446 32.8307 36.4615 32.7829L35.5549 32.2595C35.3026 32.114 35.2163 31.7914 35.3619 31.5392C35.5074 31.2869 35.8297 31.2002 36.0822 31.3462L36.9888 31.8695C37.2411 32.015 37.3274 32.3376 37.1818 32.5898C37.0844 32.759 36.907 32.8535 36.7247 32.8535ZM17.8943 27.5273H16.8477C16.5564 27.5273 16.3203 27.2913 16.3203 27C16.3203 26.7087 16.5564 26.4727 16.8477 26.4727H17.8943C18.1856 26.4727 18.4217 26.7087 18.4217 27C18.4217 27.2913 18.1856 27.5273 17.8943 27.5273ZM38.1523 27.5273H37.1057C36.8144 27.5273 36.5783 27.2913 36.5783 27C36.5783 26.7087 36.8144 26.4727 37.1057 26.4727H38.1523C38.4436 26.4727 38.6797 26.7087 38.6797 27C38.6797 27.2913 38.4436 27.5273 38.1523 27.5273ZM18.2753 32.8535C18.093 32.8535 17.9156 32.759 17.8182 32.5898C17.6726 32.3376 17.7589 32.015 18.0112 31.8695L18.9178 31.3462C19.1699 31.2004 19.4926 31.2869 19.6381 31.5392C19.7837 31.7914 19.6974 32.114 19.4451 32.2595L18.5385 32.7829C18.4554 32.8307 18.3647 32.8535 18.2753 32.8535ZM35.8192 22.7247C35.6369 22.7247 35.4595 22.6302 35.3621 22.461C35.2165 22.2088 35.3028 21.8862 35.5551 21.7407L36.4617 21.2174C36.714 21.0718 37.0365 21.1581 37.182 21.4104C37.3276 21.6626 37.2413 21.9852 36.989 22.1307L36.0824 22.6541C35.9993 22.7019 35.9086 22.7247 35.8192 22.7247ZM22.1734 36.7527C22.084 36.7527 21.9933 36.7299 21.9102 36.682C21.6579 36.5365 21.5716 36.214 21.7171 35.9617L22.2405 35.0551C22.386 34.8028 22.7083 34.7161 22.9608 34.8621C23.2131 35.0076 23.2994 35.3301 23.1538 35.5824L22.6305 36.489C22.5328 36.6582 22.3557 36.7527 22.1734 36.7527ZM32.3022 19.2088C32.2128 19.2088 32.1221 19.186 32.039 19.1381C31.7867 18.9926 31.7004 18.6701 31.8459 18.4178L32.3693 17.5112C32.5148 17.2589 32.8371 17.1722 33.0896 17.3182C33.3419 17.4637 33.4282 17.7862 33.2826 18.0385L32.7593 18.9451C32.6619 19.1143 32.4845 19.2088 32.3022 19.2088Z" fill="black"/>
<path d="M27.5 38.3906C21.2191 38.3906 16.1094 33.2809 16.1094 27C16.1094 20.7191 21.2191 15.6094 27.5 15.6094C33.7809 15.6094 38.8906 20.7191 38.8906 27C38.8906 33.2809 33.7809 38.3906 27.5 38.3906ZM27.5 16.6641C21.8007 16.6641 17.1641 21.3007 17.1641 27C17.1641 32.6993 21.8007 37.3359 27.5 37.3359C33.1993 37.3359 37.8359 32.6993 37.8359 27C37.8359 21.3007 33.1993 16.6641 27.5 16.6641Z" fill="black"/>
<path d="M27.5 29.7422C25.988 29.7422 24.7578 28.512 24.7578 27C24.7578 25.488 25.988 24.2578 27.5 24.2578C29.012 24.2578 30.2422 25.488 30.2422 27C30.2422 28.512 29.012 29.7422 27.5 29.7422ZM27.5 25.3125C26.5696 25.3125 25.8125 26.0696 25.8125 27C25.8125 27.9304 26.5696 28.6875 27.5 28.6875C28.4304 28.6875 29.1875 27.9304 29.1875 27C29.1875 26.0696 28.4304 25.3125 27.5 25.3125Z" fill="black"/>
<path d="M33.3011 28.793H29.3165C29.1199 28.793 28.9397 28.6837 28.8488 28.5095C28.7579 28.3352 28.7716 28.1249 28.884 27.9638C29.0827 27.6792 29.1878 27.3459 29.1878 27C29.1878 26.6541 29.0827 26.3208 28.884 26.0362C28.7716 25.8751 28.7579 25.6648 28.8488 25.4905C28.9397 25.3163 29.1199 25.207 29.3165 25.207H33.3011C34.2897 25.207 35.094 26.0113 35.094 27C35.094 27.9887 34.2897 28.793 33.3011 28.793ZM30.1414 27.7383H33.3011C33.7082 27.7383 34.0393 27.4071 34.0393 27C34.0393 26.5929 33.7082 26.2617 33.3011 26.2617H30.1414C30.2083 26.5001 30.2425 26.7479 30.2425 27C30.2425 27.2521 30.2083 27.4999 30.1414 27.7383Z" fill="black"/>
</g>
<defs>
<clipPath id="clip0_373_1645">
<rect width="54" height="54" fill="white" transform="translate(0.5)"/>
</clipPath>
</defs>
</svg>
