<svg width="1440" height="1547" viewBox="0 0 1440 1547" fill="none" xmlns="http://www.w3.org/2000/svg">
<path d="M720 292C638 532 891.5 821.5 720 1286" stroke="#F99621" stroke-width="8" stroke-linecap="round"/>
<path d="M711.549 450.516C710.731 450.382 709.96 450.936 709.826 451.754C709.692 452.572 710.246 453.343 711.064 453.477L711.549 450.516ZM798.152 433.369L799.65 433.289L798.152 433.369ZM878.899 393.834L874.413 382.438L863.017 386.925L867.503 398.321L878.899 393.834ZM711.064 453.477C723.425 455.501 745.892 460.61 764.914 460.298C774.423 460.141 783.339 458.636 789.783 454.521C796.367 450.316 800.194 443.5 799.65 433.289L796.654 433.449C797.146 442.676 793.764 448.419 788.168 451.992C782.433 455.655 774.198 457.145 764.865 457.298C746.2 457.605 724.208 452.589 711.549 450.516L711.064 453.477ZM799.65 433.289C798.766 416.722 800.577 404.965 804.228 396.866C807.849 388.831 813.293 384.354 819.893 382.286C826.567 380.196 834.56 380.529 843.264 382.436C851.952 384.338 861.215 387.777 870.36 391.755L871.556 389.004C862.334 384.993 852.868 381.468 843.905 379.505C834.958 377.546 826.377 377.112 818.996 379.423C811.542 381.758 805.449 386.853 801.493 395.633C797.565 404.347 795.757 416.646 796.654 433.449L799.65 433.289Z" fill="#F99621"/>
<path d="M775.7 870.516C774.882 870.382 774.111 870.937 773.977 871.754C773.843 872.572 774.398 873.343 775.215 873.477L775.7 870.516ZM862.303 853.369L863.801 853.289L862.303 853.369ZM943.05 813.835L938.564 802.439L927.168 806.925L931.654 818.321L943.05 813.835ZM775.215 873.477C787.576 875.501 810.043 880.61 829.065 880.298C838.575 880.141 847.49 878.636 853.934 874.521C860.518 870.316 864.346 863.5 863.801 853.289L860.805 853.449C861.297 862.676 857.915 868.419 852.319 871.992C846.584 875.655 838.35 877.145 829.016 877.298C810.351 877.605 788.359 872.59 775.7 870.516L775.215 873.477ZM863.801 853.289C862.917 836.722 864.728 824.966 868.379 816.866C872 808.831 877.444 804.354 884.044 802.287C890.719 800.196 898.711 800.53 907.415 802.436C916.103 804.338 925.366 807.777 934.511 811.755L935.707 809.005C926.486 804.993 917.019 801.468 908.056 799.505C899.109 797.546 890.528 797.112 883.147 799.424C875.693 801.759 869.6 806.854 865.644 815.633C861.716 824.347 859.909 836.646 860.805 853.449L863.801 853.289Z" fill="#F99621"/>
<path d="M739.029 653.823C739.847 653.691 740.617 654.247 740.749 655.065C740.88 655.883 740.324 656.653 739.506 656.784L739.029 653.823ZM651.798 636.516L650.3 636.438L651.798 636.516ZM570.467 596.807L574.993 585.426L586.373 589.953L581.847 601.333L570.467 596.807ZM739.506 656.784C727.063 658.788 704.454 663.86 685.304 663.514C675.731 663.341 666.757 661.819 660.267 657.694C656.995 655.615 654.348 652.87 652.598 649.318C650.85 645.771 650.037 641.504 650.3 636.438L653.296 636.594C653.054 641.249 653.808 644.988 655.289 647.992C656.767 650.99 659.009 653.34 661.876 655.162C667.662 658.839 675.96 660.345 685.359 660.514C704.153 660.854 726.289 655.874 739.029 653.823L739.506 656.784ZM650.3 636.438C651.161 619.866 649.317 608.102 645.627 599.992C641.967 591.947 636.476 587.454 629.82 585.372C623.091 583.268 615.041 583.588 606.28 585.48C597.535 587.369 588.214 590.793 579.013 594.757L577.826 592.002C587.104 588.005 596.628 584.496 605.647 582.548C614.651 580.603 623.286 580.185 630.716 582.509C638.218 584.856 644.359 589.96 648.358 598.75C652.327 607.475 654.169 619.784 653.296 636.594L650.3 636.438Z" fill="#F99621"/>
<path d="M770.029 1073.82C770.847 1073.69 771.617 1074.25 771.749 1075.07C771.881 1075.88 771.324 1076.65 770.506 1076.78L770.029 1073.82ZM682.798 1056.52L681.3 1056.44L682.798 1056.52ZM601.467 1016.81L605.993 1005.43L617.374 1009.95L612.847 1021.33L601.467 1016.81ZM770.506 1076.78C758.063 1078.79 735.454 1083.86 716.304 1083.51C706.731 1083.34 697.757 1081.82 691.267 1077.69C687.995 1075.62 685.349 1072.87 683.598 1069.32C681.85 1065.77 681.037 1061.5 681.3 1056.44L684.296 1056.59C684.054 1061.25 684.808 1064.99 686.289 1067.99C687.767 1070.99 690.009 1073.34 692.876 1075.16C698.662 1078.84 706.96 1080.34 716.359 1080.51C735.153 1080.85 757.289 1075.87 770.029 1073.82L770.506 1076.78ZM681.3 1056.44C682.161 1039.87 680.317 1028.1 676.627 1019.99C672.967 1011.95 667.476 1007.45 660.82 1005.37C654.091 1003.27 646.041 1003.59 637.28 1005.48C628.535 1007.37 619.214 1010.79 610.014 1014.76L608.827 1012C618.104 1008.01 627.628 1004.5 636.647 1002.55C645.651 1000.6 654.286 1000.19 661.716 1002.51C669.218 1004.86 675.359 1009.96 679.358 1018.75C683.327 1027.48 685.169 1039.78 684.296 1056.59L681.3 1056.44Z" fill="#F99621"/>
</svg>
