<svg width="55" height="55" viewBox="0 0 55 55" fill="none" xmlns="http://www.w3.org/2000/svg">
<path d="M36.657 40.8527C38.0395 36.2339 43.2608 32.6733 38.5677 23.6882C36.6867 20.0788 33.4488 17.7397 29.4523 17.1017C25.2297 16.4274 20.79 17.781 17.869 20.6335C15.2344 23.207 13.4375 26.7537 14.1655 30.6271C14.2357 30.9862 14.2282 31.4987 13.804 31.9007C13.2328 32.4331 11.1306 34.7433 11.2833 36.3272C11.3411 36.9198 11.7694 37.3771 12.0418 37.4348C12.3984 37.51 13.1907 37.7708 13.3641 38.0968C13.3817 38.1284 13.3914 38.1639 13.3924 38.2001C13.3934 38.2363 13.3857 38.2722 13.3698 38.3048C13.0595 39.0922 12.8408 39.8474 13.4904 40.4343C13.2626 40.9476 13.5027 41.4585 13.8395 41.9084C14.2357 42.4366 14.2357 42.4366 14.1358 42.7379C13.8486 43.6062 13.7817 44.4819 14.2893 45.252C14.6871 45.8545 15.3565 46.2201 16.2809 46.339C18.5689 46.6328 20.0381 46.542 20.336 48.0814C20.6695 49.8345 21.1102 53.5173 21.1135 53.5536C21.1218 53.6225 21.155 53.6859 21.2068 53.732C21.2587 53.7781 21.3256 53.8036 21.395 53.8037H21.3966L39.4509 53.7187C39.5022 53.7183 39.5524 53.704 39.5962 53.6773C39.64 53.6506 39.6757 53.6125 39.6995 53.567C39.7233 53.5216 39.7344 53.4706 39.7314 53.4193C39.7285 53.3681 39.7117 53.3187 39.6828 53.2763C39.6341 53.2036 34.8139 46.0311 36.657 40.8527Z" fill="#FFCC66"/>
<path d="M39.1637 22.5821C37.3858 19.17 34.1082 16.925 29.9368 16.2581C25.181 15.4988 19.9522 16.977 16.9239 19.9343C16.2009 20.64 15.5109 21.7502 14.9909 22.6383C14.9086 22.7775 14.8648 22.9362 14.8643 23.098C14.8637 23.2597 14.9063 23.4187 14.9876 23.5586C15.151 23.845 15.4457 24.0158 15.7742 24.0158H15.7775C16.8018 24.0158 19.3646 24.1594 21.0797 25.4875C23.2034 27.125 22.8311 29.8388 22.4201 31.3105C22.3293 31.6373 22.397 31.979 22.6058 32.2473C22.7092 32.3788 22.8418 32.4846 22.9931 32.5562C23.1443 32.6278 23.3101 32.6633 23.4774 32.66C24.9887 32.6253 26.041 32.8465 26.4793 33.2856C26.6369 33.4433 26.7104 33.6298 26.7046 33.856C26.6788 35.3655 26.6788 36.8753 26.7046 38.3848C26.7057 38.4591 26.736 38.5299 26.789 38.582C26.842 38.6341 26.9134 38.6632 26.9877 38.6629H28.5452C28.6199 38.6629 28.6915 38.6335 28.7445 38.5809C28.7976 38.5283 28.8277 38.457 28.8283 38.3823C28.8448 36.791 29.2418 32.48 30.862 31.6571C31.4093 31.3782 32.0968 31.5267 32.8991 32.0996C37.0491 35.061 34.45 39.2176 34.3369 39.3926C34.2966 39.4548 34.2825 39.5304 34.2974 39.6029C34.3124 39.6755 34.3553 39.7393 34.4169 39.7805L36.2286 41.0029C36.2653 41.0277 36.3072 41.0435 36.3511 41.0491C36.3949 41.0547 36.4395 41.0499 36.4812 41.0352C36.5229 41.0204 36.5605 40.996 36.591 40.964C36.6216 40.932 36.6442 40.8933 36.657 40.851C36.9013 40.0405 37.9669 37.9894 38.3581 37.2383C40.4356 33.2526 42.584 29.1299 39.1637 22.5821Z" fill="#666666"/>
<path d="M44.9089 20.9025H28.8125L40.1944 9.52061C40.2784 9.43655 40.3257 9.32255 40.3257 9.20367C40.3257 9.08479 40.2784 8.97078 40.1944 8.88672C40.1103 8.80266 39.9963 8.75544 39.8774 8.75544C39.7586 8.75544 39.6446 8.80266 39.5605 8.88672L28.1786 20.2687V4.17218C28.1786 4.11332 28.167 4.05504 28.1445 4.00067C28.1219 3.94629 28.0889 3.89688 28.0473 3.85527C28.0057 3.81365 27.9563 3.78064 27.9019 3.75811C27.8475 3.73559 27.7892 3.724 27.7304 3.724C27.6715 3.724 27.6133 3.73559 27.5589 3.75811C27.5045 3.78064 27.4551 3.81365 27.4135 3.85527C27.3719 3.89688 27.3388 3.94629 27.3163 4.00067C27.2938 4.05504 27.2822 4.11332 27.2822 4.17218V20.2687L15.9003 8.88672C15.8162 8.80266 15.7022 8.75544 15.5833 8.75544C15.4645 8.75544 15.3505 8.80266 15.2664 8.88672C15.1823 8.97078 15.1351 9.08479 15.1351 9.20367C15.1351 9.32255 15.1823 9.43655 15.2664 9.52061L26.6483 20.9025H10.5527C10.4338 20.9025 10.3198 20.9498 10.2358 21.0338C10.1517 21.1179 10.1045 21.2319 10.1045 21.3507C10.1045 21.4696 10.1517 21.5836 10.2358 21.6676C10.3198 21.7517 10.4338 21.7989 10.5527 21.7989H27.6462C27.6743 21.8047 27.7007 21.8162 27.7312 21.8162C27.7609 21.8162 27.7873 21.8047 27.8162 21.7989H44.9098C44.9686 21.7988 45.0269 21.7872 45.0812 21.7646C45.1356 21.7421 45.185 21.709 45.2265 21.6673C45.2681 21.6257 45.3011 21.5762 45.3236 21.5219C45.346 21.4675 45.3576 21.4092 45.3575 21.3503C45.3575 21.2915 45.3458 21.2332 45.3232 21.1788C45.3007 21.1245 45.2676 21.0751 45.226 21.0335C45.1843 20.9919 45.1349 20.959 45.0805 20.9365C45.0261 20.914 44.9678 20.9025 44.9089 20.9025Z" fill="#E6E6E6"/>
<path d="M44.6418 18.504C43.8775 18.5049 43.1447 18.8089 42.6042 19.3494C42.0637 19.8899 41.7597 20.6227 41.7588 21.3871C41.7588 22.9767 43.0522 24.2709 44.6418 24.2709C46.2315 24.2709 47.5249 22.9776 47.5249 21.3871C47.524 20.6227 47.22 19.8899 46.6795 19.3494C46.139 18.8089 45.4062 18.5049 44.6418 18.504Z" fill="#3AB7FC"/>
<path d="M10.008 18.504C9.24368 18.5049 8.51087 18.8089 7.97039 19.3494C7.4299 19.8899 7.12587 20.6227 7.125 21.3871C7.12587 22.1515 7.42988 22.8844 7.97034 23.425C8.5108 23.9656 9.2436 24.2698 10.008 24.2709C10.7725 24.2701 11.5055 23.9659 12.046 23.4252C12.5865 22.8846 12.8904 22.1516 12.8911 21.3871C12.89 20.6228 12.5859 19.8901 12.0454 19.3497C11.505 18.8092 10.7723 18.5051 10.008 18.504Z" fill="#EF5EA7"/>
<path d="M40.1242 6.08954C38.5346 6.08954 37.2412 7.3829 37.2412 8.97258C37.2412 10.5622 38.5346 11.8564 40.1242 11.8564C41.7139 11.8564 43.0073 10.5631 43.0073 8.97258C43.0073 7.38208 41.7139 6.08954 40.1242 6.08954Z" fill="#88C057"/>
<path d="M15.2473 6.10193C14.4828 6.1028 13.7499 6.40694 13.2094 6.94761C12.6688 7.48827 12.3649 8.22129 12.3643 8.98579C12.3651 9.75015 12.6692 10.483 13.2096 11.0234C13.7501 11.5639 14.4829 11.868 15.2473 11.8688C16.0117 11.868 16.7445 11.5639 17.2849 11.0234C17.8254 10.483 18.1295 9.75015 18.1303 8.98579C18.1295 8.22135 17.8255 7.48846 17.285 6.94785C16.7445 6.40723 16.0117 6.10302 15.2473 6.10193Z" fill="#BF8E5F"/>
<path d="M27.7112 1.07288C26.9468 1.07375 26.214 1.37778 25.6735 1.91826C25.133 2.45875 24.829 3.19155 24.8281 3.95591C24.8281 5.54559 26.1215 6.83895 27.7112 6.83895C29.3008 6.83895 30.5942 5.54559 30.5942 3.95591C30.5933 3.19155 30.2893 2.45875 29.7488 1.91826C29.2083 1.37778 28.4755 1.07375 27.7112 1.07288Z" fill="#9A7BAA"/>
<path d="M27.7304 17.3039C26.6575 17.3052 25.629 17.732 24.8703 18.4906C24.1117 19.2493 23.6849 20.2778 23.6836 21.3507C23.6849 22.4236 24.1117 23.4522 24.8703 24.2108C25.629 24.9694 26.6575 25.3962 27.7304 25.3975C29.9614 25.3975 31.7764 23.5817 31.7764 21.3507C31.7753 20.2779 31.3487 19.2493 30.5902 18.4907C29.8317 17.732 28.8032 17.3052 27.7304 17.3039Z" fill="#ED7B72"/>
</svg>
