<svg width="54" height="54" viewBox="0 0 54 54" fill="none" xmlns="http://www.w3.org/2000/svg">
<g clip-path="url(#clip0_373_1537)">
<path d="M33.2078 43.6101H8.97995C8.25311 43.6101 7.76855 43.1255 7.76855 42.3987V39.9759C7.76855 39.2491 8.25311 38.7645 8.97995 38.7645H33.2078C33.9346 38.7645 34.4192 39.2491 34.4192 39.9759V42.3987C34.4192 43.1255 33.9346 43.6101 33.2078 43.6101Z" fill="#F6B545"/>
<path d="M28.3622 39.9759H7.76855C7.76855 39.2491 8.25311 38.7645 8.97995 38.7645H28.3622V39.9759Z" fill="#FFCB5B"/>
<path d="M28.3622 39.976V41.1873C28.3622 41.9142 27.8777 42.3987 27.1508 42.3987H7.76855C7.76855 43.1256 8.25311 43.6101 8.97995 43.6101H33.2078C33.9346 43.6101 34.4192 43.1256 34.4192 42.3987V39.976H28.3622Z" fill="#F19920"/>
<path d="M11.4028 42.3987V40.5816C11.4028 40.2182 11.1605 39.976 10.7971 39.976C10.4337 39.976 10.1914 40.2182 10.1914 40.5816V42.3987M15.037 42.3987V40.5816C15.037 40.2182 14.7947 39.976 14.4313 39.976C14.0679 39.976 13.8256 40.2182 13.8256 40.5816V42.3987M18.6712 42.3987V40.5816C18.6712 40.2182 18.4289 39.976 18.0655 39.976C17.702 39.976 17.4598 40.2182 17.4598 40.5816V42.3987M22.3053 42.3987V40.5816C22.3053 40.2182 22.0631 39.976 21.6996 39.976C21.3362 39.976 21.0939 40.2182 21.0939 40.5816V42.3987M25.9395 42.3987V40.5816C25.9395 40.2182 25.6972 39.976 25.3338 39.976C24.9704 39.976 24.7281 40.2182 24.7281 40.5816V42.3987" fill="#F19920"/>
<path d="M34.4187 38.7645H10.1909C9.46405 38.7645 8.97949 38.28 8.97949 37.5531V35.1303C8.97949 34.4035 9.46405 33.9189 10.1909 33.9189H34.4187C35.1456 33.9189 35.6301 34.4035 35.6301 35.1303V37.5531C35.6301 38.28 35.1456 38.7645 34.4187 38.7645Z" fill="#F6B545"/>
<path d="M29.5732 35.1303H8.97949C8.97949 34.4035 9.46405 33.9189 10.1909 33.9189H29.5732V35.1303Z" fill="#FFCB5B"/>
<path d="M29.5732 35.1304V36.3418C29.5732 37.0686 29.0886 37.5532 28.3618 37.5532H8.97949C8.97949 38.28 9.46405 38.7645 10.1909 38.7645H34.4187C35.1456 38.7645 35.6301 38.28 35.6301 37.5532V35.1304H29.5732Z" fill="#F19920"/>
<path d="M12.6137 37.5532V35.7361C12.6137 35.3726 12.3715 35.1304 12.008 35.1304C11.6446 35.1304 11.4023 35.3726 11.4023 35.7361V37.5532M16.2479 37.5532V35.7361C16.2479 35.3726 16.0056 35.1304 15.6422 35.1304C15.2788 35.1304 15.0365 35.3726 15.0365 35.7361V37.5532M19.8821 37.5532V35.7361C19.8821 35.3726 19.6398 35.1304 19.2764 35.1304C18.913 35.1304 18.6707 35.3726 18.6707 35.7361V37.5532M23.5163 37.5532V35.7361C23.5163 35.3726 23.274 35.1304 22.9106 35.1304C22.5472 35.1304 22.3049 35.3726 22.3049 35.7361V37.5532M27.1504 37.5532V35.7361C27.1504 35.3726 26.9082 35.1304 26.5448 35.1304C26.1813 35.1304 25.9391 35.3726 25.9391 35.7361V37.5532" fill="#F19920"/>
<path d="M35.6306 48.4557H11.4028C10.676 48.4557 10.1914 47.9711 10.1914 47.2443V44.8215C10.1914 44.0947 10.676 43.6101 11.4028 43.6101H35.6306C36.3575 43.6101 36.842 44.0947 36.842 44.8215V47.2443C36.842 47.9711 36.3575 48.4557 35.6306 48.4557Z" fill="#F6B545"/>
<path d="M30.7851 44.8215H10.1914C10.1914 44.0947 10.676 43.6101 11.4028 43.6101H30.7851V44.8215Z" fill="#FFCB5B"/>
<path d="M30.7851 44.8215V46.0329C30.7851 46.7598 30.3005 47.2443 29.5737 47.2443H10.1914C10.1914 47.9712 10.676 48.4557 11.4028 48.4557H35.6306C36.3575 48.4557 36.842 47.9712 36.842 47.2443V44.8215H30.7851Z" fill="#F19920"/>
<path d="M13.8257 47.2443V45.4272C13.8257 45.0638 13.5834 44.8215 13.22 44.8215C12.8565 44.8215 12.6143 45.0638 12.6143 45.4272V47.2443M17.4598 47.2443V45.4272C17.4598 45.0638 17.2175 44.8215 16.8541 44.8215C16.4907 44.8215 16.2484 45.0638 16.2484 45.4272V47.2443M21.094 47.2443V45.4272C21.094 45.0638 20.8517 44.8215 20.4883 44.8215C20.1249 44.8215 19.8826 45.0638 19.8826 45.4272V47.2443M24.7282 47.2443V45.4272C24.7282 45.0638 24.4859 44.8215 24.1225 44.8215C23.7591 44.8215 23.5168 45.0638 23.5168 45.4272V47.2443M28.3624 47.2443V45.4272C28.3624 45.0638 28.1201 44.8215 27.7567 44.8215C27.3932 44.8215 27.151 45.0638 27.151 45.4272V47.2443" fill="#F19920"/>
<path d="M30.7849 53.3013H6.5571C5.83026 53.3013 5.3457 52.8167 5.3457 52.0899V49.6671C5.3457 48.9402 5.83026 48.4557 6.5571 48.4557H30.7849C31.5118 48.4557 31.9963 48.9402 31.9963 49.6671V52.0899C31.9963 52.8167 31.5118 53.3013 30.7849 53.3013Z" fill="#F6B545"/>
<path d="M25.9394 49.6671H5.3457C5.3457 48.9402 5.83026 48.4557 6.5571 48.4557H25.9394V49.6671Z" fill="#FFCB5B"/>
<path d="M25.9394 49.6671V50.8785C25.9394 51.6053 25.4548 52.0899 24.728 52.0899H5.3457C5.3457 52.8167 5.83026 53.3013 6.5571 53.3013H30.7849C31.5118 53.3013 31.9963 52.8167 31.9963 52.0899V49.6671H25.9394Z" fill="#F19920"/>
<path d="M8.97995 52.0899V50.2728C8.97995 49.9094 8.73767 49.6671 8.37425 49.6671C8.01083 49.6671 7.76855 49.9094 7.76855 50.2728V52.0899M12.6141 52.0899V50.2728C12.6141 49.9094 12.3718 49.6671 12.0084 49.6671C11.645 49.6671 11.4027 49.9094 11.4027 50.2728V52.0899M16.2483 52.0899V50.2728C16.2483 49.9094 16.006 49.6671 15.6426 49.6671C15.2792 49.6671 15.0369 49.9094 15.0369 50.2728V52.0899M19.8825 52.0899V50.2728C19.8825 49.9094 19.6402 49.6671 19.2768 49.6671C18.9134 49.6671 18.6711 49.9094 18.6711 50.2728V52.0899M23.5167 52.0899V50.2728C23.5167 49.9094 23.2744 49.6671 22.911 49.6671C22.5475 49.6671 22.3053 49.9094 22.3053 50.2728V52.0899" fill="#F19920"/>
<path d="M41.0814 32.1019C42.5351 30.6483 43.0196 28.71 42.8985 26.6507C40.8391 26.4084 38.9009 27.0141 37.4472 28.4678C35.9935 29.9214 35.509 31.8597 35.6301 33.919C37.6895 34.0402 39.6277 33.4345 41.0814 32.1019Z" fill="#3BB54A"/>
<path d="M41.4448 28.1044C42.0505 27.4987 41.4448 26.5296 40.718 26.7719C39.5066 27.0141 38.4163 27.6198 37.4472 28.4678C35.9935 29.9215 35.509 31.8597 35.6301 33.9191L41.4448 28.1044Z" fill="#24A049"/>
<path d="M34.4189 24.2279H36.8417V38.7646H34.4189V24.2279Z" fill="#3BB54A"/>
<path d="M35.6303 25.4392H34.4189V27.862C35.1458 27.862 35.6303 28.3466 35.6303 29.0734V38.7645H36.8417V25.4392H35.6303Z" fill="#24A049"/>
<path d="M28.3623 50.8785H42.899V53.3013H28.3623V50.8785Z" fill="#A35425"/>
<path d="M30.1796 34.5247C28.726 33.071 28.2414 31.1328 28.3625 29.0734C30.4219 28.8311 32.3601 29.4368 33.8138 30.8905C35.2675 32.3442 35.752 34.2824 35.6309 36.3418C33.5715 36.4629 31.6333 35.8572 30.1796 34.5247Z" fill="#3BB54A"/>
<path d="M29.8153 30.5271C29.2096 29.9214 29.8153 28.9523 30.5422 29.1946C31.7535 29.4369 32.8438 30.0426 33.8129 30.8905C35.2666 32.3442 35.7511 34.2824 35.63 36.3418L29.8153 30.5271Z" fill="#24A049"/>
<path d="M35.63 26.6506C42.9894 26.6506 48.9553 20.6847 48.9553 13.3253C48.9553 5.96595 42.9894 0 35.63 0C28.2706 0 22.3047 5.96595 22.3047 13.3253C22.3047 20.6847 28.2706 26.6506 35.63 26.6506Z" fill="#FFCB5B"/>
<path d="M35.6301 24.2278C41.6514 24.2278 46.5326 19.3466 46.5326 13.3253C46.5326 7.30396 41.6514 2.42273 35.6301 2.42273C29.6088 2.42273 24.7275 7.30396 24.7275 13.3253C24.7275 19.3466 29.6088 24.2278 35.6301 24.2278Z" fill="#F6B545"/>
<path d="M25.8178 14.1732C25.8178 8.11627 30.6634 3.2707 36.7203 3.2707C39.1431 3.2707 41.4448 4.11868 43.2618 5.45121C41.3236 3.63412 38.6586 2.42273 35.6301 2.42273C29.5731 2.42273 24.7275 7.2683 24.7275 13.3253C24.7275 16.8383 26.4235 19.9879 29.0886 22.0473C27.0292 19.9879 25.8178 17.3229 25.8178 14.1732Z" fill="#F19920"/>
<path d="M36.2356 22.4108C40.9188 22.4108 44.7154 18.6143 44.7154 13.931C44.7154 9.24781 40.9188 5.45129 36.2356 5.45129C31.5524 5.45129 27.7559 9.24781 27.7559 13.931C27.7559 18.6143 31.5524 22.4108 36.2356 22.4108Z" fill="#F19920"/>
<path d="M35.6301 21.8051C40.3134 21.8051 44.1099 18.0086 44.1099 13.3253C44.1099 8.64209 40.3134 4.84558 35.6301 4.84558C30.9469 4.84558 27.1504 8.64209 27.1504 13.3253C27.1504 18.0086 30.9469 21.8051 35.6301 21.8051Z" fill="#FFCB5B"/>
<path d="M41.6879 17.9286C41.5668 17.9286 41.4456 17.9286 41.3245 17.8075C41.0822 17.5652 40.9611 17.2018 41.2034 16.9595C41.9302 15.8692 42.2936 14.5367 42.2936 13.3253C42.2936 12.9619 42.5359 12.7196 42.8993 12.7196C43.2627 12.7196 43.505 12.9619 43.505 13.3253C43.505 14.9001 43.0204 16.3538 42.1725 17.6863C42.0513 17.8075 41.9302 17.9286 41.6879 17.9286Z" fill="#FFE27A"/>
<path d="M36.8421 12.114H34.4193C33.6925 12.114 33.2079 11.6294 33.2079 10.9026C33.2079 10.1757 33.6925 9.69118 34.4193 9.69118H38.0535C38.7803 9.69118 39.2649 9.20663 39.2649 8.47979C39.2649 7.75296 38.7803 7.2684 38.0535 7.2684H36.8421C36.8421 6.54156 36.3576 6.05701 35.6307 6.05701C34.9039 6.05701 34.4193 6.54156 34.4193 7.2684C32.36 7.2684 30.7852 8.84321 30.7852 10.9026C30.7852 12.9619 32.36 14.5368 34.4193 14.5368H36.8421C37.569 14.5368 38.0535 15.0213 38.0535 15.7481C38.0535 16.475 37.569 16.9595 36.8421 16.9595H33.2079C32.4811 16.9595 31.9965 17.4441 31.9965 18.1709C31.9965 18.8978 32.4811 19.3823 33.2079 19.3823H34.4193C34.4193 20.1092 34.9039 20.5937 35.6307 20.5937C36.3576 20.5937 36.8421 20.1092 36.8421 19.3823C38.9015 19.3823 40.4763 17.8075 40.4763 15.7481C40.4763 13.6888 38.9015 12.114 36.8421 12.114Z" fill="#F19920"/>
<path d="M48.471 9.69116H48.2288C47.7442 9.8123 47.3808 10.2969 47.5019 10.7814C47.6231 11.6294 47.7442 12.4774 47.7442 13.3253C47.7442 19.988 42.2929 25.4393 35.6303 25.4393C34.7823 25.4393 33.9343 25.3181 33.0863 25.197C32.6018 25.0758 31.9961 25.4393 31.9961 26.045V26.1661C34.54 26.8929 37.3262 26.8929 40.3547 25.8027C43.8677 24.4701 46.7751 21.5628 48.1076 18.0498C49.1979 15.0213 49.1979 12.2351 48.471 9.69116Z" fill="#F6B545"/>
<path d="M35.63 0C28.2405 0 22.3047 5.93582 22.3047 13.3253C22.9104 13.3253 23.5161 12.8408 23.5161 12.1139C23.7584 9.44886 24.8486 7.14722 26.5446 5.33013C28.4828 3.02848 31.269 1.57481 34.4186 1.21139C35.1454 1.21139 35.63 0.605696 35.63 0Z" fill="#FFE27A"/>
<path d="M28.3623 50.8785C28.3623 51.6054 28.8469 52.0899 29.5737 52.0899H38.0534C38.7803 52.0899 39.2648 52.5745 39.2648 53.3013H42.899V50.8785H28.3623Z" fill="#8D4928"/>
<path d="M43.6253 50.8785H27.6349C27.2715 50.8785 27.0292 50.6362 26.908 50.3939C25.4544 46.7597 24.7275 42.7621 24.7275 38.8857V38.7645H46.5326V38.8857C46.5326 42.8833 45.8058 46.7597 44.3521 50.3939C44.231 50.6362 43.8675 50.8785 43.6253 50.8785Z" fill="#B06328"/>
<path d="M40.4756 38.7645C40.5968 39.2491 40.4756 39.6125 40.4756 39.9759H24.7275C24.7275 40.3393 24.7275 40.8239 24.8487 41.1873H39.2642C39.9911 41.1873 40.4756 41.793 40.4756 42.5198C40.3545 44.3369 40.1122 46.154 39.6277 47.85C39.3854 48.9402 38.4163 49.6671 37.326 49.6671H26.7869C26.908 49.9093 26.908 50.1516 27.0292 50.3939C27.1503 50.6362 27.3926 50.8785 27.756 50.8785H43.6253C43.9887 50.8785 44.231 50.6362 44.3521 50.3939C45.8058 46.7597 46.5326 42.7621 46.5326 38.8857V38.7645H40.4756Z" fill="#A35425"/>
<path d="M46.5331 39.976H24.728C24.0012 39.976 23.5166 39.4915 23.5166 38.7646C23.5166 38.0378 24.0012 37.5532 24.728 37.5532H46.5331C47.2599 37.5532 47.7445 38.0378 47.7445 38.7646C47.7445 39.4915 47.2599 39.976 46.5331 39.976Z" fill="#A35425"/>
<path d="M46.5331 37.5532C46.5331 38.2801 46.0485 38.7646 45.3217 38.7646H23.5166C23.5166 39.4915 24.0012 39.976 24.728 39.976H46.4119C47.0176 39.976 47.6233 39.6126 47.6233 39.0069C47.8656 38.1589 47.2599 37.5532 46.5331 37.5532Z" fill="#8D4928"/>
<path d="M26.5451 37.5532H32.6021C32.9655 37.5532 33.2078 37.7955 33.2078 38.1589C33.2078 38.5223 32.9655 38.7646 32.6021 38.7646H26.5451C26.1817 38.7646 25.9395 38.5223 25.9395 38.1589C25.9395 37.7955 26.1817 37.5532 26.5451 37.5532Z" fill="#B06328"/>
</g>
<defs>
<clipPath id="clip0_373_1537">
<rect width="53.3013" height="53.3013" fill="white" transform="translate(0.5)"/>
</clipPath>
</defs>
</svg>
