<svg width="48" height="48" viewBox="0 0 48 48" fill="none" xmlns="http://www.w3.org/2000/svg">
<path d="M38.3926 39.3974L29.2951 38.1224C28.4176 38.0024 27.6001 38.6099 27.4801 39.4874L26.8276 44.1374C26.7076 45.0149 27.3151 45.8324 28.1926 45.9524L37.2901 47.2274C38.1676 47.3474 38.9851 46.7399 39.1051 45.8624L39.7576 41.2124C39.8776 40.3349 39.2701 39.5174 38.3926 39.3974ZM38.0251 45.4724C37.9726 45.8699 37.5976 46.1474 37.2001 46.0949L36.3226 45.9749C35.9251 45.9224 35.6476 45.5474 35.7001 45.1499L35.8201 44.2724C35.8726 43.8749 36.2476 43.5974 36.6451 43.6499L37.5226 43.7699C37.9201 43.8224 38.1976 44.1974 38.1451 44.5949L38.0251 45.4724ZM44.9326 17.1974C44.5651 17.1599 44.1976 17.2649 43.9051 17.4974C43.6126 17.7374 43.4326 18.0674 43.3876 18.4349L42.3976 25.6649L38.1301 31.0874C37.9426 31.3049 37.6276 31.3349 37.3576 31.1624C37.1026 30.9974 36.9151 30.6674 37.0501 30.3374L39.9301 26.6174C40.4401 25.9649 40.2901 25.0124 39.6076 24.5474C39.0301 24.1574 38.2651 24.2324 37.7701 24.7199L31.5676 30.9524C31.4551 31.0949 31.3576 31.2449 31.2751 31.3949C30.9376 32.0024 30.7951 32.6924 30.8776 33.3824C30.9676 34.1924 30.8251 34.9874 30.4576 35.6699L29.6851 37.0049L38.8951 38.2949C39.2326 37.8374 43.4101 33.5399 43.4101 33.5399C43.4851 33.4574 43.5601 33.3674 43.6201 33.2699L45.8701 26.9699C45.9151 26.8499 45.9451 26.7299 45.9676 26.6024L46.1851 18.7349C46.2226 18.3674 46.1176 17.9999 45.8851 17.7074C45.6451 17.4149 45.3151 17.2349 44.9476 17.1899L44.9326 17.1974Z" fill="#F99621"/>
<path d="M8.23505 41.2124L8.88755 45.8624C9.00755 46.7399 9.82505 47.3549 10.7026 47.2274L19.8001 45.9524C20.6776 45.8324 21.2926 45.0149 21.1651 44.1374L20.5126 39.4874C20.3926 38.6099 19.5751 37.9949 18.6976 38.1224L9.60005 39.3974C8.72255 39.5174 8.10755 40.3349 8.23505 41.2124ZM9.84755 44.5949C9.79505 44.1974 10.0726 43.8299 10.4701 43.7699L11.3476 43.6499C11.7451 43.5974 12.1126 43.8749 12.1726 44.2724L12.2926 45.1499C12.3451 45.5474 12.0676 45.9149 11.6701 45.9749L10.7926 46.0949C10.3951 46.1474 10.0276 45.8699 9.96755 45.4724L9.84755 44.5949ZM3.06755 17.1974C3.43505 17.1599 3.80255 17.2649 4.09505 17.4974C4.38755 17.7374 4.56755 18.0674 4.61255 18.4349L5.60255 25.6649L9.87005 31.0874C10.0576 31.3049 10.3726 31.3349 10.6426 31.1624C10.8976 30.9974 11.0851 30.6674 10.9501 30.3374L8.07005 26.6174C7.56005 25.9649 7.71005 25.0124 8.39255 24.5474C8.97005 24.1574 9.73505 24.2324 10.2301 24.7199L16.4326 30.9524C16.5451 31.0949 16.6426 31.2449 16.7251 31.3949C17.0626 32.0024 17.2051 32.6924 17.1226 33.3824C17.0326 34.1924 17.1751 34.9874 17.5426 35.6699L18.3151 37.0049L9.10505 38.2949C8.76755 37.8374 4.59005 33.5399 4.59005 33.5399C4.51505 33.4574 4.44005 33.3674 4.38005 33.2699L2.13005 26.9699C2.08505 26.8499 2.05505 26.7299 2.03255 26.6024L1.81505 18.7349C1.77755 18.3674 1.88255 17.9999 2.11505 17.7074C2.35505 17.4149 2.68505 17.2349 3.05255 17.1899L3.06755 17.1974Z" fill="#F99621"/>
<path d="M33.3749 1.74749C32.3624 2.29499 31.1999 2.60999 29.9624 2.60999C28.0124 2.60999 26.2424 2.20499 24.9449 1.10999C24.3899 0.63749 23.6024 0.63749 23.0474 1.10999C21.7499 2.21249 19.9799 2.60999 18.0299 2.60999C16.7924 2.60999 15.6374 2.29499 14.6174 1.74749C13.6949 1.24499 12.5774 1.92749 12.5774 2.97749V16.1775C12.5774 20.8875 15.2849 25.17 19.5299 27.195L23.9849 29.3175L28.4399 27.195C32.6924 25.17 35.3924 20.8875 35.3924 16.1775V2.97749C35.3924 1.92749 34.2749 1.24499 33.3524 1.74749H33.3749ZM30.2174 11.3325L23.4149 19.8525C23.1974 20.1225 22.8599 20.2875 22.5149 20.2875H22.4999C22.1399 20.2875 21.8024 20.1075 21.5924 19.8225L17.7974 15.2325C17.5124 14.8575 17.5199 14.3925 17.7974 14.0475C18.0749 13.7025 18.5249 13.59 18.9299 13.77L22.4399 16.5225L28.8749 10.005C29.2949 9.68999 29.8199 9.72749 30.1574 10.0725C30.4949 10.425 30.5249 10.95 30.2174 11.3325Z" fill="#1E1E1E"/>
</svg>
