<svg width="54" height="54" viewBox="0 0 54 54" fill="none" xmlns="http://www.w3.org/2000/svg">
<path d="M47.8901 33.7127V23.4138C47.8901 21.6437 46.4418 20.1954 44.6717 20.1954H26.3268C25.6027 20.1954 24.8786 19.954 24.3153 19.4713L21.4992 17.2184C20.936 16.7356 20.2119 16.4943 19.4877 16.4943H9.02797C7.25785 16.4943 5.80957 17.9425 5.80957 19.7127V33.6322H47.8901V33.7127Z" fill="#F9A846"/>
<path d="M12.0858 33.7932H38.0744C39.5227 33.7932 40.7296 32.5863 40.7296 31.138V29.4483V7.6437C40.7296 6.19542 39.5227 4.98853 38.0744 4.98853H12.0858C10.6376 4.98853 9.43066 6.19542 9.43066 7.6437V31.138C9.43066 32.5863 10.5571 33.7932 12.0858 33.7932Z" fill="#ABB734"/>
<path d="M44.6725 8.52873V25.7471C44.6725 27.1954 43.4656 28.4023 42.0174 28.4023H16.1093C14.661 28.4023 13.4541 31.0575 13.4541 29.6092V4.02297C13.4541 2.5747 14.661 1.3678 16.1093 1.3678H37.5116L44.6725 8.52873Z" fill="#F4F4F4"/>
<path d="M44.6726 8.52883L37.5117 1.44836V6.43688C37.5117 7.64377 38.4772 8.60929 39.6841 8.60929H44.6726V8.52883Z" fill="#FA4968"/>
<path d="M6.37405 27.9196C12.2476 27.9196 23.8338 27.9196 27.535 27.9196C28.2591 27.9196 28.9833 27.6783 29.5465 27.1955L33.0867 24.3794C33.6499 23.8967 34.3741 23.6553 35.0982 23.6553H47.5695C49.5005 23.6553 51.0293 25.3449 50.7879 27.276L48.2132 48.8392C48.0523 50.4484 46.604 51.6553 44.9948 51.6553C37.2706 51.6553 16.3511 51.6553 8.62692 51.6553C7.01773 51.6553 5.64991 50.4484 5.40853 48.8392L3.31657 31.3794C3.15565 29.5288 4.52347 27.9196 6.37405 27.9196Z" fill="#FFB95C"/>
<g opacity="0.4">
<path d="M7.17836 43.0461C6.85653 43.0461 6.61515 42.8047 6.61515 42.4829L5.81055 34.3564C5.81055 34.0346 6.05193 33.7128 6.37377 33.7128C6.69561 33.7128 7.01745 33.9541 7.01745 34.276L7.82204 42.4024C7.82204 42.7243 7.58066 43.0461 7.17836 43.0461ZM7.74158 48.5174C7.41974 48.5174 7.17836 48.276 7.17836 47.9542L7.01745 46.345C7.01745 46.0231 7.25882 45.7013 7.58066 45.7013C7.9025 45.7013 8.22434 45.9427 8.22434 46.2645L8.38526 47.8737C8.38526 48.1955 8.14388 48.5174 7.74158 48.5174Z" fill="white"/>
</g>
<path d="M22.9478 17.4598C26.1917 17.4598 28.8214 14.8301 28.8214 11.5862C28.8214 8.34233 26.1917 5.71265 22.9478 5.71265C19.7039 5.71265 17.0742 8.34233 17.0742 11.5862C17.0742 14.8301 19.7039 17.4598 22.9478 17.4598Z" fill="#6CD8D5"/>
<path d="M25.2013 10.6207C25.2013 11.8276 24.2358 12.7931 23.0289 12.7931C21.822 12.7931 20.8564 11.8276 20.8564 10.6207C20.8564 9.41381 21.822 8.44829 23.0289 8.44829C24.2358 8.36783 25.2013 9.33335 25.2013 10.6207Z" fill="#425060"/>
<path d="M26.8103 15.8507C26.8103 15.9311 26.8103 16.0116 26.8103 16.092C25.7643 16.9771 24.477 17.4599 23.0287 17.4599C21.5804 17.4599 20.2126 16.8966 19.2471 16.092C19.2471 16.0116 19.2471 15.9311 19.2471 15.8507C19.2471 13.7587 20.9367 13.5978 23.0287 13.5978C25.1206 13.5978 26.8103 13.7587 26.8103 15.8507Z" fill="#FECD04"/>
<path d="M41.0514 21.161H17.0743C16.7525 21.161 16.4307 20.9196 16.4307 20.5173C16.4307 20.1954 16.672 19.8736 17.0743 19.8736H41.0514C41.3732 19.8736 41.6951 20.115 41.6951 20.5173C41.6146 20.9196 41.3732 21.161 41.0514 21.161ZM27.856 24.3793H17.0743C16.7525 24.3793 16.4307 24.138 16.4307 23.7357C16.4307 23.4138 16.672 23.092 17.0743 23.092H27.856C28.1778 23.092 28.4996 23.3334 28.4996 23.7357C28.4192 24.138 28.1778 24.3793 27.856 24.3793ZM34.2928 8.20691H31.9594C31.6376 8.20691 31.3157 7.96553 31.3157 7.56323C31.3157 7.24139 31.5571 6.91956 31.9594 6.91956H34.2928C34.6146 6.91956 34.9364 7.16093 34.9364 7.56323C34.9364 7.88507 34.6146 8.20691 34.2928 8.20691ZM37.4307 12.2299H31.9594C31.6376 12.2299 31.3157 11.9885 31.3157 11.5862C31.3157 11.2644 31.5571 10.9425 31.9594 10.9425H37.4307C37.7525 10.9425 38.0744 11.1839 38.0744 11.5862C38.0744 11.9885 37.833 12.2299 37.4307 12.2299ZM41.0514 16.2529H31.9594C31.6376 16.2529 31.3157 16.0115 31.3157 15.6092C31.3157 15.2874 31.5571 14.9655 31.9594 14.9655H41.0514C41.3732 14.9655 41.6951 15.2069 41.6951 15.6092C41.6146 16.0115 41.3732 16.2529 41.0514 16.2529Z" fill="#CCCACA"/>
<path d="M36.8676 37.8162V43.6093C36.8676 44.3334 36.2239 44.8966 35.4997 44.8966C32.925 44.7357 30.2699 45.6208 27.8561 48.0346C27.3733 48.5173 26.6492 48.5173 26.1664 48.115C24.7181 46.9081 21.7411 44.8162 18.6032 44.8966C17.879 44.8966 17.2354 44.3334 17.2354 43.6093V37.8162H36.8676Z" fill="#559AFF"/>
<path d="M27.0522 31.4598L11.9258 36.4484L27.0522 41.5173L42.1787 36.4484L27.0522 31.4598Z" fill="#525F70"/>
<path opacity="0.4" d="M20.2126 36.8507C19.9713 36.8507 19.7299 36.6898 19.6494 36.4484C19.569 36.1265 19.7299 35.8047 20.0517 35.7242L26.8908 33.4714C27.0517 33.3909 27.1322 33.3909 27.2931 33.4714L28.6609 33.9541C28.9828 34.0346 29.1437 34.4369 29.0632 34.6783C28.9828 35.0001 28.5805 35.161 28.3391 35.0806L27.0517 34.5978L20.454 36.7702C20.3735 36.8507 20.2931 36.8507 20.2126 36.8507ZM33.8908 36.8507C33.8103 36.8507 33.7299 36.8507 33.7299 36.8507L32.1207 36.2875C31.7989 36.207 31.6379 35.8047 31.7184 35.5633C31.7989 35.2415 32.2012 35.0806 32.4425 35.161L34.0517 35.7242C34.3736 35.8047 34.5345 36.207 34.454 36.4484C34.3736 36.6898 34.1322 36.8507 33.8908 36.8507Z" fill="white"/>
<path d="M40.9711 36.046C40.8906 36.1265 40.8906 36.2069 40.8906 36.3679V36.9311V41.3564V41.4368C40.9711 41.6782 41.2125 41.9196 41.4538 41.9196C41.7757 41.9196 42.0171 41.6782 42.0171 41.4368V41.3564V36.5288V36.4483L40.9711 36.046Z" fill="#525F70"/>
<path d="M42.9825 42.8047C42.9825 43.6093 42.3388 44.253 41.5342 44.253C40.7296 44.253 40.0859 43.6093 40.0859 42.8047C40.0859 42.0001 40.7296 41.3564 41.5342 41.3564C42.3388 41.3564 42.9825 42.0001 42.9825 42.8047Z" fill="#FA4968"/>
</svg>
