<svg width="44" height="43" viewBox="0 0 44 43" fill="none" xmlns="http://www.w3.org/2000/svg">
<g clip-path="url(#clip0_373_1602)">
<path opacity="0.3" d="M11.8697 15.1931C11.8302 15.0757 11.7593 14.9715 11.6647 14.8916C11.5701 14.8118 11.4553 14.7595 11.333 14.7403L8.6734 14.3345L7.47941 11.7889C7.42524 11.6737 7.33939 11.5762 7.23189 11.508C7.12439 11.4397 6.99969 11.4035 6.87236 11.4035C6.74502 11.4035 6.62032 11.4397 6.51282 11.508C6.40532 11.5762 6.31947 11.6737 6.2653 11.7889L5.06796 14.3345L2.41168 14.7403C2.28935 14.7586 2.17446 14.8104 2.07973 14.89C1.98499 14.9695 1.9141 15.0737 1.87487 15.191C1.83565 15.3083 1.82964 15.4342 1.85749 15.5547C1.88534 15.6752 1.94597 15.7857 2.03269 15.8739L3.97459 17.8661L3.51511 20.6868C3.49563 20.8106 3.51104 20.9374 3.55962 21.0529C3.6082 21.1684 3.68803 21.2681 3.79013 21.3408C3.90351 21.4221 4.03966 21.4655 4.17918 21.4649C4.29196 21.4653 4.40292 21.4364 4.50115 21.381L6.87236 20.0697L9.24356 21.381C9.35373 21.4423 9.47904 21.471 9.6049 21.4639C9.73076 21.4568 9.85202 21.4141 9.95458 21.3408C10.0567 21.2681 10.1365 21.1684 10.1851 21.0529C10.2337 20.9374 10.2491 20.8106 10.2296 20.6868L9.76676 17.8661L11.712 15.8739C11.7982 15.7858 11.8585 15.6757 11.8863 15.5556C11.9141 15.4355 11.9083 15.3101 11.8697 15.1931ZM8.57278 17.1719C8.49865 17.2466 8.44329 17.3379 8.41123 17.4382C8.37917 17.5384 8.37131 17.6449 8.38832 17.7488L8.68346 19.5397L7.19768 18.718C7.09843 18.662 6.98636 18.6325 6.87236 18.6325C6.75835 18.6325 6.64629 18.662 6.54703 18.718L5.06125 19.5397L5.35304 17.7488C5.36985 17.6451 5.36223 17.539 5.33079 17.4389C5.29935 17.3387 5.24495 17.2473 5.17193 17.1719L3.90416 15.8706L5.62471 15.609C5.73351 15.5916 5.83645 15.548 5.92466 15.4819C6.01288 15.4159 6.08374 15.3295 6.13115 15.23L6.87236 13.6537L7.61021 15.23C7.65803 15.3292 7.72901 15.4154 7.81716 15.4813C7.9053 15.5473 8.00802 15.5911 8.11665 15.609L9.84055 15.8706L8.57278 17.1719ZM6.50343 2.92121C6.46383 2.80427 6.39281 2.70048 6.29816 2.62121C6.20351 2.54195 6.08888 2.49025 5.9668 2.47178L4.69903 2.27726L4.12552 1.05644C4.07135 0.941205 3.9855 0.843766 3.878 0.775515C3.7705 0.707264 3.6458 0.671021 3.51846 0.671021C3.39113 0.671021 3.26643 0.707264 3.15893 0.775515C3.05143 0.843766 2.96558 0.941205 2.91141 1.05644L2.33789 2.27726L1.07012 2.47178C0.947987 2.48976 0.833214 2.54121 0.73853 2.62043C0.643846 2.69965 0.57295 2.80354 0.533702 2.92059C0.494455 3.03763 0.488389 3.16326 0.516177 3.28355C0.543966 3.40383 0.604523 3.51407 0.691134 3.60205L1.62687 4.56461L1.40551 5.92965C1.38631 6.05392 1.40184 6.18108 1.45037 6.29709C1.4989 6.41309 1.57856 6.51343 1.68053 6.58701C1.7837 6.65912 1.90505 6.70081 2.03076 6.70734C2.15646 6.71386 2.28148 6.68495 2.39156 6.6239L3.51846 6.00008L4.64537 6.6239C4.75557 6.68509 4.88086 6.71378 5.00671 6.70666C5.13255 6.69954 5.2538 6.65689 5.3564 6.58365C5.4585 6.51098 5.53832 6.41128 5.5869 6.29576C5.63548 6.18023 5.6509 6.05345 5.63142 5.92965L5.40671 4.56461L6.3458 3.60205C6.4321 3.51401 6.49247 3.40388 6.52028 3.28378C6.54809 3.16367 6.54226 3.03822 6.50343 2.92121ZM4.21272 3.87036C4.1386 3.94511 4.08323 4.03636 4.05117 4.13663C4.01911 4.2369 4.01125 4.34334 4.02826 4.44723L4.08527 4.78262L3.84379 4.64846C3.74453 4.59238 3.63247 4.56292 3.51846 4.56292C3.40446 4.56292 3.29239 4.59238 3.19314 4.64846L2.95166 4.78262L3.00532 4.44723C3.02186 4.34361 3.01412 4.23757 2.98269 4.13747C2.95126 4.03736 2.89701 3.94592 2.82421 3.87036L2.56261 3.60205L2.89464 3.55174C3.00327 3.53382 3.10599 3.49004 3.19413 3.42408C3.28228 3.35811 3.35326 3.27191 3.40108 3.17275L3.51846 2.92121L3.63585 3.17275C3.68328 3.2722 3.75414 3.35865 3.84236 3.42466C3.93057 3.49068 4.0335 3.53428 4.14229 3.55174L4.47432 3.60205L4.21272 3.87036ZM17.9067 5.19179C17.8667 5.07477 17.7956 4.97082 17.7011 4.89106C17.6065 4.81131 17.4921 4.75875 17.37 4.73901L15.8708 4.51095L15.1934 3.06878C15.1392 2.95354 15.0533 2.8561 14.9458 2.78785C14.8383 2.7196 14.7136 2.68336 14.5863 2.68336C14.459 2.68336 14.3343 2.7196 14.2268 2.78785C14.1193 2.8561 14.0334 2.95354 13.9793 3.06878L13.3018 4.51095L11.8026 4.73901C11.6805 4.75875 11.5661 4.81131 11.4715 4.89106C11.377 4.97082 11.306 5.07477 11.266 5.19179C11.2273 5.30882 11.2215 5.43423 11.2493 5.55431C11.2771 5.67439 11.3374 5.78451 11.4236 5.87263L12.527 7.00624L12.2654 8.61276C12.2458 8.73691 12.2615 8.86408 12.3107 8.97974C12.3599 9.09539 12.4407 9.19486 12.5438 9.26677C12.6457 9.34012 12.7664 9.38288 12.8918 9.39001C13.0171 9.39713 13.1419 9.36834 13.2515 9.30701L14.5863 8.56916L15.9212 9.30701C16.0194 9.36241 16.1303 9.3913 16.2431 9.39086C16.3826 9.3915 16.5188 9.34807 16.6322 9.26677C16.7343 9.19409 16.8141 9.0944 16.8627 8.97887C16.9113 8.86334 16.9267 8.73656 16.9072 8.61276L16.6422 7.00624L17.749 5.87263C17.8352 5.78451 17.8955 5.67439 17.9233 5.55431C17.9511 5.43423 17.9453 5.30882 17.9067 5.19179ZM15.4483 6.31199C15.3741 6.38674 15.3188 6.47799 15.2867 6.57826C15.2546 6.67853 15.2468 6.78497 15.2638 6.88886L15.3611 7.46573L14.9116 7.21754C14.8124 7.16146 14.7003 7.132 14.5863 7.132C14.4723 7.132 14.3602 7.16146 14.261 7.21754L13.8116 7.46573L13.9055 6.88551C13.922 6.78241 13.9142 6.67688 13.8828 6.57731C13.8513 6.47775 13.7971 6.38689 13.7244 6.31199L13.2951 5.86928L13.8585 5.78543C13.9671 5.76752 14.0699 5.72373 14.158 5.65777C14.2461 5.5918 14.3171 5.5056 14.3649 5.40644L14.5863 4.93354L14.8077 5.40644C14.8551 5.50589 14.926 5.59234 15.0142 5.65835C15.1024 5.72437 15.2053 5.76798 15.3141 5.78543L15.8776 5.86928L15.4483 6.31199ZM43.3962 2.92121C43.3566 2.80427 43.2856 2.70048 43.191 2.62121C43.0963 2.54195 42.9817 2.49025 42.8596 2.47178L41.5918 2.27726L41.0183 1.05644C40.9642 0.941205 40.8783 0.843766 40.7708 0.775515C40.6633 0.707264 40.5386 0.671021 40.4113 0.671021C40.2839 0.671021 40.1592 0.707264 40.0517 0.775515C39.9442 0.843766 39.8584 0.941205 39.8042 1.05644L39.2307 2.27726L37.9629 2.47178C37.8408 2.48976 37.726 2.54121 37.6313 2.62043C37.5367 2.69965 37.4658 2.80354 37.4265 2.92059C37.3873 3.03763 37.3812 3.16326 37.409 3.28355C37.4368 3.40383 37.4973 3.51407 37.5839 3.60205L38.523 4.56461L38.2983 5.92965C38.2788 6.05345 38.2943 6.18023 38.3428 6.29576C38.3914 6.41128 38.4712 6.51098 38.5733 6.58365C38.6759 6.65689 38.7972 6.69954 38.923 6.70666C39.0489 6.71378 39.1742 6.68509 39.2844 6.6239L40.4113 6.00008L41.5382 6.6239C41.6483 6.68495 41.7733 6.71386 41.899 6.70734C42.0247 6.70081 42.146 6.65912 42.2492 6.58701C42.3512 6.51343 42.4308 6.41309 42.4794 6.29709C42.5279 6.18108 42.5434 6.05392 42.5242 5.92965L42.3029 4.56461L43.2386 3.60205C43.3249 3.51401 43.3853 3.40388 43.4131 3.28378C43.4409 3.16367 43.4351 3.03822 43.3962 2.92121ZM41.1055 3.87036C41.0327 3.94592 40.9785 4.03736 40.947 4.13747C40.9156 4.23757 40.9079 4.34361 40.9244 4.44723L40.9781 4.78262L40.7366 4.64846C40.637 4.59347 40.5251 4.56462 40.4113 4.56462C40.2975 4.56462 40.1856 4.59347 40.0859 4.64846L39.8445 4.78262L39.9015 4.44723C39.9185 4.34334 39.9106 4.2369 39.8786 4.13663C39.8465 4.03636 39.7911 3.94511 39.717 3.87036L39.4554 3.60205L39.7874 3.55174C39.8962 3.53428 39.9992 3.49068 40.0874 3.42466C40.1756 3.35865 40.2465 3.2722 40.2939 3.17275L40.4113 2.92121L40.5287 3.17275C40.5765 3.27191 40.6475 3.35811 40.7356 3.42408C40.8237 3.49004 40.9265 3.53382 41.0351 3.55174L41.3671 3.60205L41.1055 3.87036ZM32.6638 4.10513C32.6242 3.98819 32.5532 3.88441 32.4585 3.80514C32.3639 3.72587 32.2492 3.67417 32.1272 3.65571L30.3965 3.39075L29.6151 1.72722C29.5609 1.61198 29.4751 1.51454 29.3676 1.44629C29.2601 1.37804 29.1354 1.3418 29.008 1.3418C28.8807 1.3418 28.756 1.37804 28.6485 1.44629C28.541 1.51454 28.4552 1.61198 28.401 1.72722L27.6195 3.39075L25.8889 3.65571C25.7668 3.67368 25.652 3.72513 25.5573 3.80435C25.4626 3.88357 25.3917 3.98746 25.3525 4.10451C25.3133 4.22156 25.3072 4.34719 25.335 4.46747C25.3628 4.58776 25.4233 4.698 25.5099 4.78597L26.7844 6.09063L26.4792 7.94198C26.4596 8.06613 26.4753 8.1933 26.5245 8.30896C26.5737 8.42461 26.6545 8.52408 26.7576 8.59599C26.8695 8.67769 27.0047 8.7212 27.1433 8.72008C27.2571 8.72014 27.369 8.69129 27.4686 8.63624L29.008 7.78435L30.5475 8.63624C30.6578 8.6965 30.7828 8.7247 30.9083 8.71766C31.0338 8.71063 31.1549 8.66863 31.2578 8.59642C31.3607 8.52421 31.4414 8.42466 31.4907 8.30901C31.54 8.19337 31.556 8.06624 31.5369 7.94198L31.235 6.09063L32.5061 4.78597C32.5923 4.69785 32.6526 4.58773 32.6804 4.46765C32.7082 4.34757 32.7025 4.22216 32.6638 4.10513ZM30.0377 5.39638C29.9649 5.47194 29.9106 5.56338 29.8792 5.66349C29.8478 5.76359 29.84 5.86963 29.8566 5.97325L29.9907 6.79495L29.3334 6.43273C29.2338 6.37774 29.1218 6.34889 29.008 6.34889C28.8943 6.34889 28.7823 6.37774 28.6827 6.43273L28.0287 6.79495L28.1629 5.97325C28.1796 5.86936 28.1716 5.76299 28.1396 5.66276C28.1075 5.56253 28.0523 5.47127 27.9784 5.39638L27.3814 4.78262L28.1763 4.66188C28.2851 4.64573 28.3882 4.60301 28.4765 4.53749C28.5649 4.47197 28.6357 4.38567 28.6827 4.28624L29.008 3.59198L29.3334 4.28624C29.3804 4.38567 29.4512 4.47197 29.5395 4.53749C29.6279 4.60301 29.731 4.64573 29.8398 4.66188L30.6347 4.78262L30.0377 5.39638ZM43.3962 13.8683C43.3566 13.7514 43.2856 13.6476 43.191 13.5683C43.0963 13.489 42.9817 13.4373 42.8596 13.4189L39.2743 12.8722L37.6644 9.44117C37.6103 9.32593 37.5244 9.22849 37.4169 9.16024C37.3094 9.09199 37.1847 9.05575 37.0574 9.05575C36.93 9.05575 36.8053 9.09199 36.6978 9.16024C36.5903 9.22849 36.5045 9.32593 36.4503 9.44117L34.8405 12.8722L31.2551 13.4189C31.133 13.4369 31.0182 13.4883 30.9236 13.5675C30.8289 13.6467 30.758 13.7506 30.7187 13.8677C30.6795 13.9847 30.6734 14.1104 30.7012 14.2307C30.729 14.3509 30.7895 14.4612 30.8762 14.5491L33.4888 17.2323L32.8717 21.0222C32.8522 21.146 32.8677 21.2727 32.9162 21.3883C32.9648 21.5038 33.0446 21.6035 33.1467 21.6762C33.2493 21.7495 33.3705 21.7922 33.4964 21.7994C33.6223 21.8065 33.7476 21.7777 33.8578 21.7164L37.0574 19.9489L40.257 21.7164C40.3552 21.7718 40.4662 21.8007 40.579 21.8003C40.7185 21.8009 40.8546 21.7575 40.968 21.6762C41.0701 21.6035 41.1499 21.5038 41.1985 21.3883C41.2471 21.2727 41.2625 21.146 41.243 21.0222L40.6226 17.2323L43.2386 14.5491C43.3249 14.4611 43.3853 14.351 43.4131 14.2309C43.4409 14.1108 43.4351 13.9853 43.3962 13.8683ZM39.4252 16.5346C39.3526 16.6104 39.2985 16.7018 39.2671 16.8019C39.2357 16.9019 39.2278 17.0079 39.2441 17.1115L39.6969 19.8751L37.3827 18.5939C37.2829 18.5395 37.1711 18.5109 37.0574 18.5109C36.9437 18.5109 36.8318 18.5395 36.7321 18.5939L34.4179 19.8751L34.8673 17.1115C34.8836 17.0079 34.8757 16.9019 34.8443 16.8019C34.8129 16.7018 34.7588 16.6104 34.6862 16.5346L32.7476 14.5491L35.3972 14.1433C35.5063 14.1267 35.6096 14.0834 35.6979 14.0173C35.7862 13.9512 35.8569 13.8643 35.9036 13.7643L37.0574 11.3059L38.2111 13.7643C38.2574 13.8646 38.328 13.9517 38.4164 14.0179C38.5048 14.0841 38.6083 14.1272 38.7176 14.1433L41.3671 14.5491L39.4252 16.5346Z" fill="#1C2A35"/>
<path d="M38.0068 40.2065C38.0068 42.4033 35.4377 42.0914 35.4377 42.0914C35.4377 42.0914 13.0773 42.3161 9.38806 42.0914C5.69878 41.8666 6.14484 40.5251 6.14484 40.5251V33.0694C7.24157 27.5388 13.2517 24.7484 16.1529 23.7053C16.3541 23.8764 16.5654 24.034 16.78 24.1883C17.3028 24.5565 17.8639 24.8669 18.4536 25.114C19.5654 25.5838 20.7602 25.8256 21.9672 25.825C23.1741 25.8244 24.3687 25.5815 25.48 25.1106H25.4834C26.0549 24.8709 26.5991 24.5706 27.1067 24.2151C27.2911 24.0877 27.4722 23.9535 27.6466 23.8126C39.1974 27.0559 38.0068 38.0097 38.0068 40.2065Z" fill="#FC785E"/>
<path d="M21.9653 25.825C21.4646 25.8245 20.9647 25.7825 20.4708 25.6995L19.2822 33.7905L21.9653 36.1801L24.6065 33.6647L23.3032 25.7254C22.8603 25.7915 22.4131 25.8248 21.9653 25.825Z" fill="#FFDB80"/>
<path d="M11.8692 14.5223C11.8298 14.405 11.7589 14.3007 11.6643 14.2209C11.5696 14.1411 11.4549 14.0887 11.3326 14.0696L8.67298 13.6638L7.47899 11.1181C7.42482 11.0029 7.33897 10.9055 7.23147 10.8372C7.12397 10.769 6.99927 10.7327 6.87194 10.7327C6.7446 10.7327 6.6199 10.769 6.5124 10.8372C6.4049 10.9055 6.31905 11.0029 6.26488 11.1181L5.06754 13.6638L2.41126 14.0696C2.28893 14.0879 2.17404 14.1397 2.07931 14.2192C1.98457 14.2988 1.91368 14.403 1.87445 14.5203C1.83523 14.6376 1.82922 14.7635 1.85707 14.884C1.88492 15.0045 1.94555 15.115 2.03227 15.2032L3.97417 17.1954L3.51469 20.016C3.49521 20.1398 3.51062 20.2666 3.5592 20.3821C3.60778 20.4977 3.68761 20.5974 3.78971 20.67C3.90309 20.7513 4.03924 20.7948 4.17876 20.7941C4.29154 20.7946 4.4025 20.7657 4.50073 20.7103L6.87194 19.3989L9.24314 20.7103C9.35331 20.7715 9.47862 20.8003 9.60448 20.7932C9.73034 20.786 9.8516 20.7433 9.95416 20.67C10.0563 20.5974 10.1361 20.4977 10.1847 20.3821C10.2332 20.2666 10.2487 20.1398 10.2292 20.016L9.76634 17.1954L11.7116 15.2032C11.7978 15.1151 11.8581 15.0049 11.8859 14.8849C11.9137 14.7648 11.9079 14.6394 11.8692 14.5223ZM8.57236 16.5011C8.49823 16.5759 8.44287 16.6671 8.41081 16.7674C8.37875 16.8677 8.37089 16.9741 8.38789 17.078L8.68304 18.869L7.19726 18.0473C7.098 17.9912 6.98594 17.9617 6.87194 17.9617C6.75793 17.9617 6.64587 17.9912 6.54661 18.0473L5.06083 18.869L5.35262 17.078C5.36943 16.9744 5.36181 16.8683 5.33037 16.7681C5.29893 16.668 5.24453 16.5766 5.17151 16.5011L3.90374 15.1998L5.62429 14.9382C5.73309 14.9208 5.83602 14.8772 5.92424 14.8112C6.01246 14.7452 6.08332 14.6587 6.13073 14.5592L6.87194 12.9829L7.60979 14.5592C7.65761 14.6584 7.72859 14.7446 7.81674 14.8106C7.90488 14.8765 8.0076 14.9203 8.11623 14.9382L9.84013 15.1998L8.57236 16.5011Z" fill="#2D4356"/>
<path d="M8.38845 17.078L8.68359 18.869L7.19782 18.0473C7.09856 17.9912 6.98649 17.9617 6.87249 17.9617C6.75849 17.9617 6.64642 17.9912 6.54716 18.0473L5.06139 18.869L5.35318 17.078C5.36999 16.9744 5.36237 16.8683 5.33092 16.7681C5.29948 16.668 5.24508 16.5766 5.17207 16.5011L3.9043 15.1998L5.62484 14.9382C5.73364 14.9208 5.83658 14.8772 5.9248 14.8112C6.01302 14.7452 6.08388 14.6587 6.13128 14.5592L6.87249 12.9829L7.61035 14.5592C7.65817 14.6584 7.72915 14.7446 7.81729 14.8106C7.90544 14.8765 8.00816 14.9203 8.11678 14.9382L9.84068 15.1998L8.57291 16.5011C8.49879 16.5759 8.44343 16.6671 8.41136 16.7674C8.3793 16.8677 8.37145 16.9741 8.38845 17.078Z" fill="#FFDB80"/>
<path d="M6.50343 2.25043C6.46383 2.13349 6.39281 2.02971 6.29816 1.95044C6.20351 1.87117 6.08888 1.81947 5.9668 1.80101L4.69903 1.60648L4.12552 0.385666C4.07135 0.270428 3.9855 0.17299 3.878 0.104739C3.7705 0.0364877 3.6458 0.000244141 3.51846 0.000244141C3.39113 0.000244141 3.26643 0.0364877 3.15893 0.104739C3.05143 0.17299 2.96558 0.270428 2.91141 0.385666L2.33789 1.60648L1.07012 1.80101C0.947987 1.81898 0.833214 1.87043 0.73853 1.94965C0.643846 2.02887 0.57295 2.13276 0.533702 2.24981C0.494455 2.36686 0.488389 2.49249 0.516177 2.61277C0.543966 2.73306 0.604523 2.8433 0.691134 2.93127L1.62687 3.89384L1.40551 5.25887C1.38631 5.38314 1.40184 5.51031 1.45037 5.62631C1.4989 5.74232 1.57856 5.84265 1.68053 5.91623C1.7837 5.98835 1.90505 6.03004 2.03076 6.03656C2.15646 6.04308 2.28148 6.01417 2.39156 5.95312L3.51846 5.3293L4.64537 5.95312C4.75557 6.01431 4.88086 6.04301 5.00671 6.03588C5.13255 6.02876 5.2538 5.98611 5.3564 5.91288C5.4585 5.8402 5.53832 5.74051 5.5869 5.62498C5.63548 5.50945 5.6509 5.38267 5.63142 5.25887L5.40671 3.89384L6.3458 2.93127C6.4321 2.84323 6.49247 2.73311 6.52028 2.613C6.54809 2.49289 6.54226 2.36744 6.50343 2.25043ZM4.21272 3.19958C4.1386 3.27433 4.08323 3.36558 4.05117 3.46585C4.01911 3.56612 4.01125 3.67256 4.02826 3.77645L4.08527 4.11184L3.84379 3.97768C3.74453 3.92161 3.63247 3.89214 3.51846 3.89214C3.40446 3.89214 3.29239 3.92161 3.19314 3.97768L2.95166 4.11184L3.00532 3.77645C3.02186 3.67284 3.01412 3.5668 2.98269 3.46669C2.95126 3.36658 2.89701 3.27514 2.82421 3.19958L2.56261 2.93127L2.89464 2.88096C3.00327 2.86305 3.10599 2.81926 3.19413 2.7533C3.28228 2.68734 3.35326 2.60114 3.40108 2.50197L3.51846 2.25043L3.63585 2.50197C3.68328 2.60142 3.75414 2.68787 3.84236 2.75388C3.93057 2.8199 4.0335 2.86351 4.14229 2.88096L4.47432 2.93127L4.21272 3.19958Z" fill="#2D4356"/>
<path d="M4.21261 3.19964C4.13849 3.27439 4.08313 3.36564 4.05106 3.46591C4.019 3.56618 4.01115 3.67262 4.02815 3.77651L4.08517 4.1119L3.84369 3.97774C3.74443 3.92167 3.63236 3.8922 3.51836 3.8922C3.40436 3.8922 3.29229 3.92167 3.19303 3.97774L2.95155 4.1119L3.00521 3.77651C3.02176 3.6729 3.01401 3.56686 2.98258 3.46675C2.95115 3.36664 2.8969 3.2752 2.8241 3.19964L2.5625 2.93133L2.89454 2.88102C3.00316 2.86311 3.10588 2.81932 3.19403 2.75336C3.28217 2.6874 3.35315 2.60119 3.40097 2.50203L3.51836 2.25049L3.63575 2.50203C3.68317 2.60148 3.75404 2.68793 3.84225 2.75394C3.93047 2.81996 4.03339 2.86357 4.14218 2.88102L4.47422 2.93133L4.21261 3.19964Z" fill="#FFDB80"/>
<path d="M17.9071 4.52101C17.8671 4.40398 17.796 4.30004 17.7015 4.22028C17.607 4.14053 17.4925 4.08797 17.3705 4.06823L15.8713 3.84017L15.1938 2.39799C15.1396 2.28276 15.0538 2.18532 14.9463 2.11707C14.8388 2.04882 14.7141 2.01257 14.5867 2.01257C14.4594 2.01257 14.3347 2.04882 14.2272 2.11707C14.1197 2.18532 14.0338 2.28276 13.9797 2.39799L13.3022 3.84017L11.803 4.06823C11.6809 4.08797 11.5665 4.14053 11.472 4.22028C11.3774 4.30004 11.3064 4.40398 11.2664 4.52101C11.2277 4.63804 11.2219 4.76345 11.2497 4.88353C11.2775 5.0036 11.3378 5.11373 11.424 5.20185L12.5274 6.33546L12.2658 7.94198C12.2462 8.06613 12.2619 8.1933 12.3111 8.30895C12.3603 8.42461 12.4411 8.52408 12.5442 8.59599C12.6461 8.66934 12.7668 8.71209 12.8922 8.71922C13.0175 8.72635 13.1423 8.69756 13.2519 8.63623L14.5867 7.89838L15.9216 8.63623C16.0198 8.69163 16.1308 8.72052 16.2435 8.72008C16.3831 8.72072 16.5192 8.67729 16.6326 8.59599C16.7347 8.52331 16.8145 8.42361 16.8631 8.30809C16.9117 8.19256 16.9271 8.06578 16.9076 7.94198L16.6427 6.33546L17.7494 5.20185C17.8356 5.11373 17.8959 5.0036 17.9237 4.88353C17.9515 4.76345 17.9458 4.63804 17.9071 4.52101ZM15.4487 5.64121C15.3745 5.71596 15.3192 5.80721 15.2871 5.90748C15.2551 6.00775 15.2472 6.11419 15.2642 6.21808L15.3615 6.79495L14.9121 6.54676C14.8128 6.49068 14.7007 6.46121 14.5867 6.46121C14.4727 6.46121 14.3607 6.49068 14.2614 6.54676L13.812 6.79495L13.9059 6.21472C13.9224 6.11163 13.9147 6.0061 13.8832 5.90653C13.8518 5.80696 13.7975 5.71611 13.7248 5.64121L13.2955 5.19849L13.8589 5.11465C13.9676 5.09673 14.0703 5.05295 14.1584 4.98699C14.2466 4.92102 14.3175 4.83482 14.3654 4.73566L14.5867 4.26276L14.8081 4.73566C14.8555 4.83511 14.9264 4.92156 15.0146 4.98757C15.1028 5.05359 15.2057 5.09719 15.3145 5.11465L15.878 5.19849L15.4487 5.64121Z" fill="#2D4356"/>
<path d="M15.4481 5.64127C15.374 5.71602 15.3186 5.80727 15.2866 5.90754C15.2545 6.00781 15.2467 6.11425 15.2637 6.21814L15.3609 6.79501L14.9115 6.54682C14.8122 6.49074 14.7002 6.46127 14.5862 6.46127C14.4722 6.46127 14.3601 6.49074 14.2608 6.54682L13.8114 6.79501L13.9053 6.21478C13.9219 6.11169 13.9141 6.00616 13.8827 5.90659C13.8512 5.80702 13.797 5.71617 13.7242 5.64127L13.2949 5.19855L13.8584 5.11471C13.967 5.09679 14.0697 5.05301 14.1579 4.98704C14.246 4.92108 14.317 4.83488 14.3648 4.73572L14.5862 4.26282L14.8075 4.73572C14.855 4.83517 14.9258 4.92161 15.014 4.98763C15.1022 5.05364 15.2052 5.09725 15.314 5.11471L15.8774 5.19855L15.4481 5.64127Z" fill="#FFDB80"/>
<path d="M43.396 2.25043C43.3564 2.13349 43.2854 2.02971 43.1907 1.95044C43.0961 1.87117 42.9815 1.81947 42.8594 1.80101L41.5916 1.60648L41.0181 0.385666C40.9639 0.270428 40.8781 0.17299 40.7706 0.104739C40.6631 0.0364877 40.5384 0.000244141 40.411 0.000244141C40.2837 0.000244141 40.159 0.0364877 40.0515 0.104739C39.944 0.17299 39.8582 0.270428 39.804 0.385666L39.2305 1.60648L37.9627 1.80101C37.8406 1.81898 37.7258 1.87043 37.6311 1.94965C37.5364 2.02887 37.4655 2.13276 37.4263 2.24981C37.387 2.36686 37.381 2.49249 37.4088 2.61277C37.4365 2.73306 37.4971 2.8433 37.5837 2.93127L38.5228 3.89384L38.2981 5.25887C38.2786 5.38267 38.294 5.50945 38.3426 5.62498C38.3912 5.74051 38.471 5.8402 38.5731 5.91288C38.6757 5.98611 38.797 6.02876 38.9228 6.03588C39.0486 6.04301 39.1739 6.01431 39.2841 5.95312L40.411 5.3293L41.538 5.95312C41.648 6.01417 41.773 6.04308 41.8987 6.03656C42.0245 6.03004 42.1458 5.98835 42.249 5.91623C42.351 5.84265 42.4306 5.74232 42.4791 5.62631C42.5277 5.51031 42.5432 5.38314 42.524 5.25887L42.3026 3.89384L43.2384 2.93127C43.3247 2.84323 43.385 2.73311 43.4129 2.613C43.4407 2.49289 43.4348 2.36744 43.396 2.25043ZM41.1053 3.19958C41.0325 3.27514 40.9782 3.36658 40.9468 3.46669C40.9154 3.5668 40.9076 3.67284 40.9242 3.77645L40.9779 4.11184L40.7364 3.97768C40.6368 3.92269 40.5248 3.89385 40.411 3.89385C40.2973 3.89385 40.1853 3.92269 40.0857 3.97768L39.8442 4.11184L39.9013 3.77645C39.9183 3.67256 39.9104 3.56612 39.8783 3.46585C39.8463 3.36558 39.7909 3.27433 39.7168 3.19958L39.4552 2.93127L39.7872 2.88096C39.896 2.86351 39.9989 2.8199 40.0871 2.75388C40.1754 2.68787 40.2462 2.60142 40.2937 2.50197L40.411 2.25043L40.5284 2.50197C40.5762 2.60114 40.6472 2.68734 40.7354 2.7533C40.8235 2.81926 40.9262 2.86305 41.0349 2.88096L41.3669 2.93127L41.1053 3.19958Z" fill="#2D4356"/>
<path d="M41.1062 3.19964C41.0334 3.2752 40.9791 3.36664 40.9477 3.46675C40.9163 3.56686 40.9085 3.6729 40.9251 3.77651L40.9787 4.1119L40.7372 3.97774C40.6376 3.92275 40.5257 3.8939 40.4119 3.8939C40.2981 3.8939 40.1862 3.92275 40.0866 3.97774L39.8451 4.1119L39.9021 3.77651C39.9191 3.67262 39.9113 3.56618 39.8792 3.46591C39.8471 3.36564 39.7918 3.27439 39.7177 3.19964L39.4561 2.93133L39.7881 2.88102C39.8969 2.86357 39.9998 2.81996 40.088 2.75394C40.1762 2.68793 40.2471 2.60148 40.2945 2.50203L40.4119 2.25049L40.5293 2.50203C40.5771 2.60119 40.6481 2.6874 40.7362 2.75336C40.8244 2.81932 40.9271 2.86311 41.0357 2.88102L41.3678 2.93133L41.1062 3.19964Z" fill="#FFDB80"/>
<path d="M32.6633 3.43435C32.6237 3.31741 32.5527 3.21363 32.4581 3.13436C32.3634 3.05509 32.2488 3.00339 32.1267 2.98493L30.3961 2.71997L29.6147 1.05644C29.5605 0.941205 29.4746 0.843766 29.3671 0.775515C29.2596 0.707264 29.1349 0.671021 29.0076 0.671021C28.8803 0.671021 28.7556 0.707264 28.6481 0.775515C28.5406 0.843766 28.4547 0.941205 28.4005 1.05644L27.6191 2.71997L25.8885 2.98493C25.7663 3.00291 25.6516 3.05435 25.5569 3.13357C25.4622 3.21279 25.3913 3.31668 25.3521 3.43373C25.3128 3.55078 25.3067 3.67641 25.3345 3.79669C25.3623 3.91698 25.4229 4.02722 25.5095 4.11519L26.784 5.41985L26.4788 7.2712C26.4591 7.39535 26.4748 7.52253 26.524 7.63818C26.5733 7.75383 26.654 7.8533 26.7571 7.92521C26.869 8.00691 27.0043 8.05042 27.1428 8.0493C27.2566 8.04936 27.3686 8.02051 27.4682 7.96546L29.0076 7.11357L30.547 7.96546C30.6574 8.02572 30.7824 8.05392 30.9079 8.04689C31.0334 8.03985 31.1545 7.99785 31.2574 7.92564C31.3603 7.85343 31.441 7.75388 31.4903 7.63823C31.5396 7.52259 31.5556 7.39546 31.5364 7.2712L31.2346 5.41985L32.5057 4.11519C32.5919 4.02707 32.6522 3.91695 32.68 3.79687C32.7078 3.67679 32.702 3.55138 32.6633 3.43435ZM30.0372 4.7256C29.9644 4.80116 29.9102 4.8926 29.8788 4.99271C29.8473 5.09282 29.8396 5.19886 29.8561 5.30247L29.9903 6.12417L29.3329 5.76195C29.2333 5.70696 29.1214 5.67811 29.0076 5.67811C28.8938 5.67811 28.7819 5.70696 28.6823 5.76195L28.0283 6.12417L28.1624 5.30247C28.1792 5.19858 28.1712 5.09221 28.1392 4.99198C28.1071 4.89175 28.0519 4.80049 27.978 4.7256L27.381 4.11184L28.1758 3.9911C28.2846 3.97496 28.3878 3.93223 28.4761 3.86671C28.5644 3.80119 28.6353 3.71489 28.6823 3.61546L29.0076 2.92121L29.3329 3.61546C29.3799 3.71489 29.4508 3.80119 29.5391 3.86671C29.6274 3.93223 29.7306 3.97496 29.8394 3.9911L30.6342 4.11184L30.0372 4.7256Z" fill="#2D4356"/>
<path d="M30.0381 4.72566C29.9653 4.80122 29.9111 4.89266 29.8796 4.99277C29.8482 5.09288 29.8405 5.19892 29.857 5.30253L29.9912 6.12423L29.3338 5.76201C29.2342 5.70702 29.1223 5.67817 29.0085 5.67817C28.8947 5.67817 28.7828 5.70702 28.6831 5.76201L28.0291 6.12423L28.1633 5.30253C28.18 5.19864 28.1721 5.09227 28.14 4.99204C28.108 4.89181 28.0528 4.80055 27.9788 4.72566L27.3818 4.1119L28.1767 3.99116C28.2855 3.97502 28.3886 3.93229 28.477 3.86677C28.5653 3.80125 28.6361 3.71495 28.6831 3.61552L29.0085 2.92126L29.3338 3.61552C29.3808 3.71495 29.4516 3.80125 29.54 3.86677C29.6283 3.93229 29.7314 3.97502 29.8402 3.99116L30.6351 4.1119L30.0381 4.72566Z" fill="#FFDB80"/>
<path d="M43.3958 13.1976C43.3562 13.0806 43.2852 12.9768 43.1905 12.8976C43.0959 12.8183 42.9812 12.7666 42.8592 12.7481L39.2738 12.2015L37.664 8.77043C37.6098 8.65519 37.524 8.55776 37.4165 8.4895C37.309 8.42125 37.1843 8.38501 37.0569 8.38501C36.9296 8.38501 36.8049 8.42125 36.6974 8.4895C36.5899 8.55776 36.504 8.65519 36.4499 8.77043L34.84 12.2015L31.2547 12.7481C31.1326 12.7661 31.0178 12.8176 30.9231 12.8968C30.8284 12.976 30.7575 13.0799 30.7183 13.1969C30.679 13.314 30.673 13.4396 30.7007 13.5599C30.7285 13.6802 30.7891 13.7904 30.8757 13.8784L33.4884 16.5615L32.8713 20.3514C32.8518 20.4752 32.8672 20.602 32.9158 20.7175C32.9644 20.8331 33.0442 20.9328 33.1463 21.0054C33.2488 21.0788 33.3701 21.1215 33.496 21.1286C33.6218 21.1357 33.7471 21.107 33.8573 21.0457L37.0569 19.2782L40.2565 21.0457C40.3548 21.1011 40.4657 21.13 40.5785 21.1295C40.718 21.1302 40.8542 21.0867 40.9676 21.0054C41.0697 20.9328 41.1495 20.8331 41.1981 20.7175C41.2467 20.602 41.2621 20.4752 41.2426 20.3514L40.6221 16.5615L43.2381 13.8784C43.3245 13.7904 43.3848 13.6802 43.4126 13.5601C43.4404 13.44 43.4346 13.3146 43.3958 13.1976ZM39.4248 15.8639C39.3522 15.9396 39.2981 16.0311 39.2667 16.1311C39.2353 16.2312 39.2274 16.3372 39.2437 16.4408L39.6964 19.2044L37.3823 17.9232C37.2825 17.8687 37.1706 17.8402 37.0569 17.8402C36.9432 17.8402 36.8314 17.8687 36.7316 17.9232L34.4174 19.2044L34.8668 16.4408C34.8831 16.3372 34.8752 16.2312 34.8438 16.1311C34.8124 16.0311 34.7583 15.9396 34.6857 15.8639L32.7472 13.8784L35.3968 13.4726C35.5058 13.4559 35.6091 13.4126 35.6974 13.3465C35.7858 13.2804 35.8565 13.1935 35.9032 13.0936L37.0569 10.6352L38.2107 13.0936C38.257 13.1938 38.3275 13.281 38.4159 13.3472C38.5044 13.4133 38.6079 13.4564 38.7171 13.4726L41.3667 13.8784L39.4248 15.8639Z" fill="#2D4356"/>
<path d="M39.2445 16.4408L39.6973 19.2044L37.3831 17.9232C37.2833 17.8687 37.1715 17.8402 37.0578 17.8402C36.9441 17.8402 36.8322 17.8687 36.7325 17.9232L34.4183 19.2044L34.8677 16.4408C34.884 16.3372 34.8761 16.2312 34.8447 16.1311C34.8133 16.0311 34.7592 15.9396 34.6866 15.8639L32.748 13.8784L35.3976 13.4726C35.5067 13.4559 35.61 13.4126 35.6983 13.3465C35.7867 13.2804 35.8573 13.1935 35.9041 13.0936L37.0578 10.6352L38.2115 13.0936C38.2579 13.1938 38.3284 13.281 38.4168 13.3472C38.5052 13.4133 38.6087 13.4564 38.718 13.4726L41.3675 13.8784L39.4256 15.8639C39.3531 15.9396 39.299 16.0311 39.2675 16.1311C39.2361 16.2312 39.2282 16.3372 39.2445 16.4408Z" fill="#FFDB80"/>
<path d="M19.7715 25.5549L18.6423 33.2595C18.5266 33.7961 18.757 34.7738 19.3342 35.1759L20.941 36.5782L21.035 36.6466C21.3219 36.8089 21.646 36.8942 21.9757 36.8942C22.3054 36.8942 22.6295 36.8089 22.9165 36.6466L24.6196 35.1746C24.8885 34.9367 25.0904 34.6325 25.205 34.2923C25.3197 33.9521 25.3431 33.5878 25.2729 33.2357L23.8911 25.6166C23.453 25.7118 23.0084 25.7741 22.561 25.8031L23.9595 33.5094L23.9763 33.5754C23.9777 33.7536 23.9304 33.9287 23.8395 34.0819L22.187 35.5163C22.0502 35.5626 21.902 35.5628 21.7651 35.5167L20.1821 34.1352L20.1096 34.0795C20.0133 33.923 19.958 33.7446 19.949 33.561L21.093 25.782C20.8672 25.7603 20.6438 25.7303 20.4229 25.6921C20.2031 25.6541 19.9857 25.6084 19.7715 25.5549Z" fill="#2D4356"/>
<path d="M28.3214 23.2113C27.933 23.5946 27.5111 23.9425 27.0607 24.2507C29.3316 24.8146 31.4341 25.915 33.1916 27.4597C35.9009 29.8637 37.3927 33.0707 37.3927 36.491V40.1676C37.3956 40.5408 37.2503 40.9 36.9887 41.1663C36.7272 41.4326 36.3707 41.5844 35.9975 41.5883H7.93211C7.55883 41.5845 7.20231 41.4328 6.94074 41.1664C6.67918 40.9001 6.53395 40.5409 6.5369 40.1676V36.491C6.5369 33.0711 8.02938 29.8637 10.7387 27.4597C12.4963 25.9153 14.5985 24.8149 16.8692 24.2507C16.4186 23.9428 15.9966 23.595 15.6082 23.2116C9.81298 25.0405 5.19534 30.1012 5.19534 36.491V40.1676C5.19213 40.8967 5.47862 41.5973 5.99183 42.1153C6.50504 42.6333 7.20295 42.9263 7.93211 42.9298H35.9975C36.7266 42.9261 37.4244 42.6331 37.9376 42.1151C38.4507 41.5972 38.7373 40.8967 38.7342 40.1676V36.491C38.7342 30.1009 34.1173 25.0402 28.3214 23.2113Z" fill="#2D4356"/>
<path opacity="0.3" d="M18.4535 25.1139C18.0309 25.2648 17.5077 25.4258 16.8704 25.5935C14.5999 26.1569 12.4975 27.2564 10.7395 28.7998C8.02959 31.2046 6.53711 34.4142 6.53711 37.8319V36.4903C6.53711 33.0727 8.02959 29.863 10.7395 27.4583C12.1771 26.1923 13.8518 25.2244 15.6664 24.6108C16.0237 24.4359 16.3965 24.2945 16.7799 24.1882C17.3026 24.5564 17.8638 24.8668 18.4535 25.1139ZM37.3929 36.4903V37.8319C37.3929 34.4109 35.9004 31.2046 33.1905 28.7998C31.4325 27.2564 29.3301 26.1569 27.0596 25.5935C26.4525 25.4258 25.9293 25.2648 25.4832 25.1106C26.0547 24.8708 26.5989 24.5706 27.1065 24.2151C27.4755 24.3291 27.8612 24.4599 28.2636 24.6108C30.0782 25.2244 31.7529 26.1923 33.1905 27.4583C35.9004 29.863 37.3929 33.0693 37.3929 36.4903Z" fill="#F9DBD7"/>
<path opacity="0.5" d="M37.393 38.8246V40.1662C37.396 40.5396 37.2508 40.899 36.9893 41.1656C36.7277 41.4322 36.3712 41.5842 35.9977 41.5883H7.93237C7.55897 41.5841 7.20244 41.4321 6.94092 41.1655C6.6794 40.899 6.5342 40.5396 6.53715 40.1662V38.8246C6.5342 39.1981 6.6794 39.5574 6.94092 39.824C7.20244 40.0905 7.55897 40.2425 7.93237 40.2467H35.9977C36.3712 40.2426 36.7277 40.0906 36.9893 39.8241C37.2508 39.5575 37.396 39.1981 37.393 38.8246Z" fill="#A54B3F"/>
<path d="M21.9649 9.05548C20.4393 9.05548 18.9478 9.5079 17.6793 10.3555C16.4107 11.2031 15.422 12.4079 14.8382 13.8174C14.2543 15.227 14.1016 16.778 14.3992 18.2743C14.6968 19.7707 15.4315 21.1452 16.5103 22.224C17.5892 23.3028 18.9637 24.0375 20.46 24.3352C21.9564 24.6328 23.5074 24.48 24.9169 23.8962C26.3265 23.3123 27.5312 22.3236 28.3788 21.0551C29.2265 19.7865 29.6789 18.2951 29.6789 16.7694C29.6786 14.7236 28.8658 12.7617 27.4192 11.3151C25.9726 9.86855 24.0107 9.05575 21.9649 9.05548ZM21.9649 23.1418C20.7046 23.1418 19.4726 22.7681 18.4246 22.0679C17.3767 21.3677 16.5599 20.3724 16.0776 19.208C15.5953 18.0436 15.4691 16.7624 15.715 15.5262C15.9609 14.2901 16.5678 13.1547 17.459 12.2635C18.3502 11.3723 19.4856 10.7654 20.7217 10.5195C21.9579 10.2736 23.2391 10.3998 24.4035 10.8821C25.5679 11.3644 26.5632 12.1812 27.2634 13.2291C27.9636 14.2771 28.3373 15.5091 28.3373 16.7694C28.3358 18.459 27.664 20.079 26.4692 21.2737C25.2745 22.4685 23.6545 23.1403 21.9649 23.1418Z" fill="#2D4356"/>
<path d="M28.3376 16.7694C28.3376 18.0298 27.9638 19.2618 27.2636 20.3097C26.5634 21.3577 25.5682 22.1744 24.4038 22.6568C23.2394 23.1391 21.9581 23.2653 20.722 23.0194C19.4859 22.7735 18.3504 22.1666 17.4592 21.2754C16.568 20.3842 15.9611 19.2487 15.7152 18.0126C15.4693 16.7765 15.5955 15.4952 16.0778 14.3308C16.5602 13.1664 17.3769 12.1712 18.4249 11.471C19.4728 10.7708 20.7048 10.397 21.9652 10.397C23.6548 10.3985 25.2747 11.0704 26.4695 12.2651C27.6642 13.4599 28.3361 15.0798 28.3376 16.7694Z" fill="#E1EBF4"/>
<path opacity="0.5" d="M28.3376 16.7694C28.3372 16.9935 28.3248 17.2174 28.3007 17.4402C28.1354 15.8751 27.3967 14.4266 26.2269 13.3737C25.0571 12.3209 23.539 11.7384 21.9652 11.7384C20.3914 11.7384 18.8733 12.3209 17.7035 13.3737C16.5336 14.4266 15.7949 15.8751 15.6297 17.4402C15.5367 16.5813 15.6198 15.7125 15.8738 14.8867C16.1278 14.061 16.5474 13.2957 17.1071 12.6375C17.6667 11.9794 18.3545 11.4422 19.1287 11.0587C19.9028 10.6752 20.747 10.4535 21.6097 10.4071C21.8465 10.3937 22.0839 10.3937 22.3207 10.4071C23.9463 10.499 25.4751 11.2092 26.5939 12.3922C27.7126 13.5751 28.3365 15.1412 28.3376 16.7694Z" fill="white"/>
<path opacity="0.5" d="M28.3376 16.7695C28.3365 18.3977 27.7126 19.9638 26.5939 21.1467C25.4751 22.3297 23.9463 23.0399 22.3207 23.1318C22.0839 23.1454 21.8465 23.1454 21.6097 23.1318C20.747 23.0854 19.9028 22.8637 19.1287 22.4802C18.3545 22.0967 17.6667 21.5595 17.1071 20.9014C16.5474 20.2432 16.1278 19.4779 15.8738 18.6522C15.6198 17.8264 15.5367 16.9576 15.6297 16.0987C15.7949 17.6638 16.5336 19.1123 17.7035 20.1651C18.8733 21.2179 20.3914 21.8005 21.9652 21.8005C23.539 21.8005 25.0571 21.2179 26.2269 20.1651C27.3967 19.1123 28.1354 17.6638 28.3007 16.0987C28.3248 16.3215 28.3372 16.5454 28.3376 16.7695Z" fill="#9FA5AA"/>
<path opacity="0.5" d="M23.9772 33.5758C23.9773 33.7538 23.9299 33.9287 23.8397 34.0822L22.1863 35.5177C22.1185 35.5418 22.0469 35.5532 21.975 35.5512H21.9683C21.8985 35.5532 21.8291 35.5419 21.7637 35.5177L20.1806 34.1359L20.1102 34.0789C20.0146 33.9227 19.9593 33.7452 19.9492 33.5624L20.0767 32.687C20.0901 32.7071 20.1001 32.7239 20.1102 32.7373L20.1806 32.7943L21.7637 34.1761C21.9009 34.2214 22.049 34.2214 22.1863 34.1761L23.823 32.7541L23.9605 33.5087L23.9772 33.5758Z" fill="#937D4A"/>
</g>
<defs>
<clipPath id="clip0_373_1602">
<rect width="42.9298" height="42.9298" fill="white" transform="translate(0.5)"/>
</clipPath>
</defs>
</svg>
