<svg xmlns="http://www.w3.org/2000/svg" width="48" height="48" fill="none" viewBox="0 0 48 48"><path fill="#FFC580" d="M26.2012 43.4137L23.9399 45.57L21.7949 43.425L23.7112 35.25H24.2474L26.2012 43.4137Z"/><path fill="#F99621" d="M38.625 39.7987V48H9.375V40.89C9.375 36.1275 10.9875 36.4087 10.9875 36.4087L18.6788 31.9875C18.906 32.2842 19.1795 32.5425 19.4888 32.7525C19.6317 32.8515 19.7822 32.9393 19.9387 33.015C20.0089 33.2729 20.1136 33.5201 20.25 33.75C20.4588 34.1068 20.7386 34.4171 21.0721 34.6615C21.4055 34.906 21.7856 35.0795 22.1887 35.1712C22.3368 35.2053 22.4872 35.2278 22.6388 35.2387C22.7148 35.2463 22.7911 35.2501 22.8675 35.25H23.7113L21.795 43.425L23.94 45.57L26.2013 43.4137L24.2475 35.25H25.1325C25.2112 35.25 25.29 35.2462 25.365 35.2387C25.5025 35.2285 25.6391 35.2084 25.7738 35.1787C26.1847 35.0907 26.5729 34.9182 26.9138 34.6723C27.2546 34.4263 27.5406 34.1123 27.7537 33.75C27.8867 33.5189 27.99 33.2719 28.0613 33.015C28.2743 32.9138 28.4756 32.7893 28.6613 32.6437C28.7497 32.5781 28.8348 32.508 28.9163 32.4337C30.9563 33.2137 33.6825 34.3612 35.2688 35.4862C38.0438 37.4437 38.625 39.7987 38.625 39.7987Z"/><path fill="#1E1E1E" d="M27.4275 44.3138L24.6562 46.9613C24.4576 47.1499 24.1932 47.2535 23.9193 47.2499C23.6454 47.2464 23.3837 47.1361 23.19 46.9425L20.5538 44.3025C20.4272 44.1747 20.3356 44.0166 20.2877 43.8433C20.2397 43.6699 20.2371 43.4872 20.28 43.3125L22.1887 35.1713C22.3368 35.2053 22.4872 35.2279 22.6388 35.2388C22.7148 35.2464 22.7911 35.2501 22.8675 35.25H23.7113L21.795 43.425L23.94 45.57L26.2013 43.4138L24.2475 35.25H25.1325C25.2112 35.25 25.29 35.2463 25.365 35.2388C25.5025 35.2285 25.6391 35.2085 25.7738 35.1788L27.72 43.32C27.7635 43.4967 27.7593 43.6818 27.7079 43.8564C27.6565 44.0309 27.5598 44.1888 27.4275 44.3138ZM28.3275 5.31752C25.5201 4.22089 22.401 4.23161 19.6013 5.34752C17.8003 6.09518 16.2604 7.35826 15.1749 8.97816C14.0894 10.5981 13.5067 12.5026 13.5 14.4525C13.5 18.75 16.8412 22.8825 16.8412 22.8825C17.8762 24.5213 19.4437 26.9963 19.4437 28.9913V29.8763C19.4494 30.3847 19.6476 30.872 19.9983 31.2401C20.349 31.6082 20.8262 31.8298 21.3337 31.86V32.2275C21.3353 32.6328 21.4978 33.0208 21.7854 33.3063C22.073 33.5918 22.4622 33.7514 22.8675 33.75H25.1325C25.5378 33.7514 25.927 33.5918 26.2146 33.3063C26.5022 33.0208 26.6647 32.6328 26.6663 32.2275V31.86C27.1738 31.8298 27.651 31.6082 28.0017 31.2401C28.3524 30.872 28.5506 30.3847 28.5563 29.8763C28.5563 27.075 29.9513 24.5738 31.4587 22.2863C33.09 19.8075 34.4438 17.5238 34.5 14.6475C34.5126 12.6555 33.9324 10.7048 32.8333 9.04338C31.7342 7.382 30.1657 6.08507 28.3275 5.31752ZM30.2063 21.4613C28.5713 23.94 27.0563 26.6775 27.0563 29.8763C27.0501 30.0108 26.9912 30.1375 26.8921 30.2288C26.7931 30.3201 26.6621 30.3686 26.5275 30.3638H25.9163C25.7175 30.3644 25.5271 30.4436 25.3866 30.5841C25.246 30.7246 25.1668 30.915 25.1663 31.1138V32.2275C25.1663 32.235 22.8337 32.235 22.8337 32.2275V31.1138C22.8332 30.915 22.754 30.7246 22.6134 30.5841C22.4729 30.4436 22.2825 30.3644 22.0837 30.3638H21.4725C21.3379 30.3686 21.2069 30.3201 21.1079 30.2288C21.0088 30.1375 20.9499 30.0108 20.9437 29.8763V28.9913C20.7187 25.5713 17.925 21.7913 17.925 21.7913C16.4212 19.4213 15 17.1863 15 14.4525C15.0073 12.7972 15.5034 11.1809 16.4261 9.80654C17.3488 8.43219 18.6569 7.36103 20.1863 6.72752C22.6109 5.74154 25.3233 5.73348 27.7538 6.70502C29.2989 7.32919 30.6231 8.39946 31.5575 9.77932C32.4919 11.1592 32.994 12.7861 33 14.4525V14.6213C32.955 17.0963 31.7063 19.1813 30.2063 21.4613Z"/><path fill="#FFC580" d="M27.7538 6.70498C25.3233 5.73344 22.6109 5.7415 20.1863 6.72748C18.6569 7.36099 17.3488 8.43215 16.4261 9.8065C15.5034 11.1809 15.0073 12.7971 15 14.4525C15 17.1862 16.4212 19.4212 17.925 21.7912C17.925 21.7912 20.7187 25.5712 20.9437 28.9912V29.8762C20.9499 30.0108 21.0088 30.1374 21.1079 30.2287C21.2069 30.32 21.3379 30.3685 21.4725 30.3637H22.0837C22.2825 30.3643 22.4729 30.4435 22.6134 30.584C22.754 30.7246 22.8332 30.915 22.8337 31.1137V32.2275C22.8337 32.235 25.1663 32.235 25.1663 32.2275V31.1137C25.1668 30.915 25.246 30.7246 25.3866 30.584C25.5271 30.4435 25.7175 30.3643 25.9163 30.3637H26.5275C26.6621 30.3685 26.7931 30.32 26.8921 30.2287C26.9912 30.1374 27.0501 30.0108 27.0563 29.8762C27.0563 26.6775 28.5713 23.94 30.2063 21.4612C31.7063 19.1812 32.955 17.0962 33 14.6212V14.4525C32.994 12.786 32.4919 11.1591 31.5575 9.77928C30.6231 8.39942 29.2989 7.32915 27.7538 6.70498ZM30.375 15.27C30.3778 15.6641 30.2668 16.0507 30.0553 16.3833C29.8437 16.7159 29.5407 16.9804 29.1825 17.145C29.2669 17.3717 29.3101 17.6118 29.31 17.8537C29.3069 18.4027 29.0872 18.9283 28.6987 19.3162L28.3163 19.6987C27.9283 20.0872 27.4027 20.3069 26.8538 20.31C26.6114 20.3107 26.371 20.2661 26.145 20.1787C25.9813 20.5378 25.7171 20.8419 25.3844 21.0541C25.0517 21.2664 24.6647 21.3778 24.27 21.375H23.73C23.3353 21.3778 22.9483 21.2664 22.6156 21.0541C22.2829 20.8419 22.0187 20.5378 21.855 20.1787C21.629 20.2661 21.3886 20.3107 21.1462 20.31C20.5973 20.3069 20.0717 20.0872 19.6838 19.6987L19.3013 19.3162C19.0209 19.0388 18.8265 18.6864 18.7413 18.3013C18.6562 17.9162 18.684 17.5147 18.8212 17.145C18.4626 16.9806 18.159 16.7163 17.9468 16.3838C17.7347 16.0512 17.6229 15.6645 17.625 15.27V14.73C17.6221 14.3353 17.7336 13.9483 17.9458 13.6156C18.1581 13.2829 18.4622 13.0187 18.8212 12.855C18.6839 12.4852 18.6562 12.0837 18.7413 11.6986C18.8265 11.3135 19.0209 10.9611 19.3013 10.6837L19.6838 10.3012C20.0717 9.91275 20.5973 9.69309 21.1462 9.68998C21.3886 9.6893 21.629 9.73381 21.855 9.82123C22.0187 9.46213 22.2829 9.15809 22.6156 8.94582C22.9483 8.73355 23.3353 8.62212 23.73 8.62498H24.27C24.6647 8.62212 25.0517 8.73355 25.3844 8.94582C25.7171 9.15809 25.9813 9.46213 26.145 9.82123C26.371 9.73381 26.6114 9.6893 26.8538 9.68998C27.4029 9.69237 27.9287 9.91214 28.3163 10.3012L28.6987 10.6837C29.059 11.0416 29.2752 11.5194 29.3063 12.0262C29.3249 12.3085 29.2813 12.5914 29.1787 12.855C29.5378 13.0187 29.8419 13.2829 30.0542 13.6156C30.2664 13.9483 30.3779 14.3353 30.375 14.73V15.27Z"/><path fill="#1E1E1E" d="M24.0001 3C24.199 2.99999 24.3898 2.92097 24.5304 2.78032C24.6711 2.63967 24.7501 2.44891 24.7501 2.25V0.75C24.7501 0.551088 24.6711 0.360322 24.5304 0.21967C24.3898 0.0790176 24.199 0 24.0001 0C23.8012 0 23.6104 0.0790176 23.4698 0.21967C23.3291 0.360322 23.2501 0.551088 23.2501 0.75V2.25C23.2501 2.44891 23.3291 2.63967 23.4698 2.78032C23.6104 2.92097 23.8012 2.99999 24.0001 3ZM18.9345 3.27539C19.0052 3.46029 19.145 3.61047 19.3244 3.69418C19.5038 3.77789 19.7087 3.78859 19.8958 3.724C20.0827 3.65595 20.2349 3.51644 20.319 3.33617C20.4031 3.1559 20.4121 2.94961 20.344 2.7627L19.8312 1.35315C19.7975 1.2606 19.7459 1.17558 19.6794 1.10296C19.6129 1.03033 19.5327 0.971521 19.4435 0.92988C19.3542 0.88824 19.2577 0.864586 19.1593 0.860269C19.0609 0.855952 18.9626 0.871057 18.87 0.904721C18.7775 0.938385 18.6925 0.989949 18.6199 1.05647C18.5472 1.12299 18.4884 1.20316 18.4468 1.29241C18.4051 1.38166 18.3815 1.47824 18.3772 1.57663C18.3728 1.67502 18.388 1.77329 18.4216 1.86585L18.9345 3.27539ZM15.2299 5.71472C15.2931 5.79047 15.3707 5.85299 15.4581 5.89872C15.5455 5.94445 15.6411 5.97248 15.7394 5.98121C15.8377 5.98994 15.9367 5.97919 16.0308 5.94959C16.1249 5.91998 16.2123 5.8721 16.2879 5.80869C16.3634 5.74527 16.4258 5.66756 16.4713 5.58002C16.5168 5.49248 16.5446 5.39682 16.553 5.29852C16.5615 5.20022 16.5505 5.10122 16.5207 5.00718C16.4908 4.91314 16.4427 4.82592 16.3791 4.7505L15.415 3.6017C15.287 3.44984 15.1039 3.35498 14.906 3.33794C14.708 3.32089 14.5114 3.38304 14.3593 3.51075C14.2071 3.63847 14.1118 3.82132 14.0943 4.0192C14.0768 4.21708 14.1385 4.41383 14.2659 4.56629L15.2299 5.71472ZM11.2842 8.52466L12.5833 9.27466C12.7561 9.37163 12.96 9.39719 13.1515 9.34587C13.3429 9.29456 13.5066 9.17043 13.6078 9C13.7072 8.82772 13.7342 8.62299 13.6827 8.43084C13.6313 8.23868 13.5056 8.07484 13.3333 7.97534L12.0342 7.22534C11.8619 7.12601 11.6572 7.09916 11.4651 7.1507C11.273 7.20224 11.1093 7.32795 11.0098 7.50019C10.9104 7.67243 10.8835 7.87711 10.9349 8.06922C10.9864 8.26133 11.112 8.42515 11.2842 8.52466ZM9.83637 13.2642L11.3137 13.5245C11.5093 13.5568 11.7098 13.5111 11.8722 13.3974C12.0346 13.2836 12.146 13.1108 12.1825 12.9159C12.217 12.72 12.1722 12.5185 12.0581 12.3556C11.944 12.1927 11.7699 12.0818 11.574 12.0472L10.0967 11.7869C9.90121 11.7532 9.7003 11.7984 9.53801 11.9125C9.37572 12.0267 9.26527 12.2004 9.23083 12.3958C9.19639 12.5912 9.24078 12.7923 9.35427 12.9551C9.46776 13.1178 9.64111 13.2289 9.83637 13.2642ZM9.96563 18.2239C10.506 18.1607 11.0428 18.0702 11.574 17.9528C11.7696 17.9179 11.9433 17.8069 12.0571 17.644C12.1709 17.4812 12.2155 17.2798 12.181 17.0842C12.1465 16.8886 12.0358 16.7146 11.8732 16.6005C11.7106 16.4863 11.5094 16.4414 11.3137 16.4755L9.83637 16.7358C9.64051 16.7704 9.46638 16.8813 9.35228 17.0442C9.23817 17.2071 9.19344 17.4086 9.22791 17.6045C9.26086 17.7768 9.35223 17.9326 9.48662 18.0454C9.621 18.1582 9.79018 18.2213 9.96563 18.2239ZM11.2842 21.4753C11.1119 21.5748 10.9862 21.7387 10.9348 21.9308C10.8833 22.123 10.9102 22.3277 11.0097 22.5C11.1117 22.6695 11.2754 22.7929 11.4665 22.8441C11.6576 22.8953 11.8611 22.8705 12.0342 22.7747L13.3333 22.0247C13.5055 21.9252 13.6311 21.7613 13.6826 21.5692C13.734 21.3771 13.7071 21.1725 13.6076 21.0002C13.5082 20.828 13.3445 20.7023 13.1524 20.6507C12.9603 20.5992 12.7556 20.626 12.5833 20.7254L11.2842 21.4753ZM35.4169 20.7253C35.2446 20.626 35.0399 20.5992 34.8479 20.6507C34.6558 20.7022 34.492 20.8279 34.3926 21.0002C34.2932 21.1724 34.2662 21.3771 34.3177 21.5692C34.3691 21.7613 34.4947 21.9251 34.6669 22.0247L35.9661 22.7747C36.1389 22.8716 36.3428 22.8972 36.5342 22.8459C36.7256 22.7945 36.8894 22.6704 36.9905 22.5C37.09 22.3277 37.1169 22.123 37.0655 21.9308C37.014 21.7387 36.8883 21.5748 36.7161 21.4753L35.4169 20.7253ZM38.0346 18.224C38.2103 18.2221 38.3798 18.1593 38.5144 18.0463C38.6489 17.9333 38.7401 17.7772 38.7723 17.6045C38.8068 17.4086 38.7621 17.2071 38.648 17.0442C38.5339 16.8813 38.3597 16.7704 38.1639 16.7358L36.6866 16.4755C36.4909 16.4414 36.2896 16.4863 36.127 16.6004C35.9644 16.7146 35.8537 16.8885 35.8192 17.0842C35.7847 17.2798 35.8293 17.4812 35.9431 17.644C36.0569 17.8068 36.2306 17.9179 36.4262 17.9528C36.9535 18.0894 37.4917 18.1802 38.0346 18.224ZM35.8177 12.9159C35.8558 13.11 35.9675 13.2818 36.1295 13.3953C36.2915 13.5087 36.4912 13.5551 36.6866 13.5245L38.1639 13.2641C38.3594 13.2293 38.5332 13.1182 38.647 12.9554C38.7608 12.7925 38.8053 12.5912 38.7708 12.3956C38.7364 12.1999 38.6257 12.026 38.4631 11.9118C38.3004 11.7977 38.0992 11.7528 37.9035 11.7868L36.4262 12.0472C36.2303 12.0818 36.0562 12.1927 35.9421 12.3556C35.828 12.5185 35.7833 12.72 35.8177 12.9159ZM35.0427 9.37251C35.1739 9.37382 35.3031 9.34004 35.4169 9.27466L36.7161 8.52466C36.8883 8.42515 37.0139 8.26133 37.0653 8.06922C37.1168 7.87711 37.0898 7.67243 36.9904 7.50019C36.891 7.32795 36.7272 7.20224 36.5351 7.1507C36.343 7.09916 36.1384 7.12601 35.9661 7.22534L34.6669 7.97534C34.5282 8.06042 34.4207 8.18809 34.3604 8.3393C34.3002 8.49051 34.2905 8.65715 34.3328 8.81433C34.375 8.9715 34.467 9.11079 34.595 9.21139C34.7229 9.31199 34.88 9.36851 35.0427 9.37251ZM32.1954 5.97937C32.3047 5.97984 32.4128 5.9564 32.5121 5.91068C32.6114 5.86496 32.6996 5.79808 32.7703 5.71473L33.7344 4.56629C33.7977 4.49083 33.8455 4.40364 33.8752 4.30969C33.9048 4.21574 33.9157 4.11687 33.9071 4.01873C33.8985 3.92059 33.8707 3.8251 33.8252 3.73771C33.7798 3.65032 33.7175 3.57274 33.6421 3.5094C33.5666 3.44607 33.4794 3.39821 33.3855 3.36857C33.2915 3.33893 33.1927 3.32809 33.0945 3.33666C32.9964 3.34523 32.9009 3.37304 32.8135 3.41852C32.7261 3.46399 32.6485 3.52623 32.5852 3.60169L31.6211 4.7505C31.5325 4.86052 31.4764 4.99322 31.4594 5.1335C31.4424 5.27379 31.4651 5.41603 31.5249 5.54405C31.5848 5.67208 31.6793 5.78075 31.7978 5.85771C31.9163 5.93466 32.0541 5.97682 32.1954 5.97937ZM28.1044 3.724C28.2915 3.79009 28.497 3.78011 28.6768 3.69622C28.8566 3.61232 28.9962 3.46121 29.0657 3.27539L29.5786 1.86585C29.6123 1.77329 29.6274 1.67502 29.6231 1.57663C29.6188 1.47824 29.5951 1.38166 29.5535 1.29241C29.5118 1.20316 29.453 1.12299 29.3804 1.05647C29.3078 0.989949 29.2227 0.938385 29.1302 0.904721C29.0376 0.871057 28.9394 0.855952 28.841 0.860269C28.7426 0.864586 28.646 0.88824 28.5568 0.92988C28.4675 0.971521 28.3873 1.03033 28.3208 1.10296C28.2543 1.17558 28.2027 1.2606 28.1691 1.35315L27.6562 2.7627C27.5882 2.94962 27.5972 3.1559 27.6812 3.33617C27.7653 3.51645 27.9175 3.65595 28.1044 3.724ZM29.1789 12.855C29.2814 12.5914 29.325 12.3085 29.3064 12.0262C29.2753 11.5194 29.0591 11.0416 28.6989 10.6838L28.3164 10.3012C27.9288 9.91216 27.403 9.69239 26.8539 9.69C26.6115 9.68931 26.3712 9.73383 26.1451 9.82125C25.9814 9.46215 25.7172 9.15811 25.3845 8.94584C25.0518 8.73357 24.6648 8.62214 24.2701 8.625H23.7301C23.3355 8.62214 22.9484 8.73357 22.6157 8.94584C22.283 9.15811 22.0188 9.46215 21.8551 9.82125C21.6291 9.73383 21.3887 9.68931 21.1464 9.69C20.5974 9.69311 20.0718 9.91277 19.6839 10.3012L19.3014 10.6838C19.021 10.9612 18.8266 11.3135 18.7415 11.6987C18.6563 12.0838 18.6841 12.4853 18.8214 12.855C18.4623 13.0187 18.1582 13.2829 17.946 13.6156C17.7337 13.9483 17.6223 14.3354 17.6251 14.73V15.27C17.623 15.6645 17.7348 16.0512 17.947 16.3838C18.1591 16.7163 18.4627 16.9807 18.8214 17.145C18.6841 17.5147 18.6563 17.9162 18.7415 18.3013C18.8266 18.6865 19.021 19.0388 19.3014 19.3162L19.6839 19.6987C20.0718 20.0872 20.5974 20.3069 21.1464 20.31C21.3887 20.3107 21.6291 20.2662 21.8551 20.1788C22.0188 20.5379 22.283 20.8419 22.6157 21.0542C22.9484 21.2664 23.3355 21.3779 23.7301 21.375H24.2701C24.6648 21.3779 25.0518 21.2664 25.3845 21.0542C25.7172 20.8419 25.9814 20.5379 26.1451 20.1788C26.3712 20.2662 26.6115 20.3107 26.8539 20.31C27.4029 20.3069 27.9284 20.0872 28.3164 19.6987L28.6989 19.3162C29.0873 18.9283 29.307 18.4027 29.3101 17.8538C29.3102 17.6118 29.267 17.3718 29.1826 17.145C29.5408 16.9804 29.8438 16.716 30.0554 16.3834C30.2669 16.0508 30.3779 15.6642 30.3751 15.27V14.73C30.378 14.3354 30.2665 13.9483 30.0543 13.6156C29.842 13.2829 29.538 13.0187 29.1789 12.855ZM28.8751 15.27C28.8832 15.4057 28.8372 15.539 28.7473 15.6409C28.6573 15.7428 28.5307 15.8049 28.3951 15.8137H27.9751C27.8979 15.8144 27.823 15.8405 27.762 15.8879C27.701 15.9354 27.6573 16.0015 27.6376 16.0763C27.5608 16.3324 27.4578 16.58 27.3301 16.815C27.2922 16.8803 27.2764 16.9562 27.2852 17.0312C27.294 17.1063 27.3269 17.1765 27.3789 17.2313L27.6826 17.5312C27.7725 17.6333 27.8182 17.7667 27.8098 17.9024C27.8014 18.0381 27.7394 18.1649 27.6376 18.255L27.2551 18.6375C27.1643 18.738 27.0377 18.799 26.9024 18.8074C26.7672 18.8158 26.634 18.771 26.5314 18.6825C26.5314 18.6825 26.2314 18.3825 26.2314 18.3787C26.1755 18.3288 26.1058 18.297 26.0314 18.2876C25.9571 18.2782 25.8816 18.2917 25.8151 18.3263C25.5792 18.4558 25.3304 18.5601 25.0726 18.6375C24.9987 18.658 24.9334 18.7021 24.8868 18.763C24.8401 18.8238 24.8145 18.8983 24.8139 18.975V19.3913C24.8052 19.5273 24.7433 19.6544 24.6415 19.745C24.5397 19.8355 24.4062 19.8823 24.2701 19.875H23.7301C23.594 19.8823 23.4606 19.8355 23.3588 19.745C23.2569 19.6544 23.195 19.5273 23.1864 19.3913V18.975C23.1857 18.8983 23.1602 18.8238 23.1135 18.763C23.0668 18.7021 23.0015 18.658 22.9276 18.6375C22.6699 18.5601 22.421 18.4558 22.1851 18.3263C22.1191 18.2899 22.0432 18.2754 21.9685 18.2848C21.8937 18.2943 21.8238 18.3271 21.7689 18.3787C21.7689 18.3787 21.4689 18.6787 21.4689 18.6825C21.3655 18.7693 21.2327 18.8131 21.098 18.8047C20.9633 18.7963 20.8369 18.7365 20.7451 18.6375L20.3626 18.255C20.2608 18.1649 20.1989 18.0381 20.1904 17.9024C20.182 17.7667 20.2277 17.6333 20.3176 17.5312L20.6214 17.2313C20.6739 17.1768 20.7074 17.1069 20.7168 17.0319C20.7263 16.9568 20.7112 16.8807 20.6739 16.815C20.545 16.5801 20.4407 16.3325 20.3626 16.0763C20.3429 16.0015 20.2992 15.9354 20.2382 15.8879C20.1773 15.8405 20.1024 15.8144 20.0251 15.8137H19.6051C19.4695 15.8049 19.3429 15.7428 19.2529 15.6409C19.163 15.539 19.117 15.4057 19.1251 15.27V14.73C19.117 14.5943 19.163 14.461 19.2529 14.3591C19.3429 14.2572 19.4695 14.1951 19.6051 14.1863H20.0251C20.1024 14.1856 20.1773 14.1595 20.2382 14.1121C20.2992 14.0646 20.3429 13.9985 20.3626 13.9237C20.4407 13.6675 20.545 13.4199 20.6739 13.185C20.7112 13.1193 20.7263 13.0432 20.7169 12.9681C20.7074 12.8931 20.6739 12.8232 20.6214 12.7687L20.3176 12.4688C20.2277 12.3667 20.182 12.2333 20.1904 12.0976C20.1989 11.9619 20.2608 11.8351 20.3626 11.745L20.7451 11.3625C20.8364 11.2627 20.9629 11.2023 21.0979 11.1939C21.2329 11.1855 21.3659 11.2298 21.4689 11.3175L21.7689 11.6213C21.8238 11.6729 21.8937 11.7057 21.9685 11.7152C22.0432 11.7246 22.1191 11.7101 22.1851 11.6737C22.42 11.5449 22.6676 11.4406 22.9239 11.3625C22.9986 11.3428 23.0647 11.2991 23.1122 11.2381C23.1596 11.1771 23.1857 11.1023 23.1864 11.025V10.6088C23.1943 10.4725 23.2561 10.345 23.3581 10.2543C23.46 10.1636 23.5939 10.1171 23.7301 10.125H24.2701C24.4064 10.1171 24.5402 10.1636 24.6422 10.2543C24.7441 10.345 24.8059 10.4725 24.8139 10.6088V11.025C24.8145 11.1017 24.8401 11.1762 24.8868 11.237C24.9335 11.2979 24.9987 11.342 25.0726 11.3625C25.3304 11.4399 25.5792 11.5442 25.8151 11.6737C25.8815 11.7089 25.9571 11.7227 26.0315 11.7133C26.106 11.7039 26.1758 11.6717 26.2314 11.6213L26.5314 11.3175C26.634 11.229 26.7672 11.1841 26.9024 11.1926C27.0377 11.201 27.1643 11.262 27.2551 11.3625L27.6376 11.745C27.7394 11.8351 27.8014 11.9619 27.8098 12.0976C27.8182 12.2333 27.7725 12.3667 27.6826 12.4688L27.3826 12.7687C27.3293 12.8227 27.2952 12.8927 27.2857 12.968C27.2762 13.0432 27.2918 13.1195 27.3301 13.185C27.4578 13.42 27.5608 13.6676 27.6376 13.9237C27.6573 13.9985 27.701 14.0646 27.762 14.1121C27.823 14.1595 27.8979 14.1856 27.9751 14.1863H28.3951C28.5307 14.1951 28.6573 14.2572 28.7473 14.3591C28.8372 14.461 28.8832 14.5943 28.8751 14.73V15.27Z"/><path fill="#1E1E1E" d="M24 12.75C23.555 12.75 23.12 12.882 22.75 13.1292C22.38 13.3764 22.0916 13.7278 21.9213 14.139C21.751 14.5501 21.7064 15.0025 21.7932 15.439C21.8801 15.8754 22.0943 16.2763 22.409 16.591C22.7237 16.9057 23.1246 17.12 23.561 17.2068C23.9975 17.2936 24.4499 17.249 24.861 17.0787C25.2722 16.9084 25.6236 16.62 25.8708 16.25C26.118 15.88 26.25 15.445 26.25 15C26.2495 14.4034 26.0123 13.8314 25.5905 13.4095C25.1686 12.9877 24.5966 12.7505 24 12.75ZM24 15.75C23.8517 15.75 23.7067 15.706 23.5833 15.6236C23.46 15.5412 23.3639 15.4241 23.3071 15.287C23.2503 15.15 23.2355 14.9992 23.2644 14.8537C23.2934 14.7082 23.3648 14.5746 23.4697 14.4697C23.5746 14.3648 23.7082 14.2933 23.8537 14.2644C23.9992 14.2355 24.15 14.2503 24.287 14.3071C24.4241 14.3639 24.5412 14.46 24.6236 14.5833C24.706 14.7067 24.75 14.8517 24.75 15C24.7494 15.1987 24.6702 15.3892 24.5297 15.5297C24.3892 15.6702 24.1987 15.7494 24 15.75Z"/><path fill="#E3B681" d="M28.3949 14.1863H27.9749C27.8977 14.1856 27.8228 14.1595 27.7618 14.1121C27.7008 14.0646 27.6571 13.9985 27.6374 13.9238C27.5606 13.6676 27.4576 13.42 27.3299 13.185C27.2917 13.1195 27.2761 13.0432 27.2856 12.968C27.295 12.8927 27.3291 12.8227 27.3824 12.7688L27.6824 12.4688C27.7723 12.3668 27.818 12.2333 27.8096 12.0976C27.8012 11.9619 27.7392 11.8351 27.6374 11.745L27.2549 11.3625C27.1641 11.262 27.0375 11.201 26.9022 11.1926C26.767 11.1842 26.6338 11.229 26.5312 11.3175L26.2312 11.6213C26.1756 11.6718 26.1058 11.7039 26.0314 11.7133C25.9569 11.7227 25.8813 11.7089 25.8149 11.6738C25.579 11.5442 25.3302 11.4399 25.0724 11.3625C24.9985 11.342 24.9333 11.298 24.8866 11.2371C24.8399 11.1762 24.8143 11.1017 24.8137 11.025V10.6088C24.8057 10.4725 24.7439 10.345 24.642 10.2543C24.54 10.1636 24.4062 10.1171 24.2699 10.125H23.7299C23.5937 10.1171 23.4599 10.1636 23.3579 10.2543C23.2559 10.345 23.1942 10.4725 23.1862 10.6088V11.025C23.1855 11.1023 23.1594 11.1772 23.112 11.2381C23.0645 11.2991 22.9984 11.3428 22.9237 11.3625C22.6674 11.4406 22.4198 11.5449 22.1849 11.6738C22.1189 11.7101 22.0431 11.7246 21.9683 11.7152C21.8935 11.7058 21.8236 11.6729 21.7687 11.6213L21.4687 11.3175C21.3657 11.2298 21.2327 11.1855 21.0977 11.1939C20.9627 11.2023 20.8362 11.2627 20.7449 11.3625L20.3624 11.745C20.2606 11.8351 20.1987 11.9619 20.1903 12.0976C20.1818 12.2333 20.2276 12.3668 20.3174 12.4688L20.6212 12.7688C20.6737 12.8232 20.7072 12.8931 20.7167 12.9682C20.7261 13.0432 20.7111 13.1193 20.6737 13.185C20.5448 13.4199 20.4405 13.6675 20.3624 13.9238C20.3427 13.9985 20.299 14.0646 20.2381 14.1121C20.1771 14.1595 20.1022 14.1856 20.0249 14.1863H19.6049C19.4693 14.1951 19.3427 14.2572 19.2528 14.3591C19.1628 14.461 19.1169 14.5944 19.1249 14.73V15.27C19.1169 15.4057 19.1628 15.539 19.2528 15.6409C19.3427 15.7428 19.4693 15.8049 19.6049 15.8138H20.0249C20.1022 15.8145 20.1771 15.8405 20.2381 15.888C20.299 15.9354 20.3427 16.0016 20.3624 16.0763C20.4405 16.3326 20.5448 16.5801 20.6737 16.815C20.711 16.8808 20.7261 16.9568 20.7167 17.0319C20.7072 17.1069 20.6737 17.1769 20.6212 17.2313L20.3174 17.5313C20.2276 17.6333 20.1818 17.7668 20.1903 17.9024C20.1987 18.0381 20.2606 18.1649 20.3624 18.255L20.7449 18.6375C20.8367 18.7365 20.9631 18.7964 21.0978 18.8047C21.2325 18.8131 21.3653 18.7694 21.4687 18.6825C21.4687 18.6788 21.7687 18.3788 21.7687 18.3788C21.8236 18.3272 21.8935 18.2943 21.9683 18.2848C22.0431 18.2754 22.1189 18.2899 22.1849 18.3263C22.4208 18.4558 22.6697 18.5601 22.9274 18.6375C23.0014 18.658 23.0666 18.7021 23.1133 18.763C23.16 18.8239 23.1856 18.8983 23.1862 18.975V19.3913C23.1948 19.5273 23.2568 19.6544 23.3586 19.745C23.4604 19.8356 23.5938 19.8823 23.7299 19.875H24.2699C24.406 19.8823 24.5395 19.8356 24.6413 19.745C24.7431 19.6544 24.8051 19.5273 24.8137 19.3913V18.975C24.8143 18.8983 24.8399 18.8239 24.8866 18.763C24.9333 18.7021 24.9985 18.658 25.0724 18.6375C25.3302 18.5601 25.579 18.4558 25.8149 18.3263C25.8814 18.2917 25.9569 18.2782 26.0312 18.2876C26.1056 18.297 26.1753 18.3288 26.2312 18.3788C26.2312 18.3825 26.5312 18.6825 26.5312 18.6825C26.6338 18.771 26.767 18.8159 26.9022 18.8075C27.0375 18.799 27.1641 18.7381 27.2549 18.6375L27.6374 18.255C27.7392 18.1649 27.8012 18.0381 27.8096 17.9024C27.818 17.7668 27.7723 17.6333 27.6824 17.5313L27.3787 17.2313C27.3267 17.1765 27.2938 17.1063 27.285 17.0313C27.2762 16.9562 27.292 16.8804 27.3299 16.815C27.4576 16.58 27.5606 16.3324 27.6374 16.0763C27.6571 16.0016 27.7008 15.9354 27.7618 15.888C27.8228 15.8405 27.8977 15.8145 27.9749 15.8138H28.3949C28.5305 15.8049 28.6572 15.7428 28.7471 15.6409C28.837 15.539 28.883 15.4057 28.8749 15.27V14.73C28.883 14.5944 28.837 14.461 28.7471 14.3591C28.6572 14.2572 28.5305 14.1951 28.3949 14.1863ZM23.9999 17.25C23.5549 17.25 23.1199 17.1181 22.7499 16.8708C22.3799 16.6236 22.0915 16.2722 21.9212 15.8611C21.7509 15.4499 21.7063 14.9975 21.7932 14.5611C21.88 14.1246 22.0943 13.7237 22.4089 13.409C22.7236 13.0944 23.1245 12.8801 23.561 12.7933C23.9974 12.7064 24.4498 12.751 24.861 12.9213C25.2721 13.0916 25.6235 13.38 25.8707 13.75C26.118 14.12 26.2499 14.555 26.2499 15C26.2495 15.5966 26.0123 16.1686 25.5904 16.5905C25.1685 17.0123 24.5965 17.2495 23.9999 17.25Z"/><path fill="#F9E9D7" d="M19.9387 33.015C20.0089 33.2729 20.1136 33.5201 20.25 33.75H19.62L13.0988 36.8287C13.0013 36.8812 10.125 38.4225 10.125 41.73V40.98C10.125 37.6725 13.0013 36.1312 13.0988 36.0787L19.1325 33.2287C19.195 33.0348 19.3204 32.8672 19.4888 32.7525C19.6317 32.8515 19.7822 32.9393 19.9387 33.015ZM37.875 40.98V41.73C37.875 39.675 36.6525 37.9237 34.245 36.5212L28.3838 33.75H27.7537C27.8867 33.5189 27.99 33.2719 28.0613 33.015C28.2743 32.9138 28.4756 32.7893 28.6613 32.6437C28.7529 32.8299 28.8222 33.0263 28.8675 33.2287L34.245 35.7712C36.6525 37.1737 37.875 38.925 37.875 40.98Z" opacity=".3"/><path fill="#1E1E1E" d="M18.5649 31.8397L12.4374 34.7344C12.2818 34.8142 8.625 36.7397 8.625 40.9793V47.25C8.625 47.4489 8.70402 47.6397 8.84467 47.7803C8.98532 47.921 9.17609 48 9.375 48C9.57391 48 9.76468 47.921 9.90533 47.7803C10.046 47.6397 10.125 47.4489 10.125 47.25V40.9793C10.125 37.671 13.0021 36.1314 13.1001 36.0798L19.6194 33L19.9091 33C19.3696 32.734 18.9069 32.3346 18.5649 31.8397ZM34.9684 34.456C34.9502 34.4454 29.4348 31.8391 29.4348 31.8391C29.0921 32.3352 28.6283 32.7354 28.0874 33.0017L28.3845 33.0018L34.2433 35.7696C36.6533 37.1733 37.875 38.926 37.875 40.979V47.25C37.875 47.4489 37.954 47.6397 38.0947 47.7803C38.2353 47.921 38.4261 48 38.625 48C38.8239 48 39.0147 47.921 39.1553 47.7803C39.296 47.6397 39.375 47.4489 39.375 47.25V40.979C39.375 38.3818 37.8512 36.1263 34.9684 34.456Z"/><path fill="#AD8659" d="M20.9437 28.2412V28.9912C20.7188 25.5712 17.925 21.7912 17.925 21.7912C16.4212 19.4212 15 17.1862 15 14.4525C15 14.3325 15.0037 14.2125 15.0112 14.0925C15.135 16.65 16.4925 18.7837 17.925 21.0412C17.925 21.0412 20.7188 24.8212 20.9437 28.2412ZM22.8338 30.3637V31.1137C22.8332 30.915 22.754 30.7246 22.6135 30.5841C22.4729 30.4435 22.2825 30.3643 22.0838 30.3637H21.4725C21.3379 30.3685 21.2069 30.32 21.1079 30.2287C21.0089 30.1375 20.9499 30.0108 20.9438 29.8762V29.1262C20.9499 29.2608 21.0089 29.3875 21.1079 29.4787C21.2069 29.57 21.3379 29.6185 21.4725 29.6137H22.0838C22.2825 29.6143 22.4729 29.6935 22.6135 29.8341C22.754 29.9746 22.8332 30.165 22.8338 30.3637ZM25.1663 31.4775V32.2275C25.1663 32.235 22.8338 32.235 22.8338 32.2275V31.4775C22.8338 31.485 25.1663 31.485 25.1663 31.4775ZM33 14.4525V14.6212C32.955 17.0962 31.7063 19.1812 30.2063 21.4612C28.5713 23.94 27.0563 26.6775 27.0563 29.8762C27.0502 30.0108 26.9912 30.1375 26.8922 30.2287C26.7932 30.32 26.6621 30.3685 26.5275 30.3637H25.9163C25.7175 30.3643 25.5271 30.4435 25.3866 30.5841C25.2461 30.7246 25.1669 30.915 25.1663 31.1137V30.3637C25.1669 30.165 25.2461 29.9746 25.3866 29.8341C25.5271 29.6935 25.7175 29.6143 25.9163 29.6137H26.5275C26.6621 29.6185 26.7932 29.57 26.8922 29.4787C26.9912 29.3875 27.0502 29.2608 27.0563 29.1262C27.0563 25.9275 28.5713 23.19 30.2063 20.7112C31.665 18.495 32.8838 16.4662 32.9888 14.0812C32.9963 14.205 33 14.3287 33 14.4525Z" opacity=".45"/><path fill="#F9E7D2" d="M33 14.4525V14.6212C33 14.6914 32.9962 14.7615 32.9888 14.8312C32.9123 13.23 32.3786 11.6842 31.4508 10.3769C30.523 9.06964 29.24 8.05563 27.7538 7.45498C25.3233 6.48344 22.6109 6.4915 20.1863 7.47748C18.7137 8.08746 17.4451 9.10392 16.5287 10.4081C15.6123 11.7123 15.086 13.2503 15.0112 14.8425C15.0037 14.715 15 14.5838 15 14.4525C15.0073 12.7971 15.5034 11.1809 16.4261 9.8065C17.3488 8.43215 18.6569 7.36099 20.1863 6.72748C22.6109 5.7415 25.3233 5.73344 27.7538 6.70498C29.2989 7.32915 30.6231 8.39942 31.5575 9.77928C32.4919 11.1591 32.994 12.786 33 14.4525Z" opacity=".5"/><path fill="#AD8659" d="M26.2012 43.4137L23.9399 45.57L21.7949 43.425L21.9374 42.8175L23.9399 44.82L26.0549 42.8025L26.2012 43.4137Z" opacity=".45"/></svg>