<svg width="25" height="25" viewBox="0 0 25 25" fill="none" xmlns="http://www.w3.org/2000/svg">
<path d="M8.40011 2.83296C8.77487 1.88274 10.1197 1.88275 10.4944 2.83297L11.6558 5.77762C11.7702 6.06773 11.9998 6.29737 12.2899 6.41179L15.2346 7.57314C16.1848 7.9479 16.1848 9.2927 15.2346 9.66746L12.2899 10.8288C11.9998 10.9432 11.7702 11.1729 11.6558 11.463L10.4944 14.4076C10.1197 15.3579 8.77487 15.3579 8.4001 14.4076L7.23875 11.463C7.12433 11.1729 6.89469 10.9432 6.60458 10.8288L3.65993 9.66746C2.70971 9.2927 2.70971 7.9479 3.65993 7.57314L6.60459 6.41178C6.89469 6.29737 7.12433 6.06773 7.23875 5.77762L8.40011 2.83296Z" fill="#E7E7E7"/>
<path opacity="0.5" d="M17.8718 13.5119C18.0777 12.9898 18.8168 12.9898 19.0227 13.5119L19.9234 15.7956C19.9863 15.9551 20.1125 16.0813 20.2719 16.1442L22.5556 17.0448C23.0778 17.2508 23.0778 17.9898 22.5556 18.1958L20.2719 19.0964C20.1125 19.1593 19.9863 19.2855 19.9234 19.445L19.0227 21.7287C18.8168 22.2508 18.0777 22.2508 17.8718 21.7287L16.9711 19.445C16.9082 19.2855 16.782 19.1593 16.6226 19.0964L14.3389 18.1958C13.8167 17.9898 13.8167 17.2508 14.3389 17.0448L16.6226 16.1442C16.782 16.0813 16.9082 15.9551 16.9711 15.7956L17.8718 13.5119Z" fill="#E7E7E7"/>
</svg>
