<svg width="48" height="48" viewBox="0 0 48 48" fill="none" xmlns="http://www.w3.org/2000/svg">
<g clip-path="url(#clip0_183_2198)">
<path d="M24 32C32.8366 32 40 24.8366 40 16C40 7.16344 32.8366 0 24 0C15.1634 0 8 7.16344 8 16C8 24.8366 15.1634 32 24 32Z" fill="#1E1E1E"/>
<path d="M24 26.7001C29.9095 26.7001 34.7001 21.9095 34.7001 16C34.7001 10.0906 29.9095 5.30005 24 5.30005C18.0906 5.30005 13.3 10.0906 13.3 16C13.3 21.9095 18.0906 26.7001 24 26.7001Z" fill="#F99621"/>
<path d="M41.9001 42.6L35.7001 40.3C35.1001 40.1 34.5001 40.4 34.4001 41L32.6001 47.3C32.3001 48.2 31.1001 48.3 30.7001 47.4L24.1001 32C28.1001 32 31.7001 30.5 34.5001 28.1L43.1001 41.1C43.6001 41.9 42.8001 42.9 41.9001 42.6Z" fill="#EDAC5F"/>
<path d="M13.5001 28C16.3001 30.4 19.9001 31.9 23.9001 31.9L17.4001 47.3C17.0001 48.2 15.8001 48.1 15.5001 47.2L13.6001 41C13.4001 40.4 12.8001 40.1 12.3001 40.3L6.10008 42.6C5.20008 42.9 4.30008 41.9 4.90008 41.1L13.5001 28Z" fill="#FFC580"/>
<path d="M24.5999 10.4L25.8999 13C25.9999 13.2 26.1999 13.3 26.3999 13.4L29.2 13.8C29.8 13.9 29.9999 14.6 29.5999 15L27.5999 17C27.4 17.2 27.3999 17.4 27.3999 17.6L27.8999 20.4C27.9999 21 27.3999 21.4 26.8999 21.1L24.3999 19.8C24.1999 19.7 23.9999 19.7 23.7999 19.8L21.2999 21.1C20.7999 21.4 20.1999 20.9 20.2999 20.4L20.7999 17.6C20.7999 17.4 20.7999 17.2 20.5999 17L18.5999 15C18.1999 14.6 18.3999 13.9 18.9999 13.8L21.7999 13.4C21.9999 13.4 22.1999 13.2 22.2999 13L23.5999 10.4C23.5999 9.90002 24.3999 9.90002 24.5999 10.4Z" fill="white"/>
</g>
<defs>
<clipPath id="clip0_183_2198">
<rect width="48" height="48" fill="white"/>
</clipPath>
</defs>
</svg>
