<svg width="171" height="84" viewBox="0 0 171 84" fill="none" xmlns="http://www.w3.org/2000/svg">
<path d="M169.029 73.8226C169.847 73.6909 170.617 74.2472 170.749 75.065C170.88 75.8829 170.324 76.6527 169.506 76.7845L169.029 73.8226ZM81.7977 56.5157L80.2998 56.4379L81.7977 56.5157ZM0.46651 16.8066L4.99316 5.42642L16.3734 9.95306L11.8467 21.3333L0.46651 16.8066ZM169.506 76.7845C157.063 78.7885 134.454 83.8598 115.304 83.5139C105.731 83.3409 96.7572 81.8192 90.2667 77.6941C86.9953 75.6149 84.3484 72.8698 82.5979 69.318C80.8498 65.7714 80.0366 61.5044 80.2998 56.4379L83.2957 56.5935C83.0539 61.2494 83.8083 64.9881 85.2888 67.9918C86.7667 70.9903 89.0091 73.3402 91.8759 75.1622C97.6617 78.8394 105.96 80.3446 115.359 80.5144C134.153 80.8539 156.289 75.8745 169.029 73.8226L169.506 76.7845ZM80.2998 56.4379C81.1606 39.8663 79.3165 28.102 75.627 19.9923C71.967 11.9473 66.4756 7.4544 59.8199 5.37241C53.0912 3.26761 45.0411 3.58821 36.2802 5.4802C27.5346 7.36886 18.2138 10.7934 9.01349 14.7574L7.8264 12.0023C17.1039 8.00501 26.6277 4.49556 35.6469 2.54779C44.6508 0.603346 53.2857 0.18507 60.7155 2.50923C68.2183 4.85619 74.3588 9.96006 78.3577 18.75C82.3272 27.4751 84.1689 39.7838 83.2957 56.5935L80.2998 56.4379Z" fill="#F99621"/>
</svg>
