<svg width="170" height="84" viewBox="0 0 170 84" fill="none" xmlns="http://www.w3.org/2000/svg">
<path d="M2.54884 73.5161C1.7313 73.3822 0.960018 73.9364 0.826122 74.754C0.692227 75.5715 1.24643 76.3428 2.06396 76.4767L2.54884 73.5161ZM89.1518 56.3689L90.6496 56.289L89.1518 56.3689ZM169.899 16.8345L165.413 5.43844L154.017 9.92515L158.503 21.3212L169.899 16.8345ZM2.06396 76.4767C14.4246 78.5011 36.8923 83.6101 55.914 83.2975C65.4234 83.1413 74.3387 81.6357 80.7829 77.5206C87.3671 73.3162 91.1944 66.5001 90.6496 56.289L87.6539 56.4489C88.1461 65.6756 84.7638 71.4191 79.1683 74.9922C73.4328 78.6546 65.1984 80.1445 55.8647 80.2979C37.2003 80.6046 15.2082 75.5895 2.54884 73.5161L2.06396 76.4767ZM90.6496 56.289C89.7658 39.7222 91.5771 27.9654 95.2276 19.8656C98.8486 11.831 104.293 7.35372 110.893 5.28632C117.567 3.19576 125.56 3.52939 134.264 5.43554C142.952 7.33828 152.215 10.7771 161.36 14.7553L162.556 12.0043C153.334 7.99265 143.868 4.46785 134.905 2.505C125.958 0.545557 117.377 0.111663 109.996 2.42348C102.542 4.75846 96.4493 9.85342 92.4925 18.6329C88.5652 27.3472 86.7575 39.6463 87.6539 56.4489L90.6496 56.289Z" fill="#F99621"/>
</svg>
