<svg width="32" height="32" viewBox="0 0 32 32" fill="none" xmlns="http://www.w3.org/2000/svg">
<g clip-path="url(#clip0_336_1145)">
<path d="M31.4858 16.1915L29.4589 15.6027C29.4416 14.992 29.3816 14.3834 29.2793 13.7811L31.1545 12.8187C31.2313 12.7793 31.2918 12.7142 31.3256 12.6348C31.3595 12.5554 31.3644 12.4666 31.3396 12.384L30.7778 10.5078C30.7526 10.4251 30.6993 10.3537 30.6272 10.306C30.555 10.2583 30.4685 10.2372 30.3825 10.2464L28.2828 10.4841C28.0321 9.92725 27.7434 9.38822 27.4188 8.87085L28.7835 7.26002C28.8393 7.19402 28.8702 7.11059 28.8709 7.02418C28.8716 6.93777 28.8421 6.85384 28.7874 6.78691L27.5453 5.27159C27.4906 5.20467 27.4141 5.15909 27.3291 5.1428C27.2442 5.12652 27.1562 5.14056 27.0806 5.18248L25.233 6.20451C24.7905 5.78452 24.3197 5.39534 23.824 5.03972L24.4674 3.0311C24.4939 2.94875 24.4906 2.85972 24.4581 2.77956C24.4256 2.69939 24.366 2.63317 24.2897 2.59245L22.5632 1.66987C22.4872 1.62926 22.3993 1.61653 22.3149 1.63388C22.2305 1.65123 22.1548 1.69758 22.1009 1.76488L20.7805 3.41411C20.2108 3.19829 19.627 3.02131 19.0333 2.88439L18.8551 0.779776C18.8479 0.693863 18.8107 0.613206 18.7502 0.55179C18.6897 0.490375 18.6096 0.452074 18.5238 0.44353L16.5757 0.247592C16.4898 0.239884 16.4039 0.262085 16.3325 0.310438C16.2611 0.358792 16.2086 0.430329 16.1839 0.512945L15.6 2.54421C14.9914 2.56159 14.3846 2.62014 13.7839 2.71947L12.8111 0.842299C12.7713 0.765623 12.706 0.705279 12.6264 0.671737C12.5468 0.638195 12.458 0.633571 12.3754 0.658669L10.509 1.22581C10.4266 1.25089 10.3556 1.30399 10.3082 1.37591C10.2609 1.44783 10.2401 1.53405 10.2496 1.61965L10.478 3.71639C9.92355 3.96935 9.38613 4.25813 8.86916 4.58088L7.25242 3.21916C7.18647 3.16363 7.10319 3.13289 7.01698 3.13226C6.93077 3.13163 6.84705 3.16115 6.7803 3.21571L5.27039 4.45338C5.20362 4.50803 5.1581 4.58434 5.14174 4.66905C5.12537 4.75377 5.13919 4.84154 5.18079 4.91713L6.19937 6.76722C5.78129 7.21183 5.39316 7.68367 5.03753 8.17965L3.0299 7.53572C2.94754 7.50927 2.85852 7.51257 2.77836 7.54505C2.69819 7.57753 2.63197 7.63713 2.59125 7.71344L1.66867 9.43996C1.62817 9.51614 1.61555 9.60407 1.63299 9.68856C1.65043 9.77306 1.69683 9.84881 1.76417 9.90273L3.41144 11.2167C3.19406 11.7863 3.01576 12.3701 2.87777 12.9639L0.77759 13.1421C0.69147 13.1494 0.610629 13.1867 0.549112 13.2474C0.487594 13.3081 0.449289 13.3884 0.440851 13.4744L0.250328 15.4225C0.241846 15.5083 0.263634 15.5943 0.311918 15.6657C0.360201 15.7371 0.431938 15.7893 0.514697 15.8134L2.53808 16.4027C2.55827 17.0077 2.61833 17.6162 2.71728 18.2183L0.840605 19.1867C0.763695 19.2264 0.703157 19.2919 0.669517 19.3717C0.635878 19.4515 0.631265 19.5405 0.656482 19.6233L1.22854 21.4941C1.25407 21.5763 1.30735 21.6471 1.37928 21.6943C1.45122 21.7415 1.53732 21.7623 1.62288 21.7531L3.71273 21.5202C3.96359 22.077 4.25227 22.6161 4.57673 23.1335L3.21648 24.7448C3.1607 24.8106 3.12976 24.8939 3.12904 24.9802C3.12832 25.0664 3.15787 25.1502 3.21254 25.2169L4.44971 26.7273C4.50434 26.794 4.58056 26.8394 4.66516 26.8558C4.74977 26.8722 4.83744 26.8584 4.91297 26.8169L6.76405 25.8023C7.20927 26.2199 7.68124 26.608 8.17697 26.9641L7.53845 28.9733C7.51226 29.0555 7.5157 29.1443 7.54817 29.2242C7.58063 29.3042 7.64008 29.3702 7.71617 29.4109L9.43777 30.3286C9.5138 30.3692 9.60164 30.3819 9.68607 30.3646C9.7705 30.3472 9.8462 30.3009 9.90005 30.2336L11.2199 28.5897C11.8028 28.8113 12.3887 28.9905 12.9666 29.1244L13.1404 31.2236C13.1475 31.3098 13.1847 31.3908 13.2454 31.4525C13.3061 31.5141 13.3866 31.5525 13.4727 31.5608L15.4208 31.7513C15.5066 31.7598 15.5927 31.7379 15.6641 31.6896C15.7355 31.6412 15.7877 31.5693 15.8117 31.4865L16.3965 29.4636C17.0065 29.4437 17.6145 29.384 18.2166 29.2849L19.185 31.1566C19.2245 31.2333 19.2896 31.2937 19.369 31.3272C19.4485 31.3608 19.5372 31.3654 19.6197 31.3403L21.4959 30.7736C21.5787 30.7487 21.6502 30.6954 21.6978 30.6232C21.7454 30.5509 21.7661 30.4643 21.7563 30.3783L21.5185 28.2825C22.0742 28.0318 22.6128 27.7448 23.1308 27.4235L24.7431 28.7847C24.879 28.8999 25.0779 28.9009 25.2153 28.7881L26.7306 27.5456C26.7974 27.4908 26.8429 27.4144 26.8592 27.3296C26.8754 27.2447 26.8615 27.1569 26.8197 27.0813L25.7967 25.2327C26.2161 24.7905 26.6045 24.3199 26.959 23.8242L28.9721 24.4632C29.0543 24.4892 29.143 24.4857 29.2229 24.4532C29.3028 24.4208 29.3689 24.3615 29.4097 24.2855L30.3323 22.559C30.3728 22.4828 30.3854 22.3949 30.368 22.3104C30.3505 22.2259 30.3041 22.1501 30.2368 22.0962L28.589 20.7813C28.8043 20.2115 28.9813 19.6279 29.1188 19.0345L31.2229 18.8563C31.309 18.8491 31.3898 18.812 31.4513 18.7514C31.5128 18.6908 31.5512 18.6105 31.5596 18.5245L31.7501 16.5819C31.7585 16.4962 31.7367 16.4103 31.6884 16.339C31.6401 16.2677 31.5684 16.2155 31.4858 16.1915ZM30.8541 18.1464L28.785 18.3217C28.7057 18.3284 28.6307 18.3604 28.5711 18.4131C28.5115 18.4658 28.4705 18.5363 28.4541 18.6141C28.3006 19.3483 28.0828 20.0675 27.8033 20.7635C27.7738 20.8372 27.7687 20.9185 27.7889 20.9953C27.8092 21.072 27.8536 21.1403 27.9156 21.1899L29.5357 22.4822L28.9026 23.6667L26.9226 23.038C26.8466 23.014 26.7648 23.0151 26.6895 23.0413C26.6142 23.0675 26.5494 23.1172 26.5046 23.1832C26.0822 23.8022 25.6047 24.3817 25.0779 24.9147C25.0222 24.9715 24.9864 25.0448 24.9757 25.1237C24.9651 25.2026 24.9802 25.2828 25.0188 25.3523L26.0246 27.1704L24.9849 28.0226L23.4006 26.685C23.34 26.634 23.2647 26.6037 23.1857 26.5987C23.1066 26.5936 23.028 26.614 22.9615 26.6569C22.331 27.0655 21.6667 27.4194 20.976 27.7149C20.903 27.7462 20.842 27.8002 20.802 27.8688C20.7621 27.9374 20.7452 28.017 20.754 28.096L20.9878 30.1558L19.6999 30.5447L18.7483 28.7045C18.7118 28.6341 18.6537 28.5773 18.5826 28.5425C18.5114 28.5076 18.4309 28.4966 18.353 28.511C17.6194 28.6473 16.8652 28.7212 16.112 28.7315C16.0327 28.7325 15.9559 28.759 15.8929 28.8071C15.8298 28.8551 15.7839 28.9222 15.762 28.9984L15.1869 30.9863L13.8513 30.8558L13.6805 28.7921C13.674 28.7127 13.642 28.6376 13.5893 28.5778C13.5366 28.5181 13.466 28.4771 13.3881 28.4608C12.6539 28.3053 11.9349 28.0857 11.2391 27.8045C11.1656 27.7752 11.0846 27.7702 11.0079 27.7902C10.9313 27.8102 10.8631 27.8542 10.8133 27.9158L9.51556 29.5325L8.33648 28.9038L8.96417 26.9292C8.98833 26.8536 8.98749 26.7723 8.96177 26.6973C8.93606 26.6223 8.88683 26.5575 8.8214 26.5127C8.20191 26.0868 7.62002 25.6087 7.08208 25.0835C7.02534 25.0285 6.95249 24.9931 6.87419 24.9825C6.79588 24.9719 6.71623 24.9866 6.64688 25.0245L4.82781 26.0214L3.98005 24.9861L5.31814 23.4018C5.36948 23.3412 5.39988 23.2656 5.40485 23.1863C5.40982 23.107 5.38908 23.0282 5.34571 22.9617C4.93329 22.3333 4.57759 21.6696 4.28282 20.9782C4.25194 20.9048 4.19812 20.8434 4.12943 20.8032C4.06073 20.763 3.98086 20.7462 3.90177 20.7552L1.84639 20.9846L1.45402 19.7016L3.29771 18.7505C3.36821 18.7142 3.42514 18.6561 3.46008 18.5849C3.49501 18.5137 3.50609 18.4331 3.49168 18.3552C3.35424 17.6175 3.28045 16.8694 3.27113 16.1191C3.26999 16.0399 3.24351 15.9632 3.19557 15.9002C3.14764 15.8372 3.08077 15.7913 3.00479 15.7691L1.01587 15.1901L1.14633 13.853L3.21107 13.6777C3.29027 13.6711 3.3652 13.639 3.42471 13.5863C3.48423 13.5336 3.52515 13.4631 3.5414 13.3853C3.69402 12.6582 3.91408 11.9355 4.19716 11.2369C4.22708 11.1631 4.23236 11.0817 4.21223 11.0047C4.19209 10.9277 4.1476 10.8592 4.08541 10.8096L2.46522 9.51725L3.09784 8.33325L5.07199 8.96636C5.14797 8.99068 5.22977 8.98977 5.30519 8.96378C5.38061 8.93778 5.4456 8.88809 5.49045 8.82211C5.9154 8.20234 6.39325 7.62056 6.91864 7.08328C6.97381 7.02653 7.00929 6.95355 7.01984 6.87511C7.03038 6.79666 7.01544 6.7169 6.97722 6.64759L5.97636 4.8295L7.01119 3.98175L8.60036 5.32033C8.66087 5.37132 8.73616 5.40153 8.81513 5.40649C8.89411 5.41145 8.97259 5.39091 9.03901 5.3479C9.6679 4.93787 10.3307 4.58228 11.0201 4.28501C11.0929 4.25375 11.1537 4.19997 11.1937 4.13156C11.2336 4.06314 11.2506 3.98372 11.2421 3.90495L11.0176 1.84365L12.2966 1.45522L13.2527 3.30039C13.2892 3.37069 13.3473 3.42743 13.4185 3.46225C13.4896 3.49708 13.5701 3.50816 13.648 3.49387C14.3847 3.35626 15.1322 3.2841 15.8816 3.27824C15.9614 3.27767 16.0388 3.25133 16.1025 3.20316C16.1661 3.15499 16.2124 3.08756 16.2346 3.01091L16.8086 1.01411L18.1447 1.14802L18.32 3.21818C18.3338 3.38064 18.4529 3.51504 18.6124 3.54851C19.3381 3.69965 20.0613 3.91922 20.7609 4.19984C20.8345 4.22927 20.9156 4.23425 20.9923 4.21404C21.069 4.19382 21.1371 4.1495 21.1867 4.08759L22.4844 2.46642L23.6684 3.09953L23.0358 5.07418C23.0116 5.14987 23.0124 5.23135 23.0381 5.30655C23.0638 5.38174 23.1131 5.44665 23.1786 5.49165C23.7977 5.91606 24.3775 6.39519 24.911 6.92328C24.9677 6.97944 25.0412 7.0157 25.1202 7.02661C25.1993 7.03753 25.2798 7.02252 25.3497 6.98384L27.1677 5.97855L28.0194 7.01781L26.6774 8.60205C26.6258 8.6628 26.5954 8.73864 26.5906 8.81818C26.5858 8.89771 26.6069 8.97666 26.6508 9.04316C27.0629 9.67138 27.4182 10.335 27.7127 11.0262C27.744 11.0993 27.798 11.1605 27.8667 11.2007C27.9354 11.2408 28.0152 11.2578 28.0943 11.2492L30.1585 11.0158L30.5435 12.3017L28.6983 13.2485C28.6273 13.2849 28.57 13.3435 28.535 13.4153C28.5 13.4871 28.4893 13.5683 28.5044 13.6467C28.6457 14.3832 28.72 15.136 28.7249 15.8838C28.7255 15.9634 28.7518 16.0406 28.7997 16.1041C28.8477 16.1676 28.9149 16.2139 28.9913 16.2363L30.9851 16.8157L30.8541 18.1464Z" fill="#666666"/>
<path d="M24.3733 9.88159H7.06769C6.68468 9.88159 6.37305 10.1932 6.37305 10.5762V19.7578C6.37305 20.1408 6.68468 20.4524 7.06769 20.4524H24.3728C24.7558 20.4524 25.0674 20.1408 25.0674 19.7578V10.5762C25.0674 10.1932 24.7558 9.88159 24.3733 9.88159Z" fill="#88C057"/>
<path d="M23.5463 12.4992C23.2558 12.4987 22.9773 12.3831 22.7719 12.1777C22.5665 11.9723 22.4509 11.6938 22.4504 11.4034C22.4504 11.3468 22.4279 11.2926 22.3879 11.2526C22.348 11.2126 22.2937 11.1902 22.2372 11.1902H9.20434C9.14781 11.1902 9.09359 11.2126 9.05361 11.2526C9.01363 11.2926 8.99118 11.3468 8.99118 11.4034C8.99091 11.6939 8.87537 11.9725 8.66991 12.178C8.46445 12.3834 8.18586 12.499 7.8953 12.4992C7.83876 12.4992 7.78454 12.5217 7.74456 12.5617C7.70459 12.6016 7.68213 12.6559 7.68213 12.7124V17.6217C7.68213 17.7394 7.77764 17.8349 7.8953 17.8349C8.18578 17.8354 8.46422 17.951 8.66963 18.1564C8.87503 18.3618 8.99065 18.6403 8.99118 18.9307C8.99118 19.0484 9.08668 19.1439 9.20434 19.1439H22.2377C22.2942 19.1439 22.3485 19.1215 22.3884 19.0815C22.4284 19.0415 22.4509 18.9873 22.4509 18.9307C22.4509 18.3267 22.9422 17.8349 23.5467 17.8349C23.6033 17.8349 23.6575 17.8124 23.6975 17.7724C23.7375 17.7325 23.7599 17.6782 23.7599 17.6217V12.7124C23.7597 12.6559 23.737 12.6017 23.697 12.5618C23.657 12.5218 23.6028 12.4994 23.5463 12.4992Z" fill="white"/>
<path d="M15.7207 12.6582C15.0555 12.659 14.4178 12.9235 13.9474 13.3938C13.477 13.8642 13.2123 14.5018 13.2114 15.167C13.2114 16.5499 14.3373 17.6753 15.7207 17.6753C17.1041 17.6753 18.2295 16.5499 18.2295 15.167C18.2287 14.5019 17.9642 13.8642 17.4938 13.3939C17.0235 12.9236 16.3859 12.659 15.7207 12.6582Z" fill="#88C057"/>
<path d="M19.622 7.8479C19.3652 7.84878 19.1153 7.93075 18.9079 8.0821C18.7005 8.23346 18.5462 8.44647 18.467 8.69073C18.3878 8.44643 18.2334 8.23341 18.0259 8.08205C17.8184 7.9307 17.5684 7.84875 17.3116 7.8479C16.771 7.8479 16.3171 8.20335 16.1566 8.69073C16.0773 8.44647 15.9229 8.23349 15.7154 8.08215C15.5079 7.9308 15.258 7.84882 15.0012 7.8479C14.4606 7.8479 14.0067 8.20335 13.8462 8.69073C13.767 8.44643 13.6126 8.23341 13.4051 8.08205C13.1976 7.9307 12.9476 7.84875 12.6908 7.8479C12.3671 7.84829 12.0568 7.97705 11.8279 8.20593C11.599 8.43482 11.4702 8.74513 11.4699 9.06882V9.81664C11.4702 10.1403 11.599 10.4506 11.8279 10.6795C12.0568 10.9084 12.3671 11.0372 12.6908 11.0376C12.9476 11.0366 13.1975 10.9547 13.405 10.8033C13.6125 10.652 13.7669 10.439 13.8462 10.1947C13.9254 10.439 14.0797 10.652 14.2871 10.8034C14.4945 10.9547 14.7444 11.0367 15.0012 11.0376C15.258 11.0366 15.5079 10.9547 15.7154 10.8033C15.9229 10.652 16.0773 10.439 16.1566 10.1947C16.2358 10.439 16.3901 10.652 16.5975 10.8034C16.8049 10.9547 17.0548 11.0367 17.3116 11.0376C17.5684 11.0366 17.8184 10.9547 18.0258 10.8033C18.2333 10.652 18.3877 10.439 18.467 10.1947C18.5462 10.439 18.7005 10.652 18.9079 10.8034C19.1153 10.9547 19.3652 11.0367 19.622 11.0376C19.9458 11.0373 20.2562 10.9086 20.4852 10.6797C20.7142 10.4508 20.843 10.1404 20.8434 9.81664V9.06882C20.843 8.74505 20.7142 8.43466 20.4852 8.20576C20.2562 7.97686 19.9458 7.84816 19.622 7.8479ZM22.6019 20.6952C22.5827 20.5578 22.3981 20.4057 22.2534 20.4057H22.2484C22.115 20.4091 21.9806 20.4121 21.8511 20.4121L12.6233 20.2806C10.918 19.3137 10.0589 18.3739 8.85275 16.9497C8.07588 16.0315 6.97508 15.8627 6.23022 16.1039C5.85213 16.226 5.62518 16.4357 5.60598 16.6799C5.5789 17.0422 5.77828 17.3396 6.05447 17.7512C6.42222 18.2991 6.92536 19.0489 7.28032 20.4574C7.38518 20.8734 7.78345 21.0413 8.13545 21.1889C8.61841 21.3923 8.66173 21.4489 9.38296 22.0441C10.9273 23.3211 12.6908 24.7803 12.4948 27.4112C12.4904 27.4664 12.487 27.8873 12.4801 28.9073C12.4722 29.9205 12.4623 31.3088 12.4525 31.4191C12.4478 31.4504 12.4498 31.4823 12.4585 31.5128C12.4673 31.5432 12.4825 31.5714 12.5031 31.5954C12.5237 31.6194 12.5492 31.6387 12.578 31.6519C12.6067 31.6652 12.638 31.6721 12.6696 31.6721H19.9976C20.0555 31.6721 20.1111 31.6493 20.1522 31.6085C20.1933 31.5678 20.2167 31.5124 20.2172 31.4545C20.2182 31.3551 20.2162 30.9017 20.2142 30.3153C20.199 26.0761 19.9267 26.3784 21.7192 23.4417C22.2484 22.5782 22.7481 21.762 22.6019 20.6952Z" fill="#FFCC66"/>
<path d="M16.0705 24.2093C16.0156 24.2092 15.9628 24.1885 15.9224 24.1513C15.882 24.1141 15.857 24.0632 15.8524 24.0085C15.6284 21.3702 13.5533 20.7302 13.5326 20.7243C13.5049 20.7162 13.4792 20.7026 13.4567 20.6845C13.4343 20.6664 13.4156 20.6441 13.4018 20.6187C13.388 20.5934 13.3793 20.5656 13.3762 20.5369C13.3732 20.5082 13.3758 20.4792 13.3839 20.4516C13.3921 20.4239 13.4056 20.3981 13.4237 20.3757C13.4418 20.3532 13.4642 20.3345 13.4895 20.3207C13.5148 20.3069 13.5426 20.2983 13.5713 20.2952C13.6 20.2921 13.629 20.2947 13.6567 20.3029C13.6803 20.3098 16.0404 21.0374 16.2891 23.9711C16.2916 24.0014 16.2879 24.0318 16.2781 24.0606C16.2683 24.0894 16.2526 24.1158 16.2321 24.1382C16.2115 24.1606 16.1866 24.1785 16.1587 24.1907C16.1309 24.203 16.1009 24.2093 16.0705 24.2093Z" fill="#E7B95D"/>
</g>
<defs>
<clipPath id="clip0_336_1145">
<rect width="32" height="32" fill="white"/>
</clipPath>
</defs>
</svg>
