<svg width="48" height="48" viewBox="0 0 48 48" fill="none" xmlns="http://www.w3.org/2000/svg">
<path fill-rule="evenodd" clipRule="evenodd" d="M41.573 20.3624C40.0731 13.0788 34.1606 7.40808 26.7531 6.26714L27.3494 5.89776C28.4831 5.19661 28.4161 3.52289 27.2299 2.91473L26.9937 2.7937C36.1669 4.07686 43.4763 11.1721 45.0833 20.2377L46.5517 20.1853C46.8592 20.1749 47.0642 20.4963 46.9234 20.77L43.9174 26.6304C43.7741 26.9099 43.3831 26.9257 43.2181 26.6588L39.7345 21.0286C39.5718 20.7654 39.7529 20.4259 40.062 20.4155L41.573 20.3624Z" fill="#121212"/>
<path fill-rule="evenodd" clipRule="evenodd" d="M27.638 41.5724L27.5843 40.062C27.5734 39.7528 27.2345 39.5717 26.9713 39.7338L21.3412 43.2176C21.0744 43.3829 21.0901 43.7738 21.3693 43.9174L27.2294 46.9239C27.5033 47.0643 27.8254 46.8589 27.8146 46.5514L27.7626 45.0831C36.8281 43.4762 43.9229 36.167 45.2063 26.9935L45.0854 27.2296C44.4768 28.4158 42.8035 28.483 42.1022 27.3497L41.7333 26.7533C40.5924 34.1605 34.9212 40.0733 27.6381 41.5723L27.638 41.5724Z" fill="#F99621"/>
<path fill-rule="evenodd" clipRule="evenodd" d="M6.42702 27.6374C7.92702 34.9209 13.8395 40.5917 21.2468 41.7326L20.6508 42.1024C19.517 42.8035 19.5839 44.4768 20.7702 45.0854L21.0064 45.2064C11.8332 43.9228 4.5238 36.828 2.91693 27.762L1.44852 27.8148C1.14074 27.8247 0.935992 27.5032 1.07662 27.2297L4.08271 21.3693C4.22596 21.0898 4.6169 21.074 4.78199 21.3412L8.26555 26.9709C8.42849 27.2342 8.24737 27.5728 7.93799 27.5841L6.42702 27.6374Z" fill="#121212"/>
<path fill-rule="evenodd" clipRule="evenodd" d="M20.3622 6.42652L20.4157 7.93768C20.4267 8.24696 20.7655 8.42799 21.0289 8.26505L26.659 4.78224C26.9259 4.61696 26.91 4.22508 26.631 4.08286L20.7707 1.07639C20.4969 0.935581 20.1747 1.14099 20.1857 1.44839L20.2377 2.91661C11.172 4.52349 4.07739 11.8332 2.79376 21.0062L2.91489 20.7701C3.52332 19.5831 5.19667 19.5167 5.89811 20.65L6.26711 21.2464C7.40804 13.8391 13.0793 7.92643 20.3622 6.42652Z" fill="#F99621"/>
<path fill-rule="evenodd" clipRule="evenodd" d="M23.9999 32.3902C19.3661 32.3902 15.6094 28.6342 15.6094 23.9996C15.6094 19.365 19.3661 15.6095 23.9999 15.6095C28.6337 15.6095 32.3907 19.3658 32.3907 23.9996C32.3907 28.6334 28.6341 32.3902 23.9999 32.3902ZM37.0744 21.6334L35.2029 21.2649L33.8553 18.0119L34.9177 16.4276C35.0017 16.3041 35.0397 16.1551 35.0252 16.0065C35.0107 15.8578 34.9446 15.7189 34.8383 15.614L32.3861 13.1615C32.2811 13.0554 32.1422 12.9892 31.9935 12.9747C31.8448 12.9601 31.6957 12.9979 31.572 13.0817L29.9877 14.1449L26.7346 12.7968L26.3655 10.9258C26.3375 10.779 26.259 10.6467 26.1437 10.5518C26.0283 10.4568 25.8833 10.4053 25.7339 10.4061H22.2658C21.9551 10.4061 21.6942 10.621 21.634 10.9258L21.2651 12.7968L18.0121 14.1449L16.4276 13.0817C16.3039 12.998 16.1549 12.9601 16.0062 12.9747C15.8576 12.9893 15.7188 13.0554 15.6137 13.1615L13.1615 15.614C13.0552 15.7189 12.989 15.8578 12.9744 16.0064C12.9599 16.1551 12.998 16.3041 13.082 16.4276L14.1445 18.0119L12.797 21.2649L10.9255 21.6334C10.6206 21.6948 10.4062 21.9553 10.4062 22.2654V25.7333C10.4062 26.0444 10.6207 26.3049 10.9255 26.3655L12.797 26.7348L14.1445 29.9878L13.082 31.5721C12.998 31.6956 12.9599 31.8446 12.9744 31.9932C12.989 32.1419 13.0552 32.2807 13.1615 32.3856L15.6137 34.8381C15.7187 34.9443 15.8576 35.0105 16.0062 35.0251C16.1549 35.0397 16.304 35.0018 16.4276 34.918L18.0121 33.8547L21.2651 35.2028L21.634 37.0743C21.6621 37.221 21.7407 37.3533 21.8561 37.4481C21.9716 37.543 22.1166 37.5944 22.266 37.5935H25.7339C25.8832 37.5943 26.0282 37.5428 26.1435 37.448C26.2589 37.3532 26.3374 37.2209 26.3655 37.0743L26.7346 35.2028L29.9877 33.8547L31.572 34.918C31.6957 35.0018 31.8448 35.0396 31.9935 35.025C32.1422 35.0104 32.2811 34.9443 32.3861 34.8381L34.8383 32.3856C34.9446 32.2807 35.0107 32.1419 35.0252 31.9932C35.0397 31.8446 35.0017 31.6956 34.9177 31.5721L33.8553 29.9878L35.2029 26.7348L37.0744 26.3655C37.3793 26.3049 37.5938 26.0445 37.5938 25.7333V22.2654C37.5938 21.9552 37.3791 21.6948 37.0744 21.6334Z" fill="#121212"/>
<path fill-rule="evenodd" clipRule="evenodd" d="M24.0001 17.3351C25.5119 17.3351 26.7376 18.5604 26.7376 20.0725C26.7376 21.5846 25.5118 22.8104 24.0001 22.8104C22.4884 22.8104 21.2625 21.5851 21.2625 20.0725C21.2625 18.5599 22.4881 17.3351 24.0001 17.3351ZM23.9999 23.5919C26.7628 23.5919 29.1043 25.392 29.9183 27.8829C28.6533 29.8076 26.4754 31.0781 23.9999 31.0781C21.5244 31.0781 19.3468 29.8076 18.0818 27.8829C18.896 25.392 21.2372 23.5919 23.9999 23.5919Z" fill="#F99621"/>
</svg>
