<svg width="58" height="58" viewBox="0 0 58 58" fill="none" xmlns="http://www.w3.org/2000/svg">
<g clip-path="url(#clip0_373_1301)">
<path d="M28.7666 41.8013C35.8365 41.8013 41.5679 36.0699 41.5679 29C41.5679 21.9301 35.8365 16.1987 28.7666 16.1987C21.6967 16.1987 15.9653 21.9301 15.9653 29C15.9653 36.0699 21.6967 41.8013 28.7666 41.8013Z" fill="#70D6F9"/>
<path d="M28.7665 7.38488C30.4508 7.38488 31.8162 6.01948 31.8162 4.33517C31.8162 2.65086 30.4508 1.28546 28.7665 1.28546C27.0822 1.28546 25.7168 2.65086 25.7168 4.33517C25.7168 6.01948 27.0822 7.38488 28.7665 7.38488Z" fill="#FEB872"/>
<path d="M31.3643 8.0155H26.1692C24.7059 8.0155 23.5088 9.21264 23.5088 10.6759V12.5086C23.5088 13.0472 23.9454 13.484 24.4842 13.484H33.0494C33.5881 13.484 34.0249 13.0474 34.0249 12.5086V10.6759C34.0247 9.21264 32.8273 8.0155 31.3643 8.0155Z" fill="#FC657E"/>
<path d="M28.7665 56.7146C30.4508 56.7146 31.8162 55.3492 31.8162 53.6649C31.8162 51.9806 30.4508 50.6152 28.7665 50.6152C27.0822 50.6152 25.7168 51.9806 25.7168 53.6649C25.7168 55.3492 27.0822 56.7146 28.7665 56.7146Z" fill="#A57453"/>
<path d="M33.0495 44.5162H24.4842C23.9456 44.5162 23.5088 44.9528 23.5088 45.4916V47.3243C23.5088 48.7875 24.7059 49.9847 26.1692 49.9847H31.3643C32.8275 49.9847 34.0247 48.7875 34.0247 47.3243V45.4916C34.0249 44.9528 33.5881 44.5162 33.0495 44.5162Z" fill="#F5C84C"/>
<path d="M8.93078 14.0264C7.47217 13.1844 5.60701 13.6841 4.76498 15.1427C3.92294 16.6013 4.42269 18.4665 5.88129 19.3085C7.33989 20.1505 9.20505 19.6508 10.0471 18.1922C10.8891 16.7336 10.3894 14.8686 8.93078 14.0264Z" fill="#F9D0B4"/>
<path d="M17.1134 16.2007L15.5263 15.2845C14.2592 14.5528 12.6239 14.991 11.8923 16.2581L9.29483 20.7574C8.56321 22.0245 9.00134 23.66 10.2685 24.3914L11.8556 25.3076C12.322 25.5771 12.9187 25.4172 13.1879 24.9508L17.4705 17.533C17.7399 17.0666 17.5801 16.4701 17.1134 16.2007Z" fill="#5290DB"/>
<path d="M51.652 38.6915C50.1934 37.8495 48.3282 38.3492 47.4862 39.8078C46.6441 41.2664 47.1439 43.1316 48.6025 43.9736C50.0611 44.8156 51.9262 44.3159 52.7683 42.8573C53.6103 41.3987 53.1106 39.5335 51.652 38.6915Z" fill="#D68649"/>
<path d="M47.265 33.6086L45.6779 32.6923C45.2115 32.4229 44.6148 32.5828 44.3456 33.0492L40.063 40.467C39.7936 40.9334 39.9535 41.5299 40.4201 41.7993L42.0072 42.7155C43.2744 43.4471 44.9096 43.009 45.6413 41.7419L48.2389 37.2426C48.9703 35.9755 48.5322 34.3402 47.265 33.6086Z" fill="#FCA265"/>
<path d="M10.0471 39.8076C9.20505 38.349 7.33989 37.8492 5.88129 38.6912C4.42269 39.5333 3.92294 41.3984 4.76498 42.857C5.60701 44.3156 7.47217 44.8154 8.93078 43.9734C10.3894 43.1313 10.8891 41.2662 10.0471 39.8076Z" fill="#FCE4BE"/>
<path d="M17.4705 40.467L13.1879 33.0492C12.9185 32.5826 12.322 32.4229 11.8556 32.6923L10.2685 33.6086C9.00134 34.3402 8.56321 35.9755 9.29483 37.2426L11.8925 41.7419C12.6241 43.009 14.2594 43.4471 15.5265 42.7155L17.1137 41.7993C17.5801 41.5299 17.7399 40.9334 17.4705 40.467Z" fill="#70D6F9"/>
<path d="M52.7683 15.1427C51.9262 13.6841 50.0611 13.1844 48.6025 14.0264C47.1439 14.8684 46.6441 16.7336 47.4862 18.1922C48.3282 19.6508 50.1934 20.1505 51.652 19.3085C53.1108 18.4665 53.6105 16.6013 52.7683 15.1427Z" fill="#818182"/>
<path d="M48.2383 20.7574L45.6406 16.2581C44.909 14.991 43.2737 14.5528 42.0066 15.2845L40.4195 16.2007C39.9531 16.4701 39.7932 17.0666 40.0624 17.533L44.345 24.9508C44.6144 25.4174 45.2109 25.5771 45.6773 25.3076L47.2644 24.3914C48.5318 23.6598 48.9699 22.0245 48.2383 20.7574Z" fill="#87D147"/>
<path d="M28.7669 15.6467C21.4039 15.6467 15.4136 21.637 15.4136 29C15.4136 36.363 21.4039 42.3534 28.7669 42.3534C36.1299 42.3534 42.1203 36.363 42.1203 29C42.1203 21.637 36.1299 15.6467 28.7669 15.6467ZM28.7669 41.2492C22.0127 41.2492 16.5177 35.7542 16.5177 29C16.5177 22.2458 22.0127 16.7508 28.7669 16.7508C35.5211 16.7508 41.0161 22.2458 41.0161 29C41.0161 35.7542 35.5211 41.2492 28.7669 41.2492Z" fill="black"/>
<path d="M22.3112 29C22.3112 23.9526 23.7625 19.2462 26.0086 17.0101C26.2248 16.795 26.2255 16.4454 26.0104 16.2294C25.7951 16.0132 25.4457 16.0128 25.2295 16.2277C22.7484 18.6979 21.207 23.592 21.207 29C21.207 34.3742 22.7343 39.2539 25.1924 41.735C25.3004 41.8439 25.4424 41.8984 25.5846 41.8984C25.7251 41.8984 25.8655 41.8452 25.9733 41.7385C26.1897 41.5237 26.1915 41.1743 25.9768 40.9577C23.7157 38.6758 22.3112 34.0937 22.3112 29ZM32.3037 16.2279C32.0877 16.0123 31.7379 16.0132 31.523 16.2296C31.3077 16.4458 31.3086 16.7954 31.5248 17.0103C33.7709 19.2464 35.2222 23.9528 35.2222 29C35.2222 34.033 33.7766 38.7334 31.5394 40.9751C31.3238 41.1909 31.3243 41.5404 31.5403 41.7558C31.6478 41.8633 31.7891 41.917 31.9303 41.917C32.0718 41.917 32.2131 41.8629 32.3211 41.7549C34.7918 39.2798 36.3266 34.3923 36.3266 29C36.3262 23.5922 34.785 18.6981 32.3037 16.2279Z" fill="black"/>
<path d="M41.5138 31.7851C41.2989 31.5687 40.9493 31.5672 40.7329 31.7814C38.4508 34.0425 33.8687 35.4472 28.775 35.4472C23.7274 35.4472 19.0212 33.9959 16.7853 31.7498C16.57 31.5336 16.2206 31.5327 16.0044 31.748C15.7882 31.9631 15.7876 32.3127 16.0026 32.5287C18.4727 35.01 23.3668 36.5514 28.775 36.5514C34.149 36.5514 39.0289 35.0243 41.51 32.566C41.7266 32.3514 41.7282 32.002 41.5138 31.7851ZM41.5297 25.4375C39.0543 22.9668 34.1668 21.4323 28.775 21.4323C23.3672 21.4323 18.4733 22.9734 16.0029 25.4547C15.7878 25.6709 15.7884 26.0205 16.0044 26.2354C16.1122 26.3427 16.2531 26.3964 16.394 26.3964C16.5357 26.3964 16.6773 26.3423 16.7851 26.2338C19.0212 23.988 23.7276 22.5366 28.7748 22.5366C33.8078 22.5366 38.5082 23.9822 40.7497 26.2193C40.9654 26.4348 41.3152 26.4343 41.5303 26.2184C41.7458 26.0026 41.7454 25.653 41.5297 25.4375Z" fill="black"/>
<path d="M28.7664 15.8699C28.4615 15.8699 28.2144 16.117 28.2144 16.422V41.578C28.2144 41.8829 28.4615 42.13 28.7664 42.13C29.0714 42.13 29.3185 41.8829 29.3185 41.578V16.422C29.3185 16.117 29.0714 15.8699 28.7664 15.8699Z" fill="black"/>
<path d="M41.3448 28.4479H16.1888C15.8838 28.4479 15.6367 28.695 15.6367 29C15.6367 29.305 15.8838 29.5521 16.1888 29.5521H41.3448C41.6498 29.5521 41.8969 29.305 41.8969 29C41.8969 28.695 41.6498 28.4479 41.3448 28.4479ZM28.7668 0.733337C26.7809 0.733337 25.165 2.34895 25.165 4.33513C25.165 6.3213 26.7806 7.93692 28.7668 7.93692C30.753 7.93692 32.3686 6.3213 32.3686 4.33513C32.3686 2.34895 30.7528 0.733337 28.7668 0.733337ZM28.7668 6.83253C27.3897 6.83253 26.2692 5.71224 26.2692 4.33491C26.2692 2.95757 27.3897 1.8375 28.7668 1.8375C30.1439 1.8375 31.2644 2.95779 31.2644 4.33513C31.2644 5.71247 30.1439 6.83253 28.7668 6.83253Z" fill="black"/>
<path d="M31.3641 7.46368H26.169C24.3977 7.46368 22.9565 8.90462 22.9565 10.6761V12.5086C22.9565 13.3509 23.6418 14.0361 24.484 14.0361H33.0493C33.8915 14.0361 34.5768 13.3509 34.5768 12.5086V10.6761C34.5766 8.90462 33.1354 7.46368 31.3641 7.46368ZM33.4724 12.5084C33.4724 12.7418 33.2825 12.9317 33.0491 12.9317H24.4838C24.2504 12.9317 24.0605 12.7418 24.0605 12.5084V10.6759C24.0605 9.51324 25.0063 8.56763 26.1688 8.56763H31.3639C32.5266 8.56763 33.4722 9.51324 33.4722 10.6759L33.4724 12.5084Z" fill="black"/>
<path d="M31.6931 10.4449C31.3881 10.4449 31.141 10.6921 31.141 10.997V13.2325C31.141 13.5375 31.3881 13.7846 31.6931 13.7846C31.9981 13.7846 32.2452 13.5375 32.2452 13.2325V10.997C32.2452 10.6921 31.9981 10.4449 31.6931 10.4449ZM25.8406 10.4449C25.5356 10.4449 25.2885 10.6921 25.2885 10.997V13.2325C25.2885 13.5375 25.5356 13.7846 25.8406 13.7846C26.1455 13.7846 26.3927 13.5375 26.3927 13.2325V10.997C26.3927 10.6921 26.1455 10.4449 25.8406 10.4449ZM28.7668 50.0633C26.7809 50.0633 25.165 51.6789 25.165 53.6651C25.165 55.6513 26.7809 57.2667 28.7668 57.2667C30.7528 57.2667 32.3686 55.6511 32.3686 53.6649C32.3686 51.6787 30.7528 50.0633 28.7668 50.0633ZM28.7668 56.1625C27.3897 56.1625 26.2692 55.0422 26.2692 53.6649C26.2692 52.2876 27.3895 51.1673 28.7668 51.1673C30.1442 51.1673 31.2645 52.2876 31.2645 53.6649C31.2645 55.0422 30.1439 56.1625 28.7668 56.1625Z" fill="black"/>
<path d="M33.0493 43.9641H24.484C23.6418 43.9641 22.9565 44.6494 22.9565 45.4916V47.3241C22.9565 49.0954 24.3977 50.5366 26.169 50.5366H31.3641C33.1354 50.5366 34.5766 49.0956 34.5766 47.3241V45.4916C34.5768 44.6491 33.8915 43.9641 33.0493 43.9641ZM33.4726 47.3241C33.4726 48.4868 32.527 49.4324 31.3643 49.4324H26.1692C25.0068 49.4324 24.0609 48.4868 24.0609 47.3241V45.4916C24.0609 45.2582 24.2508 45.0683 24.4843 45.0683H33.0495C33.2829 45.0683 33.4728 45.2582 33.4728 45.4916V47.3241H33.4726Z" fill="black"/>
<path d="M31.6929 44.2154C31.3879 44.2154 31.1408 44.4625 31.1408 44.7675V47.003C31.1408 47.308 31.3879 47.5551 31.6929 47.5551C31.9978 47.5551 32.245 47.308 32.245 47.003V44.7675C32.245 44.4627 31.9978 44.2154 31.6929 44.2154ZM25.8404 44.2154C25.5354 44.2154 25.2883 44.4625 25.2883 44.7675V47.003C25.2883 47.308 25.5354 47.5551 25.8404 47.5551C26.1453 47.5551 26.3924 47.308 26.3924 47.003V44.7675C26.3924 44.4627 26.1453 44.2154 25.8404 44.2154ZM9.20697 13.5483C8.37398 13.0671 7.40342 12.9397 6.47393 13.1883C5.54467 13.4374 4.76799 14.0332 4.28702 14.8667C3.29393 16.5865 3.88554 18.7937 5.60539 19.7866C6.16035 20.107 6.77625 20.2707 7.40033 20.2707C7.71325 20.2707 8.02816 20.2294 8.33843 20.1463C9.26769 19.8975 10.0444 19.3014 10.5253 18.4682C11.5182 16.7484 10.9268 14.5412 9.20697 13.5483ZM9.56891 17.9164C9.23545 18.4941 8.69684 18.9073 8.05245 19.0802C7.4085 19.2524 6.73518 19.1643 6.15726 18.8306C4.96476 18.1421 4.55467 16.6115 5.24301 15.419C5.57669 14.8413 6.11508 14.4279 6.75947 14.2552C6.97456 14.1975 7.19297 14.1688 7.40982 14.1688C7.84266 14.1688 8.26975 14.2826 8.65466 14.5047C9.23236 14.8384 9.64576 15.3768 9.81845 16.0212C9.99114 16.6656 9.90259 17.3385 9.56891 17.9164Z" fill="black"/>
<path d="M18.1015 16.6501C17.996 16.2559 17.7431 15.9266 17.3898 15.7226L15.8027 14.8064C14.2685 13.9204 12.3 14.4482 11.4145 15.9823L8.81703 20.4813C8.3895 21.222 8.27665 22.0872 8.49925 22.9182C8.72185 23.749 9.25229 24.442 9.99297 24.8695L11.5801 25.7857C11.8199 25.9242 12.0823 25.9902 12.3413 25.9902C12.8695 25.9902 13.3841 25.7162 13.6665 25.2268L17.9492 17.809C18.153 17.4559 18.2071 17.0441 18.1015 16.6501ZM16.9927 17.2569L12.7101 24.6747C12.6536 24.7726 12.5624 24.8428 12.4531 24.8719C12.344 24.9013 12.2298 24.8865 12.1317 24.8298L10.5446 23.9135C10.0594 23.6333 9.71185 23.1786 9.56544 22.6325C9.41902 22.0866 9.49278 21.5188 9.7728 21.0336L12.3705 16.5346C12.7607 15.8588 13.4707 15.481 14.1998 15.481C14.5572 15.481 14.9193 15.5718 15.2503 15.7628L16.8375 16.679C17.0398 16.7954 17.1093 17.0549 16.9927 17.2569Z" fill="black"/>
<path d="M16.8506 18.1039L14.9146 16.9861C14.6503 16.8332 14.3128 16.9242 14.1605 17.1881C14.0081 17.452 14.0984 17.7899 14.3625 17.9423L16.2986 19.0601C16.3856 19.1105 16.4805 19.1341 16.5742 19.1341C16.765 19.1341 16.9507 19.0352 17.0527 18.8581C17.2051 18.5942 17.1145 18.2565 16.8506 18.1039ZM13.9244 23.1723L11.9883 22.0544C11.7242 21.9016 11.3863 21.9926 11.2342 22.2565C11.0818 22.5204 11.1721 22.8582 11.4363 23.0106L13.3723 24.1285C13.4593 24.1788 13.5543 24.2024 13.6479 24.2024C13.8387 24.2024 14.0244 24.1035 14.1264 23.9264C14.2788 23.6625 14.1883 23.3249 13.9244 23.1723ZM51.928 38.2134C50.208 37.2203 48.0012 37.8122 47.0081 39.5318C46.0152 41.2517 46.6066 43.4589 48.3265 44.4518C48.8814 44.7722 49.4973 44.9358 50.1214 44.9358C50.4343 44.9358 50.7492 44.8945 51.0595 44.8115C51.9888 44.5624 52.7657 43.9664 53.2464 43.1332C54.2393 41.4135 53.6479 39.2065 51.928 38.2134ZM52.29 42.5813C51.9563 43.159 51.4179 43.5722 50.7735 43.7451C50.1289 43.9176 49.4558 43.829 48.8783 43.4955C48.3006 43.1619 47.8872 42.6235 47.7145 41.9791C47.5418 41.3347 47.6304 40.6616 47.9641 40.0839C48.4263 39.2836 49.2674 38.8357 50.1311 38.8357C50.5547 38.8357 50.9833 38.9433 51.3757 39.1699C52.5684 39.8582 52.9788 41.3888 52.29 42.5813Z" fill="black"/>
<path d="M47.5409 33.1305L45.9537 32.2142C45.2248 31.7933 44.2882 32.0438 43.8673 32.7732L39.5847 40.191C39.3806 40.5443 39.3265 40.9559 39.4321 41.3499C39.5379 41.7441 39.7905 42.0733 40.1438 42.2774L41.731 43.1936C42.2356 43.4849 42.787 43.6231 43.3318 43.6231C44.4428 43.6231 45.5249 43.0472 46.1194 42.0177L48.717 37.5184C49.6026 35.9845 49.0748 34.016 47.5409 33.1305ZM47.7606 36.9666L45.1629 41.4658C44.5815 42.4722 43.2894 42.8182 42.2828 42.2374L40.6957 41.3212C40.4936 41.2046 40.4243 40.9451 40.5409 40.743L44.8235 33.3253C44.8801 33.2274 44.9713 33.1572 45.0806 33.128C45.117 33.1183 45.1539 33.1135 45.1908 33.1135C45.2641 33.1135 45.3363 33.1327 45.4017 33.1704L46.9888 34.0867C47.474 34.3669 47.8215 34.8216 47.9682 35.3677C48.1142 35.9136 48.0406 36.4814 47.7606 36.9666Z" fill="black"/>
<path d="M46.0971 34.9892L44.161 33.8714C43.8976 33.7192 43.5595 33.8093 43.4069 34.0734C43.2545 34.3373 43.345 34.6752 43.6089 34.8276L45.545 35.9454C45.632 35.9958 45.7267 36.0194 45.8206 36.0194C46.0112 36.0194 46.1969 35.9205 46.2991 35.7434C46.4515 35.4795 46.361 35.1418 46.0971 34.9892ZM43.1708 40.0576L41.2348 38.9397C40.9713 38.7873 40.6332 38.8777 40.4806 39.1418C40.3282 39.4057 40.4188 39.7435 40.6827 39.8959L42.6187 41.0138C42.7057 41.0641 42.8005 41.0878 42.8943 41.0878C43.0849 41.0878 43.2706 40.9888 43.3729 40.8117C43.5252 40.5478 43.4347 40.2102 43.1708 40.0576ZM10.5252 39.5315C10.0443 38.6986 9.2676 38.1023 8.33833 37.8534C7.40906 37.6043 6.43828 37.732 5.6053 38.2132C3.88545 39.206 3.29406 41.4133 4.28692 43.1331C4.7679 43.9663 5.54457 44.5623 6.47383 44.8114C6.7841 44.8945 7.09901 44.9358 7.41193 44.9358C8.03601 44.9358 8.65191 44.7721 9.20687 44.4517C10.9269 43.4588 11.5183 41.2516 10.5252 39.5315ZM9.81857 41.9788C9.64588 42.6232 9.2327 43.1616 8.65478 43.4953C8.07708 43.8287 7.4042 43.9173 6.75959 43.7448C6.1152 43.5723 5.57681 43.1589 5.24313 42.581C4.55457 41.3885 4.96466 39.8579 6.15738 39.1694C6.54229 38.9472 6.96916 38.8337 7.402 38.8337C7.61885 38.8337 7.83748 38.8622 8.05257 38.9198C8.69696 39.0925 9.23558 39.5057 9.56903 40.0836C9.90249 40.6615 9.99127 41.3344 9.81857 41.9788Z" fill="black"/>
<path d="M17.9487 40.1909L13.666 32.7731C13.2449 32.0435 12.3088 31.7931 11.5796 32.2142L9.99248 33.1304C9.25181 33.558 8.72159 34.2509 8.49876 35.0817C8.27616 35.9127 8.38901 36.7782 8.81654 37.5186L11.4142 42.0179C12.0087 43.0472 13.0906 43.6236 14.2018 43.6236C14.7464 43.6233 15.298 43.4851 15.8026 43.1938L17.3897 42.2776C17.7431 42.0735 17.9959 41.7443 18.1015 41.3501C18.2068 40.9559 18.1527 40.544 17.9487 40.1909ZM16.8374 41.3211L15.2503 42.2374C14.244 42.8191 12.9516 42.4721 12.3704 41.4658L9.77275 36.9665C9.49251 36.4814 9.41898 35.9134 9.56539 35.3677C9.71158 34.8216 10.0594 34.3669 10.5446 34.0866L12.1317 33.1704C12.1968 33.1326 12.2693 33.1134 12.3428 33.1134C12.3795 33.1134 12.4166 33.1183 12.453 33.128C12.5621 33.1572 12.6535 33.2272 12.7101 33.3252L16.9927 40.743C17.1091 40.9451 17.0395 41.2045 16.8374 41.3211Z" fill="black"/>
<path d="M14.1264 34.0737C13.9741 33.8098 13.6362 33.719 13.3723 33.8716L11.4363 34.9895C11.1721 35.1418 11.0818 35.4797 11.2342 35.7436C11.3364 35.9207 11.5219 36.0196 11.7127 36.0196C11.8064 36.0196 11.9013 35.996 11.9883 35.9457L13.9244 34.8278C14.1883 34.6752 14.2788 34.3376 14.1264 34.0737ZM17.0527 39.142C16.9003 38.8781 16.5625 38.7874 16.2986 38.9399L14.3625 40.0578C14.0984 40.2102 14.0081 40.5481 14.1605 40.812C14.2627 40.9891 14.4482 41.088 14.639 41.088C14.7326 41.088 14.8276 41.0644 14.9146 41.014L16.8506 39.8962C17.1145 39.7436 17.2051 39.4059 17.0527 39.142ZM53.2464 14.8667C52.7654 14.0337 51.9888 13.4375 51.0595 13.1884C50.1307 12.9399 49.1597 13.0671 48.3265 13.5483C46.6066 14.5412 46.0152 16.7484 47.0081 18.4683C47.6746 19.6226 48.8876 20.2683 50.1333 20.2683C50.7439 20.2683 51.3623 20.113 51.928 19.7864C53.6479 18.7935 54.2393 16.5865 53.2464 14.8667ZM51.3759 18.8304C50.1837 19.5183 48.6531 19.1089 47.9643 17.9162C47.6306 17.3385 47.5421 16.6654 47.7147 16.021C47.8872 15.3766 48.3006 14.8382 48.8785 14.5045C49.2635 14.2824 49.6905 14.1686 50.1234 14.1686C50.34 14.1686 50.5586 14.1973 50.7737 14.255C51.4181 14.4277 51.9565 14.8409 52.2902 15.4188C52.9788 16.6113 52.5684 18.1419 51.3759 18.8304Z" fill="black"/>
<path d="M48.7165 20.4814L46.1188 15.9823C45.2328 14.4482 43.2641 13.9209 41.7304 14.8064L40.1433 15.7226C39.79 15.9267 39.5373 16.256 39.4316 16.6501C39.326 17.0441 39.3803 17.4557 39.5841 17.8091L43.8668 25.2269C44.1494 25.7165 44.6638 25.9903 45.192 25.9903C45.451 25.9903 45.7134 25.9243 45.9532 25.7858L47.5403 24.8696C49.0745 23.984 49.6023 22.0155 48.7165 20.4814ZM47.9676 22.6323C47.8212 23.1784 47.4736 23.6331 46.9883 23.9133L45.4011 24.8296C45.3028 24.8863 45.1887 24.9007 45.08 24.8718C44.9707 24.8426 44.8795 24.7726 44.823 24.6746L40.5404 17.2568C40.4238 17.0547 40.4931 16.7952 40.6952 16.6786L42.2823 15.7624C42.6133 15.5714 42.9755 15.4806 43.3328 15.4806C44.0622 15.4806 44.7724 15.8587 45.1624 16.5342L47.7601 21.0332C48.0403 21.5186 48.1138 22.0864 47.9676 22.6323Z" fill="black"/>
<path d="M43.373 17.1883C43.2206 16.9242 42.8823 16.8341 42.6188 16.9862L40.6828 18.1041C40.4189 18.2565 40.3284 18.5943 40.4807 18.8582C40.583 19.0353 40.7687 19.1343 40.9593 19.1343C41.0531 19.1343 41.1479 19.1106 41.2349 19.0603L43.1709 17.9424C43.4348 17.7898 43.5254 17.4522 43.373 17.1883ZM46.2992 22.2566C46.1469 21.9925 45.8086 21.9022 45.5451 22.0546L43.6091 23.1724C43.3452 23.3248 43.2546 23.6627 43.407 23.9266C43.5092 24.1037 43.695 24.2026 43.8855 24.2026C43.9794 24.2026 44.0741 24.179 44.1611 24.1286L46.0972 23.0108C46.3611 22.8582 46.4516 22.5205 46.2992 22.2566Z" fill="black"/>
<path d="M46.1903 47.1525C45.5057 47.02 44.9536 46.49 44.8211 45.8054C44.8211 45.7834 44.7549 45.7834 44.7549 45.8054C44.6224 46.49 44.0703 47.02 43.3857 47.1525C43.3636 47.1525 43.3636 47.1967 43.3857 47.2188C44.0703 47.3513 44.6224 47.8813 44.7549 48.5659C44.7549 48.5879 44.8211 48.5879 44.8211 48.5659C44.9536 47.8813 45.5057 47.3513 46.1903 47.2188C46.2124 47.1967 46.2124 47.1525 46.1903 47.1525Z" fill="#87D147"/>
<path d="M38.9247 1.94792H38.3947V1.44C38.3947 1.0425 38.0855 0.733337 37.688 0.733337C37.3126 0.733337 36.9813 1.0425 36.9813 1.41792V1.94792H36.4734C36.0759 1.94792 35.7667 2.25709 35.7667 2.65459C35.7447 3.03 36.0538 3.36125 36.4734 3.36125H36.9813V3.86917C36.9813 4.26667 37.2905 4.57584 37.688 4.57584C38.0634 4.57584 38.3947 4.26667 38.3947 3.89125V3.36125H38.9026C39.3001 3.36125 39.6092 3.05209 39.6092 2.65459C39.6092 2.27917 39.3001 1.94792 38.9247 1.94792Z" fill="#FC657E"/>
<path d="M21.7665 55.765C21.3517 55.765 21.0156 56.1011 21.0156 56.5158C21.0156 56.9305 21.3517 57.2666 21.7665 57.2666C22.1812 57.2666 22.5173 56.9305 22.5173 56.5158C22.5173 56.1011 22.1812 55.765 21.7665 55.765Z" fill="#70D6F9"/>
<path d="M41.6416 6.69586C41.2268 6.69586 40.8907 7.03197 40.8907 7.44669C40.8907 7.86142 41.2268 8.19753 41.6416 8.19753C42.0563 8.19753 42.3924 7.86142 42.3924 7.44669C42.3924 7.03197 42.0563 6.69586 41.6416 6.69586ZM19.2491 51.3484C18.2553 51.1717 17.4824 50.3988 17.2837 49.4271C17.2837 49.3829 17.1953 49.3829 17.1953 49.4271C16.9966 50.3988 16.2237 51.1717 15.2299 51.3484C15.1857 51.3484 15.1857 51.4146 15.2299 51.4367C16.2237 51.6134 16.9966 52.3863 17.1953 53.3579C17.1953 53.4021 17.2837 53.4021 17.2837 53.3579C17.4824 52.3863 18.2553 51.6134 19.2491 51.4367C19.2932 51.4146 19.2932 51.3484 19.2491 51.3484Z" fill="#F5C84C"/>
</g>
<defs>
<clipPath id="clip0_373_1301">
<rect width="56.5333" height="56.5333" fill="white" transform="translate(0.5 0.733337)"/>
</clipPath>
</defs>
</svg>
