<svg width="50" height="50" viewBox="0 0 50 50" fill="none" xmlns="http://www.w3.org/2000/svg">
<g clip-path="url(#clip0_373_1445)">
<path d="M39.8062 30.9375C44.9874 30.9375 49.1876 26.7373 49.1876 21.5561C49.1876 16.3749 44.9874 12.1747 39.8062 12.1747C34.625 12.1747 30.4248 16.3749 30.4248 21.5561C30.4248 26.7373 34.625 30.9375 39.8062 30.9375Z" fill="#F5C84C"/>
<path d="M41.8354 9.34896H37.7766C37.1808 9.34896 36.6978 8.86593 36.6978 8.27015V7.03693C36.6978 6.44116 37.1808 5.95813 37.7766 5.95813H41.8354C42.4311 5.95813 42.9142 6.44116 42.9142 7.03693V8.27015C42.9142 8.86593 42.4311 9.34896 41.8354 9.34896Z" fill="#F5C84C"/>
<path d="M38.4492 9.34888V12.2736C38.8923 12.2094 39.3448 12.1747 39.8056 12.1747C40.2663 12.1747 40.7188 12.2094 41.1619 12.2736V9.34888H38.4492Z" fill="#FCA265"/>
<path d="M45.9112 10.9828C45.2624 10.6083 44.4329 10.8305 44.0584 11.4793L43.2742 12.8376C43.69 13.0035 44.0993 13.1998 44.4982 13.4301C44.8973 13.6605 45.2718 13.9168 45.6233 14.1939L46.4075 12.8356C46.7822 12.1869 46.5598 11.3574 45.9112 10.9828ZM33.7008 10.9828C34.3496 10.6083 35.1791 10.8305 35.5536 11.4793L36.3378 12.8376C35.922 13.0035 35.5127 13.1998 35.1138 13.4301C34.7147 13.6605 34.3401 13.9168 33.9887 14.1939L33.2045 12.8356C32.8298 12.1869 33.0522 11.3574 33.7008 10.9828Z" fill="#F5C84C"/>
<path d="M39.8061 28.5393C43.6629 28.5393 46.7894 25.4127 46.7894 21.556C46.7894 17.6992 43.6629 14.5726 39.8061 14.5726C35.9493 14.5726 32.8228 17.6992 32.8228 21.556C32.8228 25.4127 35.9493 28.5393 39.8061 28.5393Z" fill="#DAE6F1"/>
<path d="M39.8057 14.5728V20.1237C40.5954 20.1237 41.238 20.7663 41.238 21.5561V21.5566H46.789V21.5561C46.7888 17.7055 43.6563 14.5728 39.8057 14.5728Z" fill="#FC657E"/>
<path d="M39.8054 22.9883C40.5965 22.9883 41.2378 22.347 41.2378 21.5559C41.2378 20.7648 40.5965 20.1235 39.8054 20.1235C39.0143 20.1235 38.373 20.7648 38.373 21.5559C38.373 22.347 39.0143 22.9883 39.8054 22.9883Z" fill="#F98FA6"/>
<path d="M23.3772 11.8447C22.9205 11.3657 22.1778 11.3215 21.6571 11.7302C20.8339 12.3765 19.4094 13.1751 17.3974 13.1751C15.3806 13.1751 13.9486 12.3725 13.1218 11.7254C12.6015 11.3183 11.8603 11.364 11.4045 11.842L11.4022 11.8445C10.7617 12.5163 10.4043 13.4088 10.4043 14.3371V20.1995C10.4043 24.0415 13.5478 27.1849 17.3897 27.1849C21.2317 27.1849 24.3752 24.0415 24.3752 20.1995V14.3371C24.375 13.409 24.0177 12.5163 23.3772 11.8447Z" fill="#F9D0B4"/>
<path d="M24.8237 14.8759C24.671 14.8759 24.5216 14.8887 24.3754 14.9114C24.3754 15.6547 24.3754 19.0947 24.3754 20.1996C24.3754 20.3571 24.3683 20.513 24.3577 20.668C24.5099 20.6924 24.6647 20.7087 24.8237 20.7087C26.4343 20.7087 27.7401 19.4029 27.7401 17.7923C27.7401 16.1817 26.4345 14.8759 24.8237 14.8759ZM10.4047 20.1998C10.4047 19.4761 10.4047 16.3505 10.4047 14.9116C10.2586 14.8889 10.1092 14.876 9.95648 14.876C8.34567 14.876 7.04004 16.1819 7.04004 17.7925C7.04004 19.4031 8.34586 20.7089 9.95648 20.7089C10.1155 20.7089 10.2703 20.6928 10.4224 20.6682C10.412 20.5132 10.4047 20.3573 10.4047 20.1998Z" fill="#F9D0B4"/>
<path d="M24.3494 8.91744C24.1155 8.91744 23.9127 8.73709 23.9094 8.50316C23.8558 4.61067 19.411 3.8795 14.9843 4.6439C11.2313 5.29191 8.48828 8.54638 8.48828 12.3549V15.2754C8.91984 15.023 9.42035 14.8761 9.95639 14.8761C10.1089 14.8761 10.2585 14.889 10.4047 14.9116V14.3374C10.4047 13.4092 10.7621 12.5167 11.4026 11.8448L11.4049 11.8423C11.8609 11.3643 12.602 11.3186 13.1221 11.7257C13.9489 12.3728 15.3809 13.1754 17.3978 13.1754C19.4098 13.1754 20.8341 12.3766 21.6575 11.7305C22.1782 11.3218 22.9209 11.366 23.3776 11.845C24.0181 12.5168 24.3755 13.4093 24.3755 14.3376V14.9118C24.5217 14.8892 24.6711 14.8763 24.8238 14.8763C25.3662 14.8763 25.8722 15.0271 26.3073 15.285C26.3073 14.4699 26.3073 13.6327 26.3073 12.8871C26.3073 9.40143 25.0485 8.91744 24.3494 8.91744Z" fill="#5B5D60"/>
<path d="M15.8362 31.7268L13.2119 28.7082C12.8879 28.3356 12.3179 28.2957 11.9453 28.6197L11.0382 29.4083C10.6656 29.7323 10.6256 30.3023 10.9496 30.6749L13.574 33.6935C13.898 34.0661 14.468 34.1061 14.8406 33.7821L15.7477 32.9935C16.1205 32.6695 16.1602 32.0994 15.8362 31.7268ZM23.7416 29.4083L22.8345 28.6197C22.4619 28.2957 21.8919 28.3356 21.5679 28.7082L18.9436 31.7268C18.6196 32.0994 18.6593 32.6695 19.0321 32.9935L19.9392 33.7821C20.3118 34.1061 20.8819 34.0661 21.2059 33.6935L23.8302 30.6749C24.1542 30.3021 24.1142 29.7323 23.7416 29.4083Z" fill="#EDF4FC"/>
<path d="M31.3762 34.5244C31.3092 33.32 30.4666 32.299 29.2968 32.0046L25.5149 31.0527C24.9359 30.907 24.3946 30.7312 23.9152 30.5551C23.8899 30.5964 23.8634 30.6373 23.8305 30.6751L21.2062 33.6938C20.8822 34.0664 20.3122 34.1063 19.9396 33.7823L19.0325 32.9937C18.6599 32.6697 18.6199 32.0997 18.944 31.7271L21.2095 29.121C20.8296 28.6883 20.6085 28.1261 20.6085 27.5294V26.3926C19.6438 26.8975 18.5493 27.1852 17.3904 27.1852C16.2315 27.1852 15.1369 26.8975 14.1722 26.3926V27.5294C14.1722 28.1261 13.9511 28.6881 13.5713 29.121L15.8368 31.7271C16.1608 32.0997 16.121 32.6697 15.7483 32.9937L14.8412 33.7823C14.4686 34.1063 13.8985 34.0664 13.5745 33.6938L10.9502 30.6751C10.9185 30.6388 10.8934 30.5993 10.8686 30.5595C10.389 30.7372 9.86986 30.9008 9.26583 31.0527L5.48397 32.0046C4.31413 32.299 3.47156 33.32 3.40453 34.5246L2.63206 47.8423C2.60767 48.2815 2.95722 48.6873 3.39723 48.6873C6.34766 48.6873 27.0923 48.6873 31.3833 48.6873C31.8233 48.6873 32.1729 48.2815 32.1485 47.8423L31.3762 34.5244Z" fill="#DAE6F1"/>
<path d="M18.7466 32.5C18.6913 32.234 18.7526 31.9465 18.9435 31.7269L21.209 29.1209C20.8291 28.6882 20.6081 28.126 20.6081 27.5293V26.3925C19.6434 26.8974 18.5488 27.1851 17.3899 27.1851C16.231 27.1851 15.1365 26.8974 14.1718 26.3925V27.5293C14.1718 28.126 13.9507 28.688 13.5708 29.1209L15.8363 31.7269C16.0273 31.9465 16.0885 32.2342 16.0332 32.5H18.7466Z" fill="#F9D0B4"/>
<path d="M19.0321 32.9935C18.8791 32.8604 18.7855 32.6852 18.7469 32.4999H16.0331C15.9945 32.6852 15.901 32.8604 15.7479 32.9935L15.2368 33.4379L16.3091 35.4374H18.4709L19.5432 33.4379L19.0321 32.9935Z" fill="#FC657E"/>
<path d="M18.471 35.4373H16.3091L14.7139 48.6873C16.4756 48.6873 18.2956 48.6873 20.0662 48.6873L18.471 35.4373Z" fill="#F98FA6"/>
<path d="M44.2923 37.1637H44.7341V37.6054C44.7341 37.9511 45.0029 38.22 45.3487 38.22C45.6752 38.22 45.9632 37.9511 45.9632 37.6246V37.6054V37.1637H46.405C46.7507 37.1637 47.0196 36.8948 47.0196 36.5491C47.0196 36.2226 46.7507 35.9345 46.4242 35.9345H46.405H45.9632V35.4928C45.9632 35.1471 45.6944 34.8782 45.3487 34.8782C45.0221 34.8782 44.7341 35.1471 44.7341 35.4736V35.4928V35.9345H44.2923C43.9466 35.9345 43.6777 36.2034 43.6777 36.5491C43.6585 36.8756 43.9274 37.1637 44.2923 37.1637C44.2731 37.1637 44.2731 37.1637 44.2923 37.1637Z" fill="#FC657E"/>
<path d="M37.4548 44.0394C37.8154 44.0394 38.1078 43.747 38.1078 43.3864C38.1078 43.0258 37.8154 42.7334 37.4548 42.7334C37.0941 42.7334 36.8018 43.0258 36.8018 43.3864C36.8018 43.747 37.0941 44.0394 37.4548 44.0394Z" fill="#F5C84C"/>
<path d="M4.03679 8.2202C4.39744 8.2202 4.6898 7.92784 4.6898 7.56719C4.6898 7.20655 4.39744 6.91418 4.03679 6.91418C3.67615 6.91418 3.38379 7.20655 3.38379 7.56719C3.38379 7.92784 3.67615 8.2202 4.03679 8.2202Z" fill="#87D147"/>
<path d="M30.3295 1.18597C29.7342 1.07074 29.254 0.609792 29.1388 0.0144045C29.1388 -0.00480151 29.0812 -0.00480151 29.0812 0.0144045C28.9659 0.609792 28.4858 1.07074 27.8904 1.18597C27.8712 1.18597 27.8712 1.22439 27.8904 1.24359C28.4858 1.35883 28.9659 1.81977 29.0812 2.41516C29.0812 2.43437 29.1388 2.43437 29.1388 2.41516C29.254 1.81977 29.7342 1.35883 30.3295 1.24359C30.3488 1.22439 30.3488 1.18597 30.3295 1.18597Z" fill="#70D6F9"/>
<path d="M0.528809 24.6221C1.39308 24.4684 2.06529 23.7962 2.23815 22.9512C2.23815 22.9128 2.31497 22.9128 2.31497 22.9512C2.48783 23.7962 3.16004 24.4684 4.02431 24.6221C4.06272 24.6221 4.06272 24.6797 4.02431 24.6989C3.16004 24.8526 2.48783 25.5248 2.31497 26.3698C2.31497 26.4083 2.23815 26.4083 2.23815 26.3698C2.06529 25.5248 1.39308 24.8526 0.528809 24.6989C0.490397 24.6797 0.490397 24.6221 0.528809 24.6221Z" fill="#F5C84C"/>
<path d="M17.3902 27.6652C13.2738 27.6652 9.9248 24.316 9.9248 20.1996V14.3371C9.9248 13.2808 10.3264 12.2778 11.0553 11.5132C11.6837 10.8543 12.6989 10.784 13.4186 11.3473C14.2041 11.9621 15.5322 12.6948 17.3981 12.6948C19.2601 12.6948 20.5811 11.9648 21.3612 11.3523C22.0824 10.7865 23.0986 10.8556 23.7255 11.5131C24.4546 12.2775 24.8562 13.2804 24.8562 14.3369V20.1994C24.856 24.3162 21.5068 27.6652 17.3902 27.6652ZM12.3244 11.9291C12.1145 11.9291 11.9071 12.0116 11.7526 12.1736C11.1922 12.7611 10.8849 13.5287 10.8849 14.3371V20.1996C10.8849 23.7867 13.8031 26.7048 17.39 26.7048C20.9771 26.7048 23.8953 23.7867 23.8953 20.1996V14.3371C23.8953 13.5285 23.588 12.7611 23.0301 12.176C22.7464 11.8785 22.2833 11.8492 21.9537 12.1081C21.0543 12.8139 19.5338 13.6555 17.3975 13.6555C15.2579 13.6555 13.7307 12.8118 12.8261 12.1038C12.677 11.9867 12.5 11.9291 12.3244 11.9291Z" fill="black"/>
<path d="M24.8238 21.1891C24.6545 21.1891 24.4773 21.1738 24.2816 21.1423C24.0367 21.1029 23.8619 20.8832 23.8788 20.6358C23.8901 20.4693 23.8953 20.3308 23.8953 20.1998V14.9116C23.8953 14.675 24.0678 14.4735 24.3017 14.4372C24.4782 14.4098 24.654 14.3959 24.8238 14.3959C26.6965 14.3959 28.2203 15.9198 28.2203 17.7927C28.2201 19.6653 26.6963 21.1891 24.8238 21.1891ZM24.8556 15.3562V20.1998C24.8556 20.2094 24.8556 20.219 24.8556 20.2286C26.1843 20.2115 27.26 19.1252 27.26 17.7925C27.2598 16.4596 26.1841 15.3733 24.8556 15.3562ZM9.95635 21.1891C8.08338 21.1891 6.55957 19.6653 6.55957 17.7925C6.55957 15.9196 8.08338 14.3958 9.95635 14.3958C10.1259 14.3958 10.3015 14.4096 10.4782 14.437C10.7123 14.4733 10.8848 14.6746 10.8848 14.9114V20.1996C10.8848 20.3306 10.89 20.4691 10.9013 20.6356C10.9182 20.883 10.7438 21.1025 10.4987 21.1421C10.3034 21.1738 10.1259 21.1891 9.95635 21.1891ZM9.92447 15.3562C8.5956 15.3733 7.51987 16.4596 7.51987 17.7925C7.51987 19.1252 8.5958 20.2115 9.92447 20.2286C9.92447 20.219 9.92447 20.2094 9.92447 20.1998V15.3562ZM17.4917 23.3358C16.5918 23.3358 15.7468 22.9684 15.2309 22.353C15.0605 22.1498 15.0872 21.8469 15.2904 21.6766C15.4938 21.5062 15.7965 21.5327 15.9669 21.7361C16.3024 22.1364 16.8724 22.3755 17.4915 22.3755C18.1105 22.3755 18.6805 22.1364 19.016 21.7361C19.1868 21.5329 19.4895 21.5064 19.6925 21.6766C19.8955 21.8467 19.9222 22.1498 19.752 22.3528C19.2363 22.9686 18.3911 23.3358 17.4917 23.3358Z" fill="black"/>
<path d="M20.6427 19.0533C21.1611 19.0533 21.5813 18.6331 21.5813 18.1147C21.5813 17.5964 21.1611 17.1761 20.6427 17.1761C20.1243 17.1761 19.7041 17.5964 19.7041 18.1147C19.7041 18.6331 20.1243 19.0533 20.6427 19.0533Z" fill="black"/>
<path d="M14.3405 19.0533C14.8588 19.0533 15.2791 18.6331 15.2791 18.1147C15.2791 17.5964 14.8588 17.1761 14.3405 17.1761C13.8221 17.1761 13.4019 17.5964 13.4019 18.1147C13.4019 18.6331 13.8221 19.0533 14.3405 19.0533Z" fill="black"/>
<path d="M26.3074 15.7649C26.2227 15.7649 26.1378 15.7424 26.0625 15.6976C25.6857 15.4741 25.2576 15.356 24.8241 15.356C24.7035 15.356 24.5775 15.366 24.4496 15.3859C24.3109 15.4074 24.17 15.3673 24.0635 15.2761C23.957 15.1848 23.8957 15.0518 23.8957 14.9115V14.3373C23.8957 13.5287 23.5884 12.7612 23.0305 12.1762C22.7464 11.8785 22.2837 11.8491 21.9542 12.108C21.0547 12.8141 19.5342 13.6555 17.3979 13.6555C15.2583 13.6555 13.7311 12.8117 12.8265 12.1038C12.4982 11.8466 12.0361 11.8764 11.7527 12.1737C11.1922 12.7612 10.8849 13.5289 10.8849 14.3373V14.9115C10.8849 15.0518 10.8237 15.1848 10.7173 15.2761C10.6109 15.3671 10.4693 15.4074 10.3312 15.3859C10.2029 15.366 10.0769 15.356 9.95652 15.356C9.52822 15.356 9.10415 15.4714 8.73079 15.6898C8.58232 15.7766 8.39871 15.7774 8.24948 15.6917C8.10045 15.606 8.00826 15.4472 8.00826 15.2753V12.3548C8.00826 8.30236 10.9078 4.86045 14.9025 4.17076C18.4172 3.56346 21.3453 3.97217 22.934 5.29162C23.8673 6.06678 24.3563 7.12484 24.3881 8.43757C25.3025 8.45428 26.787 9.07003 26.787 12.8868V15.2847C26.787 15.4572 26.6944 15.6166 26.5444 15.7019C26.4714 15.7439 26.3894 15.7649 26.3074 15.7649ZM24.856 14.3959C25.186 14.3989 25.5134 14.451 25.8274 14.5487V12.8867C25.8274 10.6691 25.2889 9.3973 24.3499 9.3973C23.8494 9.3973 23.4365 8.99896 23.4298 8.5094C23.4155 7.46325 23.0424 6.62913 22.3214 6.03029C20.9489 4.89041 18.3042 4.55776 15.0669 5.11685C11.5337 5.72683 8.96933 8.7708 8.96933 12.3548V14.5439C9.27874 14.4493 9.60082 14.3989 9.9254 14.3959V14.3371C9.9254 13.2808 10.327 12.2778 11.0559 11.5132C11.6843 10.8543 12.6995 10.784 13.4192 11.3473C14.2047 11.9621 15.5328 12.6948 17.3987 12.6948C19.2607 12.6948 20.5817 11.9648 21.3618 11.3523C22.083 10.7865 23.0992 10.8556 23.7261 11.513C24.4552 12.2774 24.8568 13.2804 24.8568 14.3369V14.3959H24.856ZM8.22624 48.9909C7.96101 48.9909 7.74609 48.776 7.74609 48.5108V36.8587C7.74609 36.5934 7.96101 36.3785 8.22624 36.3785C8.49148 36.3785 8.7064 36.5934 8.7064 36.8587V48.5108C8.7064 48.7758 8.49129 48.9909 8.22624 48.9909ZM26.5546 48.9909C26.2893 48.9909 26.0744 48.776 26.0744 48.5108V36.8587C26.0744 36.5934 26.2893 36.3785 26.5546 36.3785C26.8198 36.3785 27.0347 36.5934 27.0347 36.8587V48.5108C27.0347 48.7758 26.8198 48.9909 26.5546 48.9909ZM14.2527 34.4817C13.8673 34.4817 13.4841 34.3216 13.2119 34.0085L10.5876 30.9899C10.3468 30.7129 10.2283 30.3576 10.254 29.9898C10.2798 29.622 10.4465 29.2867 10.7236 29.0459L11.6307 28.2573C11.9077 28.0162 12.2612 27.8975 12.631 27.9236C12.9988 27.9494 13.3339 28.1161 13.5747 28.393L16.1991 31.4117C16.4399 31.6886 16.5584 32.0439 16.5327 32.4117C16.5069 32.7795 16.3402 33.1148 16.0631 33.3557L15.156 34.1443C14.8955 34.3707 14.5735 34.4817 14.2527 34.4817ZM12.5336 28.8805C12.4326 28.8805 12.3367 28.916 12.2609 28.9819L11.3536 29.7705C11.27 29.8429 11.2199 29.9447 11.212 30.0567C11.2041 30.1686 11.2399 30.2764 11.3123 30.3597L13.9366 33.3784C14.0877 33.552 14.352 33.5704 14.5258 33.4195L15.4329 32.6309C15.5165 32.5584 15.5666 32.4567 15.5745 32.3447C15.5824 32.2327 15.5466 32.125 15.4742 32.0416L12.8499 29.023C12.7773 28.9395 12.6757 28.8893 12.5637 28.8815C12.5538 28.8809 12.5436 28.8805 12.5336 28.8805ZM20.5277 34.4817C20.207 34.4817 19.8849 34.3707 19.6246 34.1445L18.7174 33.3559C18.4404 33.1152 18.2735 32.7799 18.248 32.4119C18.2224 32.0439 18.3407 31.6888 18.5816 31.4117L21.2057 28.393C21.7045 27.8195 22.5766 27.7589 23.1499 28.2571L24.0568 29.0457C24.334 29.2863 24.5009 29.6217 24.5264 29.9896C24.552 30.3576 24.4337 30.7127 24.1928 30.9897L21.5687 34.0083C21.2965 34.3216 20.913 34.4817 20.5277 34.4817ZM22.2463 28.8797C22.1295 28.8797 22.0131 28.9283 21.9305 29.0234L19.3064 32.042C19.2338 32.1255 19.1983 32.2331 19.2061 32.3451C19.2138 32.457 19.2642 32.5586 19.3475 32.6312L20.2548 33.4198C20.4282 33.571 20.6927 33.5524 20.8442 33.3785L23.4682 30.3599C23.5408 30.2764 23.5763 30.1688 23.5684 30.0569C23.5605 29.9449 23.5102 29.8433 23.4271 29.7707L22.5198 28.9821C22.441 28.9133 22.3433 28.8797 22.2463 28.8797Z" fill="black"/>
<path d="M31.3833 49.1676H3.39704C3.0617 49.1676 2.74595 49.0291 2.50799 48.7775C2.26254 48.518 2.1329 48.1673 2.15229 47.8156L2.92457 34.4968C3.00389 33.0758 3.98493 31.8867 5.36623 31.5391L9.1481 30.5871C9.69931 30.4484 10.2075 30.292 10.7015 30.109C10.9158 30.0297 11.1563 30.1125 11.2763 30.3065C11.2878 30.3247 11.298 30.3439 11.3124 30.3606L13.9362 33.3787C14.0873 33.5523 14.3516 33.5707 14.5254 33.4198L15.4325 32.6311C15.6063 32.48 15.6248 32.2157 15.4738 32.0419L13.2083 29.4358C13.0508 29.2545 13.0513 28.9847 13.2098 28.8042C13.5204 28.4502 13.6915 27.9975 13.6915 27.5293V26.3925C13.6915 26.2244 13.7793 26.0686 13.9229 25.9816C14.0668 25.8946 14.2456 25.8891 14.3942 25.967C15.3298 26.4566 16.3375 26.7047 17.3898 26.7047C18.4421 26.7047 19.45 26.4566 20.3854 25.967C20.5336 25.8891 20.7128 25.8946 20.8567 25.9816C21.0003 26.0686 21.0881 26.2244 21.0881 26.3925V27.5293C21.0881 27.9975 21.2592 28.4502 21.57 28.804C21.7284 28.9845 21.729 29.2545 21.5715 29.4358L19.306 32.0419C19.2334 32.1255 19.1979 32.233 19.2057 32.345C19.2134 32.457 19.2637 32.5585 19.3471 32.6311L20.2544 33.4198C20.4278 33.5709 20.6925 33.5523 20.8436 33.3785L23.4677 30.3598C23.4829 30.3424 23.4939 30.3228 23.5054 30.3038C23.6248 30.1088 23.8653 30.0249 24.08 30.1042C24.6107 30.299 25.1327 30.4613 25.6317 30.5869L29.4135 31.5389C30.7945 31.8865 31.7755 33.075 31.855 34.4966L32.6273 47.8145C32.6471 48.1671 32.5174 48.5178 32.2718 48.7773C32.0344 49.0289 31.7187 49.1676 31.3833 49.1676ZM10.7067 31.1269C10.2832 31.2727 9.847 31.4016 9.38279 31.5184L5.60093 32.4704C4.62949 32.7149 3.93942 33.5511 3.88372 34.5514L3.11144 47.8702C3.10664 47.9572 3.14179 48.0501 3.20574 48.1178C3.23724 48.1512 3.30427 48.2073 3.39704 48.2073H31.3833C31.4759 48.2073 31.5429 48.1512 31.5746 48.1176C31.6386 48.05 31.6739 47.9572 31.6689 47.8692L30.8966 34.5523C30.8966 34.5519 30.8966 34.5516 30.8966 34.5512C30.8411 33.5511 30.1509 32.7149 29.1796 32.4704L25.3978 31.5184C24.9698 31.4106 24.5273 31.2781 24.0775 31.1227L21.5686 34.0088C21.0699 34.5823 20.1975 34.643 19.6246 34.1448L18.7173 33.3562C18.4404 33.1155 18.2735 32.7802 18.2479 32.4122C18.2224 32.0442 18.3407 31.6891 18.5815 31.412L20.5924 29.099C20.2909 28.633 20.1282 28.0889 20.1282 27.5294V27.1401C18.3883 27.8302 16.3924 27.8302 14.6522 27.1401V27.5294C14.6522 28.0887 14.4895 28.633 14.1881 29.0988L16.199 31.412C16.6976 31.9854 16.6365 32.8576 16.063 33.356L15.1559 34.1446C14.5826 34.6432 13.7107 34.5821 13.2119 34.0086L10.7067 31.1269ZM39.8061 31.4177C34.3683 31.4177 29.9444 26.9938 29.9444 21.5562C29.9444 16.1184 34.3683 11.6946 39.8061 11.6946C45.2439 11.6946 49.6677 16.1184 49.6677 21.5562C49.6677 26.9938 45.2439 31.4177 39.8061 31.4177ZM39.8061 12.6549C34.8978 12.6549 30.9047 16.6481 30.9047 21.5562C30.9047 26.4643 34.8978 30.4574 39.8061 30.4574C44.7142 30.4574 48.7074 26.4643 48.7074 21.5562C48.7074 16.6481 44.7142 12.6549 39.8061 12.6549ZM41.8356 9.82916H37.7766C36.917 9.82916 36.2177 9.12987 36.2177 8.2702V7.03717C36.2177 6.17751 36.9172 5.47803 37.7766 5.47803H41.8356C42.6953 5.47803 43.3946 6.17751 43.3946 7.03717V8.2702C43.3946 9.12987 42.6951 9.82916 41.8356 9.82916ZM37.7766 6.43814C37.4465 6.43814 37.178 6.70664 37.178 7.03698V8.27001C37.178 8.60016 37.4465 8.86866 37.7766 8.86866H41.8356C42.1658 8.86866 42.4343 8.60016 42.4343 8.27001V7.03698C42.4343 6.70683 42.1658 6.43814 41.8356 6.43814H37.7766Z" fill="black"/>
<path d="M41.1624 12.7536C41.1395 12.7536 41.1165 12.752 41.0936 12.7486C40.2332 12.6241 39.3791 12.6241 38.5186 12.7486C38.3811 12.7686 38.2411 12.7277 38.1357 12.6364C38.0302 12.5452 37.9697 12.4127 37.9697 12.2734V9.34893C37.9697 9.08369 38.1847 8.86877 38.4499 8.86877H41.1625C41.4278 8.86877 41.6427 9.08369 41.6427 9.34893V12.2736C41.6427 12.4131 41.5822 12.5456 41.4768 12.6366C41.3888 12.7125 41.277 12.7536 41.1624 12.7536ZM38.9298 9.82908V11.7339C39.5166 11.6813 40.0947 11.6813 40.6822 11.7339V9.82908H38.9298ZM45.6233 14.6738C45.5164 14.6738 45.4115 14.6381 45.326 14.5707C44.9846 14.3014 44.6252 14.0575 44.258 13.8458C43.8915 13.634 43.5005 13.4448 43.096 13.2833C42.9666 13.2316 42.8659 13.1262 42.8202 12.9946C42.7747 12.8629 42.7885 12.718 42.8581 12.5972L43.6422 11.2392C43.8875 10.8143 44.2835 10.5105 44.7573 10.3834C45.2312 10.2562 45.7261 10.3217 46.1509 10.567C47.0279 11.0732 47.3296 12.1987 46.8231 13.0757L46.039 14.4337C45.9692 14.5543 45.8507 14.6388 45.7138 14.6652C45.684 14.6711 45.6537 14.6738 45.6233 14.6738ZM43.9597 12.6103C44.2276 12.7346 44.4879 12.8696 44.7383 13.0142C44.989 13.1588 45.2361 13.3169 45.4774 13.4865L45.9919 12.5955C46.2335 12.177 46.0897 11.6402 45.6712 11.3986C45.2527 11.1572 44.7159 11.3008 44.4744 11.7193L43.9597 12.6103ZM33.9885 14.6738C33.9584 14.6738 33.928 14.6709 33.8979 14.6652C33.7609 14.6388 33.6424 14.5543 33.5727 14.4337L32.7885 13.0757C32.2821 12.1987 32.5838 11.0732 33.4607 10.567C34.3377 10.0607 35.4632 10.3622 35.9696 11.2392L36.7536 12.5972C36.8231 12.7179 36.8372 12.8629 36.7914 12.9946C36.7457 13.1264 36.6451 13.2316 36.5156 13.2833C36.1117 13.4446 35.7207 13.6338 35.3537 13.8458C34.9867 14.0577 34.6273 14.3016 34.2856 14.5709C34.2005 14.6381 34.0955 14.6738 33.9885 14.6738ZM34.3776 11.2814C34.2292 11.2814 34.0786 11.3193 33.9411 11.3986C33.5226 11.6402 33.3787 12.177 33.6203 12.5955L34.1349 13.4865C34.3761 13.3169 34.6233 13.1588 34.8739 13.0142C35.1247 12.8696 35.385 12.7346 35.6525 12.6103L35.1382 11.7193C34.9759 11.4385 34.6807 11.2814 34.3776 11.2814ZM43.6507 22.0361H41.518C41.2528 22.0361 41.0379 21.8211 41.0379 21.5559C41.0379 21.2907 41.2528 21.0758 41.518 21.0758H43.6507C43.9159 21.0758 44.1308 21.2907 44.1308 21.5559C44.1308 21.8211 43.9159 22.0361 43.6507 22.0361ZM46.5894 22.0359H45.8748C45.6095 22.0359 45.3946 21.8209 45.3946 21.5557C45.3946 21.2905 45.6095 21.0756 45.8748 21.0756H46.5894C46.8546 21.0756 47.0696 21.2905 47.0696 21.5557C47.0696 21.8209 46.8546 22.0359 46.5894 22.0359ZM33.7375 22.0359H33.0226C32.7574 22.0359 32.5425 21.8209 32.5425 21.5557C32.5425 21.2905 32.7574 21.0756 33.0226 21.0756H33.7375C34.0027 21.0756 34.2176 21.2905 34.2176 21.5557C34.2176 21.8209 34.0027 22.0359 33.7375 22.0359ZM45.0621 19.0017C44.8964 19.0017 44.7349 18.9156 44.6459 18.7616C44.5134 18.5319 44.5922 18.2383 44.8217 18.1057L45.4407 17.7485C45.6698 17.616 45.9639 17.6943 46.0966 17.9242C46.2291 18.1539 46.1504 18.4476 45.9208 18.5801L45.3018 18.9374C45.2262 18.9809 45.1436 19.0017 45.0621 19.0017ZM33.9317 25.4277C33.7659 25.4277 33.6044 25.3416 33.5155 25.1876C33.3829 24.9579 33.4617 24.6642 33.6912 24.5317L34.3102 24.1745C34.5393 24.0419 34.8334 24.1203 34.9661 24.3502C35.0986 24.5799 35.0199 24.8736 34.7904 25.0061L34.1714 25.3633C34.0959 25.4069 34.0133 25.4277 33.9317 25.4277ZM42.84 16.7803C42.7584 16.7803 42.676 16.7596 42.6003 16.716C42.3708 16.5835 42.2921 16.2898 42.4246 16.0601L42.7818 15.4411C42.9143 15.2114 43.2086 15.1328 43.4377 15.2653C43.6672 15.3979 43.746 15.6915 43.6134 15.9212L43.2562 16.5402C43.1673 16.6941 43.0058 16.7803 42.84 16.7803ZM36.4139 27.9106C36.3322 27.9106 36.2498 27.8899 36.1742 27.8463C35.9445 27.7136 35.8659 27.4199 35.9984 27.1902L36.3559 26.5712C36.4884 26.3415 36.7828 26.2631 37.0117 26.3954C37.2414 26.5282 37.32 26.8218 37.1875 27.0515L36.83 27.6705C36.7411 27.8246 36.5796 27.9106 36.4139 27.9106ZM39.806 15.9671C39.5408 15.9671 39.3259 15.7522 39.3259 15.487V14.7723C39.3259 14.5071 39.5408 14.2922 39.806 14.2922C40.0713 14.2922 40.2862 14.5071 40.2862 14.7723V15.487C40.2862 15.7522 40.0713 15.9671 39.806 15.9671ZM39.806 28.8192C39.5408 28.8192 39.3259 28.6043 39.3259 28.3391V27.6244C39.3259 27.3592 39.5408 27.1443 39.806 27.1443C40.0713 27.1443 40.2862 27.3592 40.2862 27.6244V28.3391C40.2862 28.6043 40.0713 28.8192 39.806 28.8192ZM36.772 16.7803C36.6063 16.7803 36.4448 16.6943 36.3559 16.5402L35.9984 15.9212C35.8659 15.6915 35.9445 15.3979 36.1742 15.2652C36.4033 15.133 36.6975 15.211 36.83 15.4409L37.1875 16.0599C37.32 16.2896 37.2414 16.5833 37.0117 16.716C36.9363 16.7596 36.8537 16.7803 36.772 16.7803ZM43.198 27.9106C43.0323 27.9106 42.8707 27.8246 42.7818 27.6705L42.4246 27.0515C42.2921 26.8218 42.3708 26.5282 42.6003 26.3956C42.8294 26.2631 43.1235 26.3415 43.2562 26.5714L43.6134 27.1904C43.746 27.4201 43.6672 27.7137 43.4377 27.8463C43.3622 27.8899 43.2796 27.9106 43.198 27.9106ZM34.5499 19.0017C34.4683 19.0017 34.3859 18.9809 34.3102 18.9374L33.6912 18.5801C33.4617 18.4476 33.3829 18.1539 33.5155 17.9242C33.648 17.6945 33.9422 17.616 34.1714 17.7485L34.7904 18.1057C35.0199 18.2383 35.0986 18.5319 34.9661 18.7616C34.8772 18.9155 34.7157 19.0017 34.5499 19.0017ZM45.6802 25.4277C45.5986 25.4277 45.5162 25.4069 45.4405 25.3633L44.8215 25.0061C44.592 24.8736 44.5132 24.5799 44.6458 24.3502C44.7783 24.1205 45.0725 24.0419 45.3016 24.1745L45.9207 24.5317C46.1502 24.6642 46.2289 24.9579 46.0964 25.1876C46.0075 25.3414 45.8461 25.4277 45.6802 25.4277ZM18.747 32.98H16.0332C15.8887 32.98 15.7518 32.9149 15.6608 32.803C15.5695 32.6908 15.5338 32.5437 15.5632 32.4021C15.5907 32.27 15.5582 32.1386 15.4741 32.042L13.2085 29.436C13.051 29.2546 13.0516 28.9848 13.2101 28.8043C13.5206 28.4503 13.6918 27.9976 13.6918 27.5294V26.3926C13.6918 26.2245 13.7795 26.0688 13.9232 25.9817C14.067 25.8947 14.2458 25.8892 14.3945 25.9671C15.33 26.4567 16.3378 26.7049 17.3901 26.7049C18.4424 26.7049 19.4503 26.4567 20.3856 25.9671C20.5339 25.8892 20.7131 25.8947 20.857 25.9817C21.0006 26.0688 21.0884 26.2245 21.0884 26.3926V27.5294C21.0884 27.9976 21.2595 28.4503 21.5703 28.8041C21.7287 28.9846 21.7293 29.2546 21.5718 29.436L19.3063 32.042C19.2221 32.1388 19.1897 32.27 19.2171 32.4019C19.2465 32.5435 19.211 32.6906 19.1198 32.8028C19.0283 32.9149 18.8916 32.98 18.747 32.98ZM16.5031 32.0197H18.2768C18.3244 31.7973 18.4274 31.5888 18.5812 31.4117L20.5921 29.0987C20.2906 28.6328 20.1279 28.0886 20.1279 27.5292V27.1399C18.388 27.8299 16.3921 27.8299 14.6519 27.1399V27.5292C14.6519 28.0885 14.4892 28.6328 14.1878 29.0985L16.1987 31.4117C16.3526 31.5886 16.4555 31.7973 16.5031 32.0197Z" fill="black"/>
<path d="M18.4704 35.9175H16.3088C16.1319 35.9175 15.9692 35.8201 15.8857 35.6644L14.8134 33.665C14.7074 33.4674 14.7523 33.2229 14.9215 33.0758L15.4326 32.6313C15.516 32.5589 15.5494 32.4668 15.563 32.4022C15.6093 32.1796 15.8056 32.02 16.033 32.02H18.7468C18.9744 32.02 19.1707 32.1798 19.217 32.4026C19.2302 32.4669 19.2636 32.5589 19.347 32.6312L19.3472 32.6313L19.8583 33.0758C20.0275 33.2229 20.0722 33.4676 19.9664 33.665L18.8939 35.6644C18.81 35.8201 18.6473 35.9175 18.4704 35.9175ZM16.5961 34.9572H18.1833L18.9389 33.5488L18.717 33.356C18.5937 33.2488 18.4923 33.1221 18.4157 32.9801H16.3639C16.2873 33.1221 16.1859 33.2488 16.0628 33.356L15.8409 33.5488L16.5961 34.9572Z" fill="black"/>
<path d="M20.0663 49.1674H14.714C14.5767 49.1674 14.4459 49.1087 14.3548 49.0059C14.2638 48.9032 14.221 48.7662 14.2373 48.6299L15.8325 35.3798C15.8616 35.1386 16.0663 34.9571 16.3092 34.9571H18.4711C18.714 34.9571 18.9188 35.1386 18.9478 35.3798L20.5432 48.6299C20.5595 48.7662 20.5167 48.903 20.4257 49.0059C20.3346 49.1089 20.2037 49.1674 20.0663 49.1674ZM15.2554 48.2071H19.5247L18.0451 35.9174H16.7348L15.2554 48.2071ZM39.8059 29.0193C35.6906 29.0193 32.3428 25.6712 32.3428 21.5559C32.3428 17.4406 35.6908 14.0924 39.8059 14.0924C43.9214 14.0924 47.2694 17.4406 47.2694 21.5559C47.2694 25.6712 43.9214 29.0193 39.8059 29.0193ZM39.8059 15.0527C36.2202 15.0527 33.3031 17.9699 33.3031 21.5559C33.3031 25.1418 36.2202 28.059 39.8059 28.059C43.3919 28.059 46.3091 25.1418 46.3091 21.5559C46.3091 17.9699 43.3919 15.0527 39.8059 15.0527Z" fill="black"/>
<path d="M39.8061 23.4685C38.7515 23.4685 37.8936 22.6106 37.8936 21.556C37.8936 20.5014 38.7515 19.6434 39.8061 19.6434C40.8605 19.6434 41.7184 20.5014 41.7184 21.556C41.7184 22.6106 40.8607 23.4685 39.8061 23.4685ZM39.8061 20.6039C39.2812 20.6039 38.8539 21.0311 38.8539 21.5562C38.8539 22.0813 39.2812 22.5084 39.8061 22.5084C40.331 22.5084 40.7581 22.0813 40.7581 21.5562C40.7581 21.0311 40.3312 20.6039 39.8061 20.6039Z" fill="black"/>
</g>
<defs>
<clipPath id="clip0_373_1445">
<rect width="49.1675" height="49.1675" fill="white" transform="translate(0.5)"/>
</clipPath>
</defs>
</svg>
