<svg width="48" height="48" viewBox="0 0 48 48" fill="none" xmlns="http://www.w3.org/2000/svg">
<path d="M16.9831 22.6147C16.9831 26.9595 13.4542 30.4884 9.09171 30.4884C4.73608 30.4884 1.21802 26.9482 1.21802 22.6147H16.9831ZM46.7821 22.6147C46.7821 26.9595 43.2532 30.4884 38.8907 30.4884C34.5351 30.4884 31.017 26.9482 31.017 22.6147H46.7821ZM37.1725 44.3197H10.8275C10.8275 42.1474 12.5885 40.3865 14.7607 40.3865H33.2394C35.4115 40.3864 37.1725 42.1474 37.1725 44.3197Z" fill="#F99621"/>
<path d="M27.1259 10.1466C27.1259 11.8754 25.7286 13.2725 24 13.2725C22.2713 13.2725 20.8741 11.8753 20.8741 10.1466C20.8741 8.42386 22.2713 7.02661 24 7.02661C25.7286 7.02661 27.1259 8.42377 27.1259 10.1466Z" fill="white"/>
<path d="M46.782 21.9593H44.7839L39.5041 10.3829C39.6848 9.95162 39.3684 9.47406 38.8997 9.47406H27.7176C27.437 7.92493 26.209 6.7044 24.6555 6.43159V3.6804C24.6555 3.31806 24.3623 3.0249 24 3.0249C23.6377 3.0249 23.3445 3.31806 23.3445 3.6804V6.4315C21.7909 6.70431 20.563 7.92484 20.2824 9.47396H9.10022C8.93691 9.51615 8.46544 9.41415 8.26875 9.90728L3.48581 21.9593H1.218C0.855656 21.9593 0.5625 22.2525 0.5625 22.6148C0.5625 27.3177 4.38909 31.1436 9.09188 31.1436C13.8043 31.1436 17.6386 27.3177 17.6386 22.6148C17.6386 22.2525 17.3454 21.9593 16.9831 21.9593H14.985L9.88866 10.785H20.277C20.5452 12.3527 21.7792 13.5918 23.3445 13.8671V39.7306H14.7607C12.2303 39.7306 10.1717 41.7891 10.1717 44.3195C10.1717 44.6819 10.4648 44.975 10.8272 44.975H37.1727C37.5351 44.975 37.8282 44.6819 37.8282 44.3195C37.8282 41.7892 35.7697 39.7306 33.2393 39.7306H24.6554V13.8671C26.2207 13.5918 27.4547 12.3527 27.7229 10.785H37.7193L33.2846 21.9593H31.0168C30.6545 21.9593 30.3613 22.2525 30.3613 22.6148C30.3613 27.3177 34.1879 31.1436 38.8907 31.1436C43.6031 31.1436 47.4374 27.3177 47.4374 22.6148C47.4375 22.2525 47.1443 21.9593 46.782 21.9593ZM9.09188 29.8326C5.3325 29.8326 2.23509 26.9445 1.90284 23.2702H16.2982C15.9653 26.9445 12.8603 29.8326 9.09188 29.8326ZM4.90622 21.9344L8.91966 11.8207L13.5322 21.9344H4.90622ZM36.4513 43.664H11.5487C11.8534 42.1694 13.1778 41.0415 14.7607 41.0415H33.2393C34.8223 41.0416 36.1466 42.1694 36.4513 43.664ZM24 12.6169C22.6378 12.6169 21.5299 11.5089 21.5299 10.1468C21.5299 8.7879 22.6379 7.68175 24 7.68175C25.3621 7.68175 26.4701 8.78781 26.4701 10.1468C26.4701 11.5089 25.3622 12.6169 24 12.6169ZM38.7187 11.8206L43.3313 21.9344H34.7052L38.7187 11.8206ZM38.8908 29.8326C35.1314 29.8326 32.034 26.9445 31.7018 23.2702H46.0971C45.7642 26.9445 42.6591 29.8326 38.8908 29.8326Z" fill="#121212"/>
</svg>
