<svg width="41" height="41" viewBox="0 0 41 41" fill="none" xmlns="http://www.w3.org/2000/svg">
<path opacity="0.5" d="M4.24316 19.5387C4.24316 14.7062 7.60103 10.7887 11.7432 10.7887C15.8853 10.7887 19.2432 14.7062 19.2432 19.5387V34.122H7.96409C5.90908 34.122 4.24316 32.1785 4.24316 29.7809V19.5387Z" fill="#FFB300"/>
<path opacity="0.8" d="M19.2432 19.5387V34.122H24.2432H25.9098H33.8983C35.9297 34.122 37.5765 32.2008 37.5765 29.8308V19.5387C37.5765 14.7062 34.2186 10.7887 30.0765 10.7887H11.7432C15.8853 10.7887 19.2432 14.7062 19.2432 19.5387Z" fill="#FFB300"/>
<path d="M16.7432 34.122V37.4553C16.7432 38.1457 17.3028 38.7053 17.9932 38.7053C18.6835 38.7053 19.2432 38.1457 19.2432 37.4553V34.122H16.7432Z" fill="#FFB300"/>
<path d="M25.9098 34.122H23.4098V37.4553C23.4098 38.1457 23.9695 38.7053 24.6598 38.7053C25.3502 38.7053 25.9098 38.1457 25.9098 37.4553V34.122Z" fill="#FFB300"/>
<path fill-rule="evenodd" clipRule="evenodd" d="M7.99316 27.4554C7.99316 26.765 8.55281 26.2054 9.24316 26.2054H14.2432C14.9335 26.2054 15.4932 26.765 15.4932 27.4554C15.4932 28.1457 14.9335 28.7054 14.2432 28.7054H9.24316C8.55281 28.7054 7.99316 28.1457 7.99316 27.4554Z" fill="#FFB300"/>
<path fill-rule="evenodd" clipRule="evenodd" d="M29.8848 11.7632L30.3116 11.6778C31.0045 11.539 31.721 11.6053 32.3794 11.8689C33.5299 12.3296 34.7881 12.4156 35.9868 12.1156L36.0893 12.09C36.9621 11.8716 37.5772 11.0603 37.5772 10.1276V6.57674C37.5772 5.34705 36.4702 4.44108 35.3195 4.72903C34.6588 4.89438 33.9652 4.84695 33.3311 4.59302L33.2093 4.54425C32.1475 4.11915 30.9923 4.01235 29.875 4.23603L29.1272 4.38573C28.2274 4.56587 27.5771 5.38404 27.5771 6.33611V17.9232C27.5771 18.5853 28.0937 19.122 28.731 19.122C29.3682 19.122 29.8848 18.5853 29.8848 17.9232V11.7632Z" fill="#FFB300"/>
</svg>
