<svg width="48" height="48" viewBox="0 0 48 48" fill="none" xmlns="http://www.w3.org/2000/svg">
<path d="M26.8308 19.7927L26.6595 19.745C26.4142 19.6766 26.1909 19.7242 25.995 19.8862C25.8056 20.0427 25.6039 20.1736 25.3941 20.2797L25.9717 26.0558C25.9874 26.2118 25.9465 26.3683 25.8567 26.4969L24.5372 28.3855C24.4144 28.5612 24.2137 28.6659 23.9993 28.6659C23.7849 28.6659 23.5841 28.5613 23.4614 28.3855L22.1418 26.4969C22.052 26.3683 22.0111 26.2118 22.0268 26.0558L22.6045 20.2797C22.3947 20.1737 22.193 20.0427 22.0035 19.8862C21.8076 19.7244 21.5841 19.6769 21.3392 19.745L21.1723 19.7915C20.928 19.8577 20.6679 19.924 20.3987 19.9928C19.4478 20.2355 18.2645 20.5376 17.6836 20.8782C17.1243 21.2061 16.8869 21.4568 16.7959 22.6294C16.662 25.0654 16.7252 27.3199 16.8048 29.2043C16.8361 29.9466 17.4428 30.5281 18.1858 30.5281H18.5603V25.8572C18.5603 25.4948 18.8541 25.201 19.2165 25.201C19.579 25.201 19.8728 25.4948 19.8728 25.8572V30.5281H28.1257V25.8572C28.1257 25.4948 28.4195 25.201 28.7819 25.201C29.1444 25.201 29.4382 25.4948 29.4382 25.8572V30.5281H29.8127C30.5557 30.5281 31.1624 29.9466 31.1937 29.2043C31.2733 27.3199 31.3364 25.0655 31.2026 22.6294C31.1115 21.4569 30.8742 21.2062 30.3149 20.8782C29.734 20.5375 28.5507 20.2355 27.5998 19.9928C27.3306 19.924 27.0704 19.8577 26.8307 19.7927H26.8308ZM24.0009 40.9152C19.0362 40.9152 14.9577 37.0479 14.6196 32.1675H9.19739V33.5443L11.7766 34.0529C11.9919 34.0954 12.1718 34.2427 12.2558 34.4454L13.621 37.7365C13.7051 37.9393 13.6822 38.1709 13.5599 38.3533L12.0944 40.5384L14.9715 43.4155L17.1568 41.95C17.3391 41.8276 17.5708 41.8047 17.7736 41.8889L21.0646 43.2541C21.2673 43.3381 21.4146 43.518 21.4572 43.7333L21.9658 46.3126H26.0343L26.5429 43.7333C26.5854 43.518 26.7327 43.3381 26.9355 43.2541L30.2264 41.8889C30.4292 41.8048 30.661 41.8277 30.8433 41.95L33.0285 43.4155L35.9056 40.5384L34.4401 38.3534C34.3177 38.171 34.2948 37.9393 34.379 37.7365L35.7442 34.4454C35.8282 34.2428 36.0081 34.0955 36.2234 34.0529L38.8027 33.5443V32.1675H33.3825C33.0445 37.0479 28.966 40.9152 24.0013 40.9152H24.0009ZM11.6706 10.036L12.7647 10.001C12.7717 10.0008 12.7787 10.0007 12.7859 10.0007C13.0028 10.0007 13.2063 10.1081 13.3288 10.2884L13.9436 11.1942L14.2483 10.1428C14.3109 9.92673 14.4799 9.75789 14.6959 9.69526L15.7473 9.39048L14.8416 8.77576C14.6555 8.64939 14.547 8.43658 14.5543 8.21176L14.5893 7.11761L13.7247 7.78914C13.547 7.92695 13.3109 7.96436 13.0994 7.88814L12.0698 7.5167L12.4412 8.54645C12.5175 8.75805 12.4801 8.99401 12.3421 9.17167L11.6707 10.0362L11.6706 10.036ZM33.7507 10.1419L34.0555 11.1934L34.6703 10.2875C34.7968 10.1013 35.0094 9.99283 35.2344 10.0001L36.3285 10.0352L35.657 9.17064C35.519 8.99298 35.4817 8.75701 35.5579 8.54542L35.9294 7.51567L34.8997 7.88711C34.688 7.96342 34.452 7.92601 34.2745 7.78811L33.4098 7.11658L33.4449 8.21073C33.4521 8.43555 33.3436 8.64836 33.1575 8.77473L32.2517 9.38955L33.3032 9.69433C33.5192 9.75695 33.6881 9.92589 33.7508 10.1419H33.7507Z" fill="#F99621"/>
<path d="M21.5727 5.53309L21.1723 7.62531C21.1245 7.87515 21.2252 8.13006 21.4311 8.27959C21.6368 8.42903 21.9105 8.44618 22.1333 8.32356L23.9994 7.29615L25.8655 8.32356C25.9645 8.37803 26.0733 8.40493 26.1819 8.40493C26.3179 8.40493 26.4534 8.36274 26.5677 8.27959C26.7735 8.13006 26.8743 7.87515 26.8265 7.62531L26.4261 5.53309L27.9799 4.07584C28.1655 3.90184 28.2337 3.63634 28.1551 3.39437C28.0765 3.15249 27.8652 2.97774 27.6128 2.94606L25.4992 2.68037L24.5934 0.7524C24.4852 0.52215 24.2537 0.375244 23.9994 0.375244C23.7451 0.375244 23.5136 0.522244 23.4054 0.7524L22.4996 2.68037L20.386 2.94606C20.1336 2.97774 19.9223 3.15249 19.8437 3.39437C19.7651 3.63634 19.8334 3.90184 20.0189 4.07584L21.5727 5.53309ZM23.0218 3.93746C23.245 3.90943 23.4382 3.76899 23.5339 3.56537L23.9994 2.57453L24.465 3.56537C24.5607 3.76899 24.7539 3.90934 24.9771 3.93746L26.0632 4.07406L25.2646 4.82293C25.1006 4.97687 25.0268 5.20403 25.0691 5.42499L25.2749 6.50021L24.3159 5.97221C24.2174 5.91793 24.1083 5.89084 23.9994 5.89084C23.8905 5.89084 23.7814 5.91793 23.6829 5.97221L22.7239 6.50021L22.9297 5.42499C22.972 5.20403 22.8982 4.97687 22.7341 4.82293L21.9356 4.07406L23.0218 3.93746ZM30.5447 10.2613L32.5907 10.8543L33.1838 12.9003C33.2547 13.1447 33.4603 13.3261 33.7115 13.3658C33.7458 13.3712 33.7801 13.3739 33.8143 13.3739C34.0295 13.3739 34.2339 13.2678 34.3572 13.0862L35.5535 11.3235L37.6826 11.3917C37.9396 11.4009 38.1728 11.2604 38.2884 11.0337C38.4038 10.8071 38.3779 10.5341 38.2219 10.3332L36.9152 8.65084L37.6381 6.64693C37.7243 6.40768 37.6646 6.14012 37.4848 5.96021C37.3049 5.7804 37.0371 5.72068 36.798 5.80693L34.7942 6.52974L33.1118 5.22306C32.9109 5.06706 32.638 5.04118 32.4113 5.15668C32.1846 5.27209 32.0452 5.50824 32.0534 5.7624L32.1216 7.89146L30.359 9.08781C30.1486 9.23059 30.0396 9.48231 30.0794 9.73346C30.1192 9.98471 30.3005 10.1903 30.5448 10.2611L30.5447 10.2613ZM33.1575 8.77478C33.3436 8.6484 33.4522 8.43559 33.4449 8.21078L33.4098 7.11662L34.2745 7.78815C34.452 7.92606 34.688 7.96346 34.8997 7.88715L35.9294 7.51571L35.5579 8.54546C35.4817 8.75706 35.519 8.99303 35.657 9.17068L36.3285 10.0352L35.2344 10.0002C35.0095 9.99287 34.7968 10.1014 34.6703 10.2875L34.0555 11.1934L33.7507 10.1419C33.688 9.92584 33.5191 9.75699 33.3031 9.69437L32.2516 9.38959L33.1575 8.77478H33.1575ZM42.6938 18.8514L40.7658 17.9456L40.5 15.832C40.4683 15.5796 40.2936 15.3683 40.0517 15.2897C39.8099 15.2111 39.5442 15.2794 39.3703 15.465L37.9129 17.0187L35.8208 16.6183C35.571 16.5702 35.316 16.6712 35.1665 16.877C35.0171 17.0828 34.9999 17.3565 35.1226 17.5793L36.1499 19.4454L35.1226 21.3115C34.9998 21.5343 35.017 21.8079 35.1665 22.0138C35.3161 22.2195 35.5705 22.3205 35.8208 22.2725L37.9129 21.8721L39.3703 23.4259C39.4964 23.5605 39.6706 23.6332 39.849 23.6332C39.9167 23.6332 39.9851 23.6227 40.0516 23.6011C40.2935 23.5225 40.4682 23.3112 40.5 23.0588L40.7657 20.9452L42.6937 20.0394C42.924 19.9313 43.0709 19.6998 43.0709 19.4455C43.0709 19.1912 42.924 18.9597 42.6937 18.8516L42.6938 18.8514ZM39.8806 19.9109C39.677 20.0065 39.5366 20.1998 39.5086 20.4229L39.372 21.5091L38.6231 20.7106C38.4978 20.5771 38.324 20.5034 38.1445 20.5034C38.1034 20.5034 38.0622 20.5072 38.0212 20.5151L36.946 20.7209L37.4739 19.7619C37.5824 19.5648 37.5824 19.326 37.4739 19.1289L36.946 18.1699L38.0212 18.3757C38.2416 18.4181 38.4693 18.3442 38.6232 18.1802L39.372 17.3817L39.5086 18.4679C39.5367 18.6911 39.6771 18.8843 39.8807 18.9799L40.8715 19.4454L39.8807 19.9109H39.8806ZM10.3166 11.3927L12.4456 11.3244L13.642 13.087C13.7653 13.2687 13.9696 13.3747 14.1849 13.3747C14.2189 13.3747 14.2532 13.3721 14.2876 13.3666C14.5389 13.3269 14.7445 13.1455 14.8154 12.9012L15.4083 10.8552L17.4543 10.2621C17.6986 10.1913 17.8801 9.98574 17.9199 9.73449C17.9596 9.48324 17.8507 9.23162 17.6402 9.08884L15.8776 7.89249L15.9459 5.76343C15.9541 5.50928 15.8146 5.27321 15.588 5.15771C15.3614 5.04212 15.0884 5.06809 14.8875 5.22409L13.205 6.53078L11.2012 5.80806C10.9618 5.72171 10.6943 5.78143 10.5145 5.96134C10.3347 6.14124 10.275 6.40881 10.3612 6.64806L11.084 8.65196L9.77733 10.3344C9.62133 10.5353 9.59546 10.8082 9.71086 11.0348C9.82636 11.2614 10.0594 11.4021 10.3167 11.3928L10.3166 11.3927ZM12.4411 8.54631L12.0697 7.51656L13.0994 7.88799C13.3109 7.96421 13.5469 7.9269 13.7246 7.78899L14.5892 7.11746L14.5542 8.21162C14.547 8.43643 14.6554 8.64924 14.8415 8.77562L15.7472 9.39034L14.6958 9.69512C14.4797 9.75774 14.3108 9.92668 14.2482 10.1427L13.9435 11.1941L13.3287 10.2883C13.2062 10.108 13.0027 10.0006 12.7858 10.0006C12.7787 10.0006 12.7717 10.0006 12.7646 10.0008L11.6705 10.0359L12.342 9.17134C12.48 8.99368 12.5173 8.75771 12.441 8.54612L12.4411 8.54631ZM8.15096 23.6343C8.32936 23.6343 8.50364 23.5615 8.62964 23.4271L10.087 21.8733L12.1791 22.2737C12.4286 22.3215 12.6839 22.2208 12.8334 22.015C12.9829 21.8092 13 21.5356 12.8774 21.3127L11.85 19.4466L12.8774 17.5805C13.0001 17.3577 12.9829 17.0841 12.8334 16.8783C12.6839 16.6726 12.4288 16.5712 12.1791 16.6195L10.0869 17.0199L8.62955 15.4662C8.45564 15.2807 8.18996 15.2124 7.94808 15.291C7.70621 15.3695 7.53146 15.5808 7.49977 15.8332L7.23408 17.9468L5.30611 18.8527C5.07586 18.9609 4.92896 19.1924 4.92896 19.4466C4.92896 19.7009 5.07586 19.9324 5.30611 20.0405L7.23408 20.9463L7.49977 23.0599C7.53146 23.3123 7.70621 23.5236 7.94808 23.6022C8.01464 23.6238 8.08299 23.6343 8.15077 23.6343H8.15096ZM7.12861 19.4466L8.11936 18.9811C8.32299 18.8854 8.46342 18.6921 8.49146 18.469L8.62796 17.3829L9.37683 18.1814C9.53067 18.3454 9.75849 18.4194 9.9788 18.3769L11.0541 18.1712L10.5261 19.1301C10.4176 19.3272 10.4176 19.5661 10.5261 19.7631L11.054 20.7221L9.9788 20.5163C9.75839 20.4738 9.53067 20.5478 9.37683 20.7119L8.62796 21.5103L8.49146 20.4242C8.46342 20.201 8.32299 20.0078 8.11936 19.9122L7.12861 19.4467V19.4466ZM15.4867 22.5358C15.4863 22.5406 15.486 22.5452 15.4858 22.55C15.3483 25.045 15.4125 27.3418 15.4934 29.2596C15.5546 30.7069 16.7372 31.8406 18.1858 31.8406H29.8127C31.2613 31.8406 32.4438 30.7068 32.5051 29.2596C32.586 27.3418 32.6502 25.045 32.5127 22.55C32.5125 22.5452 32.5122 22.5406 32.5118 22.5358C32.398 21.0553 32.0111 20.3513 30.9788 19.7461C30.2381 19.3117 29.0088 18.9979 27.9244 18.7211C27.6615 18.654 27.4077 18.5892 27.1781 18.5271L27.0114 18.4807C26.3571 18.2985 25.6821 18.442 25.1589 18.8746C24.4653 19.4478 23.5332 19.4477 22.8394 18.8746C22.3161 18.4422 21.6411 18.2987 20.9871 18.4807L20.8247 18.5259C20.5907 18.5893 20.3369 18.6541 20.074 18.7212C18.9896 18.998 17.7603 19.3118 17.0197 19.7462C15.9873 20.3514 15.6004 21.0553 15.4866 22.536L15.4867 22.5358ZM24.1084 20.6121L24.6416 25.9444L23.9993 26.8639L23.3569 25.9444L23.8902 20.6121C23.9629 20.6147 24.0357 20.6147 24.1084 20.6121ZM17.6836 20.8783C18.2645 20.5376 19.4478 20.2355 20.3987 19.9928C20.6679 19.9241 20.9281 19.8577 21.1723 19.7915L21.3392 19.745C21.5841 19.677 21.8076 19.7244 22.0035 19.8862C22.193 20.0428 22.3947 20.1737 22.6044 20.2798L22.0268 26.0558C22.0111 26.2118 22.052 26.3684 22.1418 26.4969L23.4614 28.3856C23.5842 28.5614 23.785 28.666 23.9993 28.666C24.2136 28.666 24.4145 28.5613 24.5372 28.3856L25.8567 26.4969C25.9465 26.3684 25.9874 26.2118 25.9717 26.0558L25.3941 20.2798C25.6039 20.1737 25.8056 20.0428 25.9951 19.8862C26.1909 19.7242 26.4142 19.6768 26.6595 19.745L26.8308 19.7927C27.0706 19.8576 27.3307 19.924 27.5999 19.9928C28.5508 20.2355 29.7341 20.5377 30.315 20.8783C30.8743 21.2062 31.1116 21.4569 31.2027 22.6294C31.3365 25.0654 31.2734 27.3199 31.1938 29.2043C31.1624 29.9466 30.5557 30.5281 29.8128 30.5281H29.4383V25.8572C29.4383 25.4948 29.1445 25.201 28.7821 25.201C28.4196 25.201 28.1258 25.4948 28.1258 25.8572V30.5281H19.8729V25.8572C19.8729 25.4948 19.5791 25.201 19.2166 25.201C18.8542 25.201 18.5604 25.4948 18.5604 25.8572V30.5281H18.1859C17.4428 30.5281 16.8362 29.9466 16.8049 29.2043C16.7253 27.3199 16.6622 25.0655 16.796 22.6294C16.887 21.4569 17.1244 21.2061 17.6837 20.8783H17.6836ZM23.9568 18.7226C23.971 18.7235 23.9851 18.724 23.9993 18.724C24.0135 18.724 24.0276 18.7235 24.0418 18.7226C26.6362 18.5543 28.1558 15.7843 28.0757 13.3142C27.9944 10.8021 26.3942 9.17893 23.9993 9.17893C21.6044 9.17893 20.0042 10.8021 19.9229 13.3142C19.8428 15.7843 21.3624 18.5544 23.9568 18.7226ZM21.2346 13.3567C21.2564 12.6846 21.5202 10.4914 23.9993 10.4914C26.4784 10.4914 26.7422 12.6846 26.764 13.3567C26.824 15.2086 25.7288 17.2654 23.9993 17.4097C22.2698 17.2654 21.1746 15.2086 21.2346 13.3567ZM39.4588 30.8551H32.7487C32.3863 30.8551 32.0925 31.1489 32.0925 31.5113C32.0925 35.973 28.4626 39.6028 24.001 39.6028C19.5393 39.6028 15.9095 35.973 15.9095 31.5113C15.9095 31.1489 15.6157 30.8551 15.2533 30.8551H8.54124C8.1788 30.8551 7.88499 31.1489 7.88499 31.5113V34.0838C7.88499 34.3973 8.10671 34.667 8.4143 34.7277L11.1781 35.2726L12.2739 37.9143L10.704 40.2555C10.5294 40.5158 10.5632 40.8632 10.7849 41.0851L14.4249 44.7251C14.6466 44.9467 14.994 44.9806 15.2546 44.806L17.5957 43.236L20.2374 44.3317L20.7823 47.0956C20.8429 47.4031 21.1126 47.625 21.4261 47.625H26.5738C26.8873 47.625 27.157 47.4032 27.2176 47.0956L27.7625 44.3317L30.4042 43.236L32.7453 44.806C33.0057 44.9806 33.3531 44.9466 33.575 44.7251L37.215 41.0851C37.4367 40.8633 37.4706 40.5158 37.296 40.2554L35.7259 37.9143L36.8217 35.2726L39.5856 34.7277C39.8931 34.667 40.1149 34.3973 40.1149 34.0838V31.5113C40.1149 31.1489 39.8211 30.8551 39.4587 30.8551H39.4588ZM38.8025 33.5444L36.2232 34.053C36.0079 34.0954 35.828 34.2427 35.744 34.4455L34.3788 37.7365C34.2947 37.9394 34.3176 38.171 34.44 38.3535L35.9055 40.5385L33.0284 43.4156L30.8431 41.9501C30.6608 41.8276 30.429 41.8048 30.2263 41.889L26.9353 43.2542C26.7326 43.3382 26.5853 43.5181 26.5427 43.7333L26.0341 46.3126H21.9656L21.457 43.7333C21.4145 43.5181 21.2672 43.3382 21.0645 43.2542L17.7735 41.889C17.5706 41.8049 17.3389 41.8277 17.1566 41.9501L14.9714 43.4156L12.0943 40.5385L13.5597 38.3534C13.6821 38.1709 13.705 37.9394 13.6208 37.7365L12.2556 34.4455C12.1716 34.2428 11.9917 34.0955 11.7765 34.053L9.19721 33.5444V32.1676H14.6194C14.9575 37.048 19.036 40.9153 24.0007 40.9153C28.9654 40.9153 33.0439 37.048 33.382 32.1676H38.8021V33.5444H38.8025Z" fill="#121212"/>
</svg>
