<svg width="46" height="45" viewBox="0 0 46 45" fill="none" xmlns="http://www.w3.org/2000/svg">
<g clip-path="url(#clip0_373_1383)">
<path d="M9.60915 12.1987C9.41575 12.1987 9.25879 12.0418 9.25879 11.8484V6.94337C9.25879 6.74998 9.41575 6.59302 9.60915 6.59302H14.8645V1.33766C14.8645 1.14426 15.0215 0.987305 15.2149 0.987305C15.4083 0.987305 15.5652 1.14426 15.5652 1.33766V6.94337C15.5652 7.13677 15.4083 7.29373 15.2149 7.29373H9.9595V11.8484C9.9595 12.0425 9.80254 12.1987 9.60915 12.1987Z" fill="#263238"/>
<path d="M16.6166 3.08938C16.5269 3.08938 16.4372 3.05504 16.3685 2.98707L15.2151 1.833L14.0618 2.98637C13.9251 3.12301 13.703 3.12301 13.5663 2.98637C13.4297 2.84973 13.4297 2.62761 13.5663 2.49097L14.9678 1.08954C15.1044 0.952901 15.3265 0.952901 15.4632 1.08954L16.8646 2.49097C17.0012 2.62761 17.0012 2.84973 16.8646 2.98637C16.7959 3.05504 16.7062 3.08938 16.6166 3.08938ZM32.0323 3.08938C31.9426 3.08938 31.8529 3.05504 31.7842 2.98707L30.6308 1.833L29.4775 2.98637C29.3408 3.12301 29.1187 3.12301 28.9821 2.98637C28.8454 2.84973 28.8454 2.62761 28.9821 2.49097L30.3835 1.08954C30.5201 0.952901 30.7423 0.952901 30.8789 1.08954L32.2803 2.49097C32.417 2.62761 32.417 2.84973 32.2803 2.98637C32.2116 3.05504 32.122 3.08938 32.0323 3.08938Z" fill="#263238"/>
<path d="M36.2364 12.1987C36.043 12.1987 35.8861 12.0418 35.8861 11.8484V7.29373H30.6307C30.4373 7.29373 30.2804 7.13677 30.2804 6.94337V1.33766C30.2804 1.14426 30.4373 0.987305 30.6307 0.987305C30.8241 0.987305 30.9811 1.14426 30.9811 1.33766V6.59302H36.2364C36.4298 6.59302 36.5868 6.74998 36.5868 6.94337V11.8484C36.5868 12.0425 36.4298 12.1987 36.2364 12.1987ZM22.9229 29.8406C19.6386 29.8406 16.9668 27.1688 16.9668 23.8845C16.9668 20.6003 19.6386 17.9285 22.9229 17.9285C26.2071 17.9285 28.8789 20.6003 28.8789 23.8845C28.8789 27.1688 26.2071 29.8406 22.9229 29.8406ZM22.9229 18.6292C20.0247 18.6292 17.6675 20.9864 17.6675 23.8845C17.6675 26.7827 20.0247 29.1399 22.9229 29.1399C25.821 29.1399 28.1782 26.7827 28.1782 23.8845C28.1782 20.9864 25.821 18.6292 22.9229 18.6292Z" fill="#263238"/>
<path d="M26.81 20.643L27.2276 20.2955C26.1989 19.0636 24.6532 18.2788 22.9231 18.2788C19.8273 18.2788 17.3174 20.7888 17.3174 23.8845H17.8464C21.1216 23.8845 24.293 22.7382 26.81 20.643Z" fill="#FFD740"/>
<path d="M17.8462 24.2349H17.3172C17.1238 24.2349 16.9668 24.0779 16.9668 23.8845C16.9668 20.6003 19.6386 17.9285 22.9229 17.9285C24.6929 17.9285 26.3599 18.7098 27.4964 20.0712C27.556 20.1427 27.5847 20.2345 27.5763 20.3277C27.5679 20.4209 27.5231 20.5057 27.4509 20.5653L27.0326 20.9128C24.4588 23.0549 21.1956 24.2349 17.8462 24.2349ZM17.6794 23.5342H17.8462C21.033 23.5342 24.1365 22.4116 26.5862 20.374L26.7249 20.2576C25.7341 19.2185 24.3677 18.6285 22.9229 18.6285C20.1424 18.6292 17.8595 20.7993 17.6794 23.5342ZM22.9257 33.6721C22.8094 33.6721 22.7 33.614 22.6349 33.5173L20.5299 30.3907C20.4907 30.3325 20.4704 30.2645 20.4704 30.1952V29.0768C20.4704 28.9598 20.5285 28.8512 20.6252 28.786C20.7219 28.7209 20.8445 28.7076 20.9532 28.7524C22.2151 29.2653 23.6299 29.2674 24.8933 28.7566C25.0012 28.7132 25.1238 28.7258 25.2205 28.7909C25.3172 28.8561 25.3754 28.9647 25.3754 29.081L25.3761 30.1875C25.3761 30.2575 25.3557 30.3248 25.3165 30.383L23.2172 33.5173C23.1513 33.614 23.0427 33.6721 22.9257 33.6721ZM21.1711 30.088L22.925 32.6932L24.6747 30.0817L24.674 29.5778C23.5381 29.9289 22.3069 29.9268 21.1711 29.5743V30.088ZM27.8279 42.457C27.6345 42.457 27.4775 42.3 27.4775 42.1066V37.2016C27.4775 37.0082 27.6345 36.8513 27.8279 36.8513C28.0213 36.8513 28.1782 37.0082 28.1782 37.2016V42.1066C28.1782 42.3 28.0213 42.457 27.8279 42.457ZM18.0179 42.457C17.8245 42.457 17.6675 42.3 17.6675 42.1066V37.2016C17.6675 37.0082 17.8245 36.8513 18.0179 36.8513C18.2113 36.8513 18.3682 37.0082 18.3682 37.2016V42.1066C18.3682 42.3 18.2113 42.457 18.0179 42.457Z" fill="#263238"/>
<path d="M24.6745 41.7563L22.9297 43.5081L21.1709 41.7563L22.222 33.3218H23.6234L24.6745 41.7563Z" fill="#40C4FF"/>
<path d="M22.9295 43.8583C22.837 43.8583 22.748 43.8219 22.6821 43.756L20.9234 42.0042C20.847 41.9278 20.8091 41.8206 20.8225 41.7127L21.8735 33.2782C21.8952 33.103 22.0445 32.9713 22.2211 32.9713H23.6225C23.7991 32.9713 23.9483 33.103 23.9701 33.2782L25.0211 41.7127C25.0351 41.8199 24.998 41.9271 24.9216 42.0035L23.1769 43.7553C23.1124 43.8212 23.0234 43.8576 22.9295 43.8583ZM21.5393 41.6293L22.9281 43.0125L24.305 41.63L23.3135 33.6727H22.5308L21.5393 41.6293Z" fill="#263238"/>
<path d="M22.9259 33.6721H20.4706C20.3704 33.6721 20.2758 33.6294 20.2092 33.5551C20.1427 33.4808 20.1111 33.3813 20.1223 33.2825L20.4727 30.1559C20.4888 30.0102 20.5953 29.8897 20.7376 29.8546C20.8847 29.8224 21.0298 29.8778 21.1117 29.9997L22.9252 32.6939L24.7344 29.9934C24.8157 29.8714 24.9664 29.814 25.1079 29.8476C25.2509 29.8827 25.3567 30.0032 25.3735 30.1489L25.7239 33.2825C25.7351 33.382 25.7035 33.4808 25.637 33.5551C25.5697 33.6294 25.4758 33.6721 25.3756 33.6721H22.9259ZM23.5818 32.9714H24.9839L24.7835 31.1783L23.5818 32.9714ZM20.863 32.9714H22.2679L21.0634 31.1818L20.863 32.9714Z" fill="#263238"/>
<path d="M31.3315 42.457C31.1381 42.457 30.9812 42.3 30.9812 42.1066V35.2719C30.9812 34.0288 30.2468 32.8979 29.1117 32.3919L25.1519 30.6282L23.2166 33.5173C23.1514 33.614 23.0428 33.6728 22.9265 33.6728C22.8101 33.6728 22.7001 33.6147 22.635 33.518L20.694 30.6352L16.7378 32.3933C15.5998 32.8986 14.8647 34.0295 14.8647 35.274V42.1059C14.8647 42.2993 14.7078 42.4563 14.5144 42.4563C14.321 42.4563 14.164 42.2993 14.164 42.1059V35.274C14.164 33.7527 15.0623 32.3702 16.4533 31.7522L20.6786 29.8743C20.8334 29.807 21.0163 29.8575 21.1116 29.999L22.9251 32.6932L24.7343 29.9927C24.8289 29.8511 25.0132 29.7993 25.1673 29.868L29.3962 31.7515C30.7843 32.3695 31.6819 33.7513 31.6819 35.2712V42.1059C31.6819 42.3 31.5249 42.457 31.3315 42.457ZM9.60939 25.5088C6.32514 25.5088 3.65332 22.837 3.65332 19.5527C3.65332 16.2685 6.32514 13.5967 9.60939 13.5967C12.8936 13.5967 15.5655 16.2685 15.5655 19.5527C15.5655 22.837 12.8936 25.5088 9.60939 25.5088ZM9.60939 14.2974C6.71124 14.2974 4.35403 16.6546 4.35403 19.5527C4.35403 22.4509 6.71124 24.8081 9.60939 24.8081C12.5075 24.8081 14.8647 22.4509 14.8647 19.5527C14.8647 16.6546 12.5075 14.2974 9.60939 14.2974Z" fill="#263238"/>
<path d="M13.496 16.312L13.9136 15.9644C12.885 14.7326 11.3392 13.9478 9.60913 13.9478C6.51338 13.9478 4.00342 16.4577 4.00342 19.5535H4.53246C7.80759 19.5528 10.979 18.4064 13.496 16.312Z" fill="#FFD740"/>
<path d="M4.53272 19.9031H4.00368C3.81028 19.9031 3.65332 19.7461 3.65332 19.5527C3.65332 16.2685 6.32514 13.5967 9.60939 13.5967C11.3794 13.5967 13.0464 14.378 14.183 15.7395C14.2425 15.8109 14.2712 15.9027 14.2628 15.9959C14.2544 16.0891 14.2096 16.1739 14.1374 16.2335L13.7191 16.581C11.1454 18.7231 7.88283 19.9031 4.53272 19.9031ZM4.36595 19.2024H4.53272C7.71956 19.2024 10.8237 18.0798 13.272 16.0422H13.2727L13.4115 15.9266C12.4207 14.8874 11.0543 14.2974 9.60939 14.2974C6.82896 14.2974 4.54603 16.4675 4.36595 19.2024ZM9.61219 29.341C9.49587 29.341 9.38656 29.2829 9.3214 29.1862L7.21645 26.0589C7.17721 26.0007 7.15689 25.9328 7.15689 25.8634V24.745C7.15689 24.628 7.21505 24.5194 7.31175 24.4542C7.40915 24.3891 7.53037 24.3758 7.63968 24.4206C8.89887 24.9328 10.3143 24.9356 11.5805 24.4248C11.6884 24.3821 11.8117 24.3947 11.9077 24.4591C12.0037 24.525 12.0619 24.6336 12.0619 24.7499V25.8564C12.0619 25.9257 12.0416 25.9937 12.0023 26.0512L9.90299 29.1855C9.83782 29.2822 9.72921 29.341 9.61219 29.341ZM7.8576 25.7562L9.61149 28.3621L11.3612 25.7499V25.2461C10.2239 25.5971 8.99206 25.595 7.8576 25.2425V25.7562ZM4.70439 38.1252C4.51099 38.1252 4.35403 37.9682 4.35403 37.7748V32.8698C4.35403 32.6764 4.51099 32.5195 4.70439 32.5195C4.89779 32.5195 5.05475 32.6764 5.05475 32.8698V37.7748C5.05475 37.9689 4.89779 38.1252 4.70439 38.1252Z" fill="#263238"/>
<path d="M11.361 37.4244L9.61621 39.1761L7.85742 37.4244L8.90849 28.9899H10.3099L11.361 37.4244Z" fill="#40C4FF"/>
<path d="M9.61602 39.5265C9.52353 39.5265 9.43454 39.4901 9.36867 39.4242L7.60988 37.6724C7.5335 37.5961 7.49566 37.4888 7.50898 37.3809L8.56005 28.9464C8.58177 28.7713 8.73102 28.6395 8.9076 28.6395H10.309C10.4856 28.6395 10.6349 28.7713 10.6566 28.9464L11.7077 37.3809C11.7217 37.4881 11.6845 37.5954 11.6082 37.6717L9.86337 39.4235C9.79891 39.4894 9.70992 39.5265 9.61602 39.5265ZM8.22581 37.2975L9.61462 38.6808L10.9915 37.2982L10 29.3409H9.21732L8.22581 37.2975Z" fill="#263238"/>
<path d="M9.61242 29.3411H7.15712C7.05692 29.3411 6.96232 29.2983 6.89575 29.224C6.82918 29.1498 6.79765 29.0503 6.80886 28.9515L7.15922 25.8242C7.17534 25.6784 7.28185 25.5579 7.42409 25.5229C7.56984 25.4899 7.71629 25.546 7.79827 25.6679L9.61172 28.3622L11.421 25.6616C11.5022 25.5397 11.6529 25.4815 11.7944 25.5159C11.9374 25.5509 12.0432 25.6714 12.06 25.8172L12.4104 28.9508C12.4216 29.0503 12.3901 29.1491 12.3235 29.2233C12.2562 29.2976 12.1623 29.3404 12.0621 29.3404L9.61242 29.3411ZM10.2683 28.6403H11.6704L11.47 26.8472L10.2683 28.6403ZM7.54952 28.6403H8.95445L7.74992 26.8507L7.54952 28.6403Z" fill="#263238"/>
<path d="M1.20094 38.1252C1.00755 38.1252 0.850586 37.9682 0.850586 37.7748V30.9429C0.850586 29.4209 1.7489 28.0384 3.13982 27.4211L7.36513 25.5432C7.51998 25.4745 7.70217 25.527 7.79817 25.6679L9.61161 28.3621L11.4209 25.6616C11.5155 25.52 11.7004 25.4689 11.8539 25.5368L16.0827 27.4204C17.1212 27.8835 17.899 28.777 18.215 29.8722C18.2682 30.0579 18.1617 30.252 17.9753 30.3059C17.7903 30.3599 17.5956 30.252 17.5416 30.0663C17.283 29.1701 16.6475 28.4385 15.7982 28.0601L11.8385 26.2964L9.90311 29.1855C9.83794 29.2822 9.72933 29.341 9.61302 29.341H9.61232C9.496 29.341 9.38669 29.2829 9.32152 29.1862L7.38054 26.3027L3.42431 28.0608C2.28635 28.5667 1.5513 29.6977 1.5513 30.9429V37.7748C1.5513 37.9689 1.39434 38.1252 1.20094 38.1252ZM36.2366 25.5088C32.9524 25.5088 30.2806 22.837 30.2806 19.5527C30.2806 16.2685 32.9524 13.5967 36.2366 13.5967C39.5209 13.5967 42.1927 16.2685 42.1927 19.5527C42.1927 22.837 39.5209 25.5088 36.2366 25.5088ZM36.2366 14.2974C33.3385 14.2974 30.9813 16.6546 30.9813 19.5527C30.9813 22.4509 33.3385 24.8081 36.2366 24.8081C39.1348 24.8081 41.492 22.4509 41.492 19.5527C41.492 16.6546 39.1348 14.2974 36.2366 14.2974Z" fill="#263238"/>
<path d="M40.1234 16.312L40.5411 15.9644C39.5124 14.7326 37.9666 13.9478 36.2366 13.9478C33.1408 13.9478 30.6309 16.4577 30.6309 19.5535H31.1599C34.435 19.5528 37.6065 18.4064 40.1234 16.312Z" fill="#FFD740"/>
<path d="M31.1597 19.9031H30.6306C30.4372 19.9031 30.2803 19.7461 30.2803 19.5527C30.2803 16.2685 32.9521 13.5967 36.2363 13.5967C38.0063 13.5967 39.6733 14.378 40.8099 15.7395C40.8695 15.8109 40.8982 15.9027 40.8898 15.9959C40.8814 16.0891 40.8365 16.1739 40.7644 16.2335L40.346 16.581C37.7723 18.7231 34.5098 19.9031 31.1597 19.9031ZM30.9929 19.2024H31.1597C34.3465 19.2024 37.4507 18.0798 39.899 16.0422L40.0384 15.9266C39.0476 14.8874 37.6812 14.2974 36.2363 14.2974C33.4559 14.2974 31.173 16.4675 30.9929 19.2024ZM36.2335 29.341C36.1165 29.341 36.0079 29.2829 35.9427 29.1855L33.8434 26.0512C33.8042 25.993 33.7838 25.9257 33.7838 25.8557L33.7845 24.7492C33.7845 24.6329 33.8427 24.5243 33.9394 24.4591C34.0361 24.394 34.158 24.3821 34.2666 24.4248C35.5307 24.9356 36.9469 24.9335 38.2068 24.4206C38.314 24.3758 38.4373 24.3891 38.5347 24.4542C38.6314 24.5194 38.6895 24.6287 38.6895 24.745V25.8634C38.6895 25.9335 38.6692 26.0014 38.63 26.0589L36.525 29.1862C36.4592 29.2829 36.3499 29.341 36.2335 29.341ZM34.4846 25.7499L36.2342 28.3621L37.9881 25.7562V25.2425C36.8544 25.595 35.6218 25.5971 34.4853 25.2461L34.4846 25.7499Z" fill="#263238"/>
<path d="M41.1414 38.1252C40.948 38.1252 40.791 37.9683 40.791 37.7749V32.8699C40.791 32.6765 40.948 32.5195 41.1414 32.5195C41.3348 32.5195 41.4917 32.6765 41.4917 32.8699V37.7749C41.4917 37.969 41.3348 38.1252 41.1414 38.1252Z" fill="#263238"/>
<path d="M34.4849 37.4244L36.2296 39.1761L37.9884 37.4244L36.9374 28.9899H35.5359L34.4849 37.4244Z" fill="#40C4FF"/>
<path d="M36.2293 39.5265C36.1354 39.5265 36.0464 39.4894 35.9812 39.4235L34.2364 37.6717C34.1608 37.5954 34.1236 37.4881 34.1369 37.3809L35.188 28.9464C35.2097 28.7713 35.359 28.6395 35.5356 28.6395H36.937C37.1136 28.6395 37.2628 28.7713 37.2845 28.9464L38.3356 37.3809C38.3496 37.4888 38.3118 37.5961 38.2347 37.6724L36.4759 39.4242C36.4108 39.4901 36.3218 39.5265 36.2293 39.5265ZM34.8531 37.2982L36.23 38.6808L37.6188 37.2975L36.6273 29.3409H35.8446L34.8531 37.2982Z" fill="#263238"/>
<path d="M36.2338 29.3411H33.7841C33.6839 29.3411 33.59 29.2983 33.5227 29.224C33.4561 29.1498 33.4246 29.0503 33.4358 28.9515L33.7862 25.8179C33.8023 25.6721 33.9088 25.5516 34.0517 25.5166C34.1947 25.4829 34.3439 25.5404 34.4252 25.6623L36.2345 28.3629L38.0479 25.6686C38.1299 25.5474 38.2778 25.4913 38.4221 25.5236C38.5643 25.5586 38.6702 25.6791 38.687 25.8249L39.0373 28.9522C39.0485 29.0517 39.017 29.1505 38.9504 29.2247C38.8839 29.299 38.7893 29.3418 38.6891 29.3418L36.2338 29.3411ZM36.8924 28.6404H38.2974L38.097 26.8507L36.8924 28.6404ZM34.1758 28.6404H35.5779L34.3762 26.8472L34.1758 28.6404Z" fill="#263238"/>
<path d="M44.6449 38.1252C44.4515 38.1252 44.2946 37.9682 44.2946 37.7748V30.9429C44.2946 29.6977 43.5595 28.5667 42.4216 28.0615L38.4653 26.3034L36.5244 29.1869C36.4592 29.2836 36.3499 29.3417 36.2336 29.3417C36.1172 29.3417 36.0079 29.2836 35.9428 29.1862L34.0074 26.2971L30.0477 28.0608C29.1984 28.4399 28.5628 29.1707 28.3043 30.067C28.2503 30.2527 28.0548 30.3599 27.8705 30.3066C27.6841 30.2527 27.5776 30.0586 27.6309 29.8729C27.9469 28.7776 28.7247 27.8842 29.7632 27.4211L33.992 25.5375C34.1461 25.4689 34.3304 25.5207 34.425 25.6623L36.2343 28.3628L38.0477 25.6686C38.1437 25.5277 38.3266 25.4752 38.4808 25.5439L42.7061 27.4218C44.0963 28.0398 44.9953 29.4216 44.9953 30.9436V37.7755C44.9953 37.9689 44.8383 38.1252 44.6449 38.1252Z" fill="#263238"/>
<path d="M22.923 1.33765L18.7188 5.54193H21.1712V11.8484H24.6748V5.54193H27.1273L22.923 1.33765Z" fill="#FF5252"/>
<path d="M24.6744 12.1987H21.1709C20.9775 12.1987 20.8205 12.0417 20.8205 11.8483V5.89223H18.7184C18.5768 5.89223 18.4486 5.80675 18.3946 5.67571C18.3407 5.54468 18.3708 5.39403 18.4703 5.29382L22.6746 1.08954C22.8112 0.952901 23.0334 0.952901 23.17 1.08954L27.3743 5.29382C27.4745 5.39403 27.5046 5.54468 27.45 5.67571C27.3953 5.80675 27.2685 5.89223 27.1269 5.89223H25.0248V11.8483C25.0248 12.0424 24.8678 12.1987 24.6744 12.1987ZM21.5212 11.4979H24.3241V5.54188C24.3241 5.34848 24.481 5.19152 24.6744 5.19152H26.2812L22.9227 1.833L19.5641 5.19152H21.1709C21.3643 5.19152 21.5212 5.34848 21.5212 5.54188V11.4979Z" fill="#263238"/>
</g>
<defs>
<clipPath id="clip0_373_1383">
<rect width="44.8457" height="44.8457" fill="white" transform="translate(0.5)"/>
</clipPath>
</defs>
</svg>
