<svg width="181" height="105" viewBox="0 0 181 105" fill="none" xmlns="http://www.w3.org/2000/svg">
<path d="M10.9809 81.5164C10.1633 81.3825 9.39206 81.9367 9.25816 82.7542C9.12426 83.5718 9.67846 84.343 10.496 84.4769L10.9809 81.5164ZM97.5838 64.3692L99.0817 64.2893L99.0817 64.2893L97.5838 64.3692ZM178.331 24.8347L173.845 13.4387L162.449 17.9254L166.935 29.3214L178.331 24.8347ZM10.496 84.4769C22.8567 86.5014 45.3243 91.6103 64.346 91.2978C73.8554 91.1415 82.7707 89.6359 89.2149 85.5209C95.7991 81.3164 99.6264 74.5003 99.0817 64.2893L96.0859 64.4491C96.5782 73.6759 93.1958 79.4194 87.6003 82.9924C81.8649 86.6549 73.6304 88.1448 64.2967 88.2982C45.6323 88.6049 23.6403 83.5897 10.9809 81.5164L10.496 84.4769ZM99.0817 64.2893C98.1978 47.7224 100.009 35.9656 103.66 27.8658C107.281 19.8313 112.725 15.354 119.325 13.2866C125.999 11.196 133.992 11.5296 142.696 13.4358C151.384 15.3385 160.647 18.7774 169.792 22.7555L170.988 20.0046C161.767 15.9929 152.3 12.4681 143.337 10.5052C134.39 8.5458 125.809 8.11191 118.428 10.4237C110.974 12.7587 104.881 17.8537 100.925 26.6332C96.9972 35.3474 95.1895 47.6465 96.0859 64.4491L99.0817 64.2893Z" fill="#F99621"/>
</svg>
