<svg width="172" height="84" viewBox="0 0 172 84" fill="none" xmlns="http://www.w3.org/2000/svg">
<path d="M169.31 73.8226C170.128 73.6909 170.898 74.2472 171.029 75.065C171.161 75.8829 170.605 76.6527 169.787 76.7845L169.31 73.8226ZM82.0785 56.5157L80.5805 56.4379L82.0785 56.5157ZM0.747272 16.8066L5.27392 5.42642L16.6541 9.95306L12.1275 21.3333L0.747272 16.8066ZM169.787 76.7845C157.344 78.7885 134.735 83.8598 115.585 83.5139C106.012 83.3409 97.038 81.8192 90.5475 77.6941C87.276 75.6149 84.6292 72.8698 82.8786 69.318C81.1306 65.7714 80.3173 61.5044 80.5805 56.4379L83.5765 56.5935C83.3346 61.2494 84.0891 64.9881 85.5695 67.9918C87.0474 70.9903 89.2899 73.3402 92.1566 75.1622C97.9424 78.8394 106.241 80.3446 115.639 80.5144C134.434 80.8539 156.57 75.8745 169.31 73.8226L169.787 76.7845ZM80.5805 56.4379C81.4413 39.8663 79.5973 28.102 75.9078 19.9923C72.2478 11.9473 66.7563 7.4544 60.1006 5.37241C53.372 3.26761 45.3219 3.58821 36.561 5.4802C27.8154 7.36886 18.4946 10.7934 9.29425 14.7574L8.10716 12.0023C17.3847 8.00501 26.9084 4.49556 35.9277 2.54779C44.9316 0.603346 53.5664 0.18507 60.9963 2.50923C68.499 4.85619 74.6396 9.96006 78.6385 18.75C82.6079 27.4751 84.4497 39.7838 83.5765 56.5935L80.5805 56.4379Z" fill="#F99621"/>
</svg>
