<svg width="172" height="84" viewBox="0 0 172 84" fill="none" xmlns="http://www.w3.org/2000/svg">
<path d="M169.31 73.8226C170.128 73.6909 170.898 74.2472 171.03 75.065C171.161 75.8829 170.605 76.6527 169.787 76.7845L169.31 73.8226ZM82.0788 56.5157L80.5808 56.4379L82.0788 56.5157ZM0.747547 16.8066L5.27419 5.42642L16.6544 9.95306L12.1278 21.3333L0.747547 16.8066ZM169.787 76.7845C157.344 78.7885 134.735 83.8598 115.585 83.5139C106.012 83.3409 97.0383 81.8192 90.5477 77.6941C87.2763 75.615 84.6295 72.8698 82.8789 69.318C81.1308 65.7714 80.3176 61.5044 80.5808 56.4379L83.5768 56.5935C83.3349 61.2494 84.0894 64.9881 85.5698 67.9918C87.0477 70.9903 89.2902 73.3402 92.1569 75.1622C97.9427 78.8394 106.241 80.3446 115.64 80.5144C134.434 80.8539 156.57 75.8745 169.31 73.8226L169.787 76.7845ZM80.5808 56.4379C81.4416 39.8663 79.5975 28.102 75.9081 19.9923C72.2481 11.9473 66.7566 7.45441 60.1009 5.37241C53.3723 3.26761 45.3222 3.58821 36.5612 5.48019C27.8157 7.36886 18.4948 10.7934 9.29452 14.7574L8.10744 12.0023C17.3849 8.00501 26.9087 4.49556 35.928 2.54779C44.9318 0.603344 53.5667 0.185072 60.9965 2.50923C68.4993 4.85619 74.6399 9.96007 78.6388 18.75C82.6082 27.4751 84.4499 39.7838 83.5768 56.5935L80.5808 56.4379Z" fill="#F99621"/>
</svg>
