<svg width="56" height="56" viewBox="0 0 56 56" fill="none" xmlns="http://www.w3.org/2000/svg">
<path d="M30.3692 26.6H23.0462L11.7385 52.3384C11.4154 53.0923 11.9539 53.8461 12.7077 53.8461H17.6615C18.0923 53.8461 18.5231 53.6307 18.6308 53.2L30.3692 26.6Z" fill="#1E1E1E"/>
<path d="M44.1538 52.3384L32.7385 26.6H25.5231L37.2615 53.2C37.4769 53.6307 37.8 53.8461 38.2308 53.8461H43.1846C43.9385 53.8461 44.4769 53.0923 44.1538 52.3384Z" fill="#1E1E1E"/>
<path d="M28 46.2C40.1333 46.2 49.9692 36.364 49.9692 24.2308C49.9692 12.0975 40.1333 2.26154 28 2.26154C15.8667 2.26154 6.03076 12.0975 6.03076 24.2308C6.03076 36.364 15.8667 46.2 28 46.2Z" fill="#F99621"/>
<path d="M28 40.2769C36.8621 40.2769 44.0462 33.0928 44.0462 24.2308C44.0462 15.3687 36.8621 8.18463 28 8.18463C19.138 8.18463 11.9539 15.3687 11.9539 24.2308C11.9539 33.0928 19.138 40.2769 28 40.2769Z" fill="white"/>
<path d="M28 34.8923C33.8882 34.8923 38.6616 30.119 38.6616 24.2308C38.6616 18.3425 33.8882 13.5692 28 13.5692C22.1118 13.5692 17.3385 18.3425 17.3385 24.2308C17.3385 30.119 22.1118 34.8923 28 34.8923Z" fill="#F99621"/>
<path d="M28 28.8615C30.5575 28.8615 32.6308 26.7882 32.6308 24.2307C32.6308 21.6732 30.5575 19.6 28 19.6C25.4425 19.6 23.3692 21.6732 23.3692 24.2307C23.3692 26.7882 25.4425 28.8615 28 28.8615Z" fill="white"/>
<path d="M38.8769 8.1846L40.2769 11.8461L43.9385 13.2461C44.2616 13.3538 44.6923 13.2461 44.9077 13.0307L49.7539 8.1846C50.1846 7.75383 50.0769 6.89229 49.4308 6.6769L46.5231 5.59998L45.4462 2.69229C45.2308 2.04613 44.3692 1.83075 43.9385 2.36921L39.0923 7.21536C38.8769 7.43075 38.7692 7.86152 38.8769 8.1846Z" fill="#1E1E1E"/>
<path d="M49 4.95385L28.9692 24.9846C28.4308 25.5231 27.6769 25.5231 27.1385 24.9846C26.6 24.4462 26.6 23.6923 27.1385 23.1539L47.1692 3.12308C47.7077 2.58462 48.4615 2.58462 49 3.12308C49.4308 3.66155 49.4308 4.52308 49 4.95385Z" fill="#DCDAD7"/>
</svg>
