<svg width="32" height="32" viewBox="0 0 32 32" fill="none" xmlns="http://www.w3.org/2000/svg">
<g clip-path="url(#clip0_336_1084)">
<path d="M21.3972 30.9182C21.2373 30.9182 21.1072 30.7881 21.1072 30.6283V28.4878C21.1072 28.4103 21.1374 28.3375 21.1921 28.2828L29.4512 20.0237C29.7277 19.6514 29.8514 19.1867 29.7888 18.7073C29.7491 18.4029 29.6295 18.1118 29.4436 17.8676C29.3357 17.7259 29.2113 17.6034 29.0744 17.5016C28.8681 17.3482 28.5753 17.3698 28.3931 17.5512L28.3901 17.5542L24.1325 21.8121C22.5289 23.4158 20.2404 24.1735 17.8538 23.8912C17.6878 23.8716 17.5208 23.8618 17.3536 23.8618H14.3695C14.2024 23.8618 14.0354 23.8716 13.8694 23.8912C13.5413 23.93 13.2147 23.9492 12.8919 23.9492C10.8662 23.9493 8.97381 23.1953 7.59059 21.8121L3.36415 17.5853L3.36142 17.5825C3.18981 17.4116 2.91612 17.3917 2.71791 17.531C2.54691 17.6512 2.39457 17.8033 2.26853 17.9846C2.12749 18.1875 2.03176 18.4204 1.98913 18.6638C1.89464 19.2036 2.04092 19.7305 2.37912 20.1309L10.531 28.2828C10.5858 28.3375 10.6159 28.4103 10.6159 28.4878V30.6283C10.6159 30.7881 10.4858 30.9182 10.326 30.9182C10.3239 30.9182 10.322 30.9179 10.32 30.9177C10.3191 30.9175 10.3182 30.9174 10.3173 30.9174C10.3183 31.054 10.3461 31.1844 10.3963 31.303C10.4091 31.3331 10.4233 31.3626 10.4389 31.3914C10.4699 31.4485 10.5063 31.5024 10.5477 31.5525C10.6304 31.6528 10.7317 31.7363 10.8459 31.7984C10.9891 31.8762 11.1533 31.9204 11.3277 31.9204H20.4061C20.5456 31.9204 20.6786 31.8921 20.7995 31.841C20.8596 31.8155 20.9172 31.7843 20.9712 31.7478C21.1061 31.6566 21.2171 31.5344 21.2949 31.3914C21.3105 31.3626 21.3247 31.3331 21.3375 31.303C21.3878 31.1841 21.4157 31.0534 21.4166 30.9163C21.4143 30.9165 21.4121 30.9168 21.4099 30.9171C21.4057 30.9177 21.4015 30.9182 21.3972 30.9182ZM16.1515 29.5314V30.0162H16.8492C16.9927 30.0162 17.1157 30.124 17.1352 30.2669C17.1585 30.436 17.022 30.5961 16.8492 30.5961H16.1515V31.2937C16.1515 31.4954 15.9386 31.6379 15.7517 31.5611C15.6455 31.5174 15.5716 31.4091 15.5716 31.2937V30.5961H14.874C14.7167 30.5961 14.584 30.4636 14.584 30.3061C14.584 30.1463 14.7141 30.0162 14.874 30.0162H15.5716V29.5314C15.0686 29.4707 14.587 29.2475 14.2144 28.9044C13.7167 28.4463 13.4285 27.7934 13.4285 27.1161C13.4285 25.7744 14.52 24.6829 15.8616 24.6829C17.2032 24.6829 18.2947 25.7744 18.2947 27.1161C18.2947 28.3484 17.3738 29.3855 16.1515 29.5314Z" fill="#A4E3FF"/>
<path d="M1.98934 18.6638C2.03196 18.4204 2.1277 18.1875 2.26873 17.9847C2.39477 17.8033 2.54712 17.6512 2.71812 17.531C2.91633 17.3917 3.19002 17.4116 3.36163 17.5826L3.36436 17.5853L7.5908 21.8121C8.974 23.1954 10.8664 23.9493 12.8921 23.9492C13.2149 23.9492 13.5415 23.93 13.8696 23.8912C14.0356 23.8716 14.2026 23.8618 14.3697 23.8618H17.3538C17.5211 23.8618 17.6894 23.8717 17.854 23.8912C20.2406 24.1735 22.5291 23.4158 24.1327 21.8121L28.3903 17.5542L28.3933 17.5513C28.5755 17.3698 28.8683 17.3482 29.0746 17.5016C29.2115 17.6034 29.3359 17.7259 29.4438 17.8676C29.6297 18.1118 29.7493 18.403 29.789 18.7073C29.8516 19.1867 29.7279 19.6514 29.4514 20.0237L29.9991 19.476C30.3334 19.1417 30.5175 18.6973 30.5175 18.2246C30.5175 17.7519 30.3334 17.3075 29.9991 16.9732C29.6649 16.6389 29.2204 16.4548 28.7477 16.4548C28.275 16.4548 27.8306 16.6389 27.4963 16.9732L23.5444 20.9254C22.2592 22.2107 20.5003 22.9113 18.6181 22.9114C18.318 22.9114 18.015 22.8935 17.7101 22.8575C17.5563 22.8393 17.4016 22.8302 17.2467 22.8302H14.4769C14.322 22.8302 14.1673 22.8393 14.0135 22.8574C13.7113 22.8932 13.4058 22.9114 13.1053 22.9114C11.2296 22.9114 9.49322 22.2189 8.21599 20.9613L8.20076 20.9465C8.19351 20.9395 8.18626 20.9325 8.17913 20.9254L4.22729 16.9732C3.89302 16.6389 3.44861 16.4548 2.97589 16.4548C2.50314 16.4548 2.05873 16.6389 1.72443 16.9732C1.39013 17.3075 1.20605 17.7519 1.20605 18.2246C1.20605 18.6973 1.39013 19.1417 1.72443 19.476L2.37934 20.1309C2.04112 19.7305 1.89484 19.2036 1.98934 18.6638Z" fill="white"/>
<path d="M7.22446 8.31194C6.55489 8.45884 5.56799 9.19737 5.43354 9.34779C5.41935 9.36368 5.35725 9.43878 5.25827 9.45701C5.20278 9.46722 5.14311 9.46103 5.08596 9.435C5.0424 9.41517 5.00614 9.38213 4.97751 9.34378C4.77144 9.06769 4.51244 8.851 4.22349 8.69989C3.84869 8.50389 3.48479 8.44772 3.1972 8.44768C3.19208 8.44768 3.18695 8.44769 3.18186 8.44773C2.47804 8.4525 1.94972 9.11628 2.10986 9.80166C2.13953 9.92847 2.18025 10.0524 2.23156 10.1722C2.59862 11.0294 4.75739 12.6197 5.98176 13.4498L5.98415 13.4481C6.8499 12.8394 8.90204 11.3336 9.25882 10.5004C9.41399 10.1378 9.46945 9.74023 9.41947 9.34895C9.41881 9.34383 9.41769 9.33882 9.41702 9.3337C8.93062 8.63798 7.99993 8.14181 7.22446 8.31194Z" fill="#FF97A1"/>
<path d="M1.15521 10.5005C1.53598 11.3897 3.87907 13.1036 5.20697 13.9785C5.37503 13.8677 5.64462 13.6869 5.98174 13.4499C4.75737 12.6198 2.5986 11.0294 2.23154 10.1722C2.18023 10.0525 2.13951 9.92855 2.10984 9.80174C1.9497 9.11635 2.47802 8.45258 3.18184 8.4478C3.18693 8.44777 3.19206 8.44775 3.19719 8.44775C3.48477 8.4478 3.84868 8.50396 4.22347 8.69997C4.51242 8.85108 4.77142 9.06777 4.97749 9.34385C5.00613 9.3822 5.04238 9.41525 5.08594 9.43508C5.1431 9.4611 5.20276 9.4673 5.25825 9.45708C5.35723 9.43886 5.41933 9.36376 5.43353 9.34787C5.56797 9.19745 6.55488 8.45891 7.22445 8.31202C7.99991 8.14189 8.93061 8.63806 9.41701 9.33378C9.31259 8.56108 8.80645 7.89248 8.09216 7.5866C7.14518 7.18123 6.05447 7.47585 5.43977 8.30325C5.41226 8.34026 5.37549 8.37062 5.33345 8.39101C5.3296 8.39289 5.32565 8.39453 5.32171 8.39617L5.3184 8.39754C5.28215 8.41262 5.24469 8.42026 5.20701 8.42026C5.11573 8.42026 5.0287 8.37651 4.97425 8.30325C4.76782 8.02538 4.50763 7.80505 4.20087 7.64837C4.17949 7.63746 4.15786 7.6272 4.13614 7.61701L4.12146 7.61006C4.10495 7.60227 4.08845 7.59444 4.0717 7.58722C4.06567 7.58462 4.05957 7.58216 4.05347 7.5797L4.04228 7.57518C3.89281 7.51318 3.73771 7.46773 3.58124 7.44004C3.45445 7.41764 3.32594 7.40634 3.19719 7.40627C2.8959 7.40627 2.60137 7.46695 2.32183 7.58662C1.19686 8.06833 0.67354 9.37548 1.15521 10.5005Z" fill="white"/>
<path d="M14.1166 7.24097C13.6937 7.24097 13.3496 7.585 13.3496 8.00791C13.3496 8.43082 13.6937 8.77489 14.1166 8.77489C14.5395 8.77489 14.8835 8.43082 14.8835 8.00791C14.8835 7.585 14.5395 7.24097 14.1166 7.24097Z" fill="#A4E3FF"/>
<path d="M29.0869 6.96814C29.0869 6.46229 28.6931 6.02846 28.1902 5.98047L25.4448 5.9805C24.9427 6.02846 24.5488 6.46229 24.5488 6.96814V7.14181H29.0869V6.96814Z" fill="white"/>
<path d="M17.8324 7.24092C17.4095 7.24092 17.0655 7.58496 17.0655 8.00787C17.0655 8.43077 17.4095 8.77484 17.8324 8.77484C18.2553 8.77484 18.5994 8.43078 18.5994 8.00787C18.5994 7.58495 18.2553 7.24092 17.8324 7.24092ZM13.9955 1.70632C13.3712 1.70906 12.866 2.22367 12.8567 2.84791C12.8565 2.85911 12.8564 2.87032 12.8564 2.88156V4.3144C12.8564 5.55112 13.8152 6.56747 15.0283 6.66104H17.8213C19.1152 6.66104 20.1679 5.60833 20.1679 4.3144V3.94904H15.9744C15.8146 3.94904 15.6845 3.81896 15.6845 3.65909V1.7063H14.0053C14.002 1.7063 13.9987 1.70631 13.9955 1.70632Z" fill="#A4E3FF"/>
<path d="M14.1279 6.6611H15.0286C13.8155 6.56753 12.8568 5.55118 12.8568 4.31446V2.88162C12.8568 2.87038 12.8569 2.85917 12.857 2.84797C12.8663 2.22373 13.3715 1.70912 13.9958 1.70638C13.9991 1.70637 14.0024 1.70636 14.0057 1.70636H15.6848V0.657227H14.0057C12.7821 0.657227 11.7843 1.65269 11.7814 2.87627L11.7812 2.88163V4.31447C11.7812 5.60839 12.8339 6.6611 14.1279 6.6611Z" fill="white"/>
<path d="M30.2957 8.80249H24.1588C23.885 8.80249 23.6631 9.02445 23.6631 9.29823V10.1568L25.6575 10.9713C25.767 11.0161 25.8378 11.1214 25.8378 11.2398V11.9936H27.7986V11.2398C27.7986 11.1214 27.8694 11.0161 27.9789 10.9713L31.0597 9.71315V9.47081C31.0089 9.09411 30.6861 8.80249 30.2957 8.80249Z" fill="#FF97A1"/>
<path d="M30.2956 7.72168H23.3406C22.9194 7.72168 22.5767 8.06441 22.5767 8.48568V9.71308L23.663 10.1568V9.29818C23.663 9.02439 23.885 8.80244 24.1588 8.80244H30.2956C30.686 8.80244 31.0088 9.09406 31.0596 9.47075V8.48568C31.0596 8.06441 30.7169 7.72168 30.2956 7.72168Z" fill="white"/>
<path d="M28.3781 12.2833C28.3781 12.4432 28.248 12.5733 28.0882 12.5733H25.5475C25.3876 12.5733 25.2575 12.4432 25.2575 12.2833V11.4344L23.9849 10.9146V13.449C23.9849 13.8394 24.2765 14.1622 24.6532 14.213H29.9546C30.3758 14.213 30.7186 13.8703 30.7186 13.449V10.4785L28.3781 11.4344V12.2833Z" fill="#FF97A1"/>
<path d="M23.9848 13.449V10.9146L22.917 10.4785V13.449C22.917 13.8703 23.2597 14.213 23.681 14.213H24.6531C24.2764 14.1622 23.9848 13.8394 23.9848 13.449ZM15.8615 28.9692C16.8834 28.9692 17.7148 28.1379 17.7148 27.116C17.7148 26.0941 16.8834 25.2627 15.8615 25.2627C14.8396 25.2627 14.0083 26.0941 14.0083 27.116C14.0083 28.1379 14.8396 28.9692 15.8615 28.9692Z" fill="white"/>
<path d="M12.2581 17.0571C12.267 17.0582 12.2763 17.0594 12.2853 17.0615C12.4902 17.0935 12.6986 17.1097 12.9042 17.1097C15.1117 17.1097 16.9076 15.3138 16.9076 13.1064C16.9076 12.714 16.8509 12.3262 16.7391 11.9538C16.4471 11.8992 16.152 11.8716 15.8618 11.8716C13.2327 11.8716 11.0938 14.0105 11.0938 16.6397V16.6775C11.4588 16.8627 11.8496 16.9903 12.2552 17.0567L12.2581 17.0571Z" fill="#FFE578"/>
<path d="M15.8619 22.2504C17.7108 22.2504 19.215 20.7462 19.215 18.8973V17.4864C18.1988 17.1742 17.3189 16.5107 16.7357 15.6172C15.8823 16.9151 14.4509 17.6897 12.9042 17.6897C12.776 17.6897 12.643 17.6838 12.5088 17.6722V18.8973C12.5088 20.7462 14.013 22.2504 15.8619 22.2504Z" fill="#FFDFCA"/>
<path d="M13.8748 22.289C13.297 21.9492 12.8122 21.4653 12.4716 20.8882C12.1165 20.2865 11.9288 19.598 11.9288 18.8971V17.5842C11.6422 17.522 11.3614 17.4322 11.0938 17.3173V22.0255C11.9788 22.3046 12.9142 22.3933 13.8748 22.289ZM19.5634 16.9821C19.8926 17.0668 20.2312 17.1096 20.571 17.1096C20.5846 17.1096 20.5982 17.1093 20.6118 17.1089C20.6179 17.1088 20.6239 17.1086 20.6299 17.1085V16.6396C20.6299 14.59 19.3247 12.7758 17.3804 12.1208C17.4515 12.4447 17.4875 12.7762 17.4875 13.1063C17.4875 13.7774 17.344 14.4258 17.0612 15.0335C17.5913 15.999 18.5031 16.7091 19.5634 16.9821ZM20.6299 22.0255V17.6883C20.6234 17.6885 20.6168 17.6887 20.6103 17.6888C20.5972 17.6892 20.5841 17.6895 20.571 17.6895C20.3109 17.6895 20.0513 17.6676 19.7948 17.6242V18.8971C19.7948 19.598 19.6072 20.2865 19.252 20.8882C18.9115 21.4653 18.4267 21.9492 17.8489 22.289C18.8094 22.3933 19.7448 22.3046 20.6299 22.0255Z" fill="#FFE578"/>
<path d="M30.2952 7.14176H29.6667V6.96809C29.6667 6.15749 29.0346 5.46939 28.2277 5.40159C28.2196 5.4009 28.2115 5.40056 28.2034 5.40056H25.4321C25.424 5.40056 25.4158 5.40089 25.4078 5.40159C24.6009 5.46939 23.9688 6.15749 23.9688 6.96809V7.14176H23.3402C22.5992 7.14176 21.9964 7.74462 21.9964 8.48566V9.90784C21.9964 10.0262 22.0671 10.1315 22.1767 10.1763L22.3371 10.2418V13.4491C22.3371 14.1901 22.94 14.793 23.681 14.793H29.9545C30.6955 14.793 31.2984 14.1901 31.2984 13.4491V10.2418L31.4588 10.1763C31.5683 10.1315 31.6391 10.0262 31.6391 9.90784V8.48566C31.6391 7.74462 31.0362 7.14176 30.2952 7.14176ZM31.0592 9.47072V9.71306L27.9784 10.9713C27.8689 11.016 27.7981 11.1214 27.7981 11.2397V11.9935H25.8373V11.2397C25.8373 11.1214 25.7666 11.016 25.657 10.9713L23.6626 10.1567L22.5763 9.71306V8.48566C22.5763 8.06439 22.919 7.72166 23.3402 7.72166H30.2952C30.7165 7.72166 31.0592 8.06439 31.0592 8.48566V9.47072ZM30.7185 13.4491C30.7185 13.8704 30.3757 14.2131 29.9545 14.2131H23.681C23.2597 14.2131 22.917 13.8704 22.917 13.4491V10.4786L23.9848 10.9147L25.2574 11.4345V12.2834C25.2574 12.4433 25.3875 12.5734 25.5474 12.5734H28.0881C28.2479 12.5734 28.378 12.4433 28.378 12.2834V11.4345L30.7185 10.4786V13.4491ZM24.5487 6.96809C24.5487 6.46225 24.9426 6.02842 25.4446 5.98046L28.1901 5.98043C28.6929 6.02842 29.0868 6.46224 29.0868 6.96809V7.14176H24.5487V6.96809ZM5.04951 14.5684C5.09653 14.5987 5.15089 14.6147 5.2068 14.6147C5.2627 14.6147 5.31707 14.5987 5.36408 14.5684C5.75787 14.3141 9.22765 12.0459 9.79165 10.7288C10.3992 9.30985 9.73911 7.66114 8.32019 7.05358C7.79002 6.82661 7.21352 6.76775 6.65301 6.88352C6.09942 6.99782 5.59949 7.27399 5.2068 7.68234C4.81411 7.27396 4.31418 6.99779 3.76055 6.88349C3.20004 6.76779 2.62355 6.82658 2.09337 7.05358C0.674491 7.66114 0.0143889 9.30984 0.621954 10.7288C1.18595 12.0459 4.65573 14.3141 5.04951 14.5684ZM3.19698 7.40629C3.32494 7.40629 3.45413 7.41764 3.58103 7.44006C3.73751 7.46775 3.89261 7.51319 4.04207 7.5752L4.05326 7.57972C4.05936 7.58217 4.06545 7.58463 4.0715 7.58724C4.08824 7.59446 4.10474 7.60228 4.12125 7.61008L4.13593 7.61702C4.15765 7.62722 4.17928 7.63747 4.20067 7.64839C4.50742 7.80507 4.76761 8.0254 4.97404 8.30327C5.02849 8.37653 5.11553 8.42027 5.2068 8.42027C5.24448 8.42027 5.28195 8.41263 5.3182 8.39755L5.32151 8.39618C5.32545 8.39455 5.32939 8.39291 5.33324 8.39102C5.37529 8.37064 5.41205 8.34027 5.43957 8.30326C6.05425 7.47586 7.14497 7.18124 8.09196 7.58662C8.80624 7.89249 9.31239 8.56109 9.4168 9.33379C9.41747 9.33892 9.41859 9.34392 9.41926 9.34905C9.46924 9.74032 9.41377 10.1378 9.2586 10.5005C8.90182 11.3337 6.84968 12.8395 5.98394 13.4482L5.98154 13.4499C5.64442 13.6869 5.37483 13.8677 5.20677 13.9785C3.87887 13.1036 1.53578 11.3897 1.15501 10.5005C0.673339 9.3755 1.19666 8.06834 2.32162 7.58662C2.60116 7.46696 2.89569 7.40629 3.19698 7.40629ZM13.1492 7.07215C12.9042 7.32511 12.7694 7.65698 12.7694 8.008C12.7694 8.75067 13.3736 9.35487 14.1163 9.35487C14.8589 9.35487 15.4631 8.75067 15.4631 8.008C15.4631 7.73298 15.3796 7.46811 15.2215 7.24105H16.7271C16.5689 7.46811 16.4854 7.73298 16.4854 8.008C16.4854 8.75067 17.0896 9.35487 17.8323 9.35487C18.5749 9.35487 19.1791 8.75067 19.1791 8.008C19.1791 7.65698 19.0444 7.32512 18.7994 7.07215C19.9652 6.65737 20.7476 5.55072 20.7476 4.31453V3.01307C20.7476 2.33775 21.2971 1.78834 21.9724 1.78834C22.1322 1.78834 22.2623 1.65828 22.2623 1.4984C22.2623 1.33851 22.1322 1.20845 21.9724 1.20845C20.9773 1.20845 20.1678 2.018 20.1678 3.01307V3.36926H16.2642V0.367338C16.2642 0.207453 16.1342 0.0773926 15.9743 0.0773926H14.0052C12.4589 0.0773926 11.2009 1.33539 11.2009 2.88169V4.31453C11.2009 5.55072 11.9834 6.65736 13.1492 7.07215ZM11.7808 2.88168L11.7809 2.87632C11.7838 1.65274 12.7816 0.657277 14.0052 0.657277H15.6843V3.6592C15.6843 3.81907 15.8144 3.94915 15.9743 3.94915H20.1677V4.31451C20.1677 5.60845 19.115 6.66115 17.8211 6.66115H14.1274C12.8335 6.66115 11.7808 5.60845 11.7808 4.31451V2.88168H11.7808ZM17.8323 8.77497C17.4094 8.77497 17.0653 8.4309 17.0653 8.00799C17.0653 7.58508 17.4094 7.24105 17.8323 7.24105C18.2552 7.24105 18.5992 7.58509 18.5992 8.00799C18.5992 8.4309 18.2552 8.77497 17.8323 8.77497ZM14.1163 8.77497C13.6934 8.77497 13.3493 8.4309 13.3493 8.00799C13.3493 7.58508 13.6934 7.24105 14.1163 7.24105C14.5392 7.24105 14.8832 7.58509 14.8832 8.00799C14.8832 8.4309 14.5392 8.77497 14.1163 8.77497ZM15.8615 24.6829C14.5199 24.6829 13.4284 25.7744 13.4284 27.1161C13.4284 27.7934 13.7166 28.4463 14.2143 28.9044C14.5869 29.2475 15.0685 29.4707 15.5715 29.5314V30.0162H14.8739C14.714 30.0162 14.5839 30.1463 14.5839 30.3061C14.5839 30.4636 14.7166 30.5961 14.8739 30.5961H15.5715V31.2937C15.5715 31.4091 15.6454 31.5174 15.7516 31.5611C15.9385 31.6379 16.1514 31.4954 16.1514 31.2937V30.5961H16.8491C17.0219 30.5961 17.1584 30.436 17.1351 30.2669C17.1156 30.124 16.9927 30.0162 16.8491 30.0162H16.1514V29.5314C17.3737 29.3855 18.2946 28.3484 18.2946 27.1161C18.2946 25.7744 17.2031 24.6829 15.8615 24.6829ZM15.8615 25.2628C16.8834 25.2628 17.7147 26.0942 17.7147 27.1161C17.7147 28.138 16.8834 28.9693 15.8615 28.9693C14.8396 28.9693 14.0083 28.138 14.0083 27.1161C14.0083 26.0942 14.8396 25.2628 15.8615 25.2628Z" fill="#272772"/>
<path d="M28.7475 15.875C28.1199 15.875 27.5298 16.1194 27.086 16.5632L23.1342 20.5154C22.5836 21.0659 21.9361 21.5021 21.2096 21.8118V16.6397C21.2096 16.1485 21.1416 15.6592 21.0074 15.1854C20.7472 14.2667 20.2415 13.4308 19.545 12.7679C18.8463 12.103 17.9833 11.6391 17.0501 11.4265C17.0377 11.4226 17.0241 11.4194 17.0088 11.417C16.6303 11.3339 16.2443 11.2917 15.8616 11.2917C14.6752 11.2917 13.551 11.6739 12.6104 12.3971C11.6998 13.097 11.0271 14.0873 10.7162 15.1854C10.5818 15.6604 10.5136 16.1497 10.5136 16.6397V21.8118C9.78706 21.5021 9.13958 21.066 8.58902 20.5154L4.63718 16.5633C4.19341 16.1194 3.60335 15.875 2.97565 15.875C2.34804 15.875 1.75798 16.1194 1.3142 16.5632C0.870393 17.007 0.625977 17.597 0.625977 18.2246C0.625977 18.8522 0.870393 19.4423 1.3142 19.8861L10.0361 28.6079V30.6283C10.0361 30.7852 10.1593 30.9122 10.3167 30.9174C10.3169 30.9174 10.3171 30.9174 10.3173 30.9174C10.3182 30.9175 10.3192 30.9176 10.3201 30.9177C10.322 30.918 10.324 30.9183 10.326 30.9183C10.4859 30.9183 10.616 30.7882 10.616 30.6283V28.4878C10.616 28.4104 10.5858 28.3376 10.531 28.2828L2.37916 20.1309L1.72425 19.476C1.38995 19.1418 1.20587 18.6973 1.20587 18.2246C1.20587 17.7519 1.38995 17.3075 1.72425 16.9732C2.05855 16.639 2.50296 16.4549 2.97571 16.4549C3.44843 16.4549 3.89284 16.639 4.22711 16.9733L8.17895 20.9254C8.1861 20.9325 8.19331 20.9396 8.20058 20.9465L8.21581 20.9613C9.49303 22.2189 11.2294 22.9115 13.1051 22.9114C13.4056 22.9114 13.7112 22.8932 14.0133 22.8575C14.1671 22.8394 14.3218 22.8303 14.4767 22.8303H17.2465C17.4014 22.8303 17.5573 22.8394 17.7099 22.8575C18.0149 22.8936 18.3178 22.9114 18.6179 22.9114C20.5002 22.9113 22.259 22.2107 23.5442 20.9254L27.4961 16.9733C27.8304 16.639 28.2748 16.4549 28.7475 16.4549C29.2203 16.4549 29.6647 16.639 29.999 16.9732C30.3332 17.3075 30.5173 17.7519 30.5173 18.2246C30.5173 18.6973 30.3332 19.1418 29.999 19.476L29.4513 20.0237L21.1922 28.2828C21.1374 28.3376 21.1073 28.4104 21.1073 28.4878V30.6283C21.1073 30.7882 21.2373 30.9183 21.3972 30.9183C21.4015 30.9183 21.4057 30.9177 21.4099 30.9171C21.4121 30.9168 21.4143 30.9165 21.4166 30.9164C21.4169 30.9163 21.4172 30.9163 21.4175 30.9163C21.5687 30.9056 21.6871 30.7791 21.6871 30.6283V28.6079L30.409 19.8861C30.8528 19.4423 31.0972 18.8522 31.0972 18.2246C31.0972 17.597 30.8528 17.0069 30.409 16.5632C29.9652 16.1193 29.3751 15.8749 28.7475 15.875ZM11.0935 16.6397C11.0935 14.0106 13.2325 11.8716 15.8616 11.8716C16.1517 11.8716 16.4468 11.8993 16.7389 11.9539C16.8507 12.3263 16.9073 12.714 16.9073 13.1064C16.9073 15.3139 15.1114 17.1098 12.904 17.1098C12.6984 17.1098 12.49 17.0935 12.285 17.0615C12.276 17.0594 12.2668 17.0583 12.2579 17.0572L12.255 17.0568C11.8493 16.9904 11.4586 16.8627 11.0935 16.6775L11.0935 16.6397ZM17.4872 13.1064C17.4872 12.7764 17.4512 12.4449 17.3802 12.121C19.3245 12.776 20.6297 14.5902 20.6297 16.6397V17.1086C20.6237 17.1087 20.6176 17.1089 20.6116 17.1091C20.598 17.1094 20.5844 17.1098 20.5708 17.1098C20.2309 17.1098 19.8924 17.0669 19.5632 16.9823C18.5029 16.7092 17.5911 15.9991 17.0609 15.0336C17.3438 14.4259 17.4872 13.7776 17.4872 13.1064ZM12.5085 17.6722C12.6427 17.6838 12.7757 17.6897 12.904 17.6897C14.4506 17.6897 15.882 16.9151 16.7354 15.6172C17.3186 16.5107 18.1985 17.1742 19.2147 17.4864V18.8973C19.2147 20.7462 17.7105 22.2504 15.8616 22.2504C14.0127 22.2504 12.5085 20.7462 12.5085 18.8973V17.6722H12.5085ZM19.2518 20.8884C19.6069 20.2867 19.7946 19.5982 19.7946 18.8973V17.6244C20.0511 17.6678 20.3107 17.6896 20.5708 17.6897C20.5839 17.6897 20.597 17.6893 20.6101 17.689C20.6166 17.6888 20.6232 17.6886 20.6297 17.6885V22.0257C19.7446 22.3048 18.8091 22.3935 17.8487 22.2891C18.4264 21.9493 18.9113 21.4655 19.2518 20.8884ZM11.0935 17.3174C11.3612 17.4323 11.642 17.5221 11.9286 17.5844V18.8973C11.9286 19.5982 12.1163 20.2867 12.4714 20.8884C12.812 21.4655 13.2968 21.9494 13.8745 22.2891C12.914 22.3935 11.9786 22.3048 11.0935 22.0257V17.3174Z" fill="#272772"/>
</g>
<defs>
<clipPath id="clip0_336_1084">
<rect width="32" height="32" fill="white"/>
</clipPath>
</defs>
</svg>
